<svg width="21" height="12" viewBox="0 0 21 12" fill="none" xmlns="http://www.w3.org/2000/svg">
<path d="M8.64 11.472L7.424 8.17598H3.008L1.792 11.472H0L4.336 -1.52588e-05H6.128L10.448 11.472H8.64ZM5.792 3.45598C5.76 3.33865 5.70133 3.16265 5.616 2.92798C5.54133 2.68265 5.46667 2.43732 5.392 2.19198C5.31733 1.93598 5.25867 1.72798 5.216 1.56798C5.16267 1.78132 5.09867 2.01598 5.024 2.27198C4.96 2.51732 4.896 2.74665 4.832 2.95998C4.768 3.16265 4.71467 3.32798 4.672 3.45598L3.52 6.67198H6.944L5.792 3.45598ZM15.1888 0.0479841C16.1701 0.0479841 16.9754 0.170651 17.6048 0.415984C18.2341 0.661318 18.7034 1.02932 19.0128 1.51998C19.3221 1.99998 19.4768 2.60798 19.4768 3.34398C19.4768 3.93065 19.3648 4.42665 19.1408 4.83198C18.9274 5.22665 18.6501 5.55198 18.3088 5.80798C17.9674 6.05332 17.6101 6.25065 17.2368 6.39998L20.4368 11.472H18.4528L15.7008 6.84798H13.7168V11.472H11.9888V0.0479841H15.1888ZM15.0768 1.51998H13.7168V5.40798H15.1568C15.7434 5.40798 16.2234 5.33332 16.5968 5.18398C16.9808 5.03465 17.2581 4.81065 17.4288 4.51198C17.6101 4.21332 17.7008 3.84532 17.7008 3.40798C17.7008 2.94932 17.6048 2.58665 17.4128 2.31998C17.2314 2.04265 16.9434 1.83998 16.5488 1.71198C16.1648 1.58398 15.6741 1.51998 15.0768 1.51998Z" fill="#BCBCBC"/>
</svg>
