<svg width="14" height="18" viewBox="0 0 14 18" fill="none" xmlns="http://www.w3.org/2000/svg">
<path d="M13.9253 16.7055L10.3164 2.26502C10.1551 1.61725 9.78146 1.04219 9.25508 0.631643C8.7287 0.221093 8.07995 -0.00128535 7.4124 5.58896e-06H6.5381C5.87106 -0.000616662 5.22301 0.222068 4.69724 0.632566C4.17147 1.04306 3.79824 1.61775 3.63705 2.26502L0.0281808 16.7055C-0.0339458 16.9612 0.00756408 17.2311 0.143658 17.4564C0.279753 17.6816 0.499389 17.8439 0.754668 17.9079C1.00995 17.9718 1.28016 17.9322 1.50637 17.7977C1.73258 17.6633 1.89644 17.4448 1.96221 17.19L3.26819 11.9631H10.6853L11.9913 17.19C12.057 17.4448 12.2209 17.6633 12.4471 17.7977C12.6733 17.9322 12.9435 17.9718 13.1988 17.9079C13.4541 17.8439 13.6737 17.6816 13.8098 17.4564C13.9459 17.2311 13.9874 16.9612 13.9253 16.7055ZM3.76665 9.96925L5.57208 2.74952C5.62589 2.53376 5.7503 2.34218 5.92553 2.20525C6.10075 2.06833 6.31672 1.99392 6.53909 1.99385H7.4144C7.63677 1.99392 7.85274 2.06833 8.02796 2.20525C8.20319 2.34218 8.3276 2.53376 8.38141 2.74952L10.1858 9.96925H3.76665Z" fill="white"/>
</svg>
