<svg width="14" height="16" viewBox="0 0 14 16" fill="none" xmlns="http://www.w3.org/2000/svg">
<path d="M0.612457 15.9224C1.13333 16.1369 1.73591 15.8918 1.95039 15.3709L3.48237 11.7248H10.2231L11.7551 15.3709C11.9185 15.759 12.2964 15.9939 12.6947 15.9939C12.8275 15.9939 12.9602 15.9633 13.093 15.9122C13.6139 15.6977 13.859 15.0951 13.6445 14.5743L11.8572 10.2949L7.81278 0.623007C7.64937 0.245118 7.28169 0 6.87316 0C6.46464 0 6.08674 0.245118 5.93355 0.623007L1.88911 10.2949L0.101796 14.5743C-0.153535 15.1054 0.0915829 15.7079 0.612457 15.9224ZM6.84253 3.66655L9.35498 9.68214H4.33007L6.84253 3.66655Z" fill="white"/>
</svg>
