<svg width="18" height="16" viewBox="0 0 18 16" fill="none" xmlns="http://www.w3.org/2000/svg">
<path d="M10.1336 1.13798C10.1336 0.512091 9.61832 0 8.98855 0C8.35878 0 7.84351 0.512091 7.84351 1.13798V3.33428H1.14504C0.515267 3.33428 0 3.84637 0 4.47226C0 5.09815 0.515267 5.61024 1.14504 5.61024H4.15649C4.64886 6.71408 5.71374 8.88762 7.4313 10.9929C6.10305 12.2674 4.48855 13.3371 2.58779 13.7468C1.96947 13.8834 1.58015 14.4865 1.71756 15.101C1.83206 15.6358 2.31298 16 2.83969 16C2.91985 16 3 15.9886 3.08015 15.9772C5.45038 15.4651 7.4084 14.1906 9 12.6771C10.5802 14.1906 12.5496 15.4651 14.9198 15.9772C15 16 15.0802 16 15.1603 16C15.687 16 16.1565 15.6358 16.2824 15.101C16.4198 14.4865 16.0305 13.8834 15.4122 13.7468C13.5115 13.3371 11.8969 12.2674 10.5687 10.9929C12.2863 8.88762 13.3626 6.71408 13.8435 5.61024H16.855C17.4847 5.61024 18 5.09815 18 4.47226C18 3.84637 17.4847 3.33428 16.855 3.33428H10.1565V1.13798H10.1336ZM8.98855 9.26316C7.95802 7.9431 7.19084 6.60028 6.69847 5.61024H11.2901C10.7863 6.60028 10.0305 7.93172 8.98855 9.26316Z" fill="white"/>
</svg>
