<svg width="13" height="22" viewBox="0 0 13 22" fill="none" xmlns="http://www.w3.org/2000/svg">
<path d="M5.7483 1.80273C3.54095 1.80273 1.72449 3.6192 1.72449 5.82654C1.72449 6.89573 2.16136 7.87294 2.87415 8.59722C1.11517 9.74688 0 11.7128 0 13.8742C0 17.3576 2.83966 20.1973 6.32313 20.1973C8.34653 20.1973 10.3469 19.6684 12.0714 18.6567L10.9218 16.6678C9.51918 17.4726 7.93265 17.898 6.32313 17.898C4.09279 17.898 2.29932 16.116 2.29932 13.8742C2.29728 12.9887 2.58823 12.1274 3.12682 11.4245C3.66541 10.7216 4.42139 10.2167 5.27694 9.98831L11.2667 8.37879L10.6688 6.15995L5.55286 7.55103C4.69061 7.43607 4.02381 6.72328 4.02381 5.82654C4.02381 4.86083 4.78259 4.10205 5.7483 4.10205C6.04721 4.10205 6.32313 4.18253 6.61054 4.33199L7.7602 2.34307C7.15088 1.98668 6.44959 1.80273 5.7483 1.80273Z" fill="white"/>
</svg>
