<svg width="180" height="54" viewBox="0 0 180 54" fill="none" xmlns="http://www.w3.org/2000/svg">
<path d="M49.8335 31.4258C50.0932 31.4251 50.0932 31.4251 50.3582 31.4243C50.6474 31.425 50.6474 31.425 50.9424 31.4257C51.1461 31.4254 51.3497 31.4252 51.5596 31.4249C52.2512 31.4241 52.9428 31.4248 53.6344 31.4255C54.1316 31.4253 54.6287 31.425 55.1259 31.4246C56.2116 31.4239 57.2973 31.4239 58.3829 31.4244C59.9973 31.4251 61.6117 31.4248 63.2261 31.4241C66.1088 31.4231 68.9914 31.4232 71.874 31.4238C74.3966 31.4243 76.9192 31.4244 79.4417 31.4242C79.6088 31.4241 79.7758 31.4241 79.9479 31.4241C80.626 31.424 81.304 31.424 81.982 31.4239C88.348 31.4233 94.7141 31.4239 101.08 31.4249C106.741 31.4259 112.402 31.4258 118.064 31.4248C124.418 31.4238 130.772 31.4234 137.126 31.424C137.803 31.424 138.479 31.4241 139.156 31.4242C139.323 31.4242 139.49 31.4242 139.661 31.4242C142.183 31.4244 144.704 31.4242 147.226 31.4237C150.092 31.4231 152.958 31.4232 155.824 31.4243C157.429 31.4249 159.035 31.4249 160.641 31.4242C161.837 31.4237 163.032 31.4242 164.228 31.4252C164.714 31.4254 165.201 31.4253 165.687 31.4248C166.343 31.4242 166.999 31.4248 167.656 31.4257C167.848 31.4253 168.041 31.4248 168.24 31.4243C168.413 31.4248 168.586 31.4253 168.765 31.4258C168.915 31.4258 169.065 31.4259 169.22 31.4259C169.562 31.4506 169.562 31.4506 169.759 31.6484C169.781 32.0173 169.79 32.387 169.793 32.7565C169.796 32.9936 169.798 33.2307 169.801 33.475C169.803 33.8628 169.803 33.8628 169.805 34.2585C169.806 34.3897 169.807 34.5209 169.808 34.6561C169.812 35.3515 169.815 36.047 169.817 36.7424C169.819 37.4588 169.826 38.175 169.833 38.8913C169.839 39.4435 169.84 39.9957 169.841 40.5479C169.842 40.9396 169.848 41.3313 169.853 41.7229C169.847 44.0756 169.847 44.0756 168.971 45.099C167.816 45.9105 166.728 46.0029 165.353 45.9875C165.051 45.9889 165.051 45.9889 164.742 45.9903C164.065 45.9924 163.389 45.9889 162.712 45.9853C162.223 45.9857 161.733 45.9864 161.244 45.9874C160.179 45.9888 159.114 45.9877 158.049 45.9845C156.466 45.9797 154.883 45.9795 153.3 45.9802C150.636 45.9812 147.973 45.9786 145.309 45.9738C142.672 45.9692 140.035 45.9661 137.398 45.9653C137.234 45.9652 137.07 45.9651 136.901 45.9651C136.068 45.9648 135.235 45.9646 134.403 45.9644C128.504 45.9627 122.606 45.9574 116.708 45.9499C110.978 45.9426 105.248 45.937 99.5183 45.9336C99.3416 45.9335 99.165 45.9334 98.983 45.9333C97.2092 45.9323 95.4355 45.9313 93.6617 45.9303C90.0484 45.9283 86.435 45.9261 82.8216 45.9237C82.6555 45.9236 82.4894 45.9235 82.3182 45.9234C71.2243 45.9161 60.1303 45.9035 49.0364 45.8902C48.8118 45.2133 48.8145 44.6936 48.814 43.9797C48.8137 43.8468 48.8133 43.7139 48.813 43.577C48.8121 43.1381 48.8127 42.6991 48.8133 42.2602C48.8132 41.9555 48.813 41.6509 48.8128 41.3462C48.8125 40.708 48.8129 40.0698 48.8138 39.4317C48.8149 38.6119 48.8143 37.7922 48.8131 36.9725C48.8124 36.3437 48.8126 35.7148 48.8131 35.086C48.8133 34.7836 48.8131 34.4812 48.8127 34.1788C48.8122 33.7573 48.8129 33.3358 48.814 32.9143C48.8142 32.6741 48.8143 32.4339 48.8145 32.1864C48.8534 31.3495 49.0781 31.4259 49.8335 31.4258ZM64.3975 34.6155C63.806 35.4195 63.7309 36.0103 63.7282 37.0007C63.7276 37.1326 63.7271 37.2645 63.7265 37.4003C63.7261 37.6781 63.7272 37.9559 63.7297 38.2337C63.7328 38.6561 63.7297 39.0782 63.7259 39.5006C63.7263 39.7717 63.727 40.0428 63.7282 40.3139C63.7289 40.5582 63.7295 40.8026 63.7302 41.0544C63.814 41.8015 64.0138 42.2818 64.3975 42.9232C65.057 43.4436 65.7524 43.3902 66.5638 43.3188C67.2607 42.9921 67.5112 42.7815 67.9423 42.1319C67.9856 41.6124 68.0069 41.1142 68.0085 40.5943C68.0098 40.4439 68.0111 40.2934 68.0125 40.1383C68.0145 39.8201 68.0154 39.5019 68.0153 39.1836C68.0162 38.6982 68.0233 38.2131 68.0308 37.7278C68.032 37.4182 68.0327 37.1086 68.0331 36.799C68.0359 36.6545 68.0388 36.5101 68.0417 36.3612C68.0353 35.6386 67.9616 35.2391 67.5697 34.625C66.99 34.0592 66.5926 34.0395 65.8122 33.9958C65.1895 34.0338 64.8633 34.2026 64.3975 34.6155ZM143.96 34.6155C143.156 35.8272 143.333 37.2377 143.332 38.6457C143.33 38.8655 143.327 39.0853 143.325 39.3117C143.285 41.3089 143.285 41.3089 144.194 43.0097C144.901 43.4045 145.327 43.4191 146.126 43.3188C146.823 42.9921 147.074 42.7815 147.505 42.1319C147.552 41.5889 147.552 41.5889 147.529 41.0069C147.524 40.7121 147.524 40.7121 147.519 40.4112C147.514 40.261 147.509 40.1109 147.505 39.9561C147.18 39.9561 146.855 39.9561 146.52 39.9561C146.39 40.6089 146.26 41.2616 146.126 41.9341C145.736 41.9341 145.346 41.9341 144.945 41.9341C144.945 39.7801 144.945 37.626 144.945 35.4067C145.334 35.4067 145.724 35.4067 146.126 35.4067C146.256 35.9289 146.386 36.4511 146.52 36.9891C146.845 36.9891 147.17 36.9891 147.505 36.9891C147.573 36.1108 147.606 35.4216 147.222 34.6155C146.207 33.8201 144.962 33.7616 143.96 34.6155ZM159.124 35.0111C158.724 36.1381 158.882 37.4557 158.878 38.6333C158.874 38.8917 158.87 39.1502 158.865 39.4164C158.851 41.254 158.851 41.254 159.518 42.9232C160.163 43.4557 160.878 43.3898 161.684 43.3188C162.381 42.9921 162.632 42.7815 163.063 42.1319C163.106 41.6124 163.127 41.1142 163.129 40.5943C163.13 40.4439 163.131 40.2934 163.133 40.1383C163.135 39.8201 163.136 39.5019 163.136 39.1836C163.137 38.6982 163.144 38.2131 163.151 37.7278C163.152 37.4182 163.153 37.1086 163.153 36.799C163.156 36.6545 163.159 36.5101 163.162 36.3612C163.156 35.6386 163.082 35.2391 162.69 34.625C162.11 34.0593 161.713 34.0411 160.933 33.9935C160.122 34.0473 159.677 34.4553 159.124 35.0111ZM55.5353 34.2199C55.582 34.37 55.6287 34.5202 55.6768 34.6749C57.3743 40.1966 57.3743 40.1966 57.3078 43.121C57.7627 43.121 58.2176 43.121 58.6863 43.121C58.6823 42.9259 58.6782 42.7308 58.674 42.5299C58.691 39.6117 59.5606 36.9732 60.4588 34.2199C60.0688 34.2199 59.6789 34.2199 59.2771 34.2199C58.5655 36.1559 58.5655 36.1559 58.2925 38.1759C58.1625 38.1759 58.0325 38.1759 57.8986 38.1759C57.844 37.94 57.7894 37.7042 57.7332 37.4612C57.6611 37.1513 57.5891 36.8415 57.517 36.5317C57.4811 36.3763 57.4452 36.2208 57.4082 36.0607C57.3733 35.9109 57.3383 35.7611 57.3024 35.6068C57.2544 35.4001 57.2544 35.4001 57.2055 35.1893C57.1231 34.862 57.0202 34.5401 56.9139 34.2199C56.459 34.2199 56.004 34.2199 55.5353 34.2199ZM72.078 34.2199C72.0634 35.3004 72.0527 36.3808 72.0456 37.4614C72.0426 37.8288 72.0386 38.1962 72.0334 38.5636C72.0263 39.0925 72.0229 39.6212 72.0203 40.1501C72.0173 40.3137 72.0142 40.4773 72.0111 40.6459C72.0108 41.572 72.0756 42.1673 72.6688 42.9232C73.3427 43.4308 74.0171 43.3908 74.8351 43.3188C75.4338 43.0649 75.7291 42.8925 76.0413 42.3172C76.2742 41.5326 76.2625 40.8097 76.2521 39.9955C76.2513 39.7474 76.2513 39.7474 76.2505 39.4942C76.2483 38.9682 76.2433 38.4423 76.2383 37.9163C76.2363 37.5587 76.2345 37.2011 76.2329 36.8434C76.2286 35.9689 76.2218 35.0944 76.2137 34.2199C75.8237 34.2199 75.4338 34.2199 75.0321 34.2199C75.0271 34.4465 75.0222 34.6732 75.0171 34.9067C74.9986 35.7446 74.9789 36.5825 74.9587 37.4204C74.9502 37.7836 74.942 38.1468 74.9341 38.51C74.9228 39.031 74.9102 39.5519 74.8974 40.0728C74.8925 40.3179 74.8925 40.3179 74.8875 40.5679C74.8575 41.7138 74.8575 41.7138 74.6382 41.9341C74.1458 41.9589 74.1458 41.9589 73.6535 41.9341C73.2435 41.5223 73.4057 40.6417 73.3943 40.0728C73.3902 39.9062 73.3861 39.7397 73.3819 39.5681C73.3689 39.034 73.3573 38.4999 73.3458 37.9657C73.3373 37.6045 73.3287 37.2433 73.32 36.8821C73.2989 35.9947 73.2789 35.1073 73.2596 34.2199C72.8697 34.2199 72.4798 34.2199 72.078 34.2199ZM86.2574 34.2199C85.8025 37.1572 85.3476 40.0946 84.8789 43.121C85.2688 43.121 85.6588 43.121 86.0605 43.121C86.1255 42.5988 86.1905 42.0766 86.2574 41.5385C86.9073 41.6038 87.5572 41.6691 88.2268 41.7363C88.2918 42.1933 88.3568 42.6502 88.4237 43.121C88.8787 43.121 89.3336 43.121 89.8023 43.121C89.1199 38.7149 89.1199 38.7149 88.4237 34.2199C87.7089 34.2199 86.994 34.2199 86.2574 34.2199ZM93.5441 34.2199C93.5441 37.1572 93.5441 40.0946 93.5441 43.121C93.999 43.121 94.4539 43.121 94.9226 43.121C94.9226 41.946 94.9226 40.7711 94.9226 39.5605C96.1043 39.7583 96.1043 39.7583 96.3012 39.9561C96.3478 40.4887 96.3843 41.0173 96.412 41.5509C96.4205 41.701 96.429 41.851 96.4378 42.0056C96.4587 42.3773 96.4785 42.7491 96.4981 43.121C96.9531 43.121 97.408 43.121 97.8767 43.121C97.8595 42.5767 97.8385 42.0331 97.8152 41.4891C97.8107 41.3353 97.8063 41.1816 97.8017 41.0232C97.7616 40.1658 97.7247 39.604 97.089 38.9671C97.2859 38.5715 97.4828 38.1759 97.6798 37.7803C97.7192 37.3652 97.7414 36.9484 97.7536 36.5317C97.7633 36.3081 97.7729 36.0844 97.7828 35.854C97.7197 35.0557 97.7197 35.0557 96.6951 34.2199C95.6553 34.2199 94.6154 34.2199 93.5441 34.2199ZM101.815 34.2199C101.815 37.1572 101.815 40.0946 101.815 43.121C103.05 43.121 104.285 43.121 105.557 43.121C105.557 42.7946 105.557 42.4682 105.557 42.1319C104.712 42.1319 103.868 42.1319 102.997 42.1319C102.997 41.1528 102.997 40.1737 102.997 39.1649C103.647 39.1649 104.297 39.1649 104.966 39.1649C104.966 38.8385 104.966 38.5122 104.966 38.1759C104.382 38.1106 103.797 38.0454 103.194 37.9781C103.194 37.1295 103.194 36.281 103.194 35.4067C104.364 35.3088 104.364 35.3088 105.557 35.2089C105.557 34.8825 105.557 34.5561 105.557 34.2199C104.322 34.2199 103.088 34.2199 101.815 34.2199ZM114.222 34.2199C114.222 34.5462 114.222 34.8726 114.222 35.2089C114.677 35.2741 115.132 35.3394 115.601 35.4067C115.666 37.9524 115.731 40.4981 115.798 43.121C116.188 43.121 116.578 43.121 116.98 43.121C116.98 40.51 116.98 37.899 116.98 35.2089C117.434 35.2089 117.889 35.2089 118.358 35.2089C118.423 34.8825 118.488 34.5561 118.555 34.2199C117.125 34.2199 115.696 34.2199 114.222 34.2199ZM122.297 34.2199C122.297 37.1572 122.297 40.0946 122.297 43.121C122.687 43.121 123.077 43.121 123.478 43.121C123.543 41.8807 123.608 40.6405 123.675 39.3627C124.195 39.3627 124.715 39.3627 125.251 39.3627C125.316 40.6029 125.381 41.8432 125.448 43.121C125.838 43.121 126.228 43.121 126.629 43.121C126.629 40.1836 126.629 37.2462 126.629 34.2199C126.24 34.2199 125.85 34.2199 125.448 34.2199C125.383 35.4601 125.318 36.7003 125.251 37.9781C124.666 38.0434 124.081 38.1086 123.478 38.1759C123.478 36.8704 123.478 35.5649 123.478 34.2199C123.089 34.2199 122.699 34.2199 122.297 34.2199ZM130.765 34.2199C130.765 37.1572 130.765 40.0946 130.765 43.121C132 43.121 133.235 43.121 134.507 43.121C134.507 42.7946 134.507 42.4682 134.507 42.1319C133.727 42.0667 132.947 42.0014 132.144 41.9341C132.144 41.0856 132.144 40.237 132.144 39.3627C132.794 39.2974 133.443 39.2322 134.113 39.1649C134.113 38.8385 134.113 38.5122 134.113 38.1759C133.463 38.1106 132.813 38.0454 132.144 37.9781C132.144 37.1295 132.144 36.281 132.144 35.4067C133.313 35.3088 133.313 35.3088 134.507 35.2089C134.507 34.8825 134.507 34.5561 134.507 34.2199C133.272 34.2199 132.037 34.2199 130.765 34.2199ZM151.64 34.2199C151.64 37.1572 151.64 40.0946 151.64 43.121C152.03 43.121 152.42 43.121 152.822 43.121C152.822 41.8807 152.822 40.6405 152.822 39.3627C153.472 39.3627 154.122 39.3627 154.791 39.3627C154.791 39.0363 154.791 38.71 154.791 38.3737C154.206 38.3084 153.622 38.2432 153.019 38.1759C152.954 37.1968 152.889 36.2177 152.822 35.2089C153.602 35.2089 154.382 35.2089 155.185 35.2089C155.185 34.8825 155.185 34.5561 155.185 34.2199C154.015 34.2199 152.846 34.2199 151.64 34.2199Z" fill="#04B592"/>
<path d="M45.4926 9.89003C45.4926 21.77 45.4926 33.65 45.4926 45.89C43.153 45.89 40.8134 45.89 38.4029 45.89C38.4029 42.7568 38.4029 39.6237 38.4029 36.3955C36.1907 36.173 34.0107 35.9888 31.7932 35.9134C31.6296 35.9078 31.466 35.9022 31.2974 35.8964C27.6918 35.7931 24.3063 35.8299 21.5175 38.372C20.1468 39.6775 18.9456 41.0867 17.8003 42.5931C17.4726 43.0187 17.142 43.4418 16.8091 43.8633C16.6518 44.0627 16.4946 44.2622 16.3325 44.4676C15.4101 45.5168 14.7399 46.0085 13.3372 46.1797C12.0268 46.2497 10.7511 46.0636 9.45325 45.89C9.13883 43.9992 8.86353 41.882 9.77539 40.1272C10.7825 38.7172 12.0392 37.5357 13.2986 36.357C13.8438 35.8413 14.3742 35.3105 14.9065 34.7814C15.9143 33.784 16.9345 32.8005 17.96 31.8215C19.1222 30.7106 20.2691 29.5844 21.4153 28.4569C23.2015 26.7006 24.9958 24.9527 26.8025 23.2176C26.9773 23.0494 27.1521 22.8812 27.3322 22.7079C28.0751 21.9965 28.8219 21.2957 29.599 20.622C30.2231 20.0794 30.7921 19.5088 31.3481 18.8947C31.5343 18.6907 31.7206 18.4868 31.907 18.283C32.0033 18.1775 32.0995 18.072 32.1987 17.9633C32.8318 17.2743 33.4772 16.597 34.1213 15.9183C34.6818 15.3264 35.2367 14.7307 35.7814 14.124C36.3144 13.5309 36.8597 12.9521 37.415 12.3801C37.6211 12.1632 37.8228 11.9419 38.019 11.716C40.2552 9.15389 41.7309 9.89003 45.4926 9.89003ZM37.829 22.7109C37.6668 22.8761 37.5046 23.0413 37.3375 23.2115C37.1586 23.3927 36.9798 23.5739 36.7955 23.7605C36.512 24.049 36.2286 24.3376 35.9453 24.6262C34.9483 25.6408 33.9572 26.6416 32.8599 27.5473C32.3643 28.0125 31.9444 28.5535 31.5101 29.0768C33.7848 29.0768 36.0594 29.0768 38.4029 29.0768C38.4029 26.8575 38.4029 24.6382 38.4029 22.3516C38.1432 22.3289 38.1432 22.3289 37.829 22.7109Z" fill="#01B692"/>
<path d="M9.65077 9.89014C19.0742 9.89014 28.4976 9.89014 38.2066 9.89014C36.9348 12.4449 33.7054 16.0187 31.0963 17.1984C29.5052 17.7036 27.8054 17.5506 26.1934 17.2088C26.2295 17.3284 26.2656 17.4479 26.3028 17.5711C26.7088 19.1572 26.896 20.8259 26.1934 22.3517C24.4812 24.9215 21.7785 27.4449 19.3007 29.2748C19.1707 29.2748 19.0407 29.2748 18.9068 29.2748C18.9068 25.293 18.9068 21.3112 18.9068 17.2088C15.8523 17.2088 12.7978 17.2088 9.65077 17.2088C8.88269 14.8944 9.57936 12.3286 9.65077 9.89014Z" fill="white"/>
<path d="M151.57 11.6354C151.803 11.6328 152.035 11.6303 152.275 11.6277C152.528 11.6262 152.781 11.6248 153.041 11.6233C153.429 11.6209 153.429 11.6209 153.826 11.6184C154.375 11.6155 154.924 11.6135 155.473 11.612C156.174 11.6098 156.875 11.603 157.577 11.5952C158.248 11.5887 158.918 11.5879 159.589 11.5862C159.84 11.5827 160.091 11.5793 160.35 11.5757C162.514 11.581 162.514 11.581 163.457 12.4616C164.391 13.4756 164.466 14.1914 164.467 15.5451C164.468 15.7387 164.468 15.7387 164.468 15.9362C164.469 16.3612 164.469 16.7862 164.468 17.2112C164.468 17.5067 164.468 17.8022 164.469 18.0978C164.469 18.7161 164.468 19.3345 164.467 19.9528C164.466 20.7471 164.467 21.5413 164.468 22.3355C164.469 22.9452 164.469 23.5548 164.468 24.1645C164.468 24.4575 164.468 24.7505 164.469 25.0435C164.469 25.4517 164.468 25.8599 164.467 26.2681C164.467 26.5007 164.467 26.7333 164.467 26.973C164.442 27.4946 164.442 27.4946 164.245 27.6924C163.75 27.7121 163.262 27.7198 162.768 27.7171C162.629 27.7179 162.491 27.7186 162.349 27.7194C161.316 27.7174 161.316 27.7174 161.094 27.4946C161.077 27.1135 161.073 26.7317 161.075 26.3503C161.075 26.1419 161.076 25.9336 161.076 25.7189C161.078 25.4522 161.08 25.1856 161.082 24.9108C161.086 24.0663 161.09 23.2218 161.094 22.3517C157.974 22.417 154.855 22.4823 151.641 22.5495C151.649 24.168 151.649 24.168 151.659 25.7866C151.659 25.9869 151.66 26.1872 151.66 26.3935C151.662 26.7027 151.662 26.7027 151.663 27.0182C151.641 27.4946 151.641 27.4946 151.444 27.6924C150.949 27.7121 150.461 27.7198 149.967 27.7171C149.829 27.7179 149.69 27.7186 149.548 27.7194C148.515 27.7174 148.515 27.7174 148.293 27.4946C148.27 27.0904 148.262 26.6855 148.258 26.2807C148.256 26.0205 148.253 25.7603 148.25 25.4922C148.249 25.2054 148.247 24.9186 148.246 24.6319C148.245 24.4878 148.244 24.3437 148.244 24.1953C148.24 23.4317 148.237 22.668 148.235 21.9044C148.233 21.118 148.226 20.3317 148.218 19.5454C148.213 18.939 148.211 18.3327 148.211 17.7264C148.21 17.4367 148.207 17.1471 148.204 16.8574C148.185 15.2836 148.183 14.0046 149.081 12.6594C149.931 11.8661 150.426 11.6462 151.57 11.6354ZM151.444 14.8352C151.444 16.2713 151.444 17.7073 151.444 19.1869C154.628 19.1869 157.813 19.1869 161.094 19.1869C161.094 17.7508 161.094 16.3148 161.094 14.8352C157.909 14.8352 154.725 14.8352 151.444 14.8352Z" fill="white"/>
<path d="M125.449 11.4726C127.525 11.4603 129.6 11.4481 131.739 11.4355C132.391 11.4301 133.043 11.4247 133.715 11.4191C134.236 11.4174 134.756 11.4159 135.277 11.4146C135.41 11.4131 135.543 11.4115 135.68 11.4099C139.189 11.3711 139.189 11.3711 140.601 12.5481C141.258 13.3677 141.45 13.9085 141.461 14.9641C141.465 15.1886 141.468 15.4131 141.471 15.6444C141.472 15.8863 141.473 16.1282 141.474 16.3775C141.476 16.6272 141.478 16.877 141.48 17.1343C141.482 17.6631 141.484 18.1918 141.485 18.7206C141.486 19.3946 141.493 20.0683 141.502 20.7423C141.51 21.389 141.51 22.0357 141.511 22.6824C141.515 22.9227 141.519 23.163 141.523 23.4106C141.515 24.8044 141.427 25.8781 140.416 26.9012C139.127 28.026 137.359 27.7933 135.758 27.7696C135.493 27.7685 135.229 27.7677 134.965 27.7672C133.992 27.7631 133.019 27.752 132.047 27.7418C129.869 27.7255 127.692 27.7092 125.449 27.6924C125.449 22.3398 125.449 16.9873 125.449 11.4726ZM128.6 14.8352C128.6 18.0337 128.6 21.2321 128.6 24.5275C131.785 24.5275 134.969 24.5275 138.25 24.5275C138.25 21.3291 138.25 18.1306 138.25 14.8352C135.066 14.8352 131.881 14.8352 128.6 14.8352Z" fill="#04B592"/>
<path d="M71.6821 11.4325C71.8905 11.4314 72.0988 11.4303 72.3134 11.4291C72.7532 11.4272 73.193 11.4259 73.6328 11.4252C74.3018 11.4233 74.9707 11.4171 75.6397 11.4109C76.0683 11.4096 76.497 11.4086 76.9256 11.4078C77.1238 11.4053 77.322 11.4029 77.5263 11.4004C79.0225 11.4051 80.3406 11.5662 81.519 12.5482C82.2476 13.4574 82.3679 14.0314 82.3637 15.2072C82.3638 15.3423 82.3639 15.4775 82.3639 15.6168C82.3636 16.062 82.3606 16.5072 82.3575 16.9524C82.3568 17.2617 82.3562 17.571 82.3558 17.8803C82.3543 18.6933 82.3504 19.5062 82.3461 20.3192C82.342 21.1492 82.3402 21.9792 82.3383 22.8092C82.334 24.437 82.3271 26.0647 82.319 27.6925C81.2792 27.6925 80.2394 27.6925 79.168 27.6925C79.168 25.9301 79.168 24.1676 79.168 22.3518C75.9836 22.3518 72.7991 22.3518 69.5181 22.3518C69.5181 24.1142 69.5181 25.8767 69.5181 27.6925C68.4783 27.6925 67.4385 27.6925 66.3672 27.6925C66.3449 25.9145 66.3268 24.1366 66.3161 22.3585C66.311 21.5328 66.3041 20.7071 66.2929 19.8814C66.2821 19.0837 66.2763 18.286 66.2737 17.4882C66.2719 17.1848 66.2684 16.8813 66.2631 16.5779C66.2104 13.4616 66.2104 13.4616 67.3518 12.2639C68.587 11.2778 70.1809 11.4388 71.6821 11.4325ZM69.5181 14.8353C69.5181 16.2714 69.5181 17.7074 69.5181 19.187C72.7026 19.187 75.8871 19.187 79.168 19.187C79.168 17.7509 79.168 16.3149 79.168 14.8353C75.9836 14.8353 72.7991 14.8353 69.5181 14.8353Z" fill="#07B391"/>
<path d="M106.349 11.4408C106.54 11.4389 106.732 11.437 106.929 11.4351C107.133 11.4342 107.338 11.4334 107.549 11.4325C107.869 11.4308 107.869 11.4308 108.194 11.4291C108.645 11.4272 109.095 11.4259 109.545 11.4252C110.23 11.4233 110.915 11.4171 111.6 11.4109C112.039 11.4096 112.477 11.4086 112.916 11.4078C113.119 11.4053 113.322 11.4029 113.531 11.4004C114.912 11.4046 116.289 11.5126 117.405 12.4061C117.493 12.5223 117.58 12.6386 117.67 12.7584C117.807 12.9328 117.807 12.9328 117.947 13.1107C118.415 13.8492 118.383 14.513 118.381 15.3644C118.381 15.4976 118.382 15.6308 118.382 15.768C118.381 16.2079 118.38 16.6478 118.378 17.0877C118.378 17.3928 118.378 17.698 118.377 18.0031C118.377 18.806 118.375 19.6089 118.373 20.4117C118.371 21.2311 118.37 22.0505 118.369 22.8699C118.367 24.4774 118.363 26.0849 118.359 27.6925C117.319 27.6925 116.279 27.6925 115.208 27.6925C115.208 25.9301 115.208 24.1676 115.208 22.3518C112.024 22.3518 108.839 22.3518 105.558 22.3518C105.566 24.0354 105.566 24.0354 105.576 25.719C105.576 25.9274 105.577 26.1357 105.577 26.3504C105.579 26.672 105.579 26.672 105.581 27.0001C105.558 27.4947 105.558 27.4947 105.361 27.6925C104.863 27.7069 104.37 27.7108 103.872 27.7048C103.732 27.7039 103.592 27.7031 103.448 27.7021C103.101 27.6998 102.754 27.6962 102.407 27.6925C102.389 25.8819 102.375 24.0713 102.366 22.2607C102.362 21.4198 102.357 20.5791 102.348 19.7383C102.339 18.9264 102.335 18.1146 102.332 17.3028C102.331 16.9935 102.328 16.6842 102.324 16.3749C102.318 15.9407 102.317 15.5067 102.318 15.0724C102.316 14.8256 102.314 14.5787 102.312 14.3244C102.462 13.259 102.946 12.6589 103.773 12.0043C104.626 11.5324 105.386 11.4486 106.349 11.4408ZM105.558 14.8353C105.558 16.2714 105.558 17.7074 105.558 19.187C108.743 19.187 111.927 19.187 115.208 19.187C115.208 17.7509 115.208 16.3149 115.208 14.8353C112.024 14.8353 108.839 14.8353 105.558 14.8353Z" fill="#02B692"/>
<path d="M86.3847 11.3149C87.1724 11.342 87.5594 11.4188 88.2213 11.8815C88.727 12.4465 89.1678 13.0294 89.606 13.6486C89.9239 14.0377 90.2438 14.4252 90.566 14.8107C90.9818 15.3269 91.394 15.8446 91.7984 16.3699C92.1275 16.8271 92.1275 16.8271 92.56 17.0112C92.6019 16.908 92.6438 16.8047 92.687 16.6983C93.0646 16.0216 93.5646 15.4773 94.074 14.8972C94.897 13.9492 95.6914 12.9922 96.4388 11.9819C96.6957 11.6706 96.6957 11.6706 97.0896 11.4728C97.6248 11.4586 98.1547 11.4544 98.6897 11.4604C98.8382 11.4613 98.9867 11.4622 99.1397 11.4631C99.5067 11.4654 99.8736 11.469 100.241 11.4728C100.311 12.2787 100.339 12.7151 99.8721 13.3921C99.7053 13.5583 99.5385 13.7246 99.3666 13.8958C99.1864 14.0825 99.0062 14.2691 98.8205 14.4614C98.7281 14.5562 98.6358 14.6509 98.5406 14.7485C97.9692 15.3524 97.4612 16.0102 96.9426 16.6597C96.6307 17.0457 96.3115 17.426 95.9872 17.8017C95.7408 18.0897 95.7408 18.0897 95.4895 18.3835C95.2633 18.6432 95.2633 18.6432 95.0325 18.9081C94.6898 19.3466 94.6898 19.3466 94.7279 19.7866C94.9861 20.3013 95.3158 20.6602 95.711 21.0785C96.5163 21.9513 97.2757 22.8479 98.0189 23.7744C98.3299 24.159 98.6463 24.5395 98.9666 24.9164C99.1271 25.1063 99.2875 25.2963 99.4528 25.492C99.599 25.6628 99.7453 25.8337 99.8959 26.0097C100.255 26.5261 100.386 26.871 100.437 27.4947C99.9573 27.9771 98.9101 27.8838 98.2561 27.9056C97.3707 27.8705 96.8253 27.7297 96.1703 27.1146C95.6054 26.4897 95.1085 25.8173 94.6231 25.1291C94.1769 24.5095 93.682 23.9343 93.1878 23.3533C92.9126 23.0197 92.6375 22.686 92.3631 22.3519C91.6401 23.0584 90.9783 23.7989 90.3322 24.5772C90.2367 24.6889 90.1411 24.8006 90.0427 24.9157C89.6096 25.4234 89.2061 25.9212 88.8321 26.4756C88.0246 27.6129 88.0246 27.6129 87.2654 27.7687C86.3303 27.8555 85.4161 27.8092 84.4856 27.6925C84.2887 27.4947 84.2887 27.4947 84.2279 27.0451C84.3084 26.3309 84.5673 26.101 85.0641 25.5909C85.7114 24.9042 86.3312 24.2128 86.9227 23.4769C87.9291 22.2281 88.9636 21.0042 89.9999 19.7805C89.746 19.2289 89.4708 18.7934 89.0698 18.3394C88.912 18.1591 88.912 18.1591 88.7509 17.9751C88.5832 17.7856 88.5832 17.7856 88.4121 17.5923C88.1798 17.3267 87.9477 17.0609 87.7159 16.7949C87.6018 16.6641 87.4878 16.5333 87.3703 16.3985C86.7787 15.7125 86.2098 15.0087 85.6434 14.3015C85.3294 13.9153 85.0039 13.5475 84.6703 13.1788C84.2887 12.6596 84.2887 12.6596 84.2148 12.1033C84.3859 11.1008 85.5555 11.3331 86.3847 11.3149Z" fill="#07B492"/>
<path d="M50.0597 11.4457C50.2791 11.4463 50.2791 11.4463 50.503 11.4469C50.7331 11.4464 50.7331 11.4464 50.9678 11.4458C51.4773 11.445 51.9868 11.4455 52.4962 11.4462C52.8487 11.4461 53.2012 11.4459 53.5537 11.4456C54.2934 11.4453 55.0331 11.4458 55.7728 11.4467C56.7232 11.4478 57.6736 11.4472 58.6239 11.446C59.3521 11.4453 60.0802 11.4455 60.8083 11.446C61.1589 11.4461 61.5094 11.446 61.8599 11.4455C62.3489 11.445 62.838 11.4458 63.327 11.4469C63.4733 11.4465 63.6196 11.4461 63.7703 11.4457C64.77 11.4499 64.77 11.4499 64.9894 11.6703C65.0091 12.167 65.0167 12.6571 65.014 13.1538C65.0148 13.2928 65.0155 13.4317 65.0163 13.5749C65.0143 14.6123 65.0143 14.6123 64.7925 14.8351C62.7128 14.8351 60.6332 14.8351 58.4905 14.8351C58.4905 19.078 58.4905 23.3208 58.4905 27.6923C57.4507 27.6923 56.4108 27.6923 55.3395 27.6923C55.3395 23.4494 55.3395 19.2065 55.3395 14.8351C53.2599 14.8351 51.1802 14.8351 49.0375 14.8351C48.8854 14.0708 48.8139 13.4738 48.816 12.7087C48.8155 12.518 48.815 12.3273 48.8145 12.1308C48.8634 11.2691 49.3076 11.4488 50.0597 11.4457Z" fill="#01B692"/>
<path d="M166.607 11.4727C167.647 11.4727 168.687 11.4727 169.758 11.4727C169.758 16.8252 169.758 22.1777 169.758 27.6924C168.719 27.6924 167.679 27.6924 166.607 27.6924C166.607 22.3399 166.607 16.9874 166.607 11.4727Z" fill="white"/>
<path d="M120.525 11.4727C121.565 11.4727 122.605 11.4727 123.676 11.4727C123.676 16.8252 123.676 22.1777 123.676 27.6924C122.701 27.6924 121.726 27.6924 120.722 27.6924C120.381 27.35 120.501 26.9096 120.5 26.4532C120.501 26.3041 120.502 26.155 120.503 26.0014C120.503 25.8451 120.502 25.6888 120.502 25.5278C120.503 25.0087 120.504 24.4896 120.506 23.9705C120.506 23.6116 120.506 23.2526 120.507 22.8937C120.507 21.9471 120.509 21.0005 120.511 20.0539C120.513 19.0887 120.514 18.1235 120.515 17.1583C120.517 15.2631 120.521 13.3679 120.525 11.4727Z" fill="#07B391"/>
<path d="M125.449 11.4727C127.525 11.4604 129.6 11.4482 131.739 11.4356C132.391 11.4302 133.043 11.4248 133.715 11.4192C134.236 11.4175 134.756 11.416 135.277 11.4147C135.41 11.4132 135.543 11.4116 135.68 11.41C137.248 11.3927 138.577 11.4214 140.023 12.0661C140.12 12.2619 140.12 12.2619 140.219 12.4617C140.111 12.4341 140.003 12.4065 139.891 12.378C138.374 12.0295 136.895 11.9977 135.344 11.9842C134.981 11.9789 134.981 11.9789 134.611 11.9736C133.715 11.9612 132.819 11.952 131.924 11.9425C129.917 11.918 127.91 11.8935 125.843 11.8683C125.843 16.9597 125.843 22.0511 125.843 27.2969C132.764 27.1989 132.764 27.1989 139.826 27.0991C139.315 27.6114 138.976 27.6869 138.261 27.7162C137.907 27.7156 137.907 27.7156 137.545 27.7149C137.412 27.7149 137.279 27.715 137.142 27.715C136.713 27.7148 136.283 27.7133 135.854 27.7118C135.588 27.7115 135.323 27.7113 135.058 27.7112C134.075 27.7101 133.091 27.7074 132.108 27.7048C129.911 27.7007 127.713 27.6967 125.449 27.6925C125.449 22.3399 125.449 16.9874 125.449 11.4727Z" fill="#20AD90"/>
<path d="M73.6536 33.4287C73.7795 33.4899 73.9054 33.5511 74.0352 33.6142C74.8134 33.9104 74.8134 33.9104 76.4107 34.0221C76.4107 36.5026 76.4107 38.983 76.4107 41.5386C76.3457 41.5386 76.2808 41.5386 76.2138 41.5386C76.2138 39.1234 76.2138 36.7083 76.2138 34.2199C75.8239 34.2199 75.4339 34.2199 75.0322 34.2199C75.0342 34.4455 75.0363 34.6712 75.0384 34.9036C75.0455 35.7389 75.0501 36.5742 75.0538 37.4096C75.0558 37.7714 75.0585 38.1333 75.0619 38.4952C75.0667 39.0146 75.0689 39.5341 75.0706 40.0535C75.0727 40.2159 75.0747 40.3783 75.0768 40.5456C75.0769 40.9428 75.0563 41.3399 75.0322 41.7364C74.6383 42.132 74.6383 42.132 74.146 42.1815C73.6536 42.132 73.6536 42.132 73.2597 41.7364C73.2252 41.1689 73.2142 40.6208 73.2213 40.0535C73.2221 39.8041 73.2221 39.8041 73.223 39.5497C73.2252 39.0176 73.2301 38.4855 73.2351 37.9534C73.2371 37.5931 73.2389 37.2328 73.2405 36.8725C73.2449 35.9883 73.2517 35.1041 73.2597 34.2199C72.8698 34.2199 72.4799 34.2199 72.0781 34.2199C72.0781 34.0894 72.0781 33.9588 72.0781 33.8243C72.3015 33.7958 72.5249 33.7672 72.7551 33.7378C73.4188 33.7033 73.4188 33.7033 73.6536 33.4287Z" fill="#12AC8F"/>
<path d="M126.828 33.6265C127.222 34.0221 127.222 34.0221 127.263 34.4213C127.259 34.5849 127.255 34.7486 127.251 34.9172C127.248 35.1027 127.245 35.2882 127.241 35.4792C127.236 35.6799 127.23 35.8806 127.224 36.0874C127.219 36.2927 127.215 36.498 127.21 36.7096C127.201 37.1441 127.19 37.5786 127.178 38.013C127.16 38.6807 127.145 39.3483 127.131 40.016C127.121 40.4373 127.111 40.8585 127.101 41.2797C127.094 41.5813 127.094 41.5813 127.087 41.8891C127.082 42.0739 127.077 42.2588 127.071 42.4492C127.065 42.6945 127.065 42.6945 127.058 42.9447C127.025 43.3188 127.025 43.3188 126.828 43.5166C126.034 43.5686 125.733 43.5747 125.055 43.121C124.988 42.7311 124.988 42.7311 124.998 42.2602C124.999 42.0919 125.001 41.9236 125.003 41.7503C125.008 41.5743 125.013 41.3984 125.018 41.2171C125.022 40.9509 125.022 40.9509 125.026 40.6793C125.033 40.2404 125.043 39.8016 125.055 39.3627C124.665 39.3627 124.275 39.3627 123.874 39.3627C123.874 40.6029 123.874 41.8432 123.874 43.121C123.744 43.121 123.614 43.121 123.48 43.121C123.474 42.4987 123.471 41.8765 123.467 41.2542C123.466 41.0766 123.464 40.899 123.462 40.7161C123.462 40.5471 123.461 40.3782 123.461 40.2042C123.46 40.0477 123.458 39.8913 123.457 39.7302C123.48 39.3627 123.48 39.3627 123.677 39.1649C124.034 39.1387 124.034 39.1387 124.464 39.1402C124.607 39.1397 124.749 39.1392 124.895 39.1387C125.252 39.1649 125.252 39.1649 125.449 39.3627C125.466 39.6428 125.47 39.9236 125.468 40.2042C125.468 40.3731 125.467 40.542 125.466 40.7161C125.465 40.8936 125.463 41.0712 125.461 41.2542C125.461 41.4326 125.46 41.6109 125.459 41.7947C125.456 42.2368 125.453 42.6789 125.449 43.121C125.839 43.121 126.229 43.121 126.631 43.121C126.631 40.1836 126.631 37.2462 126.631 34.2199C126.241 34.2199 125.851 34.2199 125.449 34.2199C125.451 34.3891 125.451 34.3891 125.452 34.5617C125.456 35.07 125.459 35.5783 125.461 36.0866C125.463 36.2642 125.465 36.4418 125.466 36.6248C125.467 36.8782 125.467 36.8782 125.468 37.1367C125.47 37.3713 125.47 37.3713 125.472 37.6107C125.449 37.9781 125.449 37.9781 125.252 38.1759C124.667 38.1759 124.082 38.1759 123.48 38.1759C123.48 36.8704 123.48 35.5649 123.48 34.2199C123.09 34.2199 122.7 34.2199 122.298 34.2199C122.298 37.1572 122.298 40.0946 122.298 43.121C122.168 43.121 122.038 43.121 121.904 43.121C121.904 40.1183 121.904 37.1157 121.904 34.0221C123.48 33.8243 123.48 33.8243 123.874 34.0221C123.874 35.2623 123.874 36.5025 123.874 37.7803C124.264 37.7803 124.654 37.7803 125.055 37.7803C125.055 36.5401 125.055 35.2999 125.055 34.0221C125.64 33.8915 126.225 33.761 126.828 33.6265Z" fill="#22A68D"/>
<path d="M166.607 11.4727C167.322 11.4727 168.037 11.4727 168.774 11.4727C168.709 11.6032 168.644 11.7338 168.577 11.8683C168.057 11.9335 167.537 11.9988 167.001 12.0661C167.001 17.0922 167.001 22.1184 167.001 27.2968C167.781 27.2968 168.561 27.2968 169.365 27.2968C169.365 22.2054 169.365 17.114 169.365 11.8683C169.235 11.8683 169.105 11.8683 168.971 11.8683C168.971 11.7377 168.971 11.6072 168.971 11.4727C169.231 11.4727 169.491 11.4727 169.758 11.4727C169.758 16.8252 169.758 22.1777 169.758 27.6924C168.719 27.6924 167.679 27.6924 166.607 27.6924C166.607 22.3399 166.607 16.9874 166.607 11.4727Z" fill="white"/>
<path d="M9.65039 9.89014C18.7489 9.89014 27.8473 9.89014 37.2215 9.89014C37.2865 10.0207 37.3515 10.1512 37.4184 10.2857C33.9075 10.3162 30.3965 10.3454 26.8855 10.3734C25.2553 10.3863 23.6252 10.3997 21.9951 10.414C20.5747 10.4264 19.1542 10.4381 17.7338 10.4489C16.9813 10.4547 16.2289 10.4609 15.4764 10.4678C14.7688 10.4744 14.0611 10.48 13.3534 10.4849C12.9687 10.4878 12.584 10.4917 12.1993 10.4956C11.9718 10.497 11.7442 10.4984 11.5098 10.4998C11.3112 10.5015 11.1126 10.5031 10.908 10.5048C10.4381 10.4835 10.4381 10.4835 10.0443 10.2857C10.0465 10.4204 10.0488 10.555 10.0512 10.6937C10.0671 12.4116 9.96848 14.1118 9.84733 15.8242C9.78234 15.8242 9.71735 15.8242 9.65039 15.8242C9.65039 13.866 9.65039 11.9077 9.65039 9.89014Z" fill="white"/>
<path d="M65.3833 35.2088C65.7771 35.2004 66.1711 35.2007 66.5649 35.2088C66.9007 35.5461 66.787 35.9694 66.7892 36.4192C66.7888 36.5603 66.7884 36.7015 66.788 36.8469C66.7882 36.991 66.7884 37.1351 66.7886 37.2836C66.7887 37.5889 66.7883 37.8942 66.7875 38.1995C66.7864 38.6684 66.7875 39.1372 66.7888 39.6061C66.7886 39.902 66.7884 40.1979 66.788 40.4938C66.7884 40.635 66.7888 40.7761 66.7892 40.9215C66.7845 41.9114 66.7845 41.9114 66.5649 42.1319C66.1711 42.14 65.7771 42.1403 65.3833 42.1319C64.9705 41.4509 64.9387 40.9131 64.9371 40.123C64.9366 39.8881 64.9361 39.6533 64.9355 39.4113C64.9371 39.1668 64.9386 38.9223 64.9402 38.6704C64.9386 38.4258 64.9371 38.1813 64.9355 37.9294C64.9361 37.6945 64.9366 37.4597 64.9371 37.2177C64.9375 37.0032 64.938 36.7886 64.9384 36.5676C64.9885 36.01 65.0962 35.6824 65.3833 35.2088Z" fill="#03B593"/>
<path d="M160.502 35.209C160.97 35.1842 160.97 35.1842 161.487 35.209C161.881 35.6046 161.881 35.6046 161.929 36.2061C161.928 36.5846 161.928 36.5846 161.926 36.9706C161.926 37.1726 161.926 37.1726 161.926 37.3785C161.925 37.6632 161.924 37.9479 161.921 38.2325C161.918 38.6688 161.917 39.105 161.918 39.5413C161.91 41.6781 161.91 41.6781 161.684 42.1321C161.294 42.1321 160.904 42.1321 160.502 42.1321C160.09 41.4511 160.058 40.9133 160.056 40.1231C160.056 39.8883 160.055 39.6535 160.055 39.4115C160.056 39.167 160.058 38.9224 160.059 38.6705C160.058 38.426 160.056 38.1815 160.055 37.9295C160.055 37.6947 160.056 37.4599 160.056 37.2179C160.057 37.0033 160.057 36.7888 160.058 36.5677C160.108 36.0101 160.215 35.6825 160.502 35.209Z" fill="#11AF91"/>
<path d="M117.374 12.6592C118.055 13.2989 118.344 13.6714 118.383 14.6333C118.382 14.8744 118.382 15.1156 118.381 15.364C118.382 15.4972 118.382 15.6305 118.382 15.7677C118.381 16.2076 118.38 16.6474 118.378 17.0873C118.378 17.3925 118.378 17.6976 118.378 18.0028C118.377 18.8057 118.375 19.6085 118.373 20.4114C118.371 21.2308 118.37 22.0502 118.369 22.8696C118.367 24.4771 118.363 26.0846 118.359 27.6921C117.319 27.6921 116.279 27.6921 115.208 27.6921C115.208 25.9297 115.208 24.1673 115.208 22.3515C112.024 22.3515 108.839 22.3515 105.558 22.3515C105.558 24.0486 105.558 25.7458 105.558 27.4943C105.493 27.4943 105.428 27.4943 105.361 27.4943C105.361 25.7319 105.361 23.9695 105.361 22.1537C108.676 22.1537 111.99 22.1537 115.405 22.1537C115.405 23.9161 115.405 25.6785 115.405 27.4943C116.25 27.4943 117.095 27.4943 117.965 27.4943C117.965 22.9904 117.965 18.4864 117.965 13.846C117.705 13.846 117.445 13.846 117.178 13.846C117.243 13.4543 117.307 13.0627 117.374 12.6592Z" fill="#29A48C"/>
<path d="M49.0368 11.4724C51.0876 11.4678 53.1383 11.4643 55.1891 11.4621C56.1413 11.4611 57.0935 11.4597 58.0456 11.4574C58.9637 11.4553 59.8818 11.4541 60.7999 11.4536C61.151 11.4532 61.5021 11.4525 61.8531 11.4515C62.3431 11.45 62.8331 11.4498 63.3231 11.4499C63.4697 11.4492 63.6163 11.4485 63.7674 11.4478C64.7692 11.4498 64.7692 11.4498 64.9886 11.6702C65.0083 12.1669 65.016 12.657 65.0133 13.1537C65.014 13.2926 65.0148 13.4316 65.0156 13.5748C65.0136 14.6122 65.0136 14.6122 64.7917 14.835C64.3238 14.8525 63.8618 14.8578 63.3939 14.8543C63.1845 14.8539 63.1845 14.8539 62.9709 14.8535C62.5234 14.8524 62.0759 14.8499 61.6284 14.8474C61.3257 14.8464 61.023 14.8455 60.7203 14.8447C59.9767 14.8426 59.2333 14.8388 58.4897 14.835C58.4897 15.9447 58.4897 17.0543 58.4897 18.1976C58.4247 18.1976 58.3598 18.1976 58.2928 18.1976C58.2875 17.6083 58.2836 17.0191 58.2805 16.4298C58.2788 16.2616 58.2772 16.0935 58.2755 15.9202C58.2749 15.7602 58.2742 15.6002 58.2736 15.4354C58.2725 15.2872 58.2715 15.1391 58.2704 14.9865C58.2928 14.6372 58.2928 14.6372 58.4897 14.4394C58.941 14.422 59.3928 14.4182 59.8444 14.4201C60.0473 14.4205 60.0473 14.4205 60.2542 14.4209C60.6877 14.422 61.1211 14.4245 61.5546 14.427C61.8478 14.428 62.141 14.4289 62.4342 14.4297C63.1544 14.4319 63.8746 14.4353 64.5948 14.4394C64.5948 13.5908 64.5948 12.7423 64.5948 11.868C62.6278 11.8634 60.6609 11.8599 58.6939 11.8577C57.7806 11.8567 56.8673 11.8553 55.954 11.853C55.073 11.8509 54.1919 11.8497 53.3108 11.8492C52.9744 11.8488 52.6379 11.8481 52.3015 11.8471C51.8309 11.8456 51.3603 11.8454 50.8897 11.8455C50.7501 11.8448 50.6104 11.8441 50.4665 11.8434C49.8681 11.8446 49.4126 11.874 48.8398 12.0658C48.9048 11.8699 48.9698 11.6741 49.0368 11.4724Z" fill="#22B094"/>
<path d="M143.369 24.5273C144.409 24.5273 145.449 24.5273 146.52 24.5273C146.52 25.5717 146.52 26.6161 146.52 27.6922C145.48 27.6922 144.44 27.6922 143.369 27.6922C143.369 26.6478 143.369 25.6034 143.369 24.5273Z" fill="white"/>
<path d="M48.8396 12.2637C49.0346 12.3289 49.2296 12.3942 49.4305 12.4615C49.3655 13.1142 49.3005 13.767 49.2335 14.4395C51.3132 14.4395 53.3928 14.4395 55.5355 14.4395C55.8047 14.9802 55.7645 15.4187 55.7729 16.0239C55.7787 16.3981 55.7787 16.3981 55.7848 16.7799C55.7881 17.0532 55.7914 17.3264 55.7947 17.5997C55.7988 17.8785 55.8029 18.1573 55.8071 18.4362C55.818 19.1704 55.8277 19.9047 55.8372 20.639C55.8471 21.3881 55.8581 22.1372 55.869 22.8863C55.8902 24.3564 55.91 25.8265 55.9294 27.2966C56.7092 27.3619 57.4891 27.4272 58.2926 27.4944C58.2926 27.1028 58.2926 26.7111 58.2926 26.3076C58.3576 26.3076 58.4226 26.3076 58.4895 26.3076C58.4895 26.7646 58.4895 27.2215 58.4895 27.6922C57.4497 27.6922 56.4099 27.6922 55.3385 27.6922C55.3385 23.4494 55.3385 19.2065 55.3385 14.8351C53.2589 14.8351 51.1792 14.8351 49.0366 14.8351C48.8525 13.9105 48.8239 13.194 48.8396 12.2637Z" fill="#25A78E"/>
<path d="M94.9231 39.3628C96.0251 39.4805 96.0251 39.4805 96.4986 39.9562C96.5272 40.4991 96.5354 41.0213 96.5233 41.5633C96.5215 41.7125 96.5197 41.8617 96.5179 42.0154C96.5132 42.3839 96.5062 42.7525 96.4986 43.121C96.8886 43.0558 97.2785 42.9905 97.6803 42.9232C97.6803 41.8788 97.6803 40.8344 97.6803 39.7584C98.1001 40.6017 98.1585 41.2641 98.1972 42.1815C98.2048 42.3289 98.2125 42.4762 98.2203 42.6281C98.2388 42.9901 98.2551 43.3523 98.2711 43.7144C97.6803 43.9122 97.6803 43.9122 97.2779 43.7585C97.0689 43.6449 97.0689 43.6449 96.8556 43.529C96.7147 43.4538 96.5738 43.3786 96.4286 43.3011C96.3218 43.2417 96.2149 43.1822 96.1048 43.121C96.1048 42.9905 96.1048 42.8599 96.1048 42.7254C96.0154 42.856 95.926 42.9865 95.834 43.121C95.0546 43.7174 94.2949 43.582 93.3477 43.5166C93.4126 43.3861 93.4776 43.2555 93.5446 43.121C94.1477 42.9974 94.1477 42.9974 94.7262 42.9232C94.7239 42.6828 94.7216 42.4423 94.7193 42.1946C94.7174 41.8812 94.7156 41.5677 94.7139 41.2543C94.7123 41.0956 94.7106 40.9368 94.7089 40.7733C94.7072 40.369 94.7159 39.9647 94.7262 39.5606C94.7912 39.4953 94.8562 39.43 94.9231 39.3628Z" fill="#04B492"/>
<path d="M105.559 14.4395C108.873 14.4395 112.187 14.4395 115.602 14.4395C115.602 16.0713 115.602 17.7032 115.602 19.3845C112.288 19.3845 108.973 19.3845 105.559 19.3845C105.559 19.3192 105.559 19.254 105.559 19.1867C108.743 19.1867 111.928 19.1867 115.208 19.1867C115.208 17.7507 115.208 16.3146 115.208 14.8351C112.024 14.8351 108.84 14.8351 105.559 14.8351C105.559 14.7045 105.559 14.574 105.559 14.4395Z" fill="#2EA891"/>
<path d="M19.1035 16.813C19.3594 17.3271 19.332 17.7127 19.3408 18.2885C19.3448 18.5142 19.3487 18.7399 19.3527 18.9724C19.356 19.217 19.3593 19.4616 19.3627 19.7136C19.3668 19.9633 19.3709 20.213 19.3751 20.4702C19.3858 21.1342 19.3957 21.7983 19.4052 22.4623C19.4151 23.1398 19.4261 23.8173 19.4369 24.4948C19.4581 25.8243 19.4781 27.1538 19.4973 28.4833C19.6192 28.3201 19.741 28.1569 19.8666 27.9888C20.0047 27.8256 20.1428 27.6624 20.2851 27.4943C20.415 27.4943 20.545 27.4943 20.6789 27.4943C20.7439 27.3638 20.8089 27.2332 20.8759 27.0987C20.7624 27.8044 20.5077 28.1375 20.002 28.6317C19.8804 28.753 19.7588 28.8744 19.6335 28.9995C19.3004 29.2745 19.3004 29.2745 18.9065 29.2745C18.9065 25.2928 18.9065 21.311 18.9065 17.2086C17.8017 17.2086 16.6969 17.2086 15.5586 17.2086C15.5586 17.1433 15.5586 17.078 15.5586 17.0108C16.0386 16.9776 16.5186 16.9447 16.9987 16.9119C17.1346 16.9025 17.2706 16.893 17.4106 16.8833C17.9763 16.8449 18.5363 16.813 19.1035 16.813Z" fill="white"/>
<path d="M71.6835 11.4325C71.8918 11.4314 72.1001 11.4303 72.3147 11.4291C72.7545 11.4272 73.1943 11.4259 73.6341 11.4252C74.3032 11.4233 74.9721 11.4171 75.6411 11.4109C76.0697 11.4096 76.4983 11.4086 76.9269 11.4078C77.1251 11.4053 77.3234 11.4029 77.5276 11.4004C78.771 11.4043 79.7902 11.5907 80.9418 12.0661C80.8118 12.1314 80.6819 12.1967 80.5479 12.2639C80.353 12.1986 80.158 12.1334 79.9571 12.0661C79.5796 12.0486 79.2014 12.0428 78.8234 12.0436C78.5909 12.0437 78.3583 12.0437 78.1186 12.0437C77.742 12.0452 77.742 12.0452 77.3577 12.0468C76.9721 12.0472 76.9721 12.0472 76.5787 12.0476C75.8959 12.0484 75.2131 12.0503 74.5303 12.0525C73.8333 12.0545 73.1363 12.0554 72.4393 12.0564C71.0722 12.0586 69.705 12.0619 68.3379 12.0661C68.2729 12.3925 68.2079 12.7188 68.1409 13.0551C68.011 13.0551 67.881 13.0551 67.7471 13.0551C67.7471 12.9246 67.7471 12.794 67.7471 12.6595C67.5521 12.5942 67.3571 12.529 67.1562 12.4617C68.6097 11.3842 69.9424 11.4399 71.6835 11.4325Z" fill="#21B08F"/>
<path d="M38.4023 36.3955C38.4673 36.3955 38.5323 36.3955 38.5993 36.3955C38.5993 39.4634 38.5993 42.5313 38.5993 45.6922C40.6789 45.6269 42.7586 45.5617 44.9012 45.4944C45.0724 44.4648 45.0724 44.4648 45.1386 43.4466C45.1425 43.2882 45.1465 43.1299 45.1505 42.9668C45.1555 42.7164 45.1555 42.7164 45.1605 42.4609C45.1646 42.287 45.1687 42.1131 45.1729 41.9338C45.1857 41.3817 45.1974 40.8295 45.209 40.2774C45.2175 39.9016 45.2261 39.5258 45.2347 39.1501C45.2557 38.2319 45.2757 37.3137 45.2951 36.3955C45.3601 36.3955 45.4251 36.3955 45.4921 36.3955C45.4921 39.5287 45.4921 42.6619 45.4921 45.89C43.1525 45.89 40.8128 45.89 38.4023 45.89C38.4023 42.7568 38.4023 39.6236 38.4023 36.3955Z" fill="#2DA38C"/>
<path d="M94.9243 35.209C96.2477 35.3514 96.2477 35.3514 96.4998 35.6046C96.5296 35.9581 96.5434 36.313 96.549 36.6678C96.5566 36.9577 96.5566 36.9577 96.5644 37.2535C96.4998 37.7804 96.4998 37.7804 96.2336 38.1436C95.7838 38.4626 95.4617 38.4306 94.9243 38.3738C94.7273 38.176 94.7273 38.176 94.7012 37.5579C94.7017 37.3049 94.7022 37.052 94.7027 36.7914C94.7022 36.5385 94.7017 36.2855 94.7012 36.0249C94.7273 35.4068 94.7273 35.4068 94.9243 35.209Z" fill="#15AB90"/>
<path d="M38.5998 22.1538C38.8316 22.8895 38.8222 23.5888 38.8229 24.3567C38.8231 24.4912 38.8233 24.6257 38.8235 24.7643C38.8236 25.0474 38.8232 25.3305 38.8224 25.6137C38.8214 26.0486 38.8224 26.4835 38.8237 26.9184C38.8235 27.1936 38.8233 27.4688 38.8229 27.744C38.8227 27.9949 38.8225 28.2457 38.8222 28.5041C38.7967 29.0769 38.7967 29.0769 38.5998 29.2747C38.089 29.2922 37.5835 29.2975 37.0728 29.294C36.9201 29.2937 36.7674 29.2934 36.61 29.2932C36.1204 29.292 35.6307 29.2896 35.1411 29.2871C34.8099 29.2861 34.4788 29.2852 34.1476 29.2843C33.3341 29.2822 32.5205 29.2787 31.707 29.2747C31.707 29.2094 31.707 29.1441 31.707 29.0769C33.9167 29.0769 36.1263 29.0769 38.4029 29.0769C38.3379 26.9228 38.2729 24.7688 38.2059 22.5494C37.751 23.0063 37.2961 23.4633 36.8274 23.934C36.7624 23.934 36.6974 23.934 36.6304 23.934C36.5812 23.4766 36.5812 23.4766 36.6304 22.945C37.2276 22.3659 37.7656 22.1538 38.5998 22.1538Z" fill="#20A287"/>
<path d="M106.355 11.444C106.547 11.4428 106.74 11.4415 106.938 11.4402C107.247 11.4399 107.247 11.4399 107.563 11.4395C107.777 11.4389 107.99 11.4382 108.211 11.4375C108.663 11.4365 109.115 11.4361 109.567 11.4361C110.256 11.4357 110.945 11.4321 111.634 11.4283C112.074 11.4277 112.514 11.4273 112.954 11.4272C113.159 11.4257 113.364 11.4243 113.576 11.4229C114.658 11.4262 115.564 11.5048 116.586 11.8684C116.391 11.9989 116.196 12.1294 115.996 12.264C115.801 12.1987 115.606 12.1334 115.405 12.0662C115.033 12.0486 114.661 12.0429 114.289 12.0437C113.946 12.0437 113.946 12.0437 113.596 12.0437C113.349 12.0448 113.103 12.0458 112.848 12.0468C112.596 12.0471 112.343 12.0474 112.083 12.0477C111.412 12.0484 110.74 12.0504 110.069 12.0526C109.384 12.0546 108.699 12.0555 108.014 12.0565C106.67 12.0586 105.326 12.062 103.982 12.0662C104.644 11.4021 105.456 11.448 106.355 11.444Z" fill="#22B08E"/>
<path d="M87.0459 35.8022C87.1759 35.8022 87.3058 35.8022 87.4398 35.8022C87.5394 36.3707 87.6377 36.9394 87.7352 37.5083C87.7633 37.6682 87.7915 37.828 87.8206 37.9928C87.9673 38.8561 88.0646 39.6698 88.0306 40.5495C87.5107 40.5495 86.9907 40.5495 86.4551 40.5495C86.5761 38.9531 86.7883 37.3819 87.0459 35.8022Z" fill="#19AA90"/>
<path d="M10.8307 39.3628C10.8307 39.5586 10.8307 39.7544 10.8307 39.9562C10.7352 40.0482 10.6396 40.1401 10.5412 40.2349C10.1494 40.6441 10.1602 40.8707 10.1461 41.4312C10.14 41.6024 10.1339 41.7737 10.1276 41.9501C10.124 42.1284 10.1205 42.3068 10.1168 42.4905C10.0544 44.6545 10.0544 44.6545 9.84604 45.6925C10.5888 45.6708 11.3313 45.6449 12.0739 45.6183C12.285 45.6122 12.4961 45.606 12.7135 45.5997C12.916 45.5921 13.1185 45.5844 13.327 45.5766C13.607 45.5672 13.607 45.5672 13.8927 45.5577C14.4254 45.5245 14.4254 45.5245 14.9664 45.0991C15.2012 44.6936 15.2012 44.6936 15.3603 44.3078C15.6202 44.3731 15.8802 44.4384 16.148 44.5056C15.608 45.2952 15.1189 45.8251 14.1572 46.0045C13.4421 46.0264 12.7392 46.0111 12.0246 45.9768C11.7773 45.9706 11.5299 45.9643 11.275 45.9579C10.6669 45.9416 10.0598 45.9189 9.45217 45.8903C9.41192 45.0621 9.38757 44.2342 9.36601 43.4054C9.35445 43.1717 9.3429 42.938 9.331 42.6972C9.29752 40.9821 9.29752 40.9821 9.76517 40.2723C10.104 39.932 10.4384 39.6381 10.8307 39.3628Z" fill="#22AC93"/>
<path d="M118.555 33.6265C118.776 34.9617 118.776 34.9617 118.555 35.4068C118.1 35.4068 117.645 35.4068 117.176 35.4068C117.176 37.9525 117.176 40.4982 117.176 43.121C117.111 43.121 117.046 43.121 116.979 43.121C116.979 40.5101 116.979 37.8991 116.979 35.209C117.434 35.209 117.889 35.209 118.358 35.209C118.358 34.9479 118.358 34.6868 118.358 34.4177C116.993 34.3525 115.628 34.2872 114.222 34.2199C114.157 34.481 114.092 34.7421 114.025 35.0112C114.025 34.6848 114.025 34.3584 114.025 34.0221C114.634 33.7163 115.288 33.7496 115.958 33.7131C116.098 33.7045 116.238 33.696 116.383 33.6872C117.108 33.6448 117.829 33.6165 118.555 33.6265Z" fill="#27A88F"/>
<path d="M95.4397 33.7873C95.6446 33.812 95.6446 33.812 95.8536 33.8371C96.2021 33.884 96.5477 33.9516 96.8922 34.0222C96.9571 34.1527 97.0221 34.2833 97.0891 34.4178C95.9193 34.3525 94.7495 34.2872 93.5442 34.22C93.5442 37.1574 93.5442 40.0947 93.5442 43.1211C93.4792 43.1211 93.4143 43.1211 93.3473 43.1211C93.1769 41.3849 93.1289 39.66 93.1257 37.9164C93.1249 37.716 93.124 37.5156 93.123 37.3091C93.1254 36.1315 93.1955 34.9922 93.3473 33.8244C94.0851 33.5774 94.6874 33.6829 95.4397 33.7873Z" fill="#1CAA8E"/>
<path d="M55.7321 33.8242C56.122 33.8242 56.512 33.8242 56.9137 33.8242C57.2014 34.3479 57.3076 34.5946 57.3076 35.2088C57.5026 35.1436 57.6975 35.0783 57.8984 35.011C58.4277 35.0976 58.4277 35.0976 58.8831 35.2088C58.7745 36.2451 58.6016 37.1816 58.2923 38.1759C58.1623 38.1759 58.0323 38.1759 57.8984 38.1759C57.7333 37.6281 57.5693 37.08 57.4061 36.5316C57.3591 36.3762 57.3121 36.2208 57.2637 36.0607C57.2193 35.9109 57.1749 35.7611 57.1291 35.6068C57.0879 35.469 57.0466 35.3312 57.0041 35.1893C56.9137 34.8132 56.9137 34.8132 56.9137 34.2198C56.4588 34.2198 56.0039 34.2198 55.5352 34.2198C55.6001 34.0893 55.6651 33.9587 55.7321 33.8242Z" fill="#15AE8F"/>
<path d="M140.416 12.4614C141.143 13.3567 141.424 13.7683 141.435 14.9221C141.438 15.1473 141.44 15.3725 141.443 15.6045C141.445 15.9714 141.445 15.9714 141.447 16.3456C141.45 16.7218 141.45 16.7218 141.452 17.1056C141.455 17.6376 141.457 18.1695 141.459 18.7014C141.461 19.3803 141.468 20.059 141.475 20.7379C141.482 21.3878 141.483 22.0377 141.484 22.6876C141.489 23.0515 141.489 23.0515 141.495 23.4227C141.491 24.7589 141.412 25.617 140.613 26.7032C140.429 26.1877 140.386 25.9828 140.6 25.4669C140.669 25.3527 140.739 25.2385 140.81 25.1208C140.94 25.1208 141.07 25.1208 141.204 25.1208C141.18 23.7058 141.156 22.2909 141.13 20.8759C141.122 20.3948 141.113 19.9136 141.106 19.4324C141.094 18.7401 141.082 18.0478 141.069 17.3555C141.066 17.1409 141.062 16.9264 141.059 16.7054C141.04 15.7336 141.011 14.801 140.81 13.846C140.68 13.846 140.55 13.846 140.416 13.846C140.21 13.2262 140.232 13.0569 140.416 12.4614Z" fill="#23A18A"/>
<path d="M102.998 12.6592C103.121 13.0177 103.121 13.0177 103.195 13.4504C103 13.7441 103 13.7441 102.801 14.0438C102.736 14.6479 102.736 14.6479 102.738 15.3459C102.736 15.4772 102.734 15.6084 102.732 15.7437C102.726 16.1771 102.723 16.6106 102.719 17.0441C102.716 17.3448 102.712 17.6455 102.708 17.9462C102.698 18.7374 102.69 19.5285 102.683 20.3197C102.675 21.1272 102.665 21.9346 102.655 22.7421C102.636 24.3261 102.619 25.9102 102.604 27.4943C103.514 27.4943 104.424 27.4943 105.361 27.4943C105.361 27.5596 105.361 27.6249 105.361 27.6921C104.386 27.6921 103.411 27.6921 102.407 27.6921C102.394 25.8781 102.383 24.0641 102.376 22.2501C102.373 21.4077 102.369 20.5654 102.362 19.723C102.356 18.9099 102.352 18.0968 102.351 17.2837C102.35 16.9736 102.348 16.6636 102.345 16.3536C102.34 15.9189 102.34 15.4844 102.34 15.0497C102.339 14.8024 102.337 14.5551 102.336 14.3003C102.412 13.6003 102.592 13.2257 102.998 12.6592Z" fill="#28AE92"/>
<path d="M37.4185 10.4834C37.5485 10.5487 37.6784 10.6139 37.8124 10.6812C36.958 11.5896 36.0959 12.4901 35.228 13.3855C34.934 13.6908 34.6418 13.9978 34.3514 14.3065C33.9327 14.7512 33.5078 15.1891 33.0813 15.6263C32.9536 15.7647 32.8259 15.9032 32.6943 16.0458C31.955 16.7893 31.4943 17.0944 30.4275 17.0974C30.1314 17.0755 29.8355 17.049 29.541 17.0109C29.8018 16.7126 29.8018 16.7126 30.1318 16.4175C30.3146 16.4256 30.4974 16.4338 30.6857 16.4422C31.5862 16.4067 31.8659 16.0604 32.4951 15.4285C32.4951 15.2979 32.4951 15.1674 32.4951 15.0328C32.6535 14.9798 32.8119 14.9268 32.9751 14.8721C33.2249 14.7559 33.2249 14.7559 33.4797 14.6372C33.5447 14.4414 33.6097 14.2456 33.6767 14.0438C33.9559 13.775 33.9559 13.775 34.3044 13.4999C34.8103 13.082 35.242 12.6601 35.6584 12.1524C36.1892 11.5056 36.7628 11.0008 37.4185 10.4834Z" fill="white"/>
<path d="M49.0368 11.4727C54.2359 11.4727 59.435 11.4727 64.7917 11.4727C64.7917 11.5379 64.7917 11.6032 64.7917 11.6705C64.505 11.6735 64.505 11.6735 64.2125 11.6766C62.4129 11.696 60.6134 11.7163 58.8138 11.7376C57.8886 11.7485 56.9634 11.7591 56.0382 11.7688C55.1456 11.7783 54.253 11.7886 53.3605 11.7996C53.0196 11.8036 52.6788 11.8074 52.3379 11.8107C51.8612 11.8155 51.3845 11.8214 50.9078 11.8276C50.7663 11.8288 50.6248 11.8299 50.479 11.8311C49.8799 11.84 49.4129 11.8742 48.8398 12.0661C48.9048 11.8702 48.9698 11.6744 49.0368 11.4727Z" fill="#2EA38A"/>
<path d="M64.9885 36.5933C65.1184 36.5933 65.2484 36.5933 65.3823 36.5933C65.4473 38.2251 65.5123 39.857 65.5793 41.5383C65.9042 41.6036 66.2292 41.6689 66.564 41.7361C66.564 40.4959 66.564 39.2557 66.564 37.9779C66.6289 37.9779 66.6939 37.9779 66.7609 37.9779C66.7666 38.6331 66.7701 39.2883 66.7732 39.9435C66.7748 40.1306 66.7765 40.3176 66.7782 40.5103C66.7788 40.6881 66.7795 40.866 66.7801 41.0492C66.7812 41.2139 66.7822 41.3786 66.7832 41.5483C66.7609 41.9339 66.7609 41.9339 66.564 42.1317C66.1702 42.1398 65.7761 42.1401 65.3823 42.1317C64.9905 41.4754 64.9419 40.9846 64.95 40.2248C64.9513 40.0132 64.9525 39.8015 64.9538 39.5835C64.9571 39.3637 64.9604 39.1439 64.9638 38.9174C64.9656 38.6946 64.9674 38.4717 64.9692 38.2421C64.9739 37.6925 64.9803 37.1429 64.9885 36.5933Z" fill="#14AC9E"/>
<path d="M66.9588 12.6592C67.1538 12.7245 67.3488 12.7897 67.5496 12.857C67.4196 13.1181 67.2897 13.3792 67.1558 13.6482C67.0258 13.6482 66.8958 13.6482 66.7619 13.6482C66.7619 18.2174 66.7619 22.7867 66.7619 27.4943C66.6969 27.4943 66.6319 27.4943 66.5649 27.4943C66.5558 25.6769 66.5488 23.8595 66.5445 22.042C66.5425 21.1981 66.5397 20.3542 66.5352 19.5103C66.531 18.6959 66.5286 17.8815 66.5276 17.0671C66.5268 16.7564 66.5254 16.4456 66.5233 16.1349C66.5204 15.6997 66.52 15.2646 66.5202 14.8294C66.5194 14.5817 66.5185 14.3339 66.5176 14.0787C66.5623 13.4857 66.6471 13.156 66.9588 12.6592Z" fill="#11AD8C"/>
<path d="M125.054 34.022C125.509 34.022 125.964 34.022 126.433 34.022C126.433 34.0872 126.433 34.1525 126.433 34.2198C126.108 34.2198 125.783 34.2198 125.448 34.2198C125.449 34.3326 125.45 34.4454 125.451 34.5616C125.455 35.0699 125.458 35.5782 125.46 36.0865C125.462 36.2641 125.463 36.4417 125.465 36.6247C125.466 36.7936 125.466 36.9625 125.467 37.1366C125.468 37.293 125.469 37.4494 125.47 37.6106C125.448 37.978 125.448 37.978 125.251 38.1758C124.666 38.1758 124.081 38.1758 123.479 38.1758C123.479 36.9356 123.479 35.6954 123.479 34.4176C123.544 34.4176 123.608 34.4176 123.675 34.4176C123.74 35.5272 123.805 36.6369 123.872 37.7802C124.262 37.7802 124.652 37.7802 125.054 37.7802C125.054 36.54 125.054 35.2998 125.054 34.022Z" fill="#299C8B"/>
<path d="M24.8137 25.3188C24.8137 26.2133 24.3074 26.7672 23.7428 27.4329C23.4351 27.6925 23.4351 27.6925 22.978 27.9531C22.4332 28.2968 22.0298 28.6632 21.5789 29.1227C21.4221 29.2814 21.2653 29.4401 21.1038 29.6037C20.943 29.7685 20.7822 29.9333 20.6165 30.1032C20.4518 30.2703 20.2872 30.4375 20.1176 30.6097C19.7127 31.021 19.3087 31.4332 18.9056 31.8463C18.7756 31.781 18.6456 31.7158 18.5117 31.6485C20.5914 29.5597 22.671 27.4709 24.8137 25.3188Z" fill="#32A58E"/>
<path d="M67.9433 35.209C68.0733 35.209 68.2033 35.209 68.3372 35.209C68.3285 36.2051 68.3147 37.201 68.2963 38.197C68.2908 38.5356 68.2866 38.8743 68.2838 39.2129C68.2796 39.7006 68.2704 40.188 68.2602 40.6756C68.2599 40.9016 68.2599 40.9016 68.2595 41.1321C68.2327 42.1161 68.054 42.6297 67.3525 43.3189C66.7215 43.7414 66.5609 43.7602 65.8385 43.7392C65.6794 43.7356 65.5202 43.7321 65.3562 43.7284C65.2351 43.7238 65.114 43.7192 64.9892 43.7145C64.9892 43.5839 64.9892 43.4534 64.9892 43.3189C64.7943 43.3189 64.5993 43.3189 64.3984 43.3189C64.3984 43.1883 64.3984 43.0578 64.3984 42.9233C64.5 42.9559 64.6015 42.9885 64.7062 43.0222C65.5891 43.2041 66.3081 43.2444 67.1309 42.8491C67.5685 42.5618 67.5685 42.5618 67.7464 42.1321C67.7772 41.6131 67.7972 41.0985 67.8087 40.579C67.8128 40.4259 67.8169 40.2728 67.8211 40.115C67.834 39.6253 67.8456 39.1356 67.8571 38.6458C67.8656 38.3141 67.8742 37.9823 67.8829 37.6506C67.904 36.8368 67.924 36.0229 67.9433 35.209Z" fill="#33988C"/>
<path d="M151.444 23.5386C151.509 23.5386 151.574 23.5386 151.641 23.5386C151.647 24.1938 151.65 24.849 151.654 25.5042C151.655 25.6913 151.657 25.8783 151.659 26.071C151.659 26.3378 151.659 26.3378 151.66 26.6099C151.662 26.857 151.662 26.857 151.664 27.109C151.641 27.4946 151.641 27.4946 151.444 27.6924C150.946 27.7069 150.453 27.7107 149.955 27.7048C149.815 27.7039 149.675 27.703 149.531 27.7021C149.184 27.6997 148.837 27.6962 148.49 27.6924C148.49 27.4966 148.49 27.3008 148.49 27.099C148.62 27.1643 148.75 27.2296 148.884 27.2968C149.043 27.2479 149.043 27.2479 149.204 27.1979C149.908 27.049 150.536 27.1983 151.247 27.2968C151.245 27.0421 151.243 26.7874 151.24 26.5249C151.239 26.1929 151.237 25.8609 151.235 25.529C151.233 25.3608 151.232 25.1926 151.23 25.0194C151.229 24.8594 151.229 24.6994 151.228 24.5345C151.227 24.3864 151.226 24.2383 151.225 24.0857C151.247 23.7364 151.247 23.7364 151.444 23.5386Z" fill="white"/>
<path d="M103.73 35.1895C104.056 35.1929 104.056 35.1929 104.388 35.1964C104.714 35.1991 104.714 35.1991 105.047 35.2018C105.215 35.2041 105.384 35.2064 105.557 35.2088C105.557 35.274 105.557 35.3393 105.557 35.4066C104.842 35.4066 104.127 35.4066 103.391 35.4066C103.391 36.1899 103.391 36.9732 103.391 37.7802C103.823 37.7741 103.823 37.7741 104.265 37.7678C104.564 37.7636 104.864 37.766 105.163 37.7802C105.36 37.978 105.36 37.978 105.372 38.5838C105.368 38.7755 105.364 38.9673 105.36 39.1648C105.23 39.1648 105.1 39.1648 104.966 39.1648C104.966 38.8384 104.966 38.5121 104.966 38.1758C104.841 38.1781 104.715 38.1804 104.585 38.1828C104.341 38.1854 104.341 38.1854 104.092 38.1882C103.849 38.1916 103.849 38.1916 103.601 38.1951C103.194 38.1758 103.194 38.1758 102.997 37.978C102.977 37.5498 102.971 37.1209 102.972 36.6923C102.972 36.4577 102.971 36.2231 102.971 35.9814C103.006 35.2156 103.006 35.2156 103.73 35.1895Z" fill="#2DA691"/>
<path d="M97.6813 39.7583C98.1011 40.6016 98.1595 41.264 98.1982 42.1814C98.2059 42.3288 98.2135 42.4761 98.2213 42.628C98.2398 42.99 98.2562 43.3522 98.2721 43.7143C97.6813 43.9121 97.6813 43.9121 96.3027 43.3187C96.3027 42.2091 96.3027 41.0994 96.3027 39.9561C96.3677 39.9561 96.4327 39.9561 96.4997 39.9561C96.4997 41.0005 96.4997 42.0449 96.4997 43.1209C96.8896 43.0557 97.2795 42.9904 97.6813 42.9231C97.6813 41.8787 97.6813 40.8343 97.6813 39.7583Z" fill="#1CAA8F"/>
<path d="M38.6 22.1538C38.6 24.3731 38.6 26.5925 38.6 28.8791C38.5351 28.8791 38.4701 28.8791 38.4031 28.8791C38.3381 26.7903 38.2731 24.7015 38.2062 22.5494C37.7512 23.0063 37.2963 23.4633 36.8276 23.934C36.7626 23.934 36.6976 23.934 36.6307 23.934C36.5814 23.4766 36.5814 23.4766 36.6307 22.945C37.2279 22.3659 37.7658 22.1538 38.6 22.1538Z" fill="#39A38E"/>
<path d="M45.493 9.89017C45.493 10.3471 45.493 10.804 45.493 11.2748C45.0992 10.6814 45.0992 10.6814 44.9022 10.2858C42.3225 9.99737 42.3225 9.99737 39.908 10.6613C39.479 11.1081 39.1362 11.5485 38.7972 12.066C38.6051 12.2686 38.41 12.4685 38.2064 12.6594C38.0764 12.5941 37.9464 12.5288 37.8125 12.4616C39.8364 9.46582 42.0896 9.56674 45.493 9.89017Z" fill="#28A78C"/>
<path d="M94.9231 39.3628C95.514 39.4246 95.514 39.4246 96.1048 39.5606C96.1698 39.6911 96.2347 39.8217 96.3017 39.9562C95.7168 39.8583 95.7168 39.8583 95.1201 39.7584C95.1224 40.0131 95.1247 40.2678 95.127 40.5303C95.1289 40.8623 95.1306 41.1943 95.1324 41.5263C95.134 41.6944 95.1357 41.8626 95.1374 42.0358C95.138 42.1958 95.1387 42.3558 95.1393 42.5207C95.1403 42.6688 95.1414 42.8169 95.1424 42.9695C95.1201 43.3188 95.1201 43.3188 94.9231 43.5166C94.3972 43.5446 93.8746 43.525 93.3477 43.5166C93.4126 43.3861 93.4776 43.2555 93.5446 43.121C94.1477 42.9974 94.1477 42.9974 94.7262 42.9232C94.7239 42.6828 94.7216 42.4423 94.7193 42.1946C94.7174 41.8812 94.7156 41.5677 94.7139 41.2543C94.7123 41.0956 94.7106 40.9368 94.7089 40.7733C94.7072 40.369 94.7159 39.9647 94.7262 39.5606C94.7912 39.4953 94.8562 39.43 94.9231 39.3628Z" fill="#27A894"/>
<path d="M143.567 34.4175C143.762 34.4828 143.957 34.548 144.157 34.6153C143.962 34.909 143.962 34.909 143.764 35.2087C143.576 35.9209 143.541 36.5927 143.54 37.3273C143.54 37.541 143.54 37.7547 143.54 37.9748C143.54 38.1962 143.541 38.4175 143.542 38.6455C143.541 38.8653 143.54 39.0851 143.54 39.3115C143.541 40.4043 143.569 41.4514 143.764 42.5274C143.634 42.5274 143.504 42.5274 143.37 42.5274C143.125 41.7895 143.141 41.1009 143.14 40.3322C143.139 40.176 143.138 40.0197 143.138 39.8587C143.137 39.5286 143.136 39.1986 143.136 38.8686C143.136 38.3624 143.132 37.8563 143.128 37.3501C143.128 37.0296 143.128 36.7091 143.127 36.3885C143.126 36.2367 143.125 36.0848 143.123 35.9284C143.128 34.8583 143.128 34.8583 143.567 34.4175Z" fill="#23A789"/>
<path d="M161.095 23.7363C161.16 23.7363 161.225 23.7363 161.292 23.7363C161.503 24.9326 161.503 26.0818 161.488 27.2968C162.398 27.2968 163.308 27.2968 164.246 27.2968C164.246 27.4273 164.246 27.5579 164.246 27.6924C163.757 27.6977 163.269 27.7016 162.781 27.7047C162.642 27.7064 162.502 27.708 162.359 27.7098C162.003 27.7115 161.647 27.7027 161.292 27.6924C161.095 27.4946 161.095 27.4946 161.072 27.1271C161.073 26.9707 161.074 26.8143 161.075 26.6531C161.076 26.4842 161.077 26.3153 161.077 26.1412C161.079 25.9637 161.081 25.7861 161.082 25.6031C161.083 25.4247 161.084 25.2464 161.085 25.0626C161.087 24.6205 161.091 24.1784 161.095 23.7363Z" fill="white"/>
<path d="M60.2627 34.4175C60.3277 34.4175 60.3927 34.4175 60.4596 34.4175C60.2789 35.9783 60.0221 37.6109 59.3649 39.0419C59.0383 39.8661 58.9736 40.5505 58.9457 41.4271C58.9389 41.5718 58.9322 41.7165 58.9253 41.8656C58.9092 42.2179 58.8963 42.5705 58.8841 42.923C58.8191 42.923 58.7542 42.923 58.6872 42.923C58.3835 39.8808 59.2776 37.2697 60.2627 34.4175Z" fill="#26A890"/>
<path d="M98.7265 11.4106C98.8724 11.4151 99.0182 11.4195 99.1685 11.4241C99.526 11.4357 99.8833 11.4535 100.24 11.4724C100.24 11.9294 100.24 12.3863 100.24 12.8571C100.046 12.955 100.046 12.955 99.8466 13.0549C99.8466 12.6632 99.8466 12.2716 99.8466 11.868C98.8718 11.868 97.8969 11.868 96.8926 11.868C96.7626 12.1291 96.6326 12.3902 96.4987 12.6593C96.0802 13.0054 96.0802 13.0054 95.7109 13.2527C96.3295 11.7277 97.1915 11.3211 98.7265 11.4106Z" fill="#2CAB8C"/>
<path d="M85.2744 37.978C85.4044 38.0433 85.5344 38.1086 85.6683 38.1758C85.5608 39.7781 85.3647 41.3433 85.0775 42.9231C85.4674 43.0536 85.8573 43.1842 86.2591 43.3187C86.2591 43.384 86.2591 43.4492 86.2591 43.5165C85.7392 43.5165 85.2193 43.5165 84.6836 43.5165C84.7112 42.9931 84.7401 42.4698 84.7698 41.9464C84.7775 41.7971 84.7852 41.6479 84.7932 41.494C84.8582 40.3741 84.8582 40.3741 85.0775 40.1539C85.1235 39.7881 85.1588 39.421 85.1882 39.0536C85.2047 38.8534 85.2212 38.6533 85.2382 38.447C85.2502 38.2923 85.2621 38.1375 85.2744 37.978Z" fill="#21A990"/>
<path d="M12.8007 16.5287C13.3999 16.6619 13.3999 16.6619 13.9824 16.4175C13.9824 16.548 13.9824 16.6786 13.9824 16.8131C15.4771 16.8131 16.9719 16.8131 18.5119 16.8131C18.5119 16.8784 18.5119 16.9436 18.5119 17.0109C15.8473 17.0109 13.1828 17.0109 10.4375 17.0109C11.1297 16.3157 11.8663 16.3528 12.8007 16.5287Z" fill="white"/>
<path d="M114.223 35.2088C114.682 35.2004 115.142 35.2007 115.601 35.2088C115.798 35.4066 115.798 35.4066 115.821 36.1372C115.82 36.4626 115.819 36.788 115.817 37.1134C115.817 37.2844 115.817 37.4553 115.817 37.6315C115.815 38.1797 115.813 38.7279 115.81 39.2761C115.809 39.6469 115.809 40.0176 115.808 40.3884C115.806 41.2992 115.802 42.2101 115.798 43.1209C115.733 43.1209 115.668 43.1209 115.601 43.1209C115.536 40.6405 115.471 38.16 115.404 35.6044C114.819 35.5065 114.819 35.5065 114.223 35.4066C114.223 35.3413 114.223 35.2761 114.223 35.2088Z" fill="#27A08A"/>
<path d="M146.521 39.7583C146.976 39.7583 147.431 39.7583 147.899 39.7583C147.926 40.203 147.945 40.6482 147.961 41.0935C147.978 41.4652 147.978 41.4652 147.996 41.8445C147.899 42.5275 147.899 42.5275 147.432 43.0159C146.915 43.3187 146.915 43.3187 146.459 43.2693C146.35 43.2203 146.24 43.1714 146.127 43.1209C146.285 43.0312 146.444 42.9414 146.607 42.849C147.129 42.5775 147.129 42.5775 147.309 42.1319C147.353 41.7619 147.389 41.3908 147.419 41.0193C147.436 40.8209 147.452 40.6225 147.469 40.4182C147.481 40.2657 147.493 40.1132 147.506 39.9561C147.181 39.9561 146.856 39.9561 146.521 39.9561C146.521 39.8908 146.521 39.8256 146.521 39.7583Z" fill="#21AA91"/>
<path d="M15.1649 44.3076C15.4899 44.3076 15.8148 44.3076 16.1496 44.3076C15.9569 44.5344 15.764 44.761 15.5711 44.9876C15.4637 45.1138 15.3564 45.24 15.2457 45.37C15.0925 45.5478 14.9366 45.7238 14.7711 45.89C14.406 45.9073 14.0403 45.9112 13.6748 45.9094C13.4533 45.9087 13.2318 45.9081 13.0036 45.9074C12.7705 45.9058 12.5373 45.9041 12.2971 45.9024C12.0631 45.9015 11.8292 45.9006 11.5882 45.8997C11.008 45.8974 10.4278 45.8941 9.84766 45.89C9.84766 45.8248 9.84766 45.7595 9.84766 45.6922C10.0488 45.6864 10.0488 45.6864 10.2541 45.6804C10.8613 45.6615 11.4684 45.6398 12.0755 45.6181C12.2866 45.6119 12.4977 45.6058 12.7152 45.5995C13.0188 45.588 13.0188 45.588 13.3287 45.5763C13.6087 45.567 13.6087 45.567 13.8943 45.5575C14.427 45.5243 14.427 45.5243 14.968 45.0988C15.1106 44.6915 15.1106 44.6915 15.1649 44.3076Z" fill="#27A48C"/>
<path d="M27.7688 22.3516C27.7688 23.1577 27.463 23.4999 26.9811 24.1318C26.538 24.4038 26.538 24.4038 26.1933 24.5274C26.1933 24.6579 26.1933 24.7885 26.1933 24.923C25.8034 25.0535 25.4135 25.1841 25.0117 25.3186C25.8799 24.2722 26.799 23.3034 27.7688 22.3516Z" fill="#1FA18A"/>
<path d="M159.519 33.8243C159.892 33.8135 160.266 33.8059 160.639 33.7996C160.847 33.795 161.055 33.7904 161.269 33.7856C161.893 33.8249 162.311 33.9389 162.867 34.2199C163.335 34.847 163.295 35.4346 163.261 36.1979C163.196 36.1979 163.131 36.1979 163.064 36.1979C162.997 35.8736 162.997 35.8736 162.928 35.5427C162.73 34.8139 162.73 34.8139 162.264 34.4177C161.443 34.137 160.748 34.2064 159.913 34.4177C159.421 34.6917 159.421 34.6917 159.125 35.0111C159.255 34.6194 159.385 34.2278 159.519 33.8243Z" fill="#24A68C"/>
<path d="M95.4401 33.7873C95.645 33.812 95.645 33.812 95.854 33.8371C96.2025 33.884 96.548 33.9516 96.8925 34.0222C96.9575 34.1527 97.0225 34.2833 97.0895 34.4178C95.9196 34.3525 94.7498 34.2872 93.5446 34.22C93.5446 34.6769 93.5446 35.1338 93.5446 35.6046C93.4796 35.6046 93.4146 35.6046 93.3477 35.6046C93.3477 35.0171 93.3477 34.4297 93.3477 33.8244C94.0855 33.5774 94.6878 33.6829 95.4401 33.7873Z" fill="#2BA68E"/>
<path d="M152.627 11.6704C154.121 11.6704 155.616 11.6704 157.156 11.6704C156.403 12.1748 156.063 12.3097 155.162 12.1649C154.221 12.043 153.366 12.1409 152.43 12.2638C152.495 12.068 152.56 11.8722 152.627 11.6704Z" fill="white"/>
<path d="M97.2874 26.5054C97.2224 26.7665 97.1574 27.0276 97.0905 27.2966C97.4154 27.2313 97.7404 27.166 98.0752 27.0988C98.0752 27.2293 98.0752 27.3599 98.0752 27.4944C98.79 27.4944 99.5049 27.4944 100.241 27.4944C100.241 27.5597 100.241 27.6249 100.241 27.6922C99.6957 27.7082 99.1503 27.72 98.6044 27.7293C98.4497 27.7342 98.295 27.7392 98.1356 27.7443C97.9864 27.7463 97.8373 27.7482 97.6836 27.7501C97.5464 27.7532 97.4093 27.7563 97.2679 27.7596C96.7789 27.6715 96.6038 27.4877 96.3027 27.0988C96.3027 26.9682 96.3027 26.8377 96.3027 26.7032C96.8935 26.5054 96.8935 26.5054 97.2874 26.5054Z" fill="#1BAC8E"/>
<path d="M93.9395 23.9341C94.0694 23.9341 94.1994 23.9341 94.3333 23.9341C94.3983 24.0646 94.4633 24.1952 94.5303 24.3297C94.6846 24.3378 94.839 24.346 94.998 24.3544C95.5149 24.5275 95.5149 24.5275 95.7111 24.8706C95.9545 25.5115 96.1058 26.0121 96.1058 26.7033C95.7805 26.3541 95.4566 26.0037 95.1334 25.6525C95.0411 25.5537 94.9488 25.4549 94.8537 25.3531C94.4206 24.8804 94.1442 24.5511 93.9395 23.9341Z" fill="#17AA8C"/>
<path d="M161.094 15.231C161.289 15.2962 161.484 15.3615 161.685 15.4288C161.701 15.8737 161.712 16.3188 161.721 16.7639C161.728 17.0118 161.735 17.2596 161.742 17.515C161.685 18.198 161.685 18.198 161.094 18.9892C161.094 17.749 161.094 16.5088 161.094 15.231Z" fill="white"/>
<path d="M132.144 40.1538C132.209 40.1538 132.274 40.1538 132.341 40.1538C132.341 40.676 132.341 41.1982 132.341 41.7362C132.478 41.7339 132.616 41.7316 132.758 41.7293C132.937 41.7275 133.116 41.7257 133.301 41.7239C133.479 41.7216 133.657 41.7193 133.841 41.7169C134.31 41.7362 134.31 41.7362 134.704 41.934C134.704 42.3257 134.704 42.7173 134.704 43.1208C134.639 43.1208 134.574 43.1208 134.507 43.1208C134.507 42.7945 134.507 42.4681 134.507 42.1318C133.727 42.1318 132.947 42.1318 132.144 42.1318C131.821 41.4824 132.042 40.8609 132.144 40.1538Z" fill="#23A28B"/>
<path d="M87.0465 35.8022C87.1765 35.8022 87.3065 35.8022 87.4404 35.8022C87.672 36.529 87.6519 37.2203 87.6374 37.9781C87.2474 38.1739 87.2474 38.1739 86.8496 38.3737C86.9146 37.5251 86.9796 36.6765 87.0465 35.8022Z" fill="#2DA590"/>
<path d="M58.6875 35.209C58.9465 35.9327 58.8164 36.4117 58.6013 37.1376C58.5447 37.3324 58.4881 37.5272 58.4298 37.7279C58.3848 37.8758 58.3399 38.0236 58.2936 38.176C58.1636 38.176 58.0336 38.176 57.8997 38.176C57.7698 37.5885 57.6398 37.0011 57.5059 36.3958C57.5708 36.5263 57.6358 36.6569 57.7028 36.7914C58.4131 36.3158 58.4619 36.0107 58.6875 35.209Z" fill="#259E87"/>
<path d="M36.4342 13.8462C36.4342 14.4396 36.4342 14.4396 36.0103 14.9094C35.8293 15.0807 35.6483 15.2521 35.4618 15.4286C34.7049 16.1157 34.7049 16.1157 34.2679 17.011C33.9429 17.0763 33.618 17.1416 33.2832 17.2088C34.2647 16.0154 35.3351 14.9305 36.4342 13.8462Z" fill="#22A78A"/>
<path d="M67.5494 42.5273C67.6794 42.5926 67.8094 42.6579 67.9433 42.7251C67.0177 43.6786 67.0177 43.6786 66.2886 43.7798C65.8517 43.7764 65.4239 43.7578 64.9892 43.7142C64.9892 43.5836 64.9892 43.4531 64.9892 43.3186C64.7943 43.3186 64.5993 43.3186 64.3984 43.3186C64.3984 43.188 64.3984 43.0575 64.3984 42.9229C64.5 42.9556 64.6015 42.9882 64.7062 43.0218C65.8561 43.2588 66.5735 43.1715 67.5494 42.5273Z" fill="#22A98D"/>
<path d="M66.5641 37.978C66.6291 37.978 66.6941 37.978 66.761 37.978C66.7667 38.6332 66.7702 39.2885 66.7733 39.9437C66.775 40.1307 66.7766 40.3177 66.7783 40.5104C66.779 40.6883 66.7796 40.8661 66.7803 41.0494C66.7813 41.2141 66.7823 41.3788 66.7834 41.5485C66.761 41.9341 66.761 41.9341 66.5641 42.1319C66.1703 42.1399 65.7763 42.1403 65.3825 42.1319C65.3175 41.936 65.2525 41.7402 65.1855 41.5385C65.6405 41.6037 66.0954 41.669 66.5641 41.7363C66.5641 40.496 66.5641 39.2558 66.5641 37.978Z" fill="#1CA38C"/>
<path d="M24.8134 25.3188C24.8134 26.2287 24.2848 26.7988 23.7057 27.4699C23.4349 27.6925 23.4349 27.6925 23.041 27.6925C23.1493 26.926 23.4892 26.5856 24.038 26.0606C24.1825 25.9209 24.3269 25.7811 24.4757 25.6372C24.5872 25.5321 24.6986 25.4271 24.8134 25.3188Z" fill="#20A58B"/>
<path d="M38.6 22.3518C38.3461 22.5789 38.0916 22.8055 37.8369 23.0317C37.6244 23.221 37.6244 23.221 37.4077 23.4142C37.0245 23.7364 37.0245 23.7364 36.6307 23.9342C36.5814 23.4768 36.5814 23.4768 36.6307 22.9452C37.2544 22.3403 37.75 22.0672 38.6 22.3518Z" fill="#1AAA8E"/>
<path d="M84.8789 13.0552C85.0089 13.0552 85.1389 13.0552 85.2728 13.0552C85.4028 13.251 85.5327 13.4468 85.6667 13.6486C85.8616 13.7139 86.0566 13.7791 86.2575 13.8464C86.3929 14.2544 86.3929 14.2544 86.4544 14.6376C86.5844 14.6376 86.7144 14.6376 86.8483 14.6376C86.7833 14.8987 86.7183 15.1598 86.6513 15.4288C86.3554 15.0708 86.0601 14.7121 85.7651 14.3533C85.6006 14.1536 85.4361 13.954 85.2666 13.7483C84.8789 13.253 84.8789 13.253 84.8789 13.0552Z" fill="#1EA78C"/>
<path d="M163.064 41.1431C163.129 41.1431 163.194 41.1431 163.261 41.1431C163.379 41.6895 163.458 42.1638 163.458 42.7255C163.009 43.1762 162.767 43.3123 162.129 43.356C161.982 43.3437 161.836 43.3315 161.686 43.3189C161.84 43.2169 161.994 43.1149 162.153 43.0098C162.78 42.4256 162.89 41.9707 163.064 41.1431Z" fill="#1DAA8D"/>
<path d="M98.8616 13.2529C99.0566 13.3182 99.2516 13.3835 99.4524 13.4507C99.076 14.1502 98.7383 14.596 98.0739 15.0331C98.0089 14.8373 97.9439 14.6415 97.877 14.4397C98.1535 13.992 98.5065 13.6444 98.8616 13.2529Z" fill="#15AD8C"/>
<path d="M69.3226 11.6705C69.3226 11.8011 69.3226 11.9316 69.3226 12.0661C68.9976 12.0661 68.6727 12.0661 68.3379 12.0661C68.2729 12.3925 68.2079 12.7189 68.1409 13.0551C68.011 13.0551 67.881 13.0551 67.7471 13.0551C67.7471 12.9246 67.7471 12.794 67.7471 12.6595C67.5521 12.5942 67.3571 12.529 67.1562 12.4617C67.904 11.9028 68.3744 11.5585 69.3226 11.6705Z" fill="#1CA88C"/>
<path d="M63.8083 33.6265C64.0032 33.6917 64.1982 33.757 64.3991 33.8243C64.3991 33.9548 64.3991 34.0854 64.3991 34.2199C64.5291 34.2851 64.659 34.3504 64.7929 34.4177C64.7036 34.5033 64.6142 34.589 64.5222 34.6773C64.1627 35.0324 64.1627 35.0324 63.8083 35.6045C63.77 35.3121 63.7334 35.0194 63.6975 34.7267C63.6769 34.5638 63.6564 34.4009 63.6352 34.233C63.6273 34.0981 63.6194 33.9632 63.6113 33.8243C63.6763 33.759 63.7413 33.6937 63.8083 33.6265Z" fill="#11AA8C"/>
<path d="M97.2871 23.1431C97.8123 23.6705 98.3374 24.198 98.8626 24.7255C98.7976 24.856 98.7326 24.9866 98.6657 25.1211C98.0872 24.9109 98.0872 24.9109 97.484 24.5277C97.3117 23.7983 97.3117 23.7983 97.2871 23.1431Z" fill="#19A98C"/>
<path d="M26.3903 16.6153C26.6381 16.6071 26.8858 16.599 27.1411 16.5906C27.2805 16.586 27.4199 16.5814 27.5635 16.5767C27.9658 16.6153 27.9658 16.6153 28.5566 17.0109C27.7725 17.2734 27.0106 17.2224 26.1934 17.2087C26.2583 17.0129 26.3233 16.8171 26.3903 16.6153Z" fill="white"/>
<path d="M21.2698 38.1758C21.5298 38.3063 21.7898 38.4369 22.0576 38.5714C21.5377 39.0936 21.0178 39.6158 20.4821 40.1538C20.4171 39.8927 20.3521 39.6316 20.2852 39.3626C20.4801 39.3626 20.6751 39.3626 20.876 39.3626C20.876 39.1668 20.876 38.9709 20.876 38.7692C21.0709 38.7692 21.2659 38.7692 21.4668 38.7692C21.4018 38.5734 21.3368 38.3775 21.2698 38.1758Z" fill="#1DAA8D"/>
<path d="M35.6458 24.3296C35.8408 24.3949 36.0357 24.4601 36.2366 24.5274C35.5867 25.1801 34.9368 25.8329 34.2672 26.5054C34.2023 26.2443 34.1373 25.9832 34.0703 25.7142C34.2287 25.6245 34.3871 25.5347 34.5503 25.4422C35.0724 25.1708 35.0724 25.1708 35.2519 24.7252C35.3819 24.7252 35.5119 24.7252 35.6458 24.7252C35.6458 24.5946 35.6458 24.4641 35.6458 24.3296Z" fill="#20A58A"/>
<path d="M32.2972 18C32.3622 18.1305 32.4271 18.2611 32.4941 18.3956C32.2438 19.1497 31.9807 19.1922 31.3125 19.5824C31.0427 19.8387 30.7778 20.1006 30.5247 20.3736C30.3948 20.3084 30.2648 20.2431 30.1309 20.1758C30.8457 19.4578 31.5606 18.7398 32.2972 18Z" fill="#21A98B"/>
<path d="M140.416 12.4614C140.852 12.8993 141.177 13.2388 141.256 13.8684C141.253 14.257 141.23 14.6452 141.204 15.0329C141.139 15.0329 141.074 15.0329 141.007 15.0329C140.942 14.6412 140.877 14.2496 140.81 13.846C140.68 13.846 140.55 13.846 140.416 13.846C140.21 13.2262 140.232 13.0569 140.416 12.4614Z" fill="#1AAD8F"/>
<path d="M65.3822 35.209C65.7071 35.209 66.032 35.209 66.3668 35.209C66.1699 35.8024 66.1699 35.8024 65.5668 36.1362C65.3759 36.2219 65.185 36.3075 64.9883 36.3958C65.1183 36.0041 65.2482 35.6125 65.3822 35.209Z" fill="#19A689"/>
<path d="M97.0898 34.4175C97.3498 34.4828 97.6098 34.548 97.8776 34.6153C97.8776 35.5944 97.8776 36.5735 97.8776 37.5823C97.8126 37.5823 97.7476 37.5823 97.6807 37.5823C97.671 37.4201 97.6614 37.258 97.6514 37.0909C97.6367 36.8777 97.622 36.6646 97.6068 36.445C97.5931 36.2338 97.5794 36.0227 97.5653 35.8052C97.4891 35.2478 97.3741 34.8956 97.0898 34.4175Z" fill="#23A58C"/>
<path d="M16.345 43.1211C16.605 43.1864 16.865 43.2516 17.1328 43.3189C16.8078 43.6453 16.4829 43.9716 16.1481 44.3079C16.0831 44.0468 16.0181 43.7857 15.9512 43.5167C16.0811 43.5167 16.2111 43.5167 16.345 43.5167C16.345 43.3861 16.345 43.2556 16.345 43.1211Z" fill="#16AA8D"/>
<path d="M94.9228 18C95.1828 18.0653 95.4428 18.1305 95.7106 18.1978C95.3207 18.6547 94.9307 19.1116 94.529 19.5824C94.464 19.3866 94.399 19.1908 94.332 18.989C94.462 18.989 94.592 18.989 94.7259 18.989C94.7909 18.6626 94.8559 18.3363 94.9228 18Z" fill="#1EA88B"/>
<path d="M86.8496 15.4287C86.9796 15.4287 87.1096 15.4287 87.2435 15.4287C87.3085 15.5593 87.3735 15.6898 87.4404 15.8243C87.6354 15.8896 87.8304 15.9549 88.0312 16.0221C88.0962 16.4138 88.1612 16.8054 88.2282 17.2089C87.6444 16.6535 87.1558 16.1837 86.8496 15.4287Z" fill="#21A78D"/>
<path d="M72.8672 43.1211C73.5171 43.1864 74.167 43.2516 74.8366 43.3189C74.16 43.7719 73.8548 43.7498 73.0641 43.7145C72.9991 43.5187 72.9341 43.3229 72.8672 43.1211Z" fill="#22A58B"/>
<path d="M123.873 39.3628C124.263 39.3628 124.653 39.3628 125.055 39.3628C125.055 39.5586 125.055 39.7544 125.055 39.9562C124.665 39.9562 124.275 39.9562 123.873 39.9562C123.873 39.7604 123.873 39.5646 123.873 39.3628Z" fill="#08B498"/>
<path d="M32.1002 27.4946C32.3602 27.5599 32.6202 27.6252 32.888 27.6924C32.7005 27.8914 32.5115 28.0889 32.3218 28.2858C32.2167 28.396 32.1116 28.5061 32.0033 28.6196C31.7064 28.8792 31.7064 28.8792 31.3125 28.8792C31.3125 28.7487 31.3125 28.6181 31.3125 28.4836C31.5075 28.3531 31.7024 28.2225 31.9033 28.088C31.9683 27.8922 32.0333 27.6964 32.1002 27.4946Z" fill="#1CA488"/>
<path d="M59.0814 33.4287C59.2763 33.494 59.4713 33.5593 59.6722 33.6265C59.6072 33.6918 59.5422 33.7571 59.4752 33.8243C59.8002 33.8896 60.1251 33.9549 60.4599 34.0221C60.4599 34.0874 60.4599 34.1527 60.4599 34.2199C60.005 34.2852 59.5501 34.3505 59.0814 34.4177C58.9514 34.1566 58.8214 33.8955 58.6875 33.6265C58.8175 33.5612 58.9475 33.496 59.0814 33.4287Z" fill="#15A98B"/>
</svg>
