<svg width="27" height="27" viewBox="0 0 27 27" fill="none" xmlns="http://www.w3.org/2000/svg">
<path fill-rule="evenodd" clip-rule="evenodd" d="M12.1375 9.98828C11.7036 9.98828 11.2625 10.3813 11.2625 10.9632C11.2625 11.404 11.3571 11.563 11.4045 11.6234C11.4608 11.695 11.5733 11.7842 11.8743 11.8916L15.6394 13.205C16.0799 13.3619 16.5833 13.6079 16.9593 14.0894C17.3435 14.5815 17.5 15.1954 17.5 15.9007C17.5 17.4354 16.3123 18.7507 14.75 18.7507H12.4C10.6934 18.7507 9.375 17.3164 9.375 15.6257C9.375 15.108 9.79474 14.6882 10.3125 14.6882C10.8303 14.6882 11.25 15.108 11.25 15.6257C11.25 16.3602 11.8066 16.8757 12.4 16.8757H14.75C15.1878 16.8757 15.625 16.4911 15.625 15.9007C15.625 15.4687 15.5315 15.3075 15.4814 15.2434C15.4233 15.1689 15.3084 15.0777 15.0133 14.9725L11.2481 13.659C10.8135 13.5044 10.3078 13.2626 9.92988 12.7814C9.54293 12.2886 9.38751 11.6726 9.38751 10.9632C9.38751 9.44531 10.5713 8.11328 12.1375 8.11328H14.4875C16.1941 8.11328 17.5125 9.54772 17.5125 11.2382C17.5125 11.756 17.0928 12.1757 16.575 12.1757C16.0573 12.1757 15.6375 11.756 15.6375 11.2382C15.6375 10.5039 15.0809 9.98828 14.4875 9.98828H12.1375Z" fill="white"/>
<path fill-rule="evenodd" clip-rule="evenodd" d="M13.4375 6.875C13.9553 6.875 14.375 7.29474 14.375 7.8125V19.0625C14.375 19.5802 13.9553 20 13.4375 20C12.9197 20 12.5 19.5802 12.5 19.0625V7.8125C12.5 7.29474 12.9197 6.875 13.4375 6.875Z" fill="white"/>
<path fill-rule="evenodd" clip-rule="evenodd" d="M13.4375 1.875C7.05526 1.875 1.875 7.05526 1.875 13.4375C1.875 19.8197 7.05526 25 13.4375 25C19.8197 25 25 19.8197 25 13.4375C25 12.9197 25.4197 12.5 25.9375 12.5C26.4552 12.5 26.875 12.9197 26.875 13.4375C26.875 20.8552 20.8552 26.875 13.4375 26.875C6.01974 26.875 0 20.8552 0 13.4375C0 6.01974 6.01974 0 13.4375 0C13.9552 0 14.375 0.419737 14.375 0.9375C14.375 1.45526 13.9552 1.875 13.4375 1.875Z" fill="white"/>
<path fill-rule="evenodd" clip-rule="evenodd" d="M19.6875 1.25C20.2053 1.25 20.625 1.66974 20.625 2.1875V6.25H24.6875C25.2053 6.25 25.625 6.66974 25.625 7.1875C25.625 7.70526 25.2053 8.125 24.6875 8.125H19.6875C19.1698 8.125 18.75 7.70526 18.75 7.1875V2.1875C18.75 1.66974 19.1698 1.25 19.6875 1.25Z" fill="white"/>
<path fill-rule="evenodd" clip-rule="evenodd" d="M26.6003 0.274584C26.9665 0.640697 26.9665 1.2343 26.6003 1.60041L20.3503 7.85041C19.9842 8.21652 19.3907 8.21652 19.0246 7.85041C18.6585 7.4843 18.6585 6.8907 19.0246 6.52458L25.2746 0.274584C25.6407 -0.0915281 26.2342 -0.0915281 26.6003 0.274584Z" fill="white"/>
</svg>
