<svg width="30" height="30" viewBox="0 0 30 30" fill="none" xmlns="http://www.w3.org/2000/svg">
<path d="M7.08984 3.47293H22.9082C25.2032 3.47293 27.0721 5.3411 27.0723 7.63602V23.4544C27.0723 25.7495 25.2033 27.6184 22.9082 27.6184H7.08984C4.79493 27.6182 2.92676 25.7493 2.92676 23.4544V7.63602C2.92695 5.34122 4.79505 3.47312 7.08984 3.47293ZM4.70801 23.4544C4.70801 24.7675 5.77677 25.836 7.08984 25.8362H22.9082C24.2214 25.8362 25.29 24.7676 25.29 23.4544V18.5452L25.291 18.346H23.8701C22.5159 18.346 21.268 19.086 20.6992 20.2464C19.6235 22.4383 17.4401 23.8001 14.999 23.8001C12.558 23.7999 10.3742 22.4385 9.29883 20.2454C8.72998 19.0862 7.48304 18.345 6.12891 18.345H4.70801V23.4544ZM7.08984 5.25418C5.77686 5.25437 4.70918 6.32308 4.70898 7.63602V16.5638H6.12988C8.16724 16.5639 10.0375 17.7048 10.8994 19.4612C11.6723 21.037 13.2438 22.0177 14.999 22.0179C16.6445 22.0179 18.1293 21.1572 18.9453 19.7503L19.0996 19.4612C19.9615 17.7048 21.8327 16.5638 23.8691 16.5638H25.29V7.63602C25.2898 6.32294 24.2213 5.25418 22.9082 5.25418H7.08984ZM14.4561 8.29324C14.7761 8.04709 15.2218 8.04722 15.542 8.29324L19.0879 11.0208C19.4775 11.321 19.5499 11.8802 19.251 12.2698C19.0751 12.4979 18.8111 12.6184 18.5449 12.6184C18.355 12.6184 18.1638 12.5582 18.002 12.4339L16.2119 11.0579L15.8906 10.8098V17.1819C15.8906 17.6744 15.4915 18.0725 14.999 18.0725C14.5066 18.0724 14.1084 17.6744 14.1084 17.1819V10.8098L13.7861 11.0579L11.9971 12.4339H11.9961C11.6091 12.7317 11.0556 12.6615 10.7539 12.2786L10.7471 12.2698C10.4473 11.8803 10.5204 11.321 10.9111 11.0208L14.4561 8.29324Z" fill="#00FFBC" stroke="#00FFC7" stroke-width="0.4"/>
</svg>
