<svg width="24" height="24" viewBox="0 0 24 24" fill="none" xmlns="http://www.w3.org/2000/svg">
<path d="M5.67297 2.7178H18.3273C20.1964 2.71783 21.7179 4.24022 21.7179 6.10941V18.7637C21.7179 20.6329 20.1964 22.1543 18.3273 22.1543H5.67297C3.80379 22.1543 2.2814 20.6329 2.28137 18.7637V6.10941C2.28137 4.2402 3.80377 2.7178 5.67297 2.7178ZM3.82727 18.7637C3.8273 19.7811 4.65554 20.6094 5.67297 20.6094H18.3273C19.3447 20.6094 20.1729 19.7811 20.173 18.7637V14.7364H19.0958C18.0337 14.7365 17.0585 15.3176 16.6144 16.2237C15.7438 17.9978 13.9759 19.0996 12.0001 19.0996C10.0243 19.0996 8.25631 17.9978 7.38586 16.2227C6.94163 15.3174 5.96563 14.7364 4.90344 14.7364H3.82727V18.7637ZM5.67297 4.2637C4.65551 4.2637 3.82727 5.09196 3.82727 6.10941V13.1905H4.90442C6.55617 13.1906 8.07354 14.1164 8.77356 15.543C9.38186 16.7831 10.6188 17.5547 12.0001 17.5547C13.3812 17.5547 14.6174 16.7837 15.2257 15.543C15.9257 14.1163 17.4448 13.1905 19.0958 13.1905H20.173V6.10941C20.173 5.09197 19.3447 4.26373 18.3273 4.2637H5.67297ZM11.5294 6.58694C11.807 6.37375 12.1933 6.37361 12.4708 6.58694L15.3068 8.76956C15.6448 9.02988 15.7086 9.51456 15.4493 9.85257C15.2968 10.0504 15.067 10.1543 14.8361 10.1543C14.6716 10.1543 14.5056 10.1029 14.3654 9.99515L12.9337 8.89359L12.7726 8.76956V13.7451C12.7726 14.1722 12.4272 14.5185 12.0001 14.5186C11.573 14.5186 11.2277 14.1723 11.2277 13.7451V8.76956L11.0665 8.89359L9.63489 9.99515H9.63391C9.2987 10.2529 8.81951 10.1921 8.55774 9.86136L8.5509 9.85257C8.29073 9.5147 8.35386 9.03002 8.6925 8.76956L11.5294 6.58694Z" fill="black" stroke="#ADEDDF" stroke-width="0.2"/>
</svg>
