<svg width="30" height="30" viewBox="0 0 30 30" fill="none" xmlns="http://www.w3.org/2000/svg">
<path fill-rule="evenodd" clip-rule="evenodd" d="M13.6063 11.3039C13.1414 11.3039 12.6688 11.7249 12.6688 12.3485C12.6688 12.8207 12.7702 12.9911 12.8209 13.0558C12.8812 13.1325 13.0018 13.2281 13.3243 13.3432L17.3583 14.7504C17.8303 14.9184 18.3696 15.182 18.7725 15.6979C19.1842 16.2252 19.3518 16.8829 19.3518 17.6387C19.3518 19.2829 18.0793 20.6922 16.4054 20.6922H13.8876C12.0591 20.6922 10.6465 19.1554 10.6465 17.344C10.6465 16.7893 11.0962 16.3396 11.6509 16.3396C12.2057 16.3396 12.6554 16.7893 12.6554 17.344C12.6554 18.131 13.2518 18.6833 13.8876 18.6833H16.4054C16.8744 18.6833 17.3429 18.2712 17.3429 17.6387C17.3429 17.1758 17.2427 17.003 17.189 16.9343C17.1268 16.8545 17.0037 16.7569 16.6875 16.6441L12.6534 15.2368C12.1878 15.0711 11.6459 14.8121 11.241 14.2965C10.8264 13.7685 10.6599 13.1085 10.6599 12.3485C10.6599 10.7221 11.9282 9.29496 13.6063 9.29496H16.1242C17.9527 9.29496 19.3652 10.8319 19.3652 12.6431C19.3652 13.1979 18.9155 13.6476 18.3608 13.6476C17.806 13.6476 17.3563 13.1979 17.3563 12.6431C17.3563 11.8563 16.7599 11.3039 16.1242 11.3039H13.6063Z" fill="white"/>
<path fill-rule="evenodd" clip-rule="evenodd" d="M15.0006 7.96875C15.5553 7.96875 16.005 8.41847 16.005 8.97321V21.0268C16.005 21.5815 15.5553 22.0313 15.0006 22.0313C14.4458 22.0313 13.9961 21.5815 13.9961 21.0268V8.97321C13.9961 8.41847 14.4458 7.96875 15.0006 7.96875Z" fill="white"/>
<path fill-rule="evenodd" clip-rule="evenodd" d="M15.0008 2.61161C8.16272 2.61161 2.61244 8.16189 2.61244 15C2.61244 21.8381 8.16272 27.3884 15.0008 27.3884C21.839 27.3884 27.3892 21.8381 27.3892 15C27.3892 14.4453 27.839 13.9955 28.3937 13.9955C28.9484 13.9955 29.3982 14.4453 29.3982 15C29.3982 22.9476 22.9484 29.3973 15.0008 29.3973C7.05323 29.3973 0.603516 22.9476 0.603516 15C0.603516 7.0524 7.05323 0.60268 15.0008 0.60268C15.5556 0.60268 16.0053 1.0524 16.0053 1.60714C16.0053 2.16189 15.5556 2.61161 15.0008 2.61161Z" fill="white"/>
<path fill-rule="evenodd" clip-rule="evenodd" d="M21.6959 1.94196C22.2506 1.94196 22.7003 2.39168 22.7003 2.94643V7.29911H27.053C27.6077 7.29911 28.0575 7.74882 28.0575 8.30357C28.0575 8.85832 27.6077 9.30803 27.053 9.30803H21.6959C21.1411 9.30803 20.6914 8.85832 20.6914 8.30357V2.94643C20.6914 2.39168 21.1411 1.94196 21.6959 1.94196Z" fill="white"/>
<path fill-rule="evenodd" clip-rule="evenodd" d="M29.1025 0.896878C29.4948 1.28914 29.4948 1.92514 29.1025 2.3174L22.4061 9.01383C22.0138 9.4061 21.3779 9.4061 20.9856 9.01383C20.5933 8.62157 20.5933 7.98557 20.9856 7.59331L27.682 0.896878C28.0743 0.504614 28.7102 0.504614 29.1025 0.896878Z" fill="white"/>
</svg>
