<svg width="30" height="30" viewBox="0 0 30 30" fill="none" xmlns="http://www.w3.org/2000/svg">
<path fill-rule="evenodd" clip-rule="evenodd" d="M13.7 11.5503C13.2661 11.5503 12.825 11.9433 12.825 12.5253C12.825 12.966 12.9196 13.125 12.967 13.1854C13.0233 13.257 13.1358 13.3463 13.4368 13.4536L17.2019 14.767C17.6424 14.9239 18.1458 15.1699 18.5218 15.6514C18.906 16.1435 19.0625 16.7574 19.0625 17.4628C19.0625 18.9974 17.8748 20.3128 16.3125 20.3128H13.9625C12.2559 20.3128 10.9375 18.8784 10.9375 17.1878C10.9375 16.67 11.3572 16.2503 11.875 16.2503C12.3928 16.2503 12.8125 16.67 12.8125 17.1878C12.8125 17.9223 13.3691 18.4378 13.9625 18.4378H16.3125C16.7503 18.4378 17.1875 18.0531 17.1875 17.4628C17.1875 17.0308 17.094 16.8695 17.0439 16.8054C16.9858 16.7309 16.8709 16.6398 16.5758 16.5345L12.8106 15.221C12.376 15.0664 11.8703 14.8246 11.4924 14.3434C11.1054 13.8506 10.95 13.2346 10.95 12.5253C10.95 11.0073 12.1338 9.67529 13.7 9.67529H16.05C17.7566 9.67529 19.075 11.1097 19.075 12.8003C19.075 13.318 18.6553 13.7378 18.1375 13.7378C17.6198 13.7378 17.2 13.318 17.2 12.8003C17.2 12.0659 16.6434 11.5503 16.05 11.5503H13.7Z" fill="#00FFBC"/>
<path fill-rule="evenodd" clip-rule="evenodd" d="M15 8.4375C15.5178 8.4375 15.9375 8.85724 15.9375 9.375V20.625C15.9375 21.1428 15.5178 21.5625 15 21.5625C14.4822 21.5625 14.0625 21.1428 14.0625 20.625V9.375C14.0625 8.85724 14.4822 8.4375 15 8.4375Z" fill="#00FFBC"/>
<path fill-rule="evenodd" clip-rule="evenodd" d="M15 3.4375C8.61776 3.4375 3.4375 8.61776 3.4375 15C3.4375 21.3822 8.61776 26.5625 15 26.5625C21.3822 26.5625 26.5625 21.3822 26.5625 15C26.5625 14.4822 26.9822 14.0625 27.5 14.0625C28.0177 14.0625 28.4375 14.4822 28.4375 15C28.4375 22.4177 22.4177 28.4375 15 28.4375C7.58224 28.4375 1.5625 22.4177 1.5625 15C1.5625 7.58224 7.58224 1.5625 15 1.5625C15.5177 1.5625 15.9375 1.98224 15.9375 2.5C15.9375 3.01776 15.5177 3.4375 15 3.4375Z" fill="#00FFBC"/>
<path fill-rule="evenodd" clip-rule="evenodd" d="M21.25 2.8125C21.7678 2.8125 22.1875 3.23224 22.1875 3.75V7.8125H26.25C26.7678 7.8125 27.1875 8.23224 27.1875 8.75C27.1875 9.26776 26.7678 9.6875 26.25 9.6875H21.25C20.7323 9.6875 20.3125 9.26776 20.3125 8.75V3.75C20.3125 3.23224 20.7323 2.8125 21.25 2.8125Z" fill="#00FFBC"/>
<path fill-rule="evenodd" clip-rule="evenodd" d="M28.1628 1.83708C28.529 2.2032 28.529 2.7968 28.1628 3.16291L21.9128 9.41291C21.5467 9.77902 20.9532 9.77902 20.5871 9.41291C20.221 9.0468 20.221 8.4532 20.5871 8.08708L26.8371 1.83708C27.2032 1.47097 27.7967 1.47097 28.1628 1.83708Z" fill="#00FFBC"/>
</svg>
