<svg width="31" height="31" viewBox="0 0 31 31" fill="none" xmlns="http://www.w3.org/2000/svg">
<path d="M5.4541 0.538391H25.2275C28.1254 0.538534 30.4814 2.87852 30.4814 5.74933V25.3636C30.4814 28.2344 28.1254 30.5744 25.2275 30.5745H5.4541C2.55632 30.5743 0.200195 28.2343 0.200195 25.3636V5.74933C0.200195 2.87858 2.55632 0.53863 5.4541 0.538391ZM2.52734 25.3636C2.52734 26.9669 3.84189 28.2686 5.4541 28.2689H25.2275C26.8398 28.2687 28.1543 26.9669 28.1543 25.3636L28.1553 19.2767V19.0765H26.4287C24.7546 19.0765 23.2141 19.9845 22.5117 21.4056C21.1592 24.14 18.4123 25.8401 15.3408 25.8401C12.2696 25.84 9.52319 24.1402 8.1709 21.4046C7.46848 19.9846 5.92714 19.0765 4.25293 19.0765H2.52734V25.3636ZM5.4541 2.84406C3.84186 2.84429 2.52734 4.14608 2.52734 5.74933V16.7708H4.25391C6.81979 16.7709 9.17499 18.1969 10.2607 20.3919V20.3909C11.2189 22.3288 13.1667 23.5344 15.3408 23.5345C17.515 23.5345 19.4618 22.3302 20.4199 20.3909L20.4209 20.3919C21.5066 18.1969 23.8639 16.7708 26.4287 16.7708H28.1543V5.74933C28.1543 4.146 26.8398 2.8442 25.2275 2.84406H5.4541ZM14.6309 6.52667C15.0493 6.20746 15.6324 6.20746 16.0508 6.52667L20.4824 9.90851C20.9592 10.2729 21.0725 10.9312 20.7637 11.4271L20.6963 11.5237C20.4668 11.819 20.1209 11.9749 19.7725 11.9749C19.5551 11.9749 19.3364 11.9153 19.1436 11.7923L19.0635 11.7357L16.8262 10.0286L16.5049 9.78351V17.5853C16.5049 18.221 15.9856 18.7386 15.3408 18.7386C14.6961 18.7386 14.1768 18.221 14.1768 17.5853V9.78351L13.8555 10.0286L11.6191 11.7357H11.6182C11.1114 12.1226 10.3855 12.0305 9.99219 11.5325L9.98535 11.5237C9.59456 11.0202 9.68942 10.2972 10.1992 9.90851L14.6309 6.52667Z" fill="#00FFBC" stroke="#00FFC7" stroke-width="0.4"/>
</svg>
