<svg width="25" height="25" viewBox="0 0 25 25" fill="none" xmlns="http://www.w3.org/2000/svg">
<path d="M4.36328 0.200195H20.1816C22.4766 0.200195 24.3455 2.06836 24.3457 4.36328V20.1816C24.3457 22.4767 22.4767 24.3457 20.1816 24.3457H4.36328C2.06836 24.3455 0.200195 22.4766 0.200195 20.1816V4.36328C0.200388 2.06848 2.06848 0.200388 4.36328 0.200195ZM1.98145 20.1816C1.98145 21.4948 3.0502 22.5633 4.36328 22.5635H20.1816C21.4949 22.5635 22.5635 21.4949 22.5635 20.1816V15.2725L22.5645 15.0732H21.1436C19.7893 15.0732 18.5414 15.8133 17.9727 16.9736C16.897 19.1655 14.7135 20.5273 12.2725 20.5273C9.83148 20.5272 7.64766 19.1657 6.57227 16.9727C6.00342 15.8134 4.75647 15.0723 3.40234 15.0723H1.98145V20.1816ZM4.36328 1.98145C3.0503 1.98164 1.98261 3.05035 1.98242 4.36328V13.291H3.40332C5.44068 13.2912 7.31098 14.4321 8.17285 16.1885C8.94572 17.7642 10.5172 18.745 12.2725 18.7451C13.9179 18.7451 15.4027 17.8844 16.2188 16.4775L16.373 16.1885C17.2349 14.4321 19.1061 13.2911 21.1426 13.291H22.5635V4.36328C22.5633 3.0502 21.4948 1.98145 20.1816 1.98145H4.36328ZM11.7295 5.02051C12.0496 4.77435 12.4953 4.77448 12.8154 5.02051L16.3613 7.74805C16.7509 8.0483 16.8233 8.60749 16.5244 8.99707C16.3485 9.22517 16.0846 9.34564 15.8184 9.3457C15.6284 9.3457 15.4372 9.2855 15.2754 9.16113L13.4854 7.78516L13.1641 7.53711V13.9092C13.1641 14.4017 12.765 14.7998 12.2725 14.7998C11.7801 14.7997 11.3818 14.4016 11.3818 13.9092V7.53711L11.0596 7.78516L9.27051 9.16113H9.26953C8.88255 9.45897 8.32899 9.38881 8.02734 9.00586L8.02051 8.99707C7.72075 8.60752 7.79386 8.04827 8.18457 7.74805L11.7295 5.02051Z" fill="white" stroke="#339781" stroke-width="0.4"/>
</svg>
