<svg width="27" height="24" viewBox="0 0 27 24" fill="none" xmlns="http://www.w3.org/2000/svg">
<path d="M2.37188 1.5147e-05C3.69701 -0.00586103 5.02214 -0.010251 6.34728 -0.0129379C6.96275 -0.0142194 7.57822 -0.0159622 8.19369 -0.0188447C8.73101 -0.02136 9.26831 -0.0229549 9.80563 -0.023507C10.0894 -0.023829 10.3731 -0.0245693 10.6568 -0.0264174C14.2742 -0.0473373 17.7707 0.675715 20.4818 3.27052C21.8261 4.69004 22.6257 6.36849 23.1537 8.25001C23.2147 8.25123 23.2757 8.25245 23.3386 8.2537C23.6179 8.25994 23.8972 8.26799 24.1764 8.27606C24.3204 8.27888 24.3204 8.27888 24.4673 8.28175C25.2186 8.3054 25.8068 8.40084 26.3769 8.93231C26.8852 9.51676 27.0128 10.0941 27.0043 10.8542C27.0039 10.9163 27.0035 10.9784 27.0031 11.0423C27.0022 11.1949 27.0007 11.3475 26.9992 11.5C26.9223 11.4473 26.9223 11.4473 26.8438 11.3936C26.777 11.3479 26.7101 11.3023 26.6412 11.2552C26.5748 11.2098 26.5083 11.1643 26.4398 11.1175C26.1254 10.9088 25.8776 10.8994 25.5104 10.8903C25.4526 10.8886 25.3947 10.8869 25.335 10.8851C25.15 10.8796 24.9649 10.8747 24.7798 10.8698C24.6544 10.8662 24.5291 10.8626 24.4037 10.8589C24.0961 10.8499 23.7885 10.8416 23.481 10.8333C23.481 11.5758 23.481 12.3183 23.481 13.0833C23.7611 13.0748 24.0412 13.0662 24.3298 13.0573C25.1644 13.0474 25.6892 13.146 26.3344 13.7031C26.8368 14.3202 27.0276 14.8248 27.0094 15.6146C27.0086 15.6759 27.0079 15.7373 27.0071 15.8005C27.0052 15.9503 27.0023 16.1002 26.9992 16.25C26.9429 16.2149 26.8867 16.1798 26.8288 16.1436C26.7182 16.0751 26.7182 16.0751 26.6054 16.0052C26.5323 15.9598 26.4592 15.9143 26.3839 15.8675C26.0212 15.6575 25.7087 15.6556 25.303 15.6585C25.2109 15.6587 25.2109 15.6587 25.117 15.6589C24.9211 15.6594 24.7252 15.6604 24.5293 15.6615C24.3964 15.6619 24.2635 15.6623 24.1306 15.6626C23.8049 15.6635 23.4793 15.665 23.1537 15.6667C23.1192 15.8028 23.1192 15.8028 23.0841 15.9417C22.7013 17.4338 22.0513 18.7935 21.1082 20C21.0629 20.0594 21.0175 20.1188 20.9708 20.18C20.6729 20.5531 20.3247 20.8597 19.9628 21.1667C19.9041 21.219 19.8455 21.2713 19.7851 21.3252C17.5724 23.2348 14.4719 23.9352 11.6342 23.9261C11.5328 23.9262 11.4313 23.9262 11.3268 23.9262C11.0511 23.9261 10.7754 23.9257 10.4998 23.9251C10.2107 23.9246 9.92171 23.9246 9.63267 23.9245C9.08648 23.9242 8.5403 23.9235 7.99411 23.9227C7.37182 23.9217 6.74952 23.9213 6.12721 23.9209C4.84816 23.92 3.56911 23.9185 2.29006 23.9167C2.32921 23.8559 2.36836 23.7951 2.40869 23.7325C2.46014 23.6516 2.51159 23.5707 2.5646 23.4873C2.61556 23.4076 2.66652 23.3279 2.71903 23.2458C3.31629 22.2247 3.37914 21.0876 3.40547 19.9291C3.40885 19.8032 3.41228 19.6773 3.41578 19.5515C3.42474 19.223 3.43285 18.8945 3.44079 18.5659C3.44906 18.2296 3.45815 17.8933 3.46716 17.557C3.48466 16.8991 3.50129 16.2412 3.51733 15.5833C3.46461 15.5855 3.41189 15.5877 3.35757 15.59C3.11426 15.5987 2.87097 15.6041 2.62756 15.6094C2.50321 15.6146 2.50321 15.6146 2.37635 15.62C1.70935 15.6309 1.1737 15.4847 0.663526 15.0294C0.120707 14.4598 -0.0274618 13.8003 -0.0213018 13.0313C-0.0171317 12.8261 -0.00983713 12.6217 -0.000847293 12.4167C0.0482814 12.4579 0.09741 12.4991 0.148027 12.5415C0.836618 13.0582 1.44635 13.0849 2.26449 13.0781C2.38653 13.0792 2.50857 13.0806 2.6306 13.0822C2.92634 13.0861 3.2214 13.0846 3.51733 13.0833C3.51733 12.3408 3.51733 11.5983 3.51733 10.8333C3.16633 10.8333 2.81533 10.8333 2.4537 10.8333C1.57409 10.8067 1.11007 10.6674 0.505403 10.0156C-0.077648 9.28214 -0.0299449 8.57114 -0.000847293 7.66668C0.0553675 7.70181 0.111582 7.73694 0.169501 7.77313C0.243223 7.81878 0.316946 7.86444 0.392903 7.91147C0.502537 7.97963 0.502537 7.97963 0.614387 8.04917C0.958065 8.24817 1.23354 8.26464 1.62369 8.27638C1.70489 8.27898 1.70489 8.27898 1.78773 8.28163C1.96028 8.28707 2.13284 8.29199 2.3054 8.29689C2.42254 8.30049 2.53967 8.30412 2.65681 8.30779C2.94364 8.31671 3.23048 8.32515 3.51733 8.33335C3.50338 7.64209 3.48781 6.9509 3.47028 6.25973C3.46219 5.93862 3.45461 5.61752 3.4483 5.29636C3.41284 2.7193 3.41284 2.7193 2.53552 0.333348C2.48053 0.222465 2.42591 0.111389 2.37188 1.5147e-05ZM7.11733 1.25002C7.11733 3.58751 7.11733 5.92501 7.11733 8.33335C11.0593 8.33335 15.0013 8.33335 19.0628 8.33335C18.6718 6.54111 18.2236 4.96698 17.0173 3.58335C16.9689 3.5262 16.9205 3.46905 16.8706 3.41017C15.5897 1.99707 13.6155 1.3913 11.781 1.25002C11.4169 1.23934 11.0531 1.24028 10.6889 1.24188C10.5525 1.242 10.5525 1.242 10.4133 1.24213C10.0766 1.24256 9.73986 1.24373 9.40313 1.24481C8.64882 1.24653 7.8945 1.24824 7.11733 1.25002ZM7.11733 10.8333C7.11733 11.5758 7.11733 12.3183 7.11733 13.0833C11.1403 13.0833 15.1633 13.0833 19.3082 13.0833C19.3082 12.3408 19.3082 11.5983 19.3082 10.8333C15.2852 10.8333 11.2622 10.8333 7.11733 10.8333ZM7.11733 15.5833C7.11733 17.9208 7.11733 20.2583 7.11733 22.6667C7.80583 22.6736 8.49433 22.6804 9.2037 22.6875C9.41648 22.6905 9.62926 22.6936 9.8485 22.6967C12.5148 22.7187 14.9757 22.2738 16.9505 20.3236C18.1325 19.0423 18.7824 17.2969 19.0628 15.5833C15.1208 15.5833 11.1788 15.5833 7.11733 15.5833Z" fill="white"/>
</svg>
