<svg width="27" height="24" viewBox="0 0 27 24" fill="none" xmlns="http://www.w3.org/2000/svg">
<path d="M2.37383 -0.000473134C3.69896 -0.00634931 5.02409 -0.0107393 6.34923 -0.0134262C6.96471 -0.0147077 7.58018 -0.0164504 8.19565 -0.019333C8.73296 -0.0218483 9.27027 -0.0234432 9.80758 -0.0239953C10.0913 -0.0243173 10.375 -0.0250576 10.6587 -0.0269056C14.2762 -0.0478256 17.7727 0.675227 20.4838 3.27003C21.8281 4.68955 22.6277 6.368 23.1556 8.24953C23.2167 8.25074 23.2777 8.25196 23.3405 8.25321C23.6199 8.25946 23.8991 8.2675 24.1784 8.27557C24.3223 8.27839 24.3223 8.27839 24.4692 8.28126C25.2206 8.30491 25.8088 8.40036 26.3788 8.93182C26.8871 9.51627 27.0148 10.0937 27.0062 10.8537C27.0058 10.9158 27.0055 10.9779 27.0051 11.0418C27.0041 11.1944 27.0027 11.347 27.0011 11.4995C26.9242 11.4468 26.9242 11.4468 26.8458 11.3931C26.7789 11.3474 26.712 11.3018 26.6432 11.2547C26.5767 11.2093 26.5103 11.1639 26.4418 11.117C26.1273 10.9083 25.8796 10.8989 25.5124 10.8898C25.4545 10.8881 25.3966 10.8864 25.337 10.8846C25.1519 10.8791 24.9669 10.8742 24.7818 10.8693C24.6564 10.8657 24.531 10.8621 24.4056 10.8584C24.0981 10.8494 23.7905 10.8412 23.4829 10.8329C23.4829 11.5754 23.4829 12.3179 23.4829 13.0829C23.763 13.0743 24.0432 13.0657 24.3318 13.0568C25.1663 13.0469 25.6912 13.1455 26.3363 13.7027C26.8387 14.3197 27.0296 14.8243 27.0113 15.6141C27.0106 15.6754 27.0099 15.7368 27.0091 15.8C27.0072 15.9498 27.0042 16.0997 27.0011 16.2495C26.9449 16.2144 26.8887 16.1793 26.8308 16.1431C26.7202 16.0746 26.7202 16.0746 26.6074 16.0047C26.5343 15.9593 26.4612 15.9139 26.3859 15.867C26.0232 15.657 25.7106 15.6551 25.305 15.6581C25.2129 15.6582 25.2129 15.6582 25.1189 15.6584C24.923 15.6589 24.7271 15.6599 24.5312 15.661C24.3983 15.6614 24.2654 15.6618 24.1325 15.6621C23.8069 15.663 23.4813 15.6645 23.1556 15.6662C23.1212 15.8024 23.1212 15.8024 23.086 15.9413C22.7032 17.4333 22.0532 18.793 21.1102 19.9995C21.0648 20.0589 21.0195 20.1183 20.9728 20.1795C20.6749 20.5527 20.3267 20.8592 19.9647 21.1662C19.9061 21.2185 19.8475 21.2708 19.787 21.3247C17.5743 23.2343 14.4738 23.9347 11.6362 23.9257C11.5347 23.9257 11.4333 23.9257 11.3287 23.9257C11.053 23.9256 10.7774 23.9252 10.5017 23.9246C10.2127 23.9241 9.92366 23.9241 9.63462 23.924C9.08844 23.9237 8.54225 23.923 7.99607 23.9222C7.37377 23.9213 6.75147 23.9208 6.12917 23.9204C4.85012 23.9195 3.57107 23.9181 2.29201 23.9162C2.33116 23.8554 2.37031 23.7946 2.41065 23.732C2.4621 23.6511 2.51355 23.5702 2.56655 23.4868C2.61751 23.4071 2.66848 23.3274 2.72098 23.2453C3.31824 22.2242 3.38109 21.0871 3.40743 19.9286C3.4108 19.8027 3.41424 19.6768 3.41773 19.551C3.42669 19.2225 3.43481 18.894 3.44274 18.5655C3.45102 18.2291 3.4601 17.8928 3.46911 17.5565C3.48662 16.8986 3.50324 16.2408 3.51929 15.5829C3.46657 15.585 3.41385 15.5872 3.35953 15.5895C3.11621 15.5982 2.87293 15.6036 2.62951 15.6089C2.50517 15.6141 2.50517 15.6141 2.37831 15.6195C1.71131 15.6304 1.17565 15.4842 0.665479 15.0289C0.122661 14.4593 -0.0255087 13.7999 -0.0193487 13.0308C-0.0151785 12.8256 -0.007884 12.6212 0.00110583 12.4162C0.0502345 12.4574 0.0993632 12.4986 0.149981 12.5411C0.838571 13.0578 1.44831 13.0844 2.26645 13.0777C2.38848 13.0787 2.51052 13.0801 2.63255 13.0817C2.9283 13.0856 3.22335 13.0841 3.51929 13.0829C3.51929 12.3404 3.51929 11.5979 3.51929 10.8329C3.16829 10.8329 2.81729 10.8329 2.45565 10.8329C1.57605 10.8062 1.11203 10.6669 0.507356 10.0152C-0.0756949 9.28165 -0.0279918 8.57065 0.00110583 7.66619C0.0573207 7.70132 0.113536 7.73645 0.171454 7.77264C0.245176 7.81829 0.318899 7.86395 0.394856 7.91098C0.504491 7.97914 0.504491 7.97914 0.61634 8.04868C0.960018 8.24768 1.23549 8.26416 1.62564 8.27589C1.70685 8.27849 1.70685 8.27849 1.78969 8.28114C1.96223 8.28658 2.13479 8.2915 2.30736 8.2964C2.42449 8.3 2.54163 8.30364 2.65876 8.30731C2.94559 8.31622 3.23243 8.32466 3.51929 8.33286C3.50534 7.6416 3.48976 6.95041 3.47224 6.25925C3.46414 5.93813 3.45656 5.61703 3.45025 5.29587C3.4148 2.71882 3.4148 2.71882 2.53747 0.33286C2.48248 0.221977 2.42786 0.110901 2.37383 -0.000473134ZM7.11929 1.24953C7.11929 3.58703 7.11929 5.92453 7.11929 8.33286C11.0613 8.33286 15.0033 8.33286 19.0647 8.33286C18.6737 6.54063 18.2255 4.9665 17.0193 3.58286C16.9709 3.52571 16.9225 3.46856 16.8726 3.40968C15.5917 1.99658 13.6175 1.39081 11.7829 1.24953C11.4188 1.23885 11.055 1.23979 10.6908 1.24139C10.5544 1.24151 10.5544 1.24151 10.4153 1.24164C10.0785 1.24208 9.74181 1.24324 9.40508 1.24432C8.65077 1.24604 7.89646 1.24776 7.11929 1.24953ZM7.11929 10.8329C7.11929 11.5754 7.11929 12.3179 7.11929 13.0829C11.1423 13.0829 15.1653 13.0829 19.3102 13.0829C19.3102 12.3404 19.3102 11.5979 19.3102 10.8329C15.2872 10.8329 11.2642 10.8329 7.11929 10.8329ZM7.11929 15.5829C7.11929 17.9204 7.11929 20.2579 7.11929 22.6662C7.80779 22.6731 8.49629 22.6799 9.20565 22.687C9.41843 22.6901 9.63122 22.6931 9.85045 22.6962C12.5168 22.7182 14.9777 22.2733 16.9525 20.3231C18.1345 19.0418 18.7843 17.2964 19.0647 15.5829C15.1227 15.5829 11.1807 15.5829 7.11929 15.5829Z" fill="black"/>
</svg>
