<svg width="20" height="20" viewBox="0 0 20 20" fill="none" xmlns="http://www.w3.org/2000/svg">
<path d="M10 16.6667V18.3334" stroke="#04C18F" stroke-opacity="0.5" stroke-width="1.66667" stroke-linecap="round" stroke-linejoin="round"/>
<path d="M10 1.66675V3.33341" stroke="#04C18F" stroke-opacity="0.5" stroke-width="1.66667" stroke-linecap="round" stroke-linejoin="round"/>
<path d="M14.166 16.6667V18.3334" stroke="#04C18F" stroke-opacity="0.5" stroke-width="1.66667" stroke-linecap="round" stroke-linejoin="round"/>
<path d="M14.166 1.66675V3.33341" stroke="#04C18F" stroke-opacity="0.5" stroke-width="1.66667" stroke-linecap="round" stroke-linejoin="round"/>
<path d="M1.66602 10H3.33268" stroke="#04C18F" stroke-opacity="0.5" stroke-width="1.66667" stroke-linecap="round" stroke-linejoin="round"/>
<path d="M1.66602 14.1667H3.33268" stroke="#04C18F" stroke-opacity="0.5" stroke-width="1.66667" stroke-linecap="round" stroke-linejoin="round"/>
<path d="M1.66602 5.83325H3.33268" stroke="#04C18F" stroke-opacity="0.5" stroke-width="1.66667" stroke-linecap="round" stroke-linejoin="round"/>
<path d="M16.666 10H18.3327" stroke="#04C18F" stroke-opacity="0.5" stroke-width="1.66667" stroke-linecap="round" stroke-linejoin="round"/>
<path d="M16.666 14.1667H18.3327" stroke="#04C18F" stroke-opacity="0.5" stroke-width="1.66667" stroke-linecap="round" stroke-linejoin="round"/>
<path d="M16.666 5.83325H18.3327" stroke="#04C18F" stroke-opacity="0.5" stroke-width="1.66667" stroke-linecap="round" stroke-linejoin="round"/>
<path d="M5.83398 16.6667V18.3334" stroke="#04C18F" stroke-opacity="0.5" stroke-width="1.66667" stroke-linecap="round" stroke-linejoin="round"/>
<path d="M5.83398 1.66675V3.33341" stroke="#04C18F" stroke-opacity="0.5" stroke-width="1.66667" stroke-linecap="round" stroke-linejoin="round"/>
<path d="M15.0007 3.33325H5.00065C4.08018 3.33325 3.33398 4.07944 3.33398 4.99992V14.9999C3.33398 15.9204 4.08018 16.6666 5.00065 16.6666H15.0007C15.9211 16.6666 16.6673 15.9204 16.6673 14.9999V4.99992C16.6673 4.07944 15.9211 3.33325 15.0007 3.33325Z" stroke="#04C18F" stroke-opacity="0.5" stroke-width="1.66667" stroke-linecap="round" stroke-linejoin="round"/>
<path d="M12.4993 6.66675H7.49935C7.03911 6.66675 6.66602 7.03984 6.66602 7.50008V12.5001C6.66602 12.9603 7.03911 13.3334 7.49935 13.3334H12.4993C12.9596 13.3334 13.3327 12.9603 13.3327 12.5001V7.50008C13.3327 7.03984 12.9596 6.66675 12.4993 6.66675Z" stroke="#04C18F" stroke-opacity="0.5" stroke-width="1.66667" stroke-linecap="round" stroke-linejoin="round"/>
</svg>
