<svg width="20" height="20" viewBox="0 0 20 20" fill="none" xmlns="http://www.w3.org/2000/svg">
<path fill-rule="evenodd" clip-rule="evenodd" d="M6.98448 7.54335C8.58982 8.16336 10.5188 8.16336 12.1238 7.54269C12.8227 8.28017 13.4023 9.12219 13.8415 10.0384C14.1322 10.083 14.4105 10.165 14.6715 10.2794C14.1959 9.06469 13.3912 7.88402 12.5262 7.00002L13.7575 5.20001C13.5561 5.06886 13.3461 4.95148 13.1288 4.84867C12.3155 4.45367 11.0092 4 9.57049 4C8.10182 4 6.76014 4.47334 5.94181 4.87367C5.86047 4.91367 5.78447 4.95256 5.7138 4.99034C5.57147 5.06701 5.45147 5.13834 5.35747 5.20001L6.58014 7.00002C3.71679 10.0127 1.58345 15.9991 9.57049 15.9991C10.1172 16.002 10.6635 15.9686 11.2058 15.8991C10.9908 15.7209 10.7989 15.5164 10.6348 15.2904C10.3077 15.318 9.95294 15.332 9.57049 15.3324C7.64215 15.3324 6.43281 14.9687 5.71047 14.4687C5.0188 13.9897 4.71513 13.3454 4.67213 12.5914C4.62747 11.808 4.86713 10.8937 5.31614 9.96803C5.74447 9.08536 6.34247 8.23569 6.98448 7.54335ZM11.7348 6.97602L12.7208 5.53501C11.8042 5.60101 10.7132 5.81634 9.66316 6.12034C8.91316 6.33701 8.08015 6.30401 7.30815 6.16168C7.11368 6.12567 6.92056 6.08276 6.72914 6.03301L7.36915 6.97535C8.74115 7.46369 10.3632 7.46369 11.7348 6.97602ZM6.60148 5.30534C6.86814 5.38467 7.14648 5.45367 7.42915 5.50601C8.14582 5.63801 8.86482 5.65734 9.47783 5.47967C10.1925 5.27137 10.9195 5.10761 11.6545 4.98934C11.0412 4.80467 10.3242 4.66667 9.57016 4.66667C8.42182 4.66667 7.35115 4.98701 6.60148 5.30534Z" fill="black" fill-opacity="0.7"/>
<path d="M9.57031 3.9502C11.0187 3.9502 12.3326 4.40657 13.1504 4.80371L13.4736 4.96973C13.5795 5.02887 13.6835 5.09201 13.7852 5.1582L13.8281 5.18555L13.7988 5.22852L12.5898 6.99512C13.448 7.87997 14.2446 9.05275 14.7178 10.2607L14.7617 10.374L14.6514 10.3252C14.3943 10.2126 14.1202 10.1319 13.834 10.0879L13.8076 10.084L13.7969 10.0596C13.3643 9.15738 12.7942 8.32793 12.1084 7.59961C10.5091 8.20813 8.59858 8.20952 6.99902 7.60156C6.36856 8.28614 5.78239 9.12255 5.36133 9.99023C4.91456 10.9114 4.67767 11.8171 4.72168 12.5889C4.76396 13.329 5.06165 13.9585 5.73926 14.4277C6.4499 14.9195 7.64747 15.2822 9.57031 15.2822C9.9516 15.2818 10.3053 15.2677 10.6309 15.2402L10.6592 15.2383L10.6748 15.2607C10.8363 15.4832 11.0256 15.6849 11.2373 15.8604L11.3262 15.9336L11.2119 15.9482C10.8035 16.0006 10.3929 16.0335 9.98145 16.0449L9.57031 16.0488C7.56854 16.0488 6.19286 15.674 5.30273 15.0576C4.4103 14.4396 4.0104 13.5821 3.95605 12.6318C3.90193 11.6839 4.19097 10.6444 4.6709 9.65527C5.145 8.67814 5.80788 7.74675 6.5166 6.99512L5.31641 5.22852L5.28711 5.18652L5.33008 5.1582C5.42551 5.0956 5.54711 5.02349 5.69043 4.94629L5.91992 4.8291C6.7426 4.42664 8.09175 3.95023 9.57031 3.9502ZM12.6191 5.59375C11.7291 5.66778 10.6843 5.87626 9.67676 6.16797C8.91656 6.38755 8.07495 6.35403 7.29883 6.21094C7.14578 6.1826 6.99399 6.14814 6.84277 6.11133L7.40039 6.93359C8.75364 7.41121 10.3502 7.4096 11.7031 6.93262L12.6191 5.59375ZM9.57031 4.7168C8.4985 4.7168 7.49393 4.999 6.75781 5.2959C6.97932 5.3577 7.20729 5.41423 7.43848 5.45703C8.15091 5.58822 8.86123 5.6063 9.46387 5.43164L10.0039 5.2832C10.4756 5.16146 10.9525 5.06074 11.4326 4.97754C10.8713 4.82464 10.235 4.71681 9.57031 4.7168Z" stroke="black" stroke-opacity="0.7" stroke-width="0.1"/>
<path fill-rule="evenodd" clip-rule="evenodd" d="M9.5547 11.3333C9.89503 11.3333 10.2057 11.461 10.4414 11.671C10.317 11.8871 10.2173 12.1164 10.144 12.3547C10.0873 12.2476 10.0025 12.158 9.89864 12.0955C9.7948 12.033 9.67589 12 9.5547 12V13.3334C9.72703 13.3334 9.88403 13.268 10.0024 13.1607C9.9893 13.41 10.0043 13.66 10.047 13.906C9.89034 13.9682 9.72328 14.0001 9.5547 14V14.3334H8.88803V14C8.61224 14.0001 8.34323 13.9146 8.11805 13.7554C7.89287 13.5962 7.72259 13.371 7.63069 13.111C7.60125 13.0277 7.60613 12.936 7.64427 12.8562C7.6824 12.7765 7.75066 12.7151 7.83402 12.6857C7.91739 12.6562 8.00904 12.6611 8.0888 12.6993C8.16857 12.7374 8.22992 12.8057 8.25936 12.889C8.30534 13.019 8.39049 13.1315 8.50308 13.2111C8.61566 13.2907 8.75016 13.3334 8.88803 13.3334V12C8.5344 12 8.19526 11.8595 7.94521 11.6095C7.69516 11.3594 7.55469 11.0203 7.55469 10.6667C7.55469 10.3131 7.69516 9.97391 7.94521 9.72386C8.19526 9.47381 8.5344 9.33334 8.88803 9.33334V9H9.5547V9.33334C9.83048 9.33329 10.0995 9.41876 10.3247 9.57798C10.5499 9.7372 10.7201 9.96232 10.812 10.2223C10.8266 10.2636 10.8329 10.3074 10.8306 10.3511C10.8283 10.3948 10.8173 10.4376 10.7985 10.4771C10.7796 10.5166 10.7531 10.552 10.7205 10.5813C10.688 10.6105 10.65 10.6331 10.6087 10.6477C10.5674 10.6623 10.5237 10.6686 10.48 10.6662C10.4362 10.6639 10.3934 10.653 10.3539 10.6341C10.3144 10.6152 10.279 10.5887 10.2498 10.5562C10.2205 10.5236 10.1979 10.4856 10.1834 10.4443C10.1374 10.3144 10.0522 10.2018 9.93965 10.1223C9.82706 10.0427 9.69257 9.99997 9.5547 10V11.3333ZM8.88803 10C8.71122 10 8.54165 10.0702 8.41662 10.1953C8.2916 10.3203 8.22136 10.4899 8.22136 10.6667C8.22136 10.8435 8.2916 11.0131 8.41662 11.1381C8.54165 11.2631 8.71122 11.3333 8.88803 11.3333V10Z" fill="black" fill-opacity="0.7"/>
<path d="M9.60449 8.9502V9.28418C9.87308 9.29381 10.1335 9.38154 10.3535 9.53711C10.5871 9.7023 10.764 9.93628 10.8594 10.2061C10.876 10.2533 10.8835 10.3035 10.8809 10.3535C10.8782 10.4038 10.8655 10.4536 10.8438 10.499C10.8221 10.5443 10.7912 10.5846 10.7539 10.6182C10.7165 10.6518 10.6725 10.6776 10.625 10.6943C10.5776 10.711 10.5277 10.7185 10.4775 10.7158C10.4273 10.7131 10.3775 10.7014 10.332 10.6797C10.2868 10.658 10.2465 10.6271 10.2129 10.5898C10.1792 10.5524 10.1525 10.5084 10.1357 10.4609V10.46C10.0932 10.3403 10.0149 10.2365 9.91113 10.1631C9.82063 10.0991 9.71435 10.0626 9.60449 10.0537V11.2852C9.93803 11.297 10.2417 11.4262 10.4746 11.6338L10.5049 11.6611L10.4844 11.6963C10.362 11.909 10.2635 12.1346 10.1914 12.3691L10.1562 12.4844L10.0996 12.3779C10.0472 12.2791 9.96889 12.1964 9.87305 12.1387C9.79128 12.0895 9.69917 12.0604 9.60449 12.0527V13.2783C9.74408 13.2671 9.87086 13.2127 9.96875 13.124L10.0586 13.042L10.0527 13.1631C10.0399 13.4087 10.0546 13.6552 10.0967 13.8975L10.1035 13.9375L10.0654 13.9521C9.91834 14.0105 9.7624 14.0412 9.60449 14.0469V14.3838H8.83789V14.0479C8.56942 14.0382 8.30881 13.9514 8.08887 13.7959C7.85552 13.6308 7.67932 13.3974 7.58398 13.1279C7.55014 13.0321 7.55578 12.9267 7.59961 12.835C7.64346 12.7432 7.72153 12.6725 7.81738 12.6387C7.91325 12.6048 8.01862 12.6104 8.11035 12.6543C8.20199 12.6981 8.27276 12.7763 8.30664 12.8721C8.34917 12.9923 8.42808 13.0963 8.53223 13.1699C8.62262 13.2338 8.72818 13.2703 8.83789 13.2793V12.0469C8.48924 12.0342 8.15772 11.8921 7.91016 11.6445C7.65081 11.3852 7.50497 11.0338 7.50488 10.667C7.50488 10.3001 7.65073 9.9479 7.91016 9.68848C8.15772 9.441 8.4893 9.2978 8.83789 9.28516V8.9502H9.60449ZM8.83789 10.0537C8.69282 10.0656 8.55587 10.1268 8.45215 10.2305C8.3365 10.3461 8.27148 10.5034 8.27148 10.667C8.27157 10.8304 8.33658 10.987 8.45215 11.1025C8.55586 11.2063 8.69279 11.2664 8.83789 11.2783V10.0537Z" stroke="black" stroke-opacity="0.7" stroke-width="0.1"/>
<path d="M13.6682 13.4733L14.0648 13.1177L14.5098 13.6143L13.3348 14.667L12.1602 13.6137L12.6052 13.1173L13.0015 13.473V12H13.6682V13.4733Z" fill="black" fill-opacity="0.7"/>
<path d="M13.7178 11.9502V13.3613L14.0312 13.0801L14.0684 13.0469L14.1025 13.084L14.5469 13.5811L14.5801 13.6182L14.543 13.6514L13.3682 14.7041L13.335 14.7344L13.3018 14.7041L12.127 13.6514L12.0898 13.6172L12.123 13.5801L12.5684 13.084L12.6016 13.0469L12.6387 13.0801L12.9512 13.3594V11.9502H13.7178Z" stroke="black" stroke-opacity="0.7" stroke-width="0.1"/>
<path fill-rule="evenodd" clip-rule="evenodd" d="M13.3307 16.0004C14.038 16.0004 14.7163 15.7194 15.2164 15.2193C15.7165 14.7192 15.9974 14.0409 15.9974 13.3337C15.9974 12.6264 15.7165 11.9481 15.2164 11.448C14.7163 10.9479 14.038 10.667 13.3307 10.667C12.6235 10.667 11.9452 10.9479 11.4451 11.448C10.945 11.9481 10.6641 12.6264 10.6641 13.3337C10.6641 14.0409 10.945 14.7192 11.4451 15.2193C11.9452 15.7194 12.6235 16.0004 13.3307 16.0004ZM13.3307 15.3337C13.8612 15.3337 14.3699 15.123 14.745 14.7479C15.12 14.3728 15.3308 13.8641 15.3308 13.3337C15.3308 12.8032 15.12 12.2945 14.745 11.9195C14.3699 11.5444 13.8612 11.3337 13.3307 11.3337C12.8003 11.3337 12.2916 11.5444 11.9165 11.9195C11.5414 12.2945 11.3307 12.8032 11.3307 13.3337C11.3307 13.8641 11.5414 14.3728 11.9165 14.7479C12.2916 15.123 12.8003 15.3337 13.3307 15.3337Z" fill="black" fill-opacity="0.7"/>
<path d="M13.3311 10.6172C14.0515 10.6173 14.7425 10.9037 15.252 11.4131C15.7612 11.9225 16.0479 12.6136 16.0479 13.334C16.0478 14.0544 15.7614 14.7455 15.252 15.2549C14.7425 15.7643 14.0515 16.0507 13.3311 16.0508C12.6107 16.0508 11.9196 15.7642 11.4102 15.2549C10.9008 14.7455 10.6143 14.0544 10.6143 13.334C10.6143 12.6135 10.9007 11.9226 11.4102 11.4131C11.9196 10.9036 12.6105 10.6172 13.3311 10.6172ZM13.3311 11.3838C12.8139 11.3838 12.3178 11.5894 11.9521 11.9551C11.5865 12.3208 11.3809 12.8168 11.3809 13.334C11.3809 13.851 11.5865 14.3473 11.9521 14.7129C12.3178 15.0784 12.814 15.2832 13.3311 15.2832C13.8481 15.2831 14.3443 15.0785 14.71 14.7129C15.0756 14.3473 15.2802 13.851 15.2803 13.334C15.2803 12.817 15.0755 12.3207 14.71 11.9551C14.3443 11.5895 13.8481 11.3839 13.3311 11.3838Z" stroke="black" stroke-opacity="0.7" stroke-width="0.1"/>
</svg>
