<svg width="12" height="13" viewBox="0 0 12 13" fill="none" xmlns="http://www.w3.org/2000/svg">
<path d="M6.94732 11.2136C6.14369 12.0172 5.18344 12.4241 4.06657 12.4344C2.94898 12.4446 1.98997 12.0495 1.18953 11.2491C0.390141 10.4497 -0.00636872 9.48928 -4.69538e-06 8.36781C0.00635933 7.24634 0.411531 6.28432 1.21551 5.48176L5.84529 0.851975C6.40638 0.290886 7.07637 0.0069826 7.85524 0.000265007C8.63342 -0.00645278 9.30305 0.270733 9.86413 0.831822C10.4252 1.39291 10.7024 2.06254 10.6957 2.84071C10.6883 3.61888 10.404 4.28851 9.84292 4.8496L5.45762 9.2349C5.1465 9.54603 4.76978 9.70566 4.32749 9.71379C3.88519 9.72192 3.50778 9.56972 3.19523 9.25718C2.88269 8.94464 2.72483 8.5651 2.72165 8.11856C2.71847 7.67202 2.87598 7.28965 3.19417 6.97145L7.33499 2.83064C7.40994 2.75568 7.49833 2.71821 7.60016 2.71821C7.70198 2.71821 7.79037 2.75568 7.86532 2.83064C7.94027 2.90559 7.97775 2.99398 7.97775 3.0958C7.97775 3.19762 7.94027 3.28601 7.86532 3.36097L3.7245 7.50178C3.55515 7.67114 3.46871 7.87319 3.46517 8.10795C3.46164 8.34271 3.54454 8.54512 3.7139 8.71518C3.88325 8.88524 4.08566 8.96815 4.32112 8.9639C4.55659 8.95966 4.75882 8.87339 4.92782 8.7051L9.32373 4.3092C9.7335 3.89519 9.94121 3.40392 9.94687 2.83541C9.95252 2.2669 9.74817 1.77581 9.3338 1.36215C8.92262 0.95097 8.42995 0.74856 7.85578 0.754924C7.2816 0.761288 6.7884 0.970593 6.37615 1.38284L1.74637 6.01262C1.08876 6.66598 0.75713 7.45087 0.751473 8.36728C0.745816 9.28369 1.07002 10.0689 1.7241 10.723C2.36863 11.3675 3.14733 11.6849 4.0602 11.675C4.97308 11.6651 5.75867 11.3345 6.41699 10.6832L10.8023 6.29793C10.8772 6.22298 10.9656 6.1855 11.0675 6.1855C11.1693 6.1855 11.2578 6.22316 11.3331 6.29846C11.4085 6.37377 11.4459 6.46216 11.4456 6.56363C11.4452 6.6651 11.4076 6.75331 11.3326 6.82826L6.94732 11.2136Z" fill="black"/>
</svg>
