<svg width="16" height="16" viewBox="0 0 16 16" fill="none" xmlns="http://www.w3.org/2000/svg">
<path d="M9.54688 13.9502V15.0498H6.44727V13.9502H9.54688ZM10.5469 11.9502V13.0498H5.44727V11.9502H10.5469ZM7.99707 0.950195C8.66019 0.950195 9.31704 1.08024 9.92969 1.33398C10.5424 1.58776 11.0994 1.95979 11.5684 2.42871C12.0373 2.89765 12.4093 3.45469 12.6631 4.06738C12.9166 4.67946 13.0466 5.33556 13.0469 5.99805L13.0518 6.27246C13.0433 6.91324 12.9018 7.54666 12.6357 8.13184C12.3322 8.79942 11.8737 9.38425 11.2998 9.84082L11.3008 9.8418C10.7927 10.3147 10.5469 10.5653 10.5469 11V11.0498H9.44727V11C9.44727 10.0456 10.0195 9.53154 10.5527 9.0332L10.5566 9.03027C11.0184 8.67791 11.3865 8.21727 11.6289 7.68945C11.8713 7.1617 11.9808 6.58271 11.9473 6.00293V6C11.9473 4.95239 11.5308 3.9478 10.79 3.20703C10.0493 2.46629 9.04466 2.0498 7.99707 2.0498C6.9495 2.04983 5.94485 2.46628 5.2041 3.20703C4.46336 3.9478 4.04688 4.95241 4.04688 6V6.00293C4.01273 6.58236 4.12174 7.16167 4.36328 7.68945C4.57464 8.15111 4.88242 8.5609 5.26465 8.89258L5.43262 9.03027L5.43652 9.0332H5.43555C5.97435 9.52711 6.54688 10.0557 6.54688 11V11.0498H5.44727V11C5.44727 10.5663 5.19774 10.316 4.69629 9.84961L4.48535 9.67188C4.00784 9.24358 3.62345 8.71966 3.35742 8.13379C3.05354 7.46441 2.91315 6.73238 2.94727 5.99805C2.94778 4.65943 3.47921 3.37531 4.42578 2.42871C5.37282 1.48167 6.65776 0.950218 7.99707 0.950195Z" fill="#FB7554" stroke="#FB7554" stroke-width="0.1"/>
</svg>
