<svg width="30" height="30" viewBox="0 0 30 30" fill="none" xmlns="http://www.w3.org/2000/svg">
<path d="M28.9497 1.04957C29.0322 1.13201 29.0977 1.2299 29.1423 1.33765C29.187 1.4454 29.21 1.56089 29.21 1.67752C29.21 1.79415 29.187 1.90965 29.1423 2.01739C29.0977 2.12514 29.0322 2.22303 28.9497 2.30547L27.8299 3.42526C27.9525 3.7124 28.0178 4.02068 28.0222 4.33284L28.1704 13.4525C28.1786 13.7727 28.121 14.0911 28.001 14.388C27.8811 14.6849 27.7014 14.954 27.4731 15.1786L14.1379 28.5122C13.6898 28.9593 13.0827 29.2104 12.4497 29.2104C11.8167 29.2104 11.2096 28.9593 10.7615 28.5122L1.48709 19.2378C1.04009 18.7896 0.789063 18.1825 0.789062 17.5496C0.789062 16.9166 1.04009 16.3095 1.48709 15.8614L14.82 2.52842C15.0394 2.30469 15.3017 2.12746 15.5911 2.00728C15.8805 1.88711 16.1911 1.82645 16.5045 1.82894H16.5487L25.675 1.98399C25.9827 1.98932 26.2865 2.05364 26.5699 2.17347L27.6941 1.04957C27.7766 0.967113 27.8744 0.901701 27.9822 0.857073C28.0899 0.812445 28.2053 0.789474 28.3219 0.789474C28.4385 0.789474 28.554 0.812445 28.6617 0.857073C28.7694 0.901701 28.8673 0.967113 28.9497 1.04957ZM26.2567 4.99884L24.3812 6.87399C24.6678 7.45806 24.7379 8.1249 24.5789 8.75579C24.4199 9.38669 24.0422 9.94068 23.513 10.3192C22.9838 10.6976 22.3374 10.876 21.689 10.8225C21.0406 10.769 20.4322 10.4872 19.9722 10.0271C19.5121 9.56707 19.2303 8.95868 19.1768 8.31026C19.1233 7.66185 19.3017 7.01549 19.6801 6.48628C20.0586 5.95707 20.6126 5.57935 21.2435 5.42036C21.8744 5.26138 22.5412 5.33145 23.1253 5.6181L24.9938 3.74957L16.5187 3.60557H16.5038C16.4239 3.60301 16.3443 3.61767 16.2706 3.64857C16.1968 3.67946 16.1305 3.72586 16.0762 3.78463L2.74298 17.1176C2.62913 17.2325 2.56526 17.3878 2.56526 17.5496C2.56526 17.7114 2.62913 17.8666 2.74298 17.9816L12.0177 27.2563C12.1327 27.3702 12.2879 27.434 12.4497 27.434C12.6115 27.434 12.7668 27.3702 12.8817 27.2563L26.2153 13.9227C26.2758 13.8667 26.3232 13.7981 26.3541 13.7217C26.3851 13.6452 26.3988 13.5629 26.3944 13.4806L26.2567 4.99884ZM22.602 7.39884C22.4662 7.26298 22.2931 7.17046 22.1047 7.13298C21.9163 7.09549 21.7209 7.11473 21.5434 7.18825C21.3659 7.26177 21.2142 7.38627 21.1075 7.54601C21.0008 7.70575 20.9438 7.89356 20.9438 8.08568C20.9438 8.2778 21.0008 8.46561 21.1075 8.62535C21.2142 8.78509 21.3659 8.90959 21.5434 8.98311C21.7209 9.05663 21.9163 9.07586 22.1047 9.03838C22.2931 9.00089 22.4662 8.90837 22.602 8.77252C22.6927 8.68242 22.7646 8.57528 22.8137 8.45727C22.8628 8.33926 22.8881 8.21271 22.8881 8.08489C22.8881 7.95707 22.8628 7.83052 22.8137 7.71251C22.7646 7.5945 22.6927 7.48736 22.602 7.39726V7.39884ZM16.4757 9.14199C16.3069 8.98792 16.0852 8.90484 15.8567 8.91003C15.6282 8.91521 15.4105 9.00826 15.2489 9.16982C15.0873 9.33139 14.9941 9.54904 14.9888 9.77752C14.9835 10.006 15.0665 10.2277 15.2205 10.3966L19.6027 14.7788C19.7698 14.9428 19.9949 15.0341 20.229 15.033C20.4631 15.0319 20.6873 14.9384 20.8529 14.7728C21.0184 14.6073 21.1119 14.3831 21.1131 14.149C21.1142 13.9148 21.0228 13.6898 20.8589 13.5226L16.4757 9.14199ZM14.064 11.5537C13.9818 11.4699 13.8839 11.4032 13.7757 11.3575C13.6676 11.3118 13.5515 11.288 13.4342 11.2875C13.3168 11.2869 13.2005 11.3096 13.0919 11.3543C12.9834 11.3989 12.8848 11.4646 12.8018 11.5476C12.7188 11.6306 12.6531 11.7292 12.6084 11.8378C12.5637 11.9463 12.541 12.0627 12.5416 12.18C12.5422 12.2974 12.566 12.4135 12.6117 12.5216C12.6574 12.6297 12.724 12.7277 12.8078 12.8099L17.191 17.1902C17.2729 17.2752 17.3709 17.343 17.4793 17.3897C17.5877 17.4364 17.7043 17.4611 17.8224 17.4622C17.9404 17.4633 18.0575 17.4409 18.1668 17.3962C18.276 17.3515 18.3753 17.2856 18.4588 17.2021C18.5423 17.1187 18.6083 17.0194 18.6529 16.9101C18.6976 16.8009 18.7201 16.6838 18.719 16.5658C18.7179 16.4477 18.6933 16.3311 18.6467 16.2227C18.6 16.1143 18.5322 16.0162 18.4472 15.9343L14.064 11.5537Z" fill="#00FFBC"/>
</svg>
