<svg width="29" height="29" viewBox="0 0 29 29" fill="none" xmlns="http://www.w3.org/2000/svg">
<path d="M28.1607 0.260099C28.2432 0.342537 28.3086 0.440428 28.3533 0.548174C28.3979 0.655921 28.4209 0.771412 28.4209 0.888046C28.4209 1.00468 28.3979 1.12017 28.3533 1.22792C28.3086 1.33566 28.2432 1.43355 28.1607 1.51599L27.0409 2.63578C27.1634 2.92292 27.2287 3.23121 27.2332 3.54336L27.3813 12.663C27.3895 12.9832 27.3319 13.3016 27.212 13.5985C27.092 13.8955 26.9123 14.1646 26.684 14.3892L13.3489 27.7227C12.9008 28.1698 12.2936 28.4209 11.6607 28.4209C11.0277 28.4209 10.4205 28.1698 9.97245 27.7227L0.698025 18.4483C0.251026 18.0002 0 17.3931 0 16.7601C0 16.1271 0.251026 15.52 0.698025 15.0719L14.031 1.73894C14.2504 1.51522 14.5126 1.33798 14.802 1.21781C15.0914 1.09763 15.402 1.03698 15.7154 1.03947H15.7596L24.8859 1.19452C25.1936 1.19985 25.4974 1.26417 25.7809 1.38399L26.9051 0.260099C26.9875 0.177639 27.0854 0.112227 27.1931 0.0675985C27.3008 0.0229702 27.4163 0 27.5329 0C27.6495 0 27.7649 0.0229702 27.8726 0.0675985C27.9804 0.112227 28.0782 0.177639 28.1607 0.260099ZM25.4676 4.20936L23.5921 6.08452C23.8788 6.66859 23.9489 7.33543 23.7899 7.96632C23.6309 8.59721 23.2532 9.15121 22.7239 9.52968C22.1947 9.90814 21.5484 10.0865 20.9 10.033C20.2516 9.97956 19.6432 9.69771 19.1831 9.23765C18.7231 8.7776 18.4412 8.1692 18.3877 7.52079C18.3342 6.87237 18.5126 6.22602 18.8911 5.69681C19.2695 5.1676 19.8235 4.78987 20.4544 4.63089C21.0853 4.4719 21.7522 4.54197 22.3362 4.82863L24.2048 2.9601L15.7296 2.8161H15.7148C15.6348 2.81354 15.5553 2.8282 15.4815 2.85909C15.4077 2.88999 15.3414 2.93639 15.2872 2.99515L1.95392 16.3281C1.84006 16.4431 1.77619 16.5983 1.77619 16.7601C1.77619 16.9219 1.84006 17.0771 1.95392 17.1921L11.2287 26.4668C11.3436 26.5807 11.4989 26.6446 11.6607 26.6446C11.8225 26.6446 11.9777 26.5807 12.0927 26.4668L25.4262 13.1333C25.4867 13.0772 25.5341 13.0086 25.5651 12.9322C25.596 12.8558 25.6098 12.7735 25.6053 12.6912L25.4676 4.20936ZM21.813 6.60936C21.6771 6.47351 21.504 6.38099 21.3156 6.3435C21.1272 6.30602 20.9319 6.32525 20.7544 6.39877C20.5769 6.47229 20.4252 6.59679 20.3184 6.75653C20.2117 6.91628 20.1547 7.10408 20.1547 7.2962C20.1547 7.48832 20.2117 7.67613 20.3184 7.83587C20.4252 7.99561 20.5769 8.12012 20.7544 8.19364C20.9319 8.26716 21.1272 8.28639 21.3156 8.2489C21.504 8.21142 21.6771 8.1189 21.813 7.98305C21.9036 7.89295 21.9756 7.78581 22.0247 7.6678C22.0738 7.54979 22.099 7.42323 22.099 7.29541C22.099 7.1676 22.0738 7.04104 22.0247 6.92303C21.9756 6.80502 21.9036 6.69788 21.813 6.60778V6.60936ZM15.6867 8.35252C15.5179 8.19845 15.2962 8.11537 15.0677 8.12055C14.8392 8.12573 14.6215 8.21878 14.4598 8.38035C14.2982 8.54191 14.205 8.75956 14.1997 8.98805C14.1944 9.21653 14.2774 9.43827 14.4314 9.60715L18.8136 13.9894C18.9807 14.1533 19.2058 14.2447 19.4399 14.2435C19.6741 14.2424 19.8983 14.1489 20.0638 13.9834C20.2294 13.8178 20.3229 13.5936 20.324 13.3595C20.3251 13.1254 20.2338 12.9003 20.0698 12.7332L15.6867 8.35252ZM13.275 10.7642C13.1928 10.6804 13.0948 10.6138 12.9867 10.5681C12.8786 10.5224 12.7625 10.4985 12.6451 10.498C12.5277 10.4974 12.4114 10.5201 12.3029 10.5648C12.1943 10.6094 12.0957 10.6752 12.0127 10.7582C11.9297 10.8411 11.864 10.9398 11.8193 11.0483C11.7747 11.1569 11.752 11.2732 11.7525 11.3905C11.7531 11.5079 11.7769 11.624 11.8226 11.7321C11.8683 11.8402 11.935 11.9382 12.0188 12.0204L16.4019 16.4007C16.4838 16.4857 16.5818 16.5536 16.6902 16.6003C16.7987 16.647 16.9153 16.6716 17.0333 16.6727C17.1514 16.6738 17.2684 16.6514 17.3777 16.6067C17.487 16.5621 17.5862 16.4961 17.6697 16.4126C17.7532 16.3292 17.8192 16.2299 17.8639 16.1207C17.9086 16.0114 17.931 15.8943 17.9299 15.7763C17.9289 15.6583 17.9043 15.5416 17.8576 15.4332C17.8109 15.3248 17.7431 15.2268 17.6581 15.1448L13.275 10.7642Z" fill="black"/>
</svg>
