<svg width="31" height="31" viewBox="0 0 31 31" fill="none" xmlns="http://www.w3.org/2000/svg">
<path d="M30.1721 0.278677C30.2605 0.367004 30.3307 0.471887 30.3785 0.58733C30.4264 0.702773 30.451 0.826513 30.451 0.951478C30.451 1.07644 30.4264 1.20018 30.3785 1.31563C30.3307 1.43107 30.2605 1.53595 30.1721 1.62428L28.9724 2.82405C29.1036 3.1317 29.1736 3.46201 29.1784 3.79646L29.3371 13.5675C29.3459 13.9106 29.2842 14.2517 29.1557 14.5699C29.0272 14.888 28.8346 15.1763 28.59 15.4169L14.3024 29.7029C13.8223 30.1819 13.1718 30.451 12.4936 30.451C11.8154 30.451 11.1649 30.1819 10.6848 29.7029L0.747884 19.766C0.268956 19.2859 0 18.6354 0 17.9572C0 17.2791 0.268956 16.6286 0.747884 16.1485L15.0332 1.86315C15.2683 1.62345 15.5492 1.43356 15.8593 1.3048C16.1694 1.17604 16.5022 1.11105 16.8379 1.11371H16.8853L26.6635 1.27984C26.9932 1.28555 27.3187 1.35447 27.6224 1.48285L28.8269 0.278677C28.9152 0.190327 29.0201 0.120243 29.1355 0.072427C29.2509 0.0246109 29.3746 0 29.4995 0C29.6244 0 29.7481 0.0246109 29.8635 0.072427C29.979 0.120243 30.0838 0.190327 30.1721 0.278677ZM27.2867 4.51003L25.2773 6.51913C25.5844 7.14491 25.6595 7.85939 25.4891 8.53534C25.3188 9.2113 24.9141 9.80487 24.3471 10.2104C23.7801 10.6159 23.0876 10.807 22.3928 10.7497C21.6981 10.6924 21.0462 10.3904 20.5533 9.89748C20.0604 9.40457 19.7584 8.75272 19.7011 8.05798C19.6438 7.36325 19.8349 6.67074 20.2404 6.10372C20.6459 5.53671 21.2395 5.13201 21.9155 4.96167C22.5914 4.79132 23.3059 4.8664 23.9317 5.17353L25.9337 3.17153L16.8531 3.01725H16.8372C16.7516 3.0145 16.6664 3.03021 16.5873 3.06332C16.5083 3.09642 16.4373 3.14613 16.3791 3.20909L2.09349 17.4944C1.9715 17.6176 1.90306 17.7839 1.90306 17.9572C1.90306 18.1306 1.9715 18.2969 2.09349 18.4201L12.0307 28.3573C12.1539 28.4793 12.3202 28.5477 12.4936 28.5477C12.6669 28.5477 12.8333 28.4793 12.9564 28.3573L27.2424 14.0713C27.3072 14.0113 27.358 13.9378 27.3912 13.8559C27.4243 13.774 27.439 13.6859 27.4342 13.5977L27.2867 4.51003ZM23.371 7.08146C23.2255 6.9359 23.04 6.83677 22.8382 6.79661C22.6363 6.75645 22.427 6.77706 22.2368 6.85583C22.0467 6.9346 21.8841 7.06799 21.7698 7.23914C21.6554 7.4103 21.5943 7.61152 21.5943 7.81736C21.5943 8.02321 21.6554 8.22443 21.7698 8.39558C21.8841 8.56673 22.0467 8.70013 22.2368 8.7789C22.427 8.85767 22.6363 8.87827 22.8382 8.83811C23.04 8.79795 23.2255 8.69882 23.371 8.55326C23.4682 8.45673 23.5453 8.34194 23.5979 8.2155C23.6505 8.08906 23.6775 7.95346 23.6775 7.81652C23.6775 7.67957 23.6505 7.54398 23.5979 7.41754C23.5453 7.29109 23.4682 7.1763 23.371 7.07977V7.08146ZM16.8071 8.94913C16.6263 8.78405 16.3887 8.69504 16.1439 8.70059C15.8991 8.70614 15.6659 8.80584 15.4927 8.97894C15.3195 9.15205 15.2197 9.38525 15.214 9.63005C15.2083 9.87486 15.2972 10.1124 15.4622 10.2934L20.1574 14.9886C20.3365 15.1643 20.5777 15.2621 20.8285 15.2609C21.0794 15.2597 21.3196 15.1596 21.497 14.9822C21.6743 14.8048 21.7745 14.5646 21.7757 14.3137C21.7769 14.0629 21.679 13.8217 21.5034 13.6427L16.8071 8.94913ZM14.2232 11.5331C14.1351 11.4433 14.0301 11.3719 13.9143 11.3229C13.7985 11.274 13.6741 11.2484 13.5483 11.2478C13.4226 11.2472 13.2979 11.2716 13.1816 11.3194C13.0653 11.3673 12.9597 11.4377 12.8708 11.5266C12.7818 11.6155 12.7114 11.7212 12.6636 11.8375C12.6157 11.9538 12.5914 12.0784 12.592 12.2042C12.5926 12.3299 12.6181 12.4543 12.6671 12.5701C12.716 12.686 12.7875 12.7909 12.8772 12.879L17.5735 17.5722C17.6612 17.6633 17.7662 17.736 17.8824 17.786C17.9986 17.836 18.1235 17.8624 18.25 17.8636C18.3765 17.8648 18.5019 17.8408 18.619 17.7929C18.736 17.7451 18.8424 17.6744 18.9318 17.585C19.0213 17.4955 19.092 17.3892 19.1399 17.2721C19.1877 17.1551 19.2118 17.0296 19.2107 16.9032C19.2095 16.7767 19.1831 16.6517 19.1331 16.5356C19.0831 16.4194 19.0105 16.3144 18.9194 16.2266L14.2232 11.5331Z" fill="#00FFBC"/>
</svg>
