<svg width="14" height="14" viewBox="0 0 14 14" fill="none" xmlns="http://www.w3.org/2000/svg">
<path d="M9.53301 0.0996094C9.64794 0.0996094 9.75838 0.145297 9.83965 0.226562C9.92074 0.307736 9.96652 0.417493 9.9666 0.532227V1.43262H11.867C12.3354 1.4327 12.7848 1.61896 13.116 1.9502C13.4472 2.28149 13.6336 2.73075 13.6336 3.19922V11.8662C13.6335 12.3346 13.4473 12.784 13.116 13.1152C12.7848 13.4465 12.3354 13.6327 11.867 13.6328H1.86699C1.39865 13.6323 0.94914 13.4454 0.61797 13.1143C0.286949 12.7832 0.101007 12.3344 0.100391 11.8662V3.19922C0.100952 2.73087 0.286799 2.28137 0.61797 1.9502C0.949124 1.61913 1.39872 1.43318 1.86699 1.43262H3.76641V0.532227C3.76649 0.41757 3.81237 0.30772 3.89336 0.226562C3.97463 0.145297 4.08507 0.0996094 4.2 0.0996094C4.31493 0.0996094 4.42538 0.145297 4.50664 0.226562C4.58763 0.30772 4.63351 0.417571 4.63359 0.532227V1.43262H9.10039V0.532227C9.10048 0.417417 9.14616 0.307751 9.22734 0.226562C9.30853 0.145373 9.4182 0.0996955 9.53301 0.0996094ZM0.966602 11.8662C0.966689 12.1047 1.06167 12.3333 1.23027 12.502C1.39906 12.6707 1.6283 12.7656 1.86699 12.7656H11.867C12.1056 12.7655 12.334 12.6707 12.5027 12.502C12.6714 12.3332 12.7663 12.1048 12.7664 11.8662V6.29883H0.966602V11.8662ZM1.86699 2.29883C1.36897 2.29883 0.966602 2.70236 0.966602 3.19922V5.43262H12.7664V3.19922C12.7664 2.96052 12.6715 2.73128 12.5027 2.5625C12.3341 2.394 12.1054 2.29891 11.867 2.29883H9.9666V3.19922C9.9666 3.31415 9.92091 3.42459 9.83965 3.50586C9.7584 3.58702 9.64786 3.63281 9.53301 3.63281C9.41835 3.63273 9.3085 3.58685 9.22734 3.50586C9.14608 3.42459 9.10039 3.31415 9.10039 3.19922V2.29883H4.63359V3.19922C4.63359 3.31415 4.58791 3.42459 4.50664 3.50586C4.42538 3.58713 4.31493 3.63281 4.2 3.63281C4.08507 3.63281 3.97463 3.58713 3.89336 3.50586C3.81209 3.42459 3.76641 3.31415 3.76641 3.19922V2.29883H1.86699Z" fill="#0A0A0A" stroke="#0A0A0A" stroke-width="0.2"/>
</svg>
