<svg width="25" height="27" viewBox="0 0 25 27" fill="none" xmlns="http://www.w3.org/2000/svg">
<path d="M23.3789 13.5752C23.5946 13.5976 23.7978 13.6934 23.9521 13.8486L24.0156 13.918C24.1322 14.0605 24.2039 14.2343 24.2227 14.417H24.2285V14.5166C24.2285 18.5498 20.9228 21.8574 16.8906 21.8574H3.32812L5.95117 24.4844C6.31814 24.8526 6.31817 25.4492 5.95117 25.8174C5.58187 26.1867 4.98356 26.1867 4.61426 25.8174L0.375977 21.5781L0.37207 21.5752C0.358968 21.5609 0.346273 21.5456 0.334961 21.5322V21.5312C0.323609 21.5186 0.312325 21.5057 0.302734 21.4941L0.297852 21.4893V21.4883C0.288313 21.4753 0.277129 21.4588 0.265625 21.4404C0.253126 21.4242 0.241828 21.4075 0.231445 21.3906L0.230469 21.3887C0.0126983 21.0174 0.0715287 20.5462 0.375 20.2412L0.375977 20.2402L4.61426 16.001C4.98356 15.6317 5.58187 15.6317 5.95117 16.001C6.12849 16.1784 6.22848 16.4186 6.22852 16.6699C6.22852 16.9203 6.12855 17.1615 5.95117 17.3389L5.92188 17.3682H5.9209L3.32324 19.9658H16.8896C19.89 19.9658 22.3398 17.5167 22.3398 14.5166C22.3399 14.2669 22.4388 14.0252 22.6162 13.8477C22.7927 13.67 23.0338 13.5703 23.2852 13.5703L23.3789 13.5752ZM19.0459 0.137695C19.2231 0.137695 19.3947 0.187319 19.543 0.279297V0.242188L19.7129 0.413086L23.9268 4.63086L23.9297 4.63281L23.9424 4.64551L23.9551 4.66016L23.958 4.66211C23.9614 4.6661 23.9639 4.67041 23.9668 4.67383C23.9688 4.67617 23.9707 4.67842 23.9727 4.68066L24.0254 4.74023L24.0293 4.74512C24.0421 4.76254 24.0549 4.78105 24.0664 4.79785C24.0756 4.81111 24.0877 4.82855 24.0986 4.84766L24.127 4.90332L24.1445 4.94141L24.1514 4.94824L24.1592 4.9707C24.1604 4.97423 24.1616 4.97804 24.1641 4.98438C24.1663 4.99009 24.1698 4.99869 24.1729 5.00781H24.1719C24.1768 5.02189 24.1823 5.03732 24.1875 5.05371L24.1904 5.05664L24.1973 5.08398L24.1992 5.09082V5.09375C24.2072 5.12645 24.2152 5.16125 24.2197 5.19727L24.2256 5.29102L24.2275 5.3252C24.2275 5.36717 24.2258 5.40938 24.2197 5.45215L24.2188 5.45117C24.2136 5.49478 24.2043 5.53672 24.1943 5.57422V5.57617C24.1843 5.61185 24.1712 5.64845 24.1553 5.68555L24.1562 5.68652C24.1475 5.70777 24.1357 5.72766 24.127 5.74414C24.1218 5.75515 24.1159 5.76828 24.1094 5.78125V5.78613L24.0947 5.81055L24.0527 5.87109V5.87695L24.0303 5.9043L24.0273 5.9082C24.0083 5.93131 23.986 5.95837 23.9609 5.9834L23.96 5.98242H23.959C23.9508 5.99264 23.9434 6.00189 23.9395 6.00586L23.9102 6.03516H23.9092L19.7129 10.2354C19.3436 10.6046 18.7462 10.6046 18.377 10.2354C18.1994 10.0578 18.1006 9.81744 18.1006 9.56738C18.1006 9.31634 18.1993 9.07607 18.377 8.89844L18.4062 8.86914H18.4072L21.0049 6.26953H7.43945C4.43935 6.26953 1.9873 8.71964 1.9873 11.7197C1.98618 12.2077 1.61604 12.6089 1.1416 12.6582L1.04492 12.6631C0.55703 12.6619 0.156178 12.2931 0.105469 11.8193H0.0996094V11.7197C0.0996094 7.68761 3.40632 4.37891 7.43848 4.37891H21.0059L18.377 1.75293C18.1993 1.57528 18.1006 1.33408 18.1006 1.08301C18.1006 0.83297 18.1994 0.592638 18.377 0.415039C18.5271 0.26487 18.7222 0.171923 18.9307 0.146484L18.9297 0.137695H19.0459ZM24.0332 5.89746C24.0339 5.89648 24.0364 5.89663 24.0371 5.89551C24.0378 5.89442 24.0372 5.89208 24.0381 5.89062C24.0364 5.89285 24.0349 5.89525 24.0332 5.89746Z" fill="white" stroke="white" stroke-width="0.2"/>
</svg>
