<svg width="25" height="26" viewBox="0 0 25 26" fill="none" xmlns="http://www.w3.org/2000/svg">
<path d="M18.8977 0.0508938C18.6729 0.0508938 18.4577 0.139317 18.299 0.298053C18.1402 0.456788 18.0518 0.671989 18.0518 0.895707C18.0518 1.12049 18.1402 1.3357 18.299 1.49443L21.0988 4.29206H7.28978C3.31287 4.29206 0.0507812 7.55524 0.0507812 11.5322H0.0518466C0.0529121 11.9977 0.430037 12.3748 0.896674 12.3759C1.36116 12.3749 1.73828 11.9977 1.73935 11.5322C1.73935 8.47679 4.23543 5.9827 7.29071 5.9827H21.0975L18.2999 8.78143H18.2988C18.1401 8.94016 18.0517 9.15536 18.0517 9.38014C18.0517 9.60386 18.1401 9.81907 18.2988 9.9778C18.6291 10.308 19.1639 10.308 19.4941 9.9778L23.714 5.75271L23.7194 5.74738H23.7204C23.7247 5.74312 23.729 5.73886 23.7332 5.73353C23.7364 5.73034 23.7396 5.7282 23.7417 5.72501C23.7641 5.70264 23.7844 5.67813 23.8046 5.65363C23.8046 5.65257 23.8057 5.6515 23.8057 5.6515C23.8259 5.62593 23.844 5.59823 23.8611 5.57053C23.8611 5.56947 23.8611 5.56947 23.8621 5.5684C23.8717 5.55136 23.8802 5.53324 23.8888 5.51514C23.8983 5.49703 23.9079 5.47891 23.9154 5.4608C23.9292 5.42884 23.9399 5.39582 23.9495 5.36173C23.9591 5.32551 23.9676 5.28822 23.9719 5.25093C23.9772 5.21364 23.9793 5.17636 23.9793 5.13801C23.9793 5.13268 23.9793 5.12629 23.9782 5.11989C23.9782 5.08793 23.9761 5.05491 23.9719 5.02295C23.9676 4.98886 23.9601 4.95477 23.9516 4.92068C23.9505 4.91961 23.9505 4.91854 23.9505 4.91748C23.9442 4.89511 23.9367 4.8738 23.9292 4.85249C23.925 4.83971 23.9197 4.82799 23.9154 4.81521C23.9143 4.81414 23.9143 4.81308 23.9133 4.81201C23.9058 4.79497 23.8983 4.77899 23.8898 4.763C23.8813 4.74489 23.8728 4.72678 23.8632 4.70974C23.8547 4.69482 23.8451 4.68097 23.8355 4.66712C23.8238 4.65008 23.8121 4.63303 23.8003 4.61705C23.7844 4.59788 23.7684 4.57977 23.7513 4.56166C23.7449 4.5542 23.7396 4.54781 23.7332 4.54035L23.7204 4.5265C23.7183 4.52543 23.7162 4.5233 23.714 4.52117L19.4941 0.296082V0.297147C19.3354 0.138411 19.1213 0.0499878 18.8975 0.0499878L18.8977 0.0508938ZM23.1367 13.4827C22.9119 13.4827 22.6967 13.5722 22.539 13.7309C22.3803 13.8897 22.2919 14.1059 22.2919 14.3297C22.2919 17.385 19.7968 19.878 16.7413 19.878H2.9345L5.73105 17.0804H5.73211C5.89085 16.9216 5.98034 16.7064 5.98034 16.4827C5.98034 16.2579 5.89085 16.0427 5.73211 15.884C5.40187 15.5538 4.86705 15.5538 4.53681 15.884L0.297806 20.1241C0.0261451 20.3968 -0.0271213 20.8187 0.167835 21.1511C0.176358 21.1649 0.185946 21.1788 0.1966 21.1926C0.207253 21.2107 0.218972 21.2267 0.23069 21.2427C0.241344 21.2555 0.251998 21.2683 0.262651 21.28C0.27437 21.2938 0.286089 21.3077 0.297809 21.3205L4.53681 25.5595C4.86705 25.8897 5.40187 25.8897 5.73212 25.5595C6.06024 25.2303 6.06024 24.6965 5.73212 24.3674L2.93775 21.5697H16.7424C20.7193 21.5697 23.9803 18.3076 23.9803 14.3296H23.9792C23.9803 14.1059 23.8919 13.8907 23.7331 13.732C23.5755 13.5732 23.3604 13.4838 23.1367 13.4827Z" fill="#00FFBC" stroke="#00FFBC" stroke-width="0.1"/>
</svg>
