<svg width="12" height="15" viewBox="0 0 12 15" fill="none" xmlns="http://www.w3.org/2000/svg">
<path d="M0.5 7.99334H2.05574C2.09823 7.99189 2.14054 7.99944 2.1799 8.01548C2.21927 8.03152 2.2548 8.05569 2.28418 8.08642C2.31355 8.11715 2.33611 8.15373 2.35036 8.19378C2.36461 8.23383 2.37025 8.27644 2.36689 8.31882V14.175C2.37036 14.2173 2.36479 14.26 2.35057 14.3C2.33635 14.3401 2.31379 14.3767 2.28438 14.4074C2.25498 14.4381 2.21939 14.4622 2.17998 14.4781C2.14057 14.4941 2.09822 14.5015 2.05574 14.4998H0.5" stroke="black" stroke-opacity="0.7" stroke-linecap="round" stroke-linejoin="round"/>
<path d="M4.95034 6.62002L3.75429 8.10926C3.67574 8.20716 3.57696 8.28693 3.46472 8.3431C3.35248 8.39928 3.22943 8.43054 3.10399 8.43474H2.36719M2.36719 12.8097C3.70139 13.821 4.91861 14.5 5.70457 14.5H9.60824C10.0812 14.5 10.3786 14.4664 10.584 13.8497C10.8976 12.2752 11.1148 10.6832 11.2349 9.08259C11.2349 8.75774 10.9095 8.43225 10.2592 8.43225H6.5677M5.09472 7.62882L4.1314 0.887713C4.12454 0.839557 4.1281 0.790488 4.14184 0.743825C4.15558 0.697163 4.17917 0.653994 4.21103 0.617237C4.24289 0.58048 4.28227 0.550991 4.3265 0.530766C4.37074 0.51054 4.4188 0.500048 4.46744 0.5H9.16828" stroke="black" stroke-opacity="0.7" stroke-linecap="round" stroke-linejoin="round"/>
<path d="M7.13818 8.43474L6.56816 2.7348C6.56352 2.69125 6.56812 2.64721 6.58166 2.60557C6.59521 2.56392 6.61739 2.5256 6.64676 2.49312C6.67613 2.46064 6.71202 2.43472 6.7521 2.41706C6.79217 2.3994 6.83552 2.3904 6.87931 2.39065H11.1732C11.2184 2.39011 11.2632 2.39943 11.3044 2.41798C11.3457 2.43652 11.3824 2.46383 11.412 2.49801C11.4416 2.5322 11.4635 2.57242 11.4759 2.6159C11.4884 2.65937 11.4913 2.70504 11.4843 2.74973L10.6255 8.4752" stroke="black" stroke-opacity="0.7" stroke-linecap="round" stroke-linejoin="round"/>
<path d="M8.91305 5.86421C8.85116 5.86421 8.7918 5.83962 8.74804 5.79586C8.70427 5.75209 8.67969 5.69273 8.67969 5.63084C8.67969 5.56894 8.70427 5.50958 8.74804 5.46581C8.7918 5.42205 8.85116 5.39746 8.91305 5.39746M8.91305 5.86421C8.97494 5.86421 9.0343 5.83962 9.07806 5.79586C9.12182 5.75209 9.14641 5.69273 9.14641 5.63084C9.14641 5.56894 9.12182 5.50958 9.07806 5.46581C9.0343 5.42205 8.97494 5.39746 8.91305 5.39746" stroke="black" stroke-opacity="0.7"/>
</svg>
