<svg width="25" height="27" viewBox="0 0 25 27" fill="none" xmlns="http://www.w3.org/2000/svg">
<path d="M23.3796 13.575C23.5954 13.5973 23.7985 13.6931 23.9529 13.8484L24.0164 13.9177C24.133 14.0603 24.2046 14.234 24.2234 14.4167H24.2292V14.5164C24.2292 18.5496 20.9235 21.8572 16.8914 21.8572H3.32886L5.9519 24.4841C6.31888 24.8523 6.31891 25.4489 5.9519 25.8171C5.58261 26.1864 4.98429 26.1864 4.61499 25.8171L0.376709 21.5779L0.372803 21.575C0.359702 21.5606 0.347009 21.5454 0.335693 21.532V21.531C0.324341 21.5184 0.313055 21.5054 0.303467 21.4939L0.298584 21.489V21.488C0.289044 21.475 0.277861 21.4586 0.266357 21.4402C0.25386 21.4239 0.242562 21.4073 0.232178 21.3904L0.231201 21.3884C0.013431 21.0171 0.0722616 20.546 0.375732 20.241L0.376709 20.24L4.61499 16.0007C4.98429 15.6314 5.58261 15.6314 5.9519 16.0007C6.12922 16.1781 6.22922 16.4184 6.22925 16.6697C6.22925 16.9201 6.12928 17.1612 5.9519 17.3386L5.92261 17.3679H5.92163L3.32397 19.9656H16.8904C19.8907 19.9656 22.3406 17.5164 22.3406 14.5164C22.3407 14.2667 22.4395 14.025 22.6169 13.8474C22.7934 13.6697 23.0346 13.5701 23.2859 13.5701L23.3796 13.575ZM19.0466 0.137451C19.2238 0.137451 19.3955 0.187075 19.5437 0.279053V0.241943L19.7136 0.412842L23.9275 4.63062L23.9304 4.63257L23.9431 4.64526L23.9558 4.65991L23.9587 4.66187C23.9622 4.66585 23.9646 4.67017 23.9675 4.67358C23.9695 4.67592 23.9715 4.67817 23.9734 4.68042L24.0261 4.73999L24.03 4.74487L24.0671 4.79761C24.0763 4.81087 24.0884 4.8283 24.0994 4.84741L24.1277 4.90308L24.1453 4.94116L24.1521 4.948L24.1599 4.97046C24.1611 4.97399 24.1623 4.9778 24.1648 4.98413C24.167 4.98985 24.1705 4.99845 24.1736 5.00757H24.1726C24.1775 5.02164 24.183 5.03707 24.1882 5.05347L24.1912 5.0564L24.198 5.08374L24.2 5.09058V5.09351C24.2079 5.1262 24.2159 5.161 24.2205 5.19702L24.2263 5.29077L24.2283 5.32495C24.2283 5.36692 24.2266 5.40913 24.2205 5.4519L24.2195 5.45093C24.2144 5.49453 24.205 5.53648 24.1951 5.57397V5.57593C24.185 5.61161 24.1719 5.64821 24.156 5.6853L24.157 5.68628C24.1482 5.70753 24.1364 5.72742 24.1277 5.7439C24.1225 5.7549 24.1167 5.76803 24.1101 5.78101V5.78589L24.0955 5.8103L24.0535 5.87085V5.87671L24.031 5.90405L24.0281 5.90796C24.009 5.93106 23.9867 5.95813 23.9617 5.98315L23.9607 5.98218H23.9597C23.9515 5.99241 23.9442 6.00164 23.9402 6.00562L23.9109 6.03491H23.9099L19.7136 10.2351C19.3443 10.6044 18.747 10.6044 18.3777 10.2351C18.2001 10.0575 18.1013 9.81719 18.1013 9.56714C18.1013 9.3161 18.2001 9.07583 18.3777 8.89819L18.407 8.8689H18.408L21.0056 6.26929H7.44019C4.44009 6.26929 1.98804 8.71939 1.98804 11.7195C1.98691 12.2075 1.61677 12.6087 1.14233 12.658L1.04565 12.6628C0.557763 12.6617 0.15691 12.2929 0.106201 11.8191H0.100342V11.7195C0.100342 7.68736 3.40705 4.37866 7.43921 4.37866H21.0066L18.3777 1.75269C18.2 1.57504 18.1013 1.33384 18.1013 1.08276C18.1013 0.832726 18.2001 0.592394 18.3777 0.414795C18.5278 0.264626 18.7229 0.171679 18.9314 0.14624L18.9304 0.137451H19.0466ZM24.033 5.90112C24.0343 5.8994 24.0363 5.89762 24.0378 5.89526C24.0386 5.89418 24.038 5.89182 24.0388 5.89038C24.0365 5.89343 24.0354 5.8981 24.033 5.90112Z" fill="black" stroke="black" stroke-width="0.2"/>
</svg>
