<svg width="20" height="20" viewBox="0 0 20 20" fill="none" xmlns="http://www.w3.org/2000/svg">
<path d="M15.8333 9.16699H4.16667C3.24619 9.16699 2.5 9.91318 2.5 10.8337V16.667C2.5 17.5875 3.24619 18.3337 4.16667 18.3337H15.8333C16.7538 18.3337 17.5 17.5875 17.5 16.667V10.8337C17.5 9.91318 16.7538 9.16699 15.8333 9.16699Z" stroke="#00A63E" stroke-width="1.66667" stroke-linecap="round" stroke-linejoin="round"/>
<path d="M5.83594 9.16699V5.83366C5.83594 4.72859 6.27492 3.66878 7.05633 2.88738C7.83773 2.10598 8.89754 1.66699 10.0026 1.66699C11.1077 1.66699 12.1675 2.10598 12.9489 2.88738C13.7303 3.66878 14.1693 4.72859 14.1693 5.83366V9.16699" stroke="#00A63E" stroke-width="1.66667" stroke-linecap="round" stroke-linejoin="round"/>
</svg>
