<svg width="28" height="28" viewBox="0 0 28 28" fill="none" xmlns="http://www.w3.org/2000/svg">
<path d="M13.9987 2.33301C20.4422 2.33301 25.6654 7.55617 25.6654 13.9997C25.6654 20.4432 20.4422 25.6663 13.9987 25.6663H4.66536C4.04653 25.6663 3.45303 25.4205 3.01545 24.9829C2.57786 24.5453 2.33203 23.9518 2.33203 23.333V13.9997C2.33203 7.55617 7.5552 2.33301 13.9987 2.33301ZM13.9987 4.66634C11.5233 4.66634 9.14937 5.64967 7.39903 7.40001C5.6487 9.15035 4.66536 11.5243 4.66536 13.9997V23.333H13.9987C16.4741 23.333 18.848 22.3497 20.5984 20.5993C22.3487 18.849 23.332 16.475 23.332 13.9997C23.332 11.5243 22.3487 9.15035 20.5984 7.40001C18.848 5.64967 16.4741 4.66634 13.9987 4.66634ZM13.9987 16.333C14.2961 16.3333 14.5821 16.4472 14.7983 16.6513C15.0145 16.8555 15.1446 17.1345 15.1621 17.4313C15.1795 17.7281 15.0829 18.0204 14.8921 18.2485C14.7012 18.4765 14.4305 18.6231 14.1352 18.6582L13.9987 18.6663H10.4987C10.2013 18.666 9.91533 18.5521 9.6991 18.348C9.48288 18.1439 9.35276 17.8649 9.33533 17.568C9.3179 17.2712 9.41448 16.9789 9.60534 16.7509C9.79619 16.5228 10.0669 16.3763 10.3622 16.3412L10.4987 16.333H13.9987ZM17.4987 11.6663C17.8081 11.6663 18.1049 11.7893 18.3237 12.008C18.5424 12.2268 18.6654 12.5236 18.6654 12.833C18.6654 13.1424 18.5424 13.4392 18.3237 13.658C18.1049 13.8768 17.8081 13.9997 17.4987 13.9997H10.4987C10.1893 13.9997 9.89253 13.8768 9.67374 13.658C9.45495 13.4392 9.33203 13.1424 9.33203 12.833C9.33203 12.5236 9.45495 12.2268 9.67374 12.008C9.89253 11.7893 10.1893 11.6663 10.4987 11.6663H17.4987Z" fill="#004437"/>
</svg>
