<svg width="24" height="24" viewBox="0 0 24 24" fill="none" xmlns="http://www.w3.org/2000/svg">
<rect width="24" height="24" rx="5" fill="#04C18F" fill-opacity="0.84"/>
<path d="M15 7.98633H19V12.0437" fill="#04C18F" fill-opacity="0.5"/>
<path d="M15 7.98633H19V12.0437" stroke="white" stroke-width="1.2" stroke-linecap="round" stroke-linejoin="round"/>
<path d="M19 7.98633L13.35 13.7174C13.2565 13.8104 13.1309 13.8624 13 13.8624C12.8691 13.8624 12.7435 13.8104 12.65 13.7174L10.35 11.3844C10.2565 11.2915 10.1309 11.2394 10 11.2394C9.86912 11.2394 9.74346 11.2915 9.65 11.3844L6 15.0868" fill="#04C18F" fill-opacity="0.5"/>
<path d="M19 7.98633L13.35 13.7174C13.2565 13.8104 13.1309 13.8624 13 13.8624C12.8691 13.8624 12.7435 13.8104 12.65 13.7174L10.35 11.3844C10.2565 11.2915 10.1309 11.2394 10 11.2394C9.86912 11.2394 9.74346 11.2915 9.65 11.3844L6 15.0868" stroke="white" stroke-width="1.2" stroke-linecap="round" stroke-linejoin="round"/>
</svg>
