<svg width="24" height="24" viewBox="0 0 24 24" fill="none" xmlns="http://www.w3.org/2000/svg">
<rect width="24" height="24" rx="5" fill="#04C18F" fill-opacity="0.84"/>
<path d="M13.5469 17.9502V19.0498H10.4473V17.9502H13.5469ZM14.5469 15.9502V17.0498H9.44727V15.9502H14.5469ZM11.9971 4.9502C12.6602 4.9502 13.317 5.08024 13.9297 5.33398C14.5424 5.58776 15.0994 5.95979 15.5684 6.42871C16.0373 6.89765 16.4093 7.45469 16.6631 8.06738C16.9166 8.67946 17.0466 9.33556 17.0469 9.99805L17.0518 10.2725C17.0433 10.9132 16.9018 11.5467 16.6357 12.1318C16.3322 12.7994 15.8737 13.3843 15.2998 13.8408L15.3008 13.8418C14.7927 14.3147 14.5469 14.5653 14.5469 15V15.0498H13.4473V15C13.4473 14.0456 14.0195 13.5315 14.5527 13.0332L14.5566 13.0303C15.0184 12.6779 15.3865 12.2173 15.6289 11.6895C15.8713 11.1617 15.9808 10.5827 15.9473 10.0029V10C15.9473 8.95239 15.5308 7.9478 14.79 7.20703C14.0493 6.46629 13.0447 6.0498 11.9971 6.0498C10.9495 6.04983 9.94485 6.46628 9.2041 7.20703C8.46336 7.9478 8.04688 8.95241 8.04688 10V10.0029C8.01273 10.5824 8.12174 11.1617 8.36328 11.6895C8.57464 12.1511 8.88242 12.5609 9.26465 12.8926L9.43262 13.0303L9.43652 13.0332H9.43555C9.97435 13.5271 10.5469 14.0557 10.5469 15V15.0498H9.44727V15C9.44727 14.5663 9.19774 14.316 8.69629 13.8496L8.48535 13.6719C8.00784 13.2436 7.62345 12.7197 7.35742 12.1338C7.05354 11.4644 6.91315 10.7324 6.94727 9.99805C6.94778 8.65943 7.47921 7.37531 8.42578 6.42871C9.37282 5.48167 10.6578 4.95022 11.9971 4.9502Z" fill="white" stroke="white" stroke-width="0.1"/>
</svg>
