<svg width="20" height="20" viewBox="0 0 20 20" fill="none" xmlns="http://www.w3.org/2000/svg">
<path d="M16.5667 12.9176H12.8167C12.5957 12.9176 12.3837 13.0054 12.2274 13.1617C12.0711 13.318 11.9833 13.5299 11.9833 13.7509C11.9833 13.9719 12.0711 14.1839 12.2274 14.3402C12.3837 14.4965 12.5957 14.5843 12.8167 14.5843H14.8167C14.1965 15.2393 13.4499 15.7617 12.622 16.1198C11.794 16.4779 10.902 16.6643 10 16.6676C9.10714 16.6663 8.22342 16.4878 7.4 16.1426L6.15834 17.3843C7.34164 18.0111 8.66093 18.3373 10 18.3343C12.1363 18.3282 14.1888 17.5018 15.7333 16.0259V17.5009C15.7333 17.7219 15.8211 17.9339 15.9774 18.0902C16.1337 18.2465 16.3457 18.3343 16.5667 18.3343C16.7877 18.3343 16.9996 18.2465 17.1559 18.0902C17.3122 17.9339 17.4 17.7219 17.4 17.5009V13.7509C17.4 13.5299 17.3122 13.318 17.1559 13.1617C16.9996 13.0054 16.7877 12.9176 16.5667 12.9176ZM15.2583 5.9176L16.45 4.72594L18.1167 3.05927C18.1944 2.98157 18.256 2.88933 18.2981 2.78781C18.3401 2.68629 18.3617 2.57749 18.3617 2.4676C18.3617 2.35772 18.3401 2.24891 18.2981 2.14739C18.256 2.04588 18.1944 1.95363 18.1167 1.87594C18.039 1.79824 17.9467 1.7366 17.8452 1.69455C17.7437 1.6525 17.6349 1.63086 17.525 1.63086C17.4151 1.63086 17.3063 1.6525 17.2048 1.69455C17.1033 1.7366 17.011 1.79824 16.9333 1.87594L15.2667 3.5426C13.7828 2.32371 11.9203 1.66062 10 1.6676C7.86366 1.6737 5.81125 2.50003 4.26667 3.97594V2.50094C4.26667 2.27992 4.17887 2.06796 4.02259 1.91168C3.86631 1.7554 3.65435 1.6676 3.43334 1.6676C3.21232 1.6676 3.00036 1.7554 2.84408 1.91168C2.6878 2.06796 2.6 2.27992 2.6 2.50094V6.25094C2.6 6.47195 2.6878 6.68391 2.84408 6.84019C3.00036 6.99647 3.21232 7.08427 3.43334 7.08427H7.18334C7.40435 7.08427 7.61631 6.99647 7.77259 6.84019C7.92887 6.68391 8.01667 6.47195 8.01667 6.25094C8.01667 6.02992 7.92887 5.81796 7.77259 5.66168C7.61631 5.5054 7.40435 5.4176 7.18334 5.4176H5.18334C6.31355 4.21523 7.85272 3.47922 9.49816 3.35431C11.1436 3.2294 12.7762 3.72462 14.075 4.7426L4.74167 14.0759C3.82986 12.9132 3.33401 11.4785 3.33334 10.0009C3.33334 9.77992 3.24554 9.56796 3.08926 9.41168C2.93298 9.2554 2.72102 9.1676 2.5 9.1676C2.27899 9.1676 2.06703 9.2554 1.91075 9.41168C1.75447 9.56796 1.66667 9.77992 1.66667 10.0009C1.66438 11.9233 2.33345 13.786 3.55834 15.2676L1.89167 16.9343C1.81356 17.0117 1.75157 17.1039 1.70926 17.2055C1.66695 17.307 1.64517 17.4159 1.64517 17.5259C1.64517 17.6359 1.66695 17.7449 1.70926 17.8464C1.75157 17.948 1.81356 18.0401 1.89167 18.1176C1.96914 18.1957 2.06131 18.2577 2.16286 18.3C2.26441 18.3423 2.37333 18.3641 2.48334 18.3641C2.59335 18.3641 2.70227 18.3423 2.80382 18.3C2.90537 18.2577 2.99753 18.1957 3.075 18.1176L4.74167 16.4509L5.93334 15.2593L15.2583 5.9176ZM16.1417 7.40094C16.4869 8.22435 16.6654 9.10808 16.6667 10.0009C16.6667 10.2219 16.7545 10.4339 16.9107 10.5902C17.067 10.7465 17.279 10.8343 17.5 10.8343C17.721 10.8343 17.933 10.7465 18.0893 10.5902C18.2455 10.4339 18.3333 10.2219 18.3333 10.0009C18.3364 8.66186 18.0102 7.34257 17.3833 6.15927L16.1417 7.40094Z" fill="#A65F00"/>
</svg>
