<svg width="18" height="18" viewBox="0 0 18 18" fill="none" xmlns="http://www.w3.org/2000/svg">
<mask id="path-1-inside-1_1739_80042" fill="white">
<path d="M17.1731 4.21865C17.0921 4.16811 16.9996 4.13901 16.9043 4.13409C16.809 4.12917 16.714 4.14859 16.6282 4.19053C13.6097 5.66709 11.4539 4.97522 9.17508 4.24537C6.78445 3.47967 4.30594 2.68865 0.881719 4.36068C0.786045 4.40658 0.705303 4.4786 0.648818 4.56843C0.592333 4.65826 0.562408 4.76223 0.5625 4.86834V13.3009C0.562487 13.3964 0.586757 13.4902 0.633027 13.5737C0.679296 13.6572 0.746044 13.7275 0.826988 13.7781C0.907931 13.8286 1.00041 13.8578 1.09572 13.8627C1.19103 13.8677 1.28603 13.8483 1.3718 13.8065C4.39031 12.3299 6.54609 13.0218 8.82844 13.7516C10.1813 14.184 11.5594 14.6249 13.1175 14.6249C14.3191 14.6249 15.6298 14.3633 17.119 13.6363C17.2136 13.5901 17.2933 13.5183 17.3491 13.4291C17.4049 13.3398 17.4346 13.2367 17.4347 13.1315V4.69889C17.4355 4.6032 17.412 4.50888 17.3662 4.42485C17.3204 4.34081 17.254 4.26984 17.1731 4.21865ZM16.3125 12.7736C13.4578 14.0512 11.373 13.3846 9.17156 12.6808C7.81875 12.2483 6.44063 11.8075 4.8825 11.8075C3.78781 11.8128 2.70425 12.0276 1.69031 12.4403V5.22623C4.545 3.94865 6.62977 4.61522 8.83125 5.31904C11.0327 6.02287 13.2989 6.7499 16.3125 5.56092V12.7736ZM9 6.7499C8.55499 6.7499 8.11998 6.88186 7.74997 7.1291C7.37996 7.37633 7.09157 7.72773 6.92127 8.13887C6.75097 8.55 6.70642 9.0024 6.79323 9.43886C6.88005 9.87531 7.09434 10.2762 7.40901 10.5909C7.72368 10.9056 8.12459 11.1199 8.56105 11.2067C8.99751 11.2935 9.4499 11.2489 9.86104 11.0786C10.2722 10.9083 10.6236 10.6199 10.8708 10.2499C11.118 9.87993 11.25 9.44491 11.25 8.9999C11.25 8.40317 11.0129 7.83087 10.591 7.40891C10.169 6.98696 9.59674 6.7499 9 6.7499ZM9 10.1249C8.7775 10.1249 8.55999 10.0589 8.37498 9.93531C8.18998 9.81169 8.04578 9.63599 7.96064 9.43042C7.87549 9.22486 7.85321 8.99866 7.89662 8.78043C7.94003 8.5622 8.04717 8.36174 8.20451 8.20441C8.36184 8.04707 8.5623 7.93993 8.78052 7.89652C8.99875 7.85311 9.22495 7.87539 9.43052 7.96054C9.63609 8.04569 9.81179 8.18988 9.9354 8.37489C10.059 8.55989 10.125 8.7774 10.125 8.9999C10.125 9.29827 10.0065 9.58442 9.7955 9.7954C9.58452 10.0064 9.29837 10.1249 9 10.1249ZM3.9375 6.7499V10.1249C3.9375 10.2741 3.87824 10.4172 3.77275 10.5227C3.66726 10.6281 3.52418 10.6874 3.375 10.6874C3.22582 10.6874 3.08274 10.6281 2.97725 10.5227C2.87176 10.4172 2.8125 10.2741 2.8125 10.1249V6.7499C2.8125 6.60072 2.87176 6.45765 2.97725 6.35216C3.08274 6.24667 3.22582 6.1874 3.375 6.1874C3.52418 6.1874 3.66726 6.24667 3.77275 6.35216C3.87824 6.45765 3.9375 6.60072 3.9375 6.7499ZM14.0625 11.2499V7.8749C14.0625 7.72572 14.1218 7.58265 14.2273 7.47716C14.3327 7.37167 14.4758 7.3124 14.625 7.3124C14.7742 7.3124 14.9173 7.37167 15.0227 7.47716C15.1282 7.58265 15.1875 7.72572 15.1875 7.8749V11.2499C15.1875 11.3991 15.1282 11.5422 15.0227 11.6477C14.9173 11.7531 14.7742 11.8124 14.625 11.8124C14.4758 11.8124 14.3327 11.7531 14.2273 11.6477C14.1218 11.5422 14.0625 11.3991 14.0625 11.2499Z"/>
</mask>
<path d="M17.1731 4.21865C17.0921 4.16811 16.9996 4.13901 16.9043 4.13409C16.809 4.12917 16.714 4.14859 16.6282 4.19053C13.6097 5.66709 11.4539 4.97522 9.17508 4.24537C6.78445 3.47967 4.30594 2.68865 0.881719 4.36068C0.786045 4.40658 0.705303 4.4786 0.648818 4.56843C0.592333 4.65826 0.562408 4.76223 0.5625 4.86834V13.3009C0.562487 13.3964 0.586757 13.4902 0.633027 13.5737C0.679296 13.6572 0.746044 13.7275 0.826988 13.7781C0.907931 13.8286 1.00041 13.8578 1.09572 13.8627C1.19103 13.8677 1.28603 13.8483 1.3718 13.8065C4.39031 12.3299 6.54609 13.0218 8.82844 13.7516C10.1813 14.184 11.5594 14.6249 13.1175 14.6249C14.3191 14.6249 15.6298 14.3633 17.119 13.6363C17.2136 13.5901 17.2933 13.5183 17.3491 13.4291C17.4049 13.3398 17.4346 13.2367 17.4347 13.1315V4.69889C17.4355 4.6032 17.412 4.50888 17.3662 4.42485C17.3204 4.34081 17.254 4.26984 17.1731 4.21865ZM16.3125 12.7736C13.4578 14.0512 11.373 13.3846 9.17156 12.6808C7.81875 12.2483 6.44063 11.8075 4.8825 11.8075C3.78781 11.8128 2.70425 12.0276 1.69031 12.4403V5.22623C4.545 3.94865 6.62977 4.61522 8.83125 5.31904C11.0327 6.02287 13.2989 6.7499 16.3125 5.56092V12.7736ZM9 6.7499C8.55499 6.7499 8.11998 6.88186 7.74997 7.1291C7.37996 7.37633 7.09157 7.72773 6.92127 8.13887C6.75097 8.55 6.70642 9.0024 6.79323 9.43886C6.88005 9.87531 7.09434 10.2762 7.40901 10.5909C7.72368 10.9056 8.12459 11.1199 8.56105 11.2067C8.99751 11.2935 9.4499 11.2489 9.86104 11.0786C10.2722 10.9083 10.6236 10.6199 10.8708 10.2499C11.118 9.87993 11.25 9.44491 11.25 8.9999C11.25 8.40317 11.0129 7.83087 10.591 7.40891C10.169 6.98696 9.59674 6.7499 9 6.7499ZM9 10.1249C8.7775 10.1249 8.55999 10.0589 8.37498 9.93531C8.18998 9.81169 8.04578 9.63599 7.96064 9.43042C7.87549 9.22486 7.85321 8.99866 7.89662 8.78043C7.94003 8.5622 8.04717 8.36174 8.20451 8.20441C8.36184 8.04707 8.5623 7.93993 8.78052 7.89652C8.99875 7.85311 9.22495 7.87539 9.43052 7.96054C9.63609 8.04569 9.81179 8.18988 9.9354 8.37489C10.059 8.55989 10.125 8.7774 10.125 8.9999C10.125 9.29827 10.0065 9.58442 9.7955 9.7954C9.58452 10.0064 9.29837 10.1249 9 10.1249ZM3.9375 6.7499V10.1249C3.9375 10.2741 3.87824 10.4172 3.77275 10.5227C3.66726 10.6281 3.52418 10.6874 3.375 10.6874C3.22582 10.6874 3.08274 10.6281 2.97725 10.5227C2.87176 10.4172 2.8125 10.2741 2.8125 10.1249V6.7499C2.8125 6.60072 2.87176 6.45765 2.97725 6.35216C3.08274 6.24667 3.22582 6.1874 3.375 6.1874C3.52418 6.1874 3.66726 6.24667 3.77275 6.35216C3.87824 6.45765 3.9375 6.60072 3.9375 6.7499ZM14.0625 11.2499V7.8749C14.0625 7.72572 14.1218 7.58265 14.2273 7.47716C14.3327 7.37167 14.4758 7.3124 14.625 7.3124C14.7742 7.3124 14.9173 7.37167 15.0227 7.47716C15.1282 7.58265 15.1875 7.72572 15.1875 7.8749V11.2499C15.1875 11.3991 15.1282 11.5422 15.0227 11.6477C14.9173 11.7531 14.7742 11.8124 14.625 11.8124C14.4758 11.8124 14.3327 11.7531 14.2273 11.6477C14.1218 11.5422 14.0625 11.3991 14.0625 11.2499Z" fill="black" fill-opacity="0.7"/>
<path d="M17.1731 4.21865L17.8151 3.20478L17.8085 3.20064L17.1731 4.21865ZM16.6282 4.19053L16.101 3.11252L16.1009 3.11259L16.6282 4.19053ZM9.17508 4.24537L8.80904 5.38818L8.80907 5.38819L9.17508 4.24537ZM0.881719 4.36068L1.40073 5.44267L1.40825 5.439L0.881719 4.36068ZM0.5625 4.86834H1.7625L1.7625 4.8673L0.5625 4.86834ZM0.5625 13.3009L1.7625 13.3011V13.3009H0.5625ZM1.3718 13.8065L1.8983 14.8848L1.89909 14.8844L1.3718 13.8065ZM8.82844 13.7516L8.46294 14.8946L8.46307 14.8946L8.82844 13.7516ZM17.119 13.6363L17.6454 14.7147L17.6455 14.7146L17.119 13.6363ZM17.4347 13.1315L18.6347 13.1328V13.1315H17.4347ZM17.4347 4.69889L16.2347 4.68824V4.69889H17.4347ZM16.3125 12.7736L16.8027 13.8689L17.5125 13.5512V12.7736H16.3125ZM9.17156 12.6808L9.53699 11.5378L9.53693 11.5377L9.17156 12.6808ZM4.8825 11.8075V10.6075L4.87667 10.6075L4.8825 11.8075ZM1.69031 12.4403H0.490313V14.2243L2.1427 13.5518L1.69031 12.4403ZM1.69031 5.22623L1.20012 4.13092L0.490313 4.44858V5.22623H1.69031ZM16.3125 5.56092H17.5125V3.79745L15.8721 4.44466L16.3125 5.56092ZM9 6.7499V5.5499V6.7499ZM3.9375 6.7499H2.7375H3.9375ZM17.1731 4.21865L17.8085 3.20064C17.5547 3.04229 17.2649 2.95111 16.9662 2.93569L16.9043 4.13409L16.8425 5.3325C16.7344 5.32692 16.6296 5.29394 16.5378 5.23666L17.1731 4.21865ZM16.9043 4.13409L16.9662 2.93569C16.6675 2.92027 16.3697 2.98112 16.101 3.11252L16.6282 4.19053L17.1554 5.26854C17.0582 5.31606 16.9505 5.33807 16.8425 5.3325L16.9043 4.13409ZM16.6282 4.19053L16.1009 3.11259C14.7778 3.75983 13.6931 3.91358 12.7036 3.84798C11.6729 3.77965 10.7026 3.47455 9.54109 3.10255L9.17508 4.24537L8.80907 5.38819C9.9264 5.74604 11.1734 6.1518 12.5449 6.24272C13.9576 6.33638 15.4601 6.09779 17.1555 5.26847L16.6282 4.19053ZM9.17508 4.24537L9.54111 3.10256C7.11351 2.32501 4.23072 1.38996 0.355183 3.28237L0.881719 4.36068L1.40825 5.439C4.38115 3.98734 6.4554 4.63433 8.80904 5.38818L9.17508 4.24537ZM0.881719 4.36068L0.362719 3.27872C0.0629404 3.42252 -0.19005 3.64818 -0.367037 3.92965L0.648818 4.56843L1.66467 5.20721C1.60066 5.30901 1.50915 5.39063 1.40072 5.44265L0.881719 4.36068ZM0.648818 4.56843L-0.367037 3.92965C-0.544024 4.21111 -0.637787 4.5369 -0.637499 4.86938L0.5625 4.86834L1.7625 4.8673C1.7626 4.98756 1.72869 5.1054 1.66467 5.20721L0.648818 4.56843ZM0.5625 4.86834H-0.6375V13.3009H0.5625H1.7625V4.86834H0.5625ZM0.5625 13.3009L-0.6375 13.3008C-0.637542 13.5998 -0.561496 13.8939 -0.416517 14.1555L0.633027 13.5737L1.68257 12.9919C1.73501 13.0865 1.76252 13.1929 1.7625 13.3011L0.5625 13.3009ZM0.633027 13.5737L-0.416517 14.1555C-0.271537 14.417 -0.0623927 14.6374 0.191227 14.7958L0.826988 13.7781L1.46275 12.7603C1.55448 12.8176 1.63013 12.8973 1.68257 12.9919L0.633027 13.5737ZM0.826988 13.7781L0.191227 14.7958C0.444849 14.9542 0.734614 15.0455 1.03325 15.0611L1.09572 13.8627L1.15819 12.6644C1.26621 12.67 1.37101 12.703 1.46275 12.7603L0.826988 13.7781ZM1.09572 13.8627L1.03325 15.0611C1.33189 15.0767 1.62957 15.016 1.8983 14.8848L1.3718 13.8065L0.845297 12.7281C0.942496 12.6807 1.05017 12.6587 1.15819 12.6644L1.09572 13.8627ZM1.3718 13.8065L1.89909 14.8844C3.2222 14.2372 4.30684 14.0834 5.29683 14.149C6.32819 14.2174 7.29941 14.5225 8.46294 14.8946L8.82844 13.7516L9.19394 12.6086C8.07512 12.2509 6.82728 11.8452 5.45553 11.7543C4.04242 11.6606 2.53991 11.8992 0.844502 12.7285L1.3718 13.8065ZM8.82844 13.7516L8.46307 14.8946C9.79478 15.3203 11.3448 15.8249 13.1175 15.8249V14.6249V13.4249C11.774 13.4249 10.5677 13.0478 9.1938 12.6086L8.82844 13.7516ZM13.1175 14.6249V15.8249C14.5082 15.8249 15.9983 15.5188 17.6454 14.7147L17.119 13.6363L16.5925 12.558C15.2612 13.2079 14.1301 13.4249 13.1175 13.4249V14.6249ZM17.119 13.6363L17.6455 14.7146C17.9419 14.5699 18.1917 14.345 18.3666 14.0653L17.3491 13.4291L16.3317 12.7928C16.3949 12.6917 16.4853 12.6103 16.5925 12.558L17.119 13.6363ZM17.3491 13.4291L18.3666 14.0653C18.5414 13.7857 18.6343 13.4626 18.6347 13.1328L17.4347 13.1315L16.2347 13.1301C16.2348 13.0108 16.2684 12.894 16.3317 12.7928L17.3491 13.4291ZM17.4347 13.1315H18.6347V4.69889H17.4347H16.2347V13.1315H17.4347ZM17.4347 4.69889L18.6346 4.70954C18.6373 4.40972 18.5634 4.11418 18.42 3.85087L17.3662 4.42485L16.3124 4.99882C16.2605 4.90358 16.2338 4.79669 16.2347 4.68824L17.4347 4.69889ZM17.3662 4.42485L18.42 3.85087C18.2766 3.58757 18.0684 3.3652 17.8151 3.2048L17.1731 4.21865L16.5312 5.23251C16.4395 5.17449 16.3642 5.09406 16.3124 4.99882L17.3662 4.42485ZM16.3125 12.7736L15.8223 11.6783C13.4132 12.7564 11.7217 12.2362 9.53699 11.5378L9.17156 12.6808L8.80614 13.8238C11.0244 14.533 13.5024 15.3459 16.8027 13.8689L16.3125 12.7736ZM9.17156 12.6808L9.53693 11.5377C8.20523 11.1121 6.65522 10.6075 4.8825 10.6075V11.8075V13.0075C6.22603 13.0075 7.43228 13.3846 8.8062 13.8238L9.17156 12.6808ZM4.8825 11.8075L4.87667 10.6075C3.62884 10.6136 2.3937 10.8584 1.23793 11.3288L1.69031 12.4403L2.1427 13.5518C3.0148 13.1968 3.94677 13.012 4.88833 13.0075L4.8825 11.8075ZM1.69031 12.4403H2.89031V5.22623H1.69031H0.490313V12.4403H1.69031ZM1.69031 5.22623L2.18051 6.32155C4.58957 5.2434 6.2811 5.76358 8.46582 6.46205L8.83125 5.31904L9.19668 4.17604C6.97844 3.46685 4.50043 2.65391 1.20012 4.13092L1.69031 5.22623ZM8.83125 5.31904L8.46582 6.46205C10.678 7.16929 13.3121 8.0347 16.7529 6.67718L16.3125 5.56092L15.8721 4.44466C13.2857 5.4651 11.3875 4.87645 9.19668 4.17604L8.83125 5.31904ZM16.3125 5.56092H15.1125V12.7736H16.3125H17.5125V5.56092H16.3125ZM9 6.7499V5.5499C8.31766 5.5499 7.65063 5.75224 7.08328 6.13133L7.74997 7.1291L8.41665 8.12686C8.58932 8.01149 8.79233 7.9499 9 7.9499V6.7499ZM7.74997 7.1291L7.08328 6.13133C6.51593 6.51042 6.07374 7.04924 5.81262 7.67965L6.92127 8.13887L8.02993 8.59809C8.1094 8.40622 8.24398 8.24224 8.41665 8.12686L7.74997 7.1291ZM6.92127 8.13887L5.81262 7.67965C5.55149 8.31005 5.48317 9.00373 5.61629 9.67297L6.79323 9.43886L7.97018 9.20475C7.92966 9.00107 7.95046 8.78995 8.02993 8.59809L6.92127 8.13887ZM6.79323 9.43886L5.61629 9.67297C5.74941 10.3422 6.07799 10.9569 6.56048 11.4394L7.40901 10.5909L8.25754 9.74237C8.11069 9.59552 8.01069 9.40843 7.97018 9.20475L6.79323 9.43886ZM7.40901 10.5909L6.56048 11.4394C7.04297 11.9219 7.6577 12.2505 8.32694 12.3836L8.56105 11.2067L8.79516 10.0297C8.59148 9.98921 8.40438 9.88921 8.25754 9.74237L7.40901 10.5909ZM8.56105 11.2067L8.32694 12.3836C8.99617 12.5167 9.68985 12.4484 10.3203 12.1873L9.86104 11.0786L9.40182 9.96998C9.20996 10.0494 8.99884 10.0702 8.79516 10.0297L8.56105 11.2067ZM9.86104 11.0786L10.3203 12.1873C10.9507 11.9262 11.4895 11.484 11.8686 10.9166L10.8708 10.2499L9.87304 9.58325C9.75767 9.75592 9.59368 9.89051 9.40182 9.96998L9.86104 11.0786ZM10.8708 10.2499L11.8686 10.9166C12.2477 10.3493 12.45 9.68225 12.45 8.9999H11.25H10.05C10.05 9.20757 9.98842 9.41058 9.87304 9.58325L10.8708 10.2499ZM11.25 8.9999H12.45C12.45 8.08491 12.0865 7.20739 11.4395 6.56039L10.591 7.40891L9.74246 8.25744C9.93938 8.45436 10.05 8.72143 10.05 8.9999H11.25ZM10.591 7.40891L11.4395 6.56039C10.7925 5.91338 9.915 5.5499 9 5.5499V6.7499V7.9499C9.27848 7.9499 9.54555 8.06053 9.74246 8.25744L10.591 7.40891ZM9 10.1249V8.9249C9.01484 8.9249 9.02934 8.9293 9.04167 8.93754L8.37498 9.93531L7.7083 10.9331C8.09064 11.1885 8.54016 11.3249 9 11.3249V10.1249ZM8.37498 9.93531L9.04167 8.93754C9.054 8.94578 9.06361 8.9575 9.06929 8.9712L7.96064 9.43042L6.85198 9.88964C7.02796 10.3145 7.32596 10.6776 7.7083 10.9331L8.37498 9.93531ZM7.96064 9.43042L9.06929 8.9712C9.07497 8.98491 9.07645 8.99999 9.07356 9.01454L7.89662 8.78043L6.71968 8.54632C6.62996 8.99732 6.67601 9.4648 6.85198 9.88964L7.96064 9.43042ZM7.89662 8.78043L9.07356 9.01454C9.07067 9.02909 9.06352 9.04245 9.05303 9.05294L8.20451 8.20441L7.35598 7.35588C7.03082 7.68104 6.80939 8.09531 6.71968 8.54632L7.89662 8.78043ZM8.20451 8.20441L9.05303 9.05294C9.04255 9.06343 9.02918 9.07057 9.01463 9.07346L8.78052 7.89652L8.54642 6.71958C8.09541 6.80929 7.68113 7.03072 7.35598 7.35588L8.20451 8.20441ZM8.78052 7.89652L9.01463 9.07346C9.00008 9.07636 8.985 9.07487 8.9713 9.06919L9.43052 7.96054L9.88974 6.85188C9.4649 6.67591 8.99742 6.62987 8.54642 6.71958L8.78052 7.89652ZM9.43052 7.96054L8.9713 9.06919C8.95759 9.06352 8.94588 9.0539 8.93764 9.04157L9.9354 8.37489L10.9332 7.7082C10.6777 7.32586 10.3146 7.02786 9.88974 6.85188L9.43052 7.96054ZM9.9354 8.37489L8.93764 9.04157C8.9294 9.02924 8.925 9.01474 8.925 8.9999H10.125H11.325C11.325 8.54006 11.1886 8.09055 10.9332 7.7082L9.9354 8.37489ZM10.125 8.9999H8.925C8.925 8.98001 8.9329 8.96094 8.94697 8.94687L9.7955 9.7954L10.644 10.6439C11.08 10.2079 11.325 9.61653 11.325 8.9999H10.125ZM9.7955 9.7954L8.94697 8.94687C8.96103 8.93281 8.98011 8.9249 9 8.9249V10.1249V11.3249C9.61663 11.3249 10.208 11.0799 10.644 10.6439L9.7955 9.7954ZM3.9375 6.7499H2.7375V10.1249H3.9375H5.1375V6.7499H3.9375ZM3.9375 10.1249H2.7375C2.7375 9.95583 2.80467 9.79368 2.92422 9.67412L3.77275 10.5227L4.62128 11.3712C4.95181 11.0406 5.1375 10.5923 5.1375 10.1249H3.9375ZM3.77275 10.5227L2.92422 9.67412C3.04378 9.55457 3.20593 9.4874 3.375 9.4874V10.6874V11.8874C3.84244 11.8874 4.29074 11.7017 4.62128 11.3712L3.77275 10.5227ZM3.375 10.6874V9.4874C3.54407 9.4874 3.70623 9.55457 3.82578 9.67412L2.97725 10.5227L2.12872 11.3712C2.45926 11.7017 2.90756 11.8874 3.375 11.8874V10.6874ZM2.97725 10.5227L3.82578 9.67412C3.94534 9.79368 4.0125 9.95583 4.0125 10.1249H2.8125H1.6125C1.6125 10.5923 1.79819 11.0406 2.12872 11.3712L2.97725 10.5227ZM2.8125 10.1249H4.0125V6.7499H2.8125H1.6125V10.1249H2.8125ZM2.8125 6.7499H4.0125C4.0125 6.91898 3.94534 7.08113 3.82578 7.20068L2.97725 6.35216L2.12872 5.50363C1.79819 5.83416 1.6125 6.28246 1.6125 6.7499H2.8125ZM2.97725 6.35216L3.82578 7.20068C3.70623 7.32024 3.54408 7.3874 3.375 7.3874V6.1874V4.9874C2.90756 4.9874 2.45926 5.1731 2.12872 5.50363L2.97725 6.35216ZM3.375 6.1874V7.3874C3.20592 7.3874 3.04377 7.32024 2.92422 7.20068L3.77275 6.35216L4.62128 5.50363C4.29074 5.1731 3.84245 4.9874 3.375 4.9874V6.1874ZM3.77275 6.35216L2.92422 7.20068C2.80467 7.08113 2.7375 6.91898 2.7375 6.7499H3.9375L5.1375 6.7499C5.1375 6.28246 4.95181 5.83416 4.62128 5.50363L3.77275 6.35216ZM14.0625 11.2499H15.2625V7.8749H14.0625H12.8625V11.2499H14.0625ZM14.0625 7.8749H15.2625C15.2625 8.04398 15.1953 8.20613 15.0758 8.32568L14.2273 7.47716L13.3787 6.62863C13.0482 6.95916 12.8625 7.40746 12.8625 7.8749H14.0625ZM14.2273 7.47716L15.0758 8.32568C14.9562 8.44524 14.7941 8.5124 14.625 8.5124V7.3124V6.1124C14.1576 6.1124 13.7093 6.29809 13.3787 6.62863L14.2273 7.47716ZM14.625 7.3124V8.5124C14.4559 8.5124 14.2938 8.44524 14.1742 8.32568L15.0227 7.47716L15.8713 6.62863C15.5407 6.29809 15.0924 6.1124 14.625 6.1124V7.3124ZM15.0227 7.47716L14.1742 8.32568C14.0547 8.20613 13.9875 8.04398 13.9875 7.8749H15.1875H16.3875C16.3875 7.40746 16.2018 6.95916 15.8713 6.62863L15.0227 7.47716ZM15.1875 7.8749H13.9875V11.2499H15.1875H16.3875V7.8749H15.1875ZM15.1875 11.2499H13.9875C13.9875 11.0808 14.0547 10.9187 14.1742 10.7991L15.0227 11.6477L15.8713 12.4962C16.2018 12.1656 16.3875 11.7173 16.3875 11.2499H15.1875ZM15.0227 11.6477L14.1742 10.7991C14.2938 10.6796 14.4559 10.6124 14.625 10.6124V11.8124V13.0124C15.0924 13.0124 15.5407 12.8267 15.8713 12.4962L15.0227 11.6477ZM14.625 11.8124V10.6124C14.7941 10.6124 14.9562 10.6796 15.0758 10.7991L14.2273 11.6477L13.3787 12.4962C13.7093 12.8267 14.1576 13.0124 14.625 13.0124V11.8124ZM14.2273 11.6477L15.0758 10.7991C15.1953 10.9187 15.2625 11.0808 15.2625 11.2499H14.0625H12.8625C12.8625 11.7173 13.0482 12.1656 13.3787 12.4962L14.2273 11.6477Z" fill="black" fill-opacity="0.7" mask="url(#path-1-inside-1_1739_80042)"/>
</svg>
