<svg width="20" height="20" viewBox="0 0 20 20" fill="none" xmlns="http://www.w3.org/2000/svg">
<g clip-path="url(#clip0_10945_29431)">
<path d="M19.5311 14.8926C19.6092 14.9707 19.6776 15.0651 19.7362 15.1758C19.7948 15.2865 19.8436 15.4036 19.8827 15.5273C19.9217 15.651 19.951 15.7747 19.9705 15.8984C19.9901 16.0221 19.9998 16.1393 19.9998 16.25C19.9998 16.4258 19.9673 16.5885 19.9022 16.7383C19.8371 16.888 19.7492 17.0182 19.6385 17.1289C19.5278 17.2396 19.3944 17.3307 19.2381 17.4023C19.0819 17.474 18.9191 17.5065 18.7498 17.5H1.24984C1.07406 17.5 0.911296 17.4674 0.761556 17.4023C0.611816 17.3372 0.481608 17.2493 0.370931 17.1387C0.260254 17.028 0.169108 16.8945 0.0974935 16.7383C0.0258789 16.582 -0.00667318 16.4193 -0.00016276 16.25C-0.00016276 16.1458 0.00960286 16.0319 0.0291341 15.9082C0.0486654 15.7845 0.0779622 15.6576 0.117025 15.5273C0.156087 15.3971 0.204915 15.2799 0.263509 15.1758C0.322103 15.0716 0.390462 14.9772 0.468587 14.8926L2.49984 12.8613V3.75H17.4998V12.8613L19.5311 14.8926ZM3.74984 12.5H16.2498V5H3.74984V12.5ZM18.7498 16.25C18.7498 16.1784 18.7368 16.0872 18.7108 15.9766C18.6847 15.8659 18.6457 15.7812 18.5936 15.7227L16.6112 13.75H3.38851L1.40609 15.7227C1.354 15.7747 1.31494 15.8561 1.2889 15.9668C1.26286 16.0775 1.24984 16.1719 1.24984 16.25H18.7498Z" fill="black"/>
</g>
<defs>
<clipPath id="clip0_10945_29431">
<rect width="20" height="20" fill="white"/>
</clipPath>
</defs>
</svg>
