<svg width="19" height="18" viewBox="0 0 19 18" fill="none" xmlns="http://www.w3.org/2000/svg">
<path d="M17.4999 12.5002C17.4999 12.9422 17.3243 13.3661 17.0118 13.6787C16.6992 13.9912 16.2753 14.1668 15.8333 14.1668H4.85659C4.41459 14.1669 3.99074 14.3426 3.67825 14.6552L1.84325 16.4902C1.76051 16.5729 1.65509 16.6292 1.54033 16.6521C1.42556 16.6749 1.30661 16.6632 1.19851 16.6184C1.0904 16.5736 0.998004 16.4978 0.93299 16.4005C0.867976 16.3032 0.833267 16.1888 0.833252 16.0718V2.50016C0.833252 2.05814 1.00885 1.63421 1.32141 1.32165C1.63397 1.00909 2.05789 0.833496 2.49992 0.833496H15.8333C16.2753 0.833496 16.6992 1.00909 17.0118 1.32165C17.3243 1.63421 17.4999 2.05814 17.4999 2.50016V12.5002Z" stroke="black" stroke-width="1.66667" stroke-linecap="round" stroke-linejoin="round"/>
</svg>
