<svg width="14" height="17" viewBox="0 0 14 17" fill="none" xmlns="http://www.w3.org/2000/svg">
<path d="M4.34961 8.84961H8.84961M4.34961 11.8496H6.59961M0.599609 2.09961V14.0996C0.599609 14.4974 0.757645 14.879 1.03895 15.1603C1.32025 15.4416 1.70178 15.5996 2.09961 15.5996H11.0996C11.4974 15.5996 11.879 15.4416 12.1603 15.1603C12.4416 14.879 12.5996 14.4974 12.5996 14.0996V5.35611C12.5996 5.15628 12.5596 4.95847 12.4821 4.77429C12.4046 4.59012 12.291 4.42329 12.1481 4.28361L8.81811 1.02711C8.53788 0.753103 8.16154 0.599658 7.76961 0.599609H2.09961C1.70178 0.599609 1.32025 0.757645 1.03895 1.03895C0.757645 1.32025 0.599609 1.70178 0.599609 2.09961Z" stroke="black" stroke-opacity="0.7" stroke-width="1.2" stroke-linecap="round" stroke-linejoin="round"/>
<path d="M8.09961 0.599609V3.59961C8.09961 3.99743 8.25764 4.37897 8.53895 4.66027C8.82025 4.94157 9.20178 5.09961 9.59961 5.09961H12.5996" stroke="black" stroke-opacity="0.7" stroke-width="1.2" stroke-linejoin="round"/>
</svg>
