<svg width="18" height="18" viewBox="0 0 18 18" fill="none" xmlns="http://www.w3.org/2000/svg">
<g clip-path="url(#clip0_1547_51449)">
<path d="M11.8087 15.4926V14.0171C11.8087 13.2345 11.4978 12.4839 10.9444 11.9305C10.391 11.3771 9.64043 11.0662 8.8578 11.0662H4.4314C3.64876 11.0662 2.89818 11.3771 2.34478 11.9305C1.79137 12.4839 1.48047 13.2345 1.48047 14.0171V15.4926" stroke="#0A0A0A" stroke-width="1.47547" stroke-linecap="round" stroke-linejoin="round"/>
<path d="M11.8086 2.30786C12.4414 2.47191 13.0018 2.84144 13.4019 3.35844C13.8019 3.87544 14.019 4.51065 14.019 5.16436C14.019 5.81808 13.8019 6.45328 13.4019 6.97029C13.0018 7.48729 12.4414 7.85681 11.8086 8.02086" stroke="#0A0A0A" stroke-width="1.47547" stroke-linecap="round" stroke-linejoin="round"/>
<path d="M16.2288 15.4926V14.0171C16.2283 13.3633 16.0107 12.7281 15.6101 12.2114C15.2096 11.6946 14.6487 11.3256 14.0156 11.1621" stroke="#0A0A0A" stroke-width="1.47547" stroke-linecap="round" stroke-linejoin="round"/>
<path d="M6.64624 8.11524C8.276 8.11524 9.59717 6.79406 9.59717 5.16431C9.59717 3.53456 8.276 2.21338 6.64624 2.21338C5.01649 2.21338 3.69531 3.53456 3.69531 5.16431C3.69531 6.79406 5.01649 8.11524 6.64624 8.11524Z" stroke="#0A0A0A" stroke-width="1.47547" stroke-linecap="round" stroke-linejoin="round"/>
</g>
<defs>
<clipPath id="clip0_1547_51449">
<rect width="17.7056" height="17.7056" fill="white"/>
</clipPath>
</defs>
</svg>
