<svg width="67" height="40" viewBox="0 0 67 40" fill="none" xmlns="http://www.w3.org/2000/svg">
<path d="M38.2083 3.33008H23.2083C22.3243 3.33008 21.4764 3.68127 20.8513 4.30639C20.2262 4.93151 19.875 5.77936 19.875 6.66341V33.3301C19.875 34.2141 20.2262 35.062 20.8513 35.6871C21.4764 36.3122 22.3243 36.6634 23.2083 36.6634H43.2083C44.0924 36.6634 44.9402 36.3122 45.5654 35.6871C46.1905 35.062 46.5417 34.2141 46.5417 33.3301V11.6634L38.2083 3.33008Z" stroke="#04C18F" stroke-opacity="0.5" stroke-width="3.57868" stroke-linecap="round" stroke-linejoin="round"/>
<path d="M36.5312 3.33008V9.99674C36.5312 10.8808 36.8824 11.7286 37.5076 12.3538C38.1327 12.9789 38.9805 13.3301 39.8646 13.3301H46.5312" stroke="#04C18F" stroke-opacity="0.5" stroke-width="3.57868" stroke-linecap="round" stroke-linejoin="round"/>
<path d="M29.8724 14.9961H26.5391" stroke="#04C18F" stroke-opacity="0.5" stroke-width="3.57868" stroke-linecap="round" stroke-linejoin="round"/>
<path d="M39.8724 21.6641H26.5391" stroke="#04C18F" stroke-opacity="0.5" stroke-width="3.57868" stroke-linecap="round" stroke-linejoin="round"/>
<path d="M39.8724 28.3301H26.5391" stroke="#04C18F" stroke-opacity="0.5" stroke-width="3.57868" stroke-linecap="round" stroke-linejoin="round"/>
</svg>
