<svg width="18" height="18" viewBox="0 0 18 18" fill="none" xmlns="http://www.w3.org/2000/svg">
<path d="M11.025 1.5C12.285 1.5 12.915 1.5 13.3965 1.755C13.8235 1.9826 14.1676 2.33934 14.3798 2.77425C14.625 3.273 14.625 3.92625 14.625 5.2335V12.7665C14.625 14.0737 14.625 14.727 14.3798 15.2265C14.1676 15.6614 13.8235 16.0181 13.3965 16.2457C12.915 16.5 12.285 16.5 11.025 16.5H6.975C5.715 16.5 5.085 16.5 4.6035 16.245C4.1765 16.0174 3.83236 15.6607 3.62025 15.2257C3.375 14.727 3.375 14.0737 3.375 12.7665V5.2335C3.375 3.92625 3.375 3.273 3.62025 2.7735C3.83248 2.33887 4.17661 1.98241 4.6035 1.755C5.085 1.5 5.715 1.5 6.975 1.5H11.025Z" stroke="#013E32" stroke-opacity="0.47" stroke-width="1.5" stroke-linecap="round" stroke-linejoin="round"/>
<path d="M7.125 15.75V11.625C7.125 11.2272 7.28304 10.8456 7.56434 10.5643C7.84564 10.283 8.22718 10.125 8.625 10.125H9.375C9.77282 10.125 10.1544 10.283 10.4357 10.5643C10.717 10.8456 10.875 11.2272 10.875 11.625V15.75M7.5 4.5H6M7.5 7.5H6M12 4.5H10.5M12 7.5H10.5" stroke="#013E32" stroke-opacity="0.47" stroke-width="1.5" stroke-linecap="round" stroke-linejoin="round"/>
</svg>
