<svg width="31" height="28" viewBox="0 0 31 28" fill="none" xmlns="http://www.w3.org/2000/svg">
<path d="M19.2584 14.4553C19.5645 14.8686 19.9631 15.2 20.4203 15.4212C20.8774 15.6425 21.3798 15.7471 21.8847 15.7263C23.4933 15.7263 24.7994 14.7198 24.7994 13.4781C24.7994 12.2363 23.4933 11.2312 21.8847 11.2312C20.2761 11.2312 18.9688 10.2234 18.9688 8.98166C18.9688 7.7399 20.2748 6.73346 21.8847 6.73346M21.8847 6.73346C22.3896 6.71259 22.892 6.81723 23.3491 7.03849C23.8063 7.25975 24.2049 7.59111 24.511 8.00447M21.8847 6.73346V5.23511M21.8847 15.7276V17.2246" stroke="white" stroke-width="1.8" stroke-linecap="round" stroke-linejoin="round"/>
<path d="M15.2593 22.3097V26.963M8.79378 26.963H21.7248M5.71878 6.93923H13.4929M5.71878 12.0259H13.4929M5.71878 17.1126H9.60584M26.0619 1.03754H4.45671C3.54926 1.03754 2.67897 1.40817 2.03731 2.0679C1.39564 2.72763 1.03516 3.62242 1.03516 4.55542V18.7918C1.03516 19.7248 1.39564 20.6196 2.03731 21.2793C2.67897 21.939 3.54926 22.3097 4.45671 22.3097H26.0619C26.5112 22.3097 26.9561 22.2187 27.3712 22.0419C27.7864 21.8651 28.1636 21.606 28.4813 21.2793C28.799 20.9526 29.051 20.5648 29.223 20.138C29.3949 19.7112 29.4834 19.2538 29.4834 18.7918V4.55542C29.4834 4.09344 29.3949 3.63599 29.223 3.20918C29.051 2.78237 28.799 2.39457 28.4813 2.0679C28.1636 1.74123 27.7864 1.48211 27.3712 1.30532C26.9561 1.12853 26.5112 1.03754 26.0619 1.03754Z" stroke="white" stroke-width="1.8" stroke-linecap="round" stroke-linejoin="round"/>
</svg>
