<svg width="30" height="30" viewBox="0 0 30 30" fill="none" xmlns="http://www.w3.org/2000/svg">
<path d="M18.6159 15.6158C18.9118 16.0044 19.2971 16.316 19.7391 16.524C20.181 16.732 20.6666 16.8304 21.1547 16.8108C22.7097 16.8108 23.9722 15.8645 23.9722 14.697C23.9722 13.5295 22.7097 12.5845 21.1547 12.5845C19.5997 12.5845 18.3359 11.637 18.3359 10.4695C18.3359 9.30202 19.5984 8.35577 21.1547 8.35577M21.1547 8.35577C21.6428 8.33615 22.1284 8.43453 22.5703 8.64256C23.0123 8.85059 23.3975 9.16213 23.6934 9.55077M21.1547 8.35577V6.94702M21.1547 16.812V18.2195" stroke="#00FFBC" stroke-width="1.8" stroke-linecap="round" stroke-linejoin="round"/>
<path d="M14.75 23.0005V27.3755M8.5 27.3755H21M5.5275 8.54924H13.0425M5.5275 13.3317H13.0425M5.5275 18.1142H9.285M25.1925 3.00049H4.3075C3.4303 3.00049 2.58902 3.34896 1.96874 3.96923C1.34847 4.58951 1 5.43078 1 6.30799V19.693C1 20.5702 1.34847 21.4115 1.96874 22.0317C2.58902 22.652 3.4303 23.0005 4.3075 23.0005H25.1925C25.6268 23.0005 26.0569 22.9149 26.4582 22.7487C26.8595 22.5825 27.2241 22.3389 27.5313 22.0317C27.8384 21.7246 28.082 21.36 28.2482 20.9587C28.4144 20.5574 28.5 20.1273 28.5 19.693V6.30799C28.5 5.87364 28.4144 5.44355 28.2482 5.04226C28.082 4.64098 27.8384 4.27636 27.5313 3.96923C27.2241 3.6621 26.8595 3.41847 26.4582 3.25226C26.0569 3.08604 25.6268 3.00049 25.1925 3.00049Z" stroke="#00FFBC" stroke-width="1.8" stroke-linecap="round" stroke-linejoin="round"/>
</svg>
