<svg width="30" height="27" viewBox="0 0 30 27" fill="none" xmlns="http://www.w3.org/2000/svg">
<path d="M18.5144 13.5154C18.8103 13.9041 19.1955 14.2156 19.6375 14.4236C20.0794 14.6317 20.5651 14.7301 21.0531 14.7104C22.6081 14.7104 23.8706 13.7642 23.8706 12.5967C23.8706 11.4292 22.6081 10.4842 21.0531 10.4842C19.4981 10.4842 18.2344 9.53668 18.2344 8.36918C18.2344 7.20168 19.4969 6.25543 21.0531 6.25543M21.0531 6.25543C21.5412 6.23581 22.0268 6.33419 22.4688 6.54221C22.9107 6.75024 23.296 7.06179 23.5919 7.45043M21.0531 6.25543V4.84668M21.0531 14.7117V16.1192" stroke="white" stroke-width="1.8" stroke-linecap="round" stroke-linejoin="round"/>
<path d="M14.6484 20.9004V25.2754M8.39844 25.2754H20.8984M5.42594 6.44914H12.9409M5.42594 11.2316H12.9409M5.42594 16.0141H9.18344M25.0909 0.900391H4.20594C3.32873 0.900391 2.48746 1.24886 1.86718 1.86914C1.24691 2.48941 0.898438 3.33069 0.898438 4.20789V17.5929C0.898438 18.4701 1.24691 19.3114 1.86718 19.9316C2.48746 20.5519 3.32873 20.9004 4.20594 20.9004H25.0909C25.5253 20.9004 25.9554 20.8148 26.3567 20.6486C26.7579 20.4824 27.1226 20.2388 27.4297 19.9316C27.7368 19.6245 27.9804 19.2599 28.1467 18.8586C28.3129 18.4573 28.3984 18.0272 28.3984 17.5929V4.20789C28.3984 3.77354 28.3129 3.34345 28.1467 2.94217C27.9804 2.54088 27.7368 2.17626 27.4297 1.86914C27.1226 1.56201 26.7579 1.31838 26.3567 1.15216C25.9554 0.985942 25.5253 0.900391 25.0909 0.900391Z" stroke="white" stroke-width="1.8" stroke-linecap="round" stroke-linejoin="round"/>
</svg>
