<svg width="21" height="21" viewBox="0 0 21 21" fill="none" xmlns="http://www.w3.org/2000/svg">
<g clip-path="url(#clip0_1_9168)">
<path d="M13.0319 10.9314C13.2391 11.2035 13.5088 11.4215 13.8181 11.5672C14.1275 11.7128 14.4674 11.7816 14.8091 11.7679C15.8976 11.7679 16.7813 11.1055 16.7813 10.2883C16.7813 9.47103 15.8976 8.80953 14.8091 8.80953C13.7206 8.80953 12.8359 8.14628 12.8359 7.32903C12.8359 6.51178 13.7197 5.84941 14.8091 5.84941M14.8091 5.84941C15.1507 5.83567 15.4906 5.90454 15.8 6.05016C16.1094 6.19578 16.3791 6.41386 16.5862 6.68591M14.8091 5.84941V4.86328M14.8091 11.7688V12.754" stroke="black" stroke-width="1.5" stroke-linecap="round" stroke-linejoin="round"/>
<path d="M10.3252 16.1006V19.1631M5.95019 19.1631H14.7002M3.86944 5.98471H9.12994M3.86944 9.33246H9.12994M3.86944 12.6802H6.49969M17.6349 2.10059H3.01544C2.4014 2.10059 1.81251 2.34451 1.37832 2.77871C0.944123 3.2129 0.700195 3.80179 0.700195 4.41584V13.7853C0.700195 14.3994 0.944123 14.9883 1.37832 15.4225C1.81251 15.8567 2.4014 16.1006 3.01544 16.1006H17.6349C17.939 16.1006 18.2401 16.0407 18.521 15.9243C18.8018 15.808 19.0571 15.6375 19.2721 15.4225C19.4871 15.2075 19.6576 14.9522 19.774 14.6713C19.8903 14.3904 19.9502 14.0894 19.9502 13.7853V4.41584C19.9502 4.11179 19.8903 3.81073 19.774 3.52983C19.6576 3.24893 19.4871 2.9937 19.2721 2.77871C19.0571 2.56372 18.8018 2.39318 18.521 2.27682C18.2401 2.16047 17.939 2.10059 17.6349 2.10059Z" stroke="black" stroke-width="1.5" stroke-linecap="round" stroke-linejoin="round"/>
</g>
<defs>
<clipPath id="clip0_1_9168">
<rect width="21" height="21" fill="white"/>
</clipPath>
</defs>
</svg>
