<svg width="30" height="30" viewBox="0 0 30 30" fill="none" xmlns="http://www.w3.org/2000/svg">
<path d="M15.8989 17.7322C15.8989 17.4079 16.0278 17.0968 16.2571 16.8675C16.4865 16.6381 16.7975 16.5093 17.1218 16.5093H20.7906C21.1149 16.5093 21.426 16.6381 21.6553 16.8675C21.8847 17.0968 22.0135 17.4079 22.0135 17.7322C22.0135 18.0565 21.8847 18.3676 21.6553 18.5969C21.426 18.8263 21.1149 18.9551 20.7906 18.9551H17.1218C16.7975 18.9551 16.4865 18.8263 16.2571 18.5969C16.0278 18.3676 15.8989 18.0565 15.8989 17.7322Z" fill="#666666"/>
<path d="M20.5827 5.80859H8.7693C8.11504 5.80859 7.57084 5.80859 7.12447 5.84528C6.65977 5.88197 6.22441 5.96513 5.81228 6.17547C5.17936 6.49792 4.66479 7.01249 4.34234 7.64541C4.132 8.05754 4.04884 8.4929 4.01215 8.9576C3.97546 9.40397 3.97546 9.94817 3.97546 10.6024V18.7471C3.97546 19.4013 3.97546 19.9455 4.01215 20.3919C4.04884 20.8566 4.132 21.2919 4.34234 21.7041C4.66479 22.337 5.17936 22.8516 5.81228 23.174C6.22441 23.3844 6.65977 23.4675 7.12447 23.5042C7.57084 23.5409 8.11504 23.5409 8.7693 23.5409H20.5827C21.2369 23.5409 21.7811 23.5409 22.2275 23.5042C22.6922 23.4675 23.1276 23.3844 23.5397 23.174C24.1724 22.8519 24.687 22.3378 25.0096 21.7053C25.22 21.2919 25.3031 20.8566 25.3398 20.3919C25.3765 19.9455 25.3765 19.4013 25.3765 18.7483V10.6024C25.3765 9.94817 25.3765 9.40397 25.3398 8.9576C25.3031 8.4929 25.22 8.05754 25.0096 7.64541C24.6878 7.01286 24.1741 6.49833 23.5421 6.17547C23.1288 5.96513 22.6934 5.88197 22.2287 5.84528C21.7824 5.80859 21.2369 5.80859 20.5827 5.80859ZM6.64509 7.80929C6.75515 7.75303 6.92269 7.70167 7.27367 7.67354C7.63565 7.64419 8.10525 7.64297 8.80598 7.64297H20.546C21.2455 7.64297 21.7163 7.64297 22.0771 7.67354C22.4293 7.70167 22.5968 7.75303 22.7069 7.80929C22.9955 7.95604 23.2291 8.18961 23.3758 8.47822C23.4321 8.58828 23.4834 8.75582 23.5116 9.1068C23.5372 9.42476 23.5409 9.8271 23.5421 10.3945H5.80984C5.80984 9.8271 5.81473 9.42476 5.84041 9.1068C5.86854 8.75582 5.9199 8.58828 5.97616 8.47822C6.12279 8.19012 6.35699 7.95592 6.64509 7.80929ZM5.80984 12.8404H23.5421V18.7104C23.5421 19.4099 23.5421 19.8807 23.5116 20.2415C23.4834 20.5937 23.4321 20.7612 23.3758 20.8713C23.2292 21.1594 22.995 21.3936 22.7069 21.5402C22.5968 21.5964 22.4293 21.6478 22.0771 21.6759C21.7163 21.7053 21.2455 21.7065 20.546 21.7065H8.80598C8.10648 21.7065 7.63565 21.7065 7.27367 21.6759C6.92269 21.6478 6.75515 21.5964 6.64509 21.5402C6.35699 21.3936 6.12279 21.1594 5.97616 20.8713C5.9199 20.7612 5.86854 20.5937 5.84041 20.2415C5.81106 19.8807 5.80984 19.4099 5.80984 18.7104V12.8404Z" fill="#666666"/>
</svg>
