<svg width="23" height="23" viewBox="0 0 23 23" fill="none" xmlns="http://www.w3.org/2000/svg">
<path d="M11.1591 11.5755C8.91471 9.3311 7.81693 6.37504 7.86572 3.43064L6.36595 3.40731C6.33562 5.11753 6.65053 6.8163 7.29185 8.40201C7.93317 9.98773 8.88772 11.4278 10.0984 12.6361L11.1591 11.5755ZM19.3039 14.8688C17.7945 14.896 16.2952 14.6183 14.8957 14.0525C13.4962 13.4866 12.2253 12.6441 11.1591 11.5755L10.0984 12.6361C12.6419 15.1796 15.9957 16.4248 19.3272 16.3686L19.3039 14.8688ZM20.705 17.9394C18.5952 20.0492 15.7337 21.2345 12.7501 21.2345C9.76637 21.2345 6.90489 20.0492 4.79511 17.9394L3.73445 19.0001C6.12554 21.3912 9.36855 22.7345 12.7501 22.7345C16.1316 22.7345 19.3746 21.3912 21.7657 19.0001L20.705 17.9394ZM4.79511 17.9394C2.68532 15.8296 1.50006 12.9681 1.50006 9.98446C1.50006 7.00078 2.68532 4.1393 4.79511 2.02951L3.73445 0.968851C1.34336 3.35994 6.06503e-05 6.60295 6.07346e-05 9.98446C6.09875e-05 13.366 1.34336 16.609 3.73445 19.0001L4.79511 17.9394ZM19.3272 16.3686C19.7865 16.3612 20.1142 16.3558 20.3539 16.3601C20.6149 16.3622 20.6891 16.3771 20.687 16.3771L21.0922 14.9324C20.8566 14.8792 20.6155 14.8547 20.3741 14.8593C20.1082 14.8564 19.7522 14.8589 19.3039 14.8688L19.3272 16.3686ZM21.7657 19.0001C22.0457 18.7201 22.296 18.4804 22.4636 18.1685L21.1441 17.4558C21.1038 17.53 21.0444 17.6 20.705 17.9394L21.7657 19.0001ZM20.687 16.3771C20.7953 16.4075 20.8954 16.4618 20.9799 16.5362C21.0643 16.6105 21.131 16.7029 21.1749 16.8065C21.2188 16.9101 21.2388 17.0223 21.2335 17.1346C21.2282 17.247 21.1976 17.3568 21.1441 17.4558L22.4636 18.1685C22.6241 17.8716 22.7157 17.5423 22.7317 17.2052C22.7476 16.868 22.6875 16.5316 22.5558 16.2208C22.4241 15.91 22.2242 15.6328 21.9708 15.4098C21.7174 15.1868 21.4171 15.0236 21.0922 14.9324L20.687 16.3771ZM7.86572 3.43064C7.87491 2.98304 7.87845 2.62595 7.87633 2.35938C7.87208 2.1133 7.86042 1.85556 7.80208 1.64237L6.35746 2.04754C6.35746 2.04754 6.37125 2.11861 6.37549 2.38165C6.37974 2.61924 6.37337 2.94804 6.36595 3.40731L7.86572 3.43064ZM4.79511 2.02951C5.13452 1.6901 5.20452 1.63282 5.27877 1.5904L4.56601 0.270937C4.25417 0.438521 4.01446 0.688837 3.73445 0.968851L4.79511 2.02951ZM7.80208 1.64237C7.71087 1.31739 7.54772 1.01709 7.3247 0.763727C7.10168 0.510361 6.82451 0.310418 6.51373 0.178711C6.20295 0.0470033 5.86652 -0.0130942 5.52936 0.00287043C5.1922 0.0188351 4.86295 0.110453 4.56601 0.270937L5.27877 1.5904C5.37775 1.5369 5.4875 1.50636 5.59989 1.50104C5.71227 1.49572 5.82442 1.51575 5.92801 1.55966C6.03161 1.60356 6.12399 1.67021 6.19833 1.75466C6.27267 1.83912 6.32706 1.93922 6.35746 2.04754L7.80208 1.64237Z" fill="white"/>
</svg>
