<svg width="21" height="18" viewBox="0 0 21 18" fill="none" xmlns="http://www.w3.org/2000/svg">
<path d="M1.84545 -3.89665e-06C2.87611 -0.00441103 3.90676 -0.00770349 4.93743 -0.00971868C5.41613 -0.0106798 5.89483 -0.0119869 6.37353 -0.0141488C6.79144 -0.0160352 7.20935 -0.0172314 7.62726 -0.0176455C7.84793 -0.017887 8.06859 -0.0184423 8.28926 -0.0198283C11.1028 -0.0355182 13.8223 0.506771 15.931 2.45288C16.9765 3.51751 17.5984 4.77635 18.0091 6.1875C18.0565 6.18841 18.104 6.18932 18.1529 6.19026C18.3701 6.19494 18.5873 6.20097 18.8045 6.20703C18.9165 6.20914 18.9165 6.20914 19.0308 6.2113C19.6151 6.22903 20.0726 6.30062 20.516 6.69921C20.9113 7.13755 21.0106 7.5706 21.004 8.14062C21.0037 8.18719 21.0034 8.23376 21.0031 8.28173C21.0024 8.39616 21.0012 8.51058 21 8.625C20.9402 8.58548 20.9402 8.58548 20.8792 8.54516C20.8272 8.51092 20.7752 8.47668 20.7216 8.4414C20.6699 8.40732 20.6182 8.37324 20.565 8.33813C20.3204 8.18159 20.1277 8.17452 19.8421 8.16772C19.7971 8.16642 19.7521 8.16512 19.7057 8.16378C19.5618 8.1597 19.4178 8.15601 19.2739 8.15234C19.1763 8.14964 19.0788 8.14691 18.9813 8.14416C18.7421 8.13742 18.5029 8.13122 18.2636 8.125C18.2636 8.68187 18.2636 9.23875 18.2636 9.8125C18.4815 9.80605 18.6994 9.79961 18.9239 9.79296C19.5729 9.78552 19.9812 9.85951 20.483 10.2773C20.8737 10.7401 21.0221 11.1186 21.008 11.7109C21.0074 11.7569 21.0068 11.8029 21.0062 11.8503C21.0047 11.9627 21.0024 12.0751 21 12.1875C20.9563 12.1612 20.9126 12.1348 20.8675 12.1077C20.7815 12.0563 20.7815 12.0563 20.6937 12.0039C20.6369 11.9698 20.5801 11.9357 20.5215 11.9006C20.2394 11.7431 19.9963 11.7417 19.6808 11.7439C19.6092 11.744 19.6092 11.744 19.5361 11.7442C19.3837 11.7445 19.2313 11.7453 19.079 11.7461C18.9756 11.7464 18.8722 11.7467 18.7689 11.7469C18.5156 11.7476 18.2624 11.7487 18.0091 11.75C17.9823 11.8521 17.9823 11.8521 17.9549 11.9563C17.6572 13.0753 17.1517 14.0951 16.4182 15C16.3829 15.0445 16.3476 15.0891 16.3113 15.135C16.0796 15.4148 15.8088 15.6448 15.5273 15.875C15.4817 15.9142 15.4361 15.9535 15.3891 15.9939C13.6681 17.4261 11.2566 17.9514 9.04951 17.9446C8.97059 17.9446 8.89167 17.9446 8.81036 17.9446C8.59595 17.9446 8.38156 17.9443 8.16716 17.9438C7.94235 17.9434 7.71754 17.9434 7.49273 17.9433C7.06792 17.9431 6.64311 17.9426 6.2183 17.942C5.73429 17.9413 5.25028 17.941 4.76627 17.9406C3.77145 17.94 2.77663 17.9389 1.78182 17.9375C1.81227 17.8919 1.84271 17.8463 1.87409 17.7993C1.9141 17.7387 1.95412 17.678 1.99535 17.6155C2.03498 17.5557 2.07462 17.4959 2.11546 17.4343C2.57999 16.6685 2.62888 15.8157 2.64936 14.9468C2.65198 14.8524 2.65466 14.758 2.65737 14.6636C2.66434 14.4172 2.67066 14.1708 2.67683 13.9244C2.68326 13.6722 2.69033 13.42 2.69734 13.1677C2.71095 12.6743 2.72388 12.1809 2.73636 11.6875C2.69536 11.6891 2.65435 11.6908 2.6121 11.6925C2.42286 11.699 2.23364 11.703 2.04432 11.707C1.9476 11.711 1.9476 11.711 1.84893 11.715C1.33015 11.7231 0.913536 11.6135 0.516734 11.2721C0.0945413 10.8448 -0.0207014 10.3502 -0.0159103 9.77343C-0.0126668 9.61959 -0.00699328 9.46625 -1.18278e-06 9.3125C0.03821 9.3434 0.0764212 9.3743 0.11579 9.40614C0.651361 9.79367 1.1256 9.81369 1.76193 9.80859C1.85685 9.80941 1.95176 9.81043 2.04668 9.81164C2.2767 9.81453 2.50619 9.81343 2.73636 9.8125C2.73636 9.25562 2.73636 8.69875 2.73636 8.125C2.46336 8.125 2.19036 8.125 1.90909 8.125C1.22495 8.10504 0.864048 8.00056 0.393749 7.51171C-0.0597351 6.96159 -0.0226326 6.42834 -1.18278e-06 5.75C0.0437215 5.77634 0.0874441 5.80269 0.132492 5.82983C0.189832 5.86407 0.247171 5.89831 0.306249 5.93359C0.39152 5.98471 0.39152 5.98471 0.478514 6.03686C0.74582 6.18611 0.960076 6.19847 1.26353 6.20727C1.32668 6.20922 1.32668 6.20922 1.39112 6.21121C1.52532 6.21529 1.65953 6.21897 1.79375 6.22265C1.88485 6.22535 1.97596 6.22808 2.06706 6.23083C2.29015 6.23752 2.51325 6.24385 2.73636 6.25C2.72551 5.73155 2.7134 5.21316 2.69977 4.69479C2.69347 4.45395 2.68758 4.21312 2.68267 3.97226C2.65509 2.03946 2.65509 2.03946 1.97273 0.249996C1.92996 0.166834 1.88747 0.0835268 1.84545 -3.89665e-06ZM5.53636 0.937496C5.53636 2.69062 5.53636 4.44375 5.53636 6.25C8.60236 6.25 11.6684 6.25 14.8273 6.25C14.5231 4.90582 14.1745 3.72522 13.2364 2.6875C13.1987 2.64463 13.1611 2.60177 13.1223 2.55761C12.126 1.49779 10.5905 1.04346 9.16364 0.937496C8.88046 0.929486 8.59751 0.930191 8.31424 0.931393C8.20815 0.931487 8.20815 0.931487 8.09991 0.931583C7.83801 0.931908 7.5761 0.932781 7.3142 0.93359C6.72752 0.934879 6.14083 0.936168 5.53636 0.937496ZM5.53636 8.125C5.53636 8.68187 5.53636 9.23875 5.53636 9.8125C8.66536 9.8125 11.7944 9.8125 15.0182 9.8125C15.0182 9.25562 15.0182 8.69875 15.0182 8.125C11.8892 8.125 8.76018 8.125 5.53636 8.125ZM5.53636 11.6875C5.53636 13.4406 5.53636 15.1937 5.53636 17C6.07186 17.0052 6.60736 17.0103 7.15909 17.0156C7.32459 17.0179 7.49009 17.0202 7.6606 17.0225C9.73443 17.039 11.6484 16.7053 13.1844 15.2427C14.1037 14.2817 14.6092 12.9726 14.8273 11.6875C11.7613 11.6875 8.69527 11.6875 5.53636 11.6875Z" fill="white"/>
</svg>
