<svg width="11" height="10" viewBox="0 0 11 10" fill="none" xmlns="http://www.w3.org/2000/svg">
<path d="M0.966774 -3.43788e-05C1.50664 -0.00248278 2.04651 -0.00431193 2.58638 -0.00543148C2.83713 -0.00596544 3.08788 -0.00669159 3.33862 -0.00789265C3.55753 -0.00894068 3.77643 -0.00960523 3.99534 -0.00983526C4.11093 -0.00996943 4.22651 -0.0102779 4.3421 -0.0110479C5.81587 -0.0197646 7.24038 0.281507 8.3449 1.36268C8.89257 1.95414 9.21834 2.6535 9.43344 3.43747C9.4583 3.43797 9.48316 3.43848 9.50877 3.439C9.62256 3.4416 9.73633 3.44495 9.85011 3.44832C9.90876 3.44949 9.90876 3.44949 9.9686 3.45069C10.2747 3.46054 10.5143 3.50031 10.7466 3.72175C10.9537 3.96528 11.0057 4.20585 11.0022 4.52253C11.002 4.54841 11.0019 4.57428 11.0017 4.60093C11.0013 4.6645 11.0007 4.72807 11.0001 4.79163C10.9688 4.76968 10.9688 4.76968 10.9368 4.74728C10.9096 4.72826 10.8823 4.70923 10.8543 4.68964C10.8272 4.6707 10.8001 4.65177 10.7722 4.63226C10.6441 4.5453 10.5432 4.54137 10.3936 4.53759C10.37 4.53687 10.3464 4.53615 10.3221 4.5354C10.2467 4.53313 10.1713 4.53109 10.0959 4.52905C10.0449 4.52755 9.99377 4.52603 9.94269 4.5245C9.81739 4.52075 9.69208 4.51731 9.56677 4.51385C9.56677 4.82323 9.56677 5.1326 9.56677 5.45135C9.6809 5.44777 9.79502 5.44419 9.91261 5.4405C10.2526 5.43637 10.4664 5.47748 10.7293 5.7096C10.934 5.96671 11.0117 6.17697 11.0043 6.50604C11.004 6.5316 11.0037 6.55716 11.0034 6.58349C11.0026 6.64593 11.0014 6.70837 11.0001 6.7708C10.9772 6.75616 10.9543 6.74153 10.9307 6.72645C10.8857 6.69791 10.8857 6.69791 10.8397 6.6688C10.8099 6.64987 10.7801 6.63094 10.7495 6.61143C10.6017 6.52393 10.4744 6.52313 10.3091 6.52435C10.2716 6.52443 10.2716 6.52443 10.2333 6.5245C10.1535 6.5247 10.0737 6.52513 9.99386 6.52557C9.93971 6.52575 9.88557 6.52591 9.83142 6.52605C9.69876 6.52643 9.5661 6.52703 9.43344 6.52774C9.4194 6.58448 9.4194 6.58448 9.40508 6.64235C9.24911 7.26404 8.98431 7.8306 8.60011 8.3333C8.58163 8.35805 8.56315 8.3828 8.54412 8.4083C8.42275 8.56377 8.2809 8.69149 8.13344 8.81941C8.10955 8.84121 8.08566 8.863 8.06104 8.88546C7.15957 9.68113 5.89641 9.97294 4.74032 9.96918C4.69899 9.96919 4.65765 9.9692 4.61506 9.9692C4.50275 9.96918 4.39045 9.96901 4.27814 9.96876C4.16039 9.96854 4.04263 9.96852 3.92487 9.96848C3.70235 9.96838 3.47983 9.96809 3.25731 9.96774C3.00378 9.96735 2.75025 9.96716 2.49673 9.96699C1.97563 9.96663 1.45454 9.96602 0.93344 9.96524C0.94939 9.93991 0.965339 9.91458 0.981772 9.88848C1.00273 9.85478 1.02369 9.82107 1.04529 9.78634C1.06605 9.75313 1.08681 9.71992 1.1082 9.68571C1.35153 9.26024 1.37714 8.78644 1.38787 8.30373C1.38924 8.25129 1.39064 8.19885 1.39207 8.14641C1.39571 8.00953 1.39902 7.87265 1.40226 7.73577C1.40563 7.59563 1.40933 7.4555 1.413 7.31537C1.42013 7.04126 1.4269 6.76714 1.43344 6.49302C1.41196 6.49393 1.39048 6.49484 1.36835 6.49578C1.26922 6.49943 1.17011 6.50166 1.07094 6.50387C1.02028 6.50605 1.02028 6.50605 0.968597 6.50828C0.696855 6.51282 0.478627 6.45191 0.270777 6.26222C0.0496292 6.02486 -0.010736 5.7501 -0.00822641 5.42965C-0.00652745 5.34418 -0.00355561 5.25899 0.00010692 5.17358C0.0201223 5.19074 0.0401377 5.20791 0.0607596 5.2256C0.341297 5.4409 0.589708 5.45201 0.923024 5.44918C0.972743 5.44964 1.02246 5.4502 1.07218 5.45088C1.19267 5.45248 1.31287 5.45187 1.43344 5.45135C1.43344 5.14198 1.43344 4.8326 1.43344 4.51385C1.29044 4.51385 1.14744 4.51385 1.00011 4.51385C0.641749 4.50277 0.452704 4.44472 0.206357 4.17314C-0.0311823 3.86752 -0.0117477 3.57127 0.00010692 3.19441C0.0230093 3.20905 0.0459116 3.22368 0.069508 3.23876C0.0995431 3.25778 0.129578 3.27681 0.160524 3.29641C0.20519 3.32481 0.20519 3.32481 0.250758 3.35378C0.390775 3.4367 0.503005 3.44356 0.661956 3.44845C0.695038 3.44953 0.695038 3.44953 0.728788 3.45064C0.799085 3.4529 0.869387 3.45495 0.93969 3.457C0.987412 3.4585 1.03513 3.46001 1.08285 3.46154C1.19971 3.46525 1.31657 3.46877 1.43344 3.47219C1.42776 3.18416 1.42141 2.89617 1.41427 2.60818C1.41097 2.47438 1.40789 2.34059 1.40532 2.20678C1.39087 1.133 1.39087 1.133 1.03344 0.138855C1.01104 0.0926531 0.988784 0.0463716 0.966774 -3.43788e-05ZM2.90011 0.520799C2.90011 1.49476 2.90011 2.46872 2.90011 3.47219C4.50611 3.47219 6.11211 3.47219 7.76677 3.47219C7.60746 2.72542 7.42487 2.06954 6.93344 1.49302C6.91372 1.46921 6.894 1.4454 6.87367 1.42086C6.35183 0.832071 5.54752 0.579668 4.80011 0.520799C4.65178 0.516349 4.50357 0.516741 4.35519 0.517408C4.29961 0.517461 4.29961 0.517461 4.24292 0.517514C4.10573 0.517694 3.96854 0.518179 3.83136 0.518629C3.52404 0.519345 3.21673 0.520061 2.90011 0.520799ZM2.90011 4.51385C2.90011 4.82323 2.90011 5.1326 2.90011 5.45135C4.53911 5.45135 6.17811 5.45135 7.86677 5.45135C7.86677 5.14198 7.86677 4.8326 7.86677 4.51385C6.22777 4.51385 4.58877 4.51385 2.90011 4.51385ZM2.90011 6.49302C2.90011 7.46698 2.90011 8.44094 2.90011 9.44441C3.18061 9.44727 3.46111 9.45014 3.75011 9.45309C3.8368 9.45435 3.92349 9.45562 4.0128 9.45692C5.09909 9.46607 6.10167 9.28071 6.90623 8.46812C7.38777 7.93424 7.65254 7.20699 7.76677 6.49302C6.16077 6.49302 4.55477 6.49302 2.90011 6.49302Z" fill="#00A63E"/>
</svg>
