<svg width="25" height="22" viewBox="0 0 25 22" fill="none" xmlns="http://www.w3.org/2000/svg">
<g clip-path="url(#clip0_2157_76670)">
<path d="M2.19655 -2.68035e-05C3.42352 -0.0054133 4.65049 -0.00943742 5.87747 -0.0119004C6.44736 -0.0130751 7.01723 -0.0146727 7.58712 -0.017315C8.08463 -0.0196207 8.58213 -0.0210827 9.07965 -0.0215887C9.34235 -0.0218839 9.60504 -0.0225626 9.86774 -0.0242566C13.2172 -0.0434332 16.4547 0.619365 18.965 2.99794C20.2097 4.29916 20.9501 5.83774 21.439 7.56247C21.4955 7.56359 21.552 7.5647 21.6102 7.56585C21.8688 7.57158 22.1274 7.57895 22.3859 7.58634C22.5192 7.58893 22.5192 7.58893 22.6552 7.59157C23.3509 7.61324 23.8956 7.70073 24.4234 8.18791C24.894 8.72365 25.0122 9.25293 25.0043 9.94963C25.004 10.0065 25.0036 10.0635 25.0033 10.1221C25.0024 10.2619 25.001 10.4018 24.9996 10.5416C24.9284 10.4933 24.9284 10.4933 24.8558 10.4441C24.7938 10.4022 24.7319 10.3604 24.6681 10.3172C24.6066 10.2756 24.5451 10.2339 24.4817 10.191C24.1905 9.9997 23.9611 9.99105 23.6211 9.98275C23.5676 9.98116 23.514 9.97957 23.4587 9.97794C23.2874 9.97294 23.116 9.96844 22.9447 9.96395C22.8286 9.96065 22.7124 9.95732 22.5963 9.95395C22.3116 9.94571 22.0268 9.93814 21.742 9.93053C21.742 10.6112 21.742 11.2918 21.742 11.993C22.0014 11.9852 22.2608 11.9773 22.528 11.9692C23.3007 11.9601 23.7867 12.0505 24.384 12.5612C24.8492 13.1268 25.0259 13.5894 25.009 14.3133C25.0084 14.3696 25.0077 14.4258 25.007 14.4837C25.0052 14.6211 25.0025 14.7585 24.9996 14.8958C24.9475 14.8636 24.8955 14.8314 24.8418 14.7982C24.7395 14.7355 24.7395 14.7355 24.635 14.6714C24.5673 14.6298 24.4996 14.5881 24.4299 14.5452C24.0941 14.3527 23.8047 14.3509 23.4291 14.3536C23.3438 14.3538 23.3438 14.3538 23.2568 14.354C23.0754 14.3544 22.894 14.3553 22.7126 14.3563C22.5896 14.3567 22.4665 14.357 22.3435 14.3574C22.042 14.3582 21.7405 14.3595 21.439 14.3611C21.4071 14.4859 21.4071 14.4859 21.3745 14.6132C21.02 15.9809 20.4182 17.2274 19.545 18.3333C19.503 18.3878 19.461 18.4422 19.4178 18.4983C19.142 18.8403 18.8196 19.1213 18.4844 19.4028C18.4301 19.4507 18.3758 19.4987 18.3199 19.5481C16.2711 21.2985 13.4003 21.9405 10.7728 21.9323C10.6788 21.9323 10.5849 21.9323 10.4881 21.9323C10.2329 21.9322 9.97762 21.9319 9.72239 21.9313C9.45476 21.9308 9.18713 21.9308 8.9195 21.9307C8.41377 21.9305 7.90805 21.9299 7.40232 21.9291C6.82612 21.9282 6.24991 21.9278 5.67371 21.9274C4.4894 21.9266 3.3051 21.9253 2.12079 21.9236C2.15704 21.8679 2.19329 21.8121 2.23063 21.7547C2.27827 21.6806 2.32591 21.6064 2.37499 21.53C2.42218 21.4569 2.46936 21.3839 2.51798 21.3086C3.071 20.3726 3.12919 19.3302 3.15358 18.2683C3.1567 18.1529 3.15988 18.0375 3.16312 17.9221C3.17141 17.621 3.17893 17.3199 3.18628 17.0187C3.19394 16.7104 3.20235 16.4021 3.21069 16.0939C3.2269 15.4908 3.24229 14.8878 3.25715 14.2847C3.20834 14.2867 3.15952 14.2887 3.10923 14.2908C2.88393 14.2988 2.65867 14.3037 2.43329 14.3086C2.31815 14.3134 2.31815 14.3134 2.20069 14.3183C1.5831 14.3282 1.08712 14.1942 0.614738 13.7769C0.112128 13.2547 -0.0250659 12.6503 -0.0193622 11.9453C-0.015501 11.7572 -0.00874676 11.5698 -0.000422841 11.3819C0.0450667 11.4197 0.0905562 11.4575 0.137424 11.4964C0.775008 11.97 1.33958 11.9945 2.09712 11.9883C2.21011 11.9893 2.32311 11.9905 2.4361 11.992C2.70994 11.9955 2.98314 11.9942 3.25715 11.993C3.25715 11.3124 3.25715 10.6318 3.25715 9.93053C2.93215 9.93053 2.60715 9.93053 2.2723 9.93053C1.45785 9.90614 1.02821 9.77844 0.468327 9.18096C-0.0715346 8.50859 -0.027365 7.85684 -0.000422841 7.02775C0.0516279 7.05995 0.103679 7.09215 0.157307 7.12533C0.225569 7.16718 0.29383 7.20903 0.364161 7.25214C0.465674 7.31462 0.465674 7.31462 0.569239 7.37836C0.887459 7.56078 1.14253 7.57588 1.50378 7.58664C1.57897 7.58902 1.57897 7.58902 1.65567 7.59145C1.81544 7.59644 1.97521 7.60095 2.13499 7.60544C2.24345 7.60874 2.35191 7.61207 2.46037 7.61544C2.72595 7.62361 2.99155 7.63135 3.25715 7.63886C3.24424 7.00521 3.22981 6.37162 3.21359 5.73805C3.20609 5.4437 3.19908 5.14935 3.19323 4.85496C3.1604 2.49266 3.1604 2.49266 2.34806 0.305529C2.29715 0.203886 2.24657 0.102066 2.19655 -2.68035e-05ZM6.59049 1.14581C6.59049 3.28851 6.59049 5.43122 6.59049 7.63886C10.2405 7.63886 13.8905 7.63886 17.6511 7.63886C17.289 5.99598 16.874 4.55303 15.7572 3.2847C15.7123 3.23231 15.6675 3.17992 15.6213 3.12595C14.4353 1.8306 12.6073 1.27532 10.9087 1.14581C10.5716 1.13602 10.2347 1.13688 9.89748 1.13835C9.77118 1.13846 9.77118 1.13846 9.64233 1.13858C9.33054 1.13898 9.01875 1.14004 8.70696 1.14103C8.00853 1.14261 7.31009 1.14418 6.59049 1.14581ZM6.59049 9.93053C6.59049 10.6112 6.59049 11.2918 6.59049 11.993C10.3155 11.993 14.0405 11.993 17.8784 11.993C17.8784 11.3124 17.8784 10.6318 17.8784 9.93053C14.1534 9.93053 10.4284 9.93053 6.59049 9.93053ZM6.59049 14.2847C6.59049 16.4274 6.59049 18.5701 6.59049 20.7778C7.22799 20.7841 7.86549 20.7904 8.5223 20.7968C8.71933 20.7996 8.91635 20.8024 9.11934 20.8053C11.5882 20.8254 13.8668 20.4176 15.6953 18.6299C16.7897 17.4554 17.3915 15.8554 17.6511 14.2847C14.0011 14.2847 10.3511 14.2847 6.59049 14.2847Z" fill="black"/>
</g>
<defs>
<clipPath id="clip0_2157_76670">
<rect width="25" height="22" fill="white"/>
</clipPath>
</defs>
</svg>
