<svg width="20" height="18" viewBox="0 0 20 18" fill="none" xmlns="http://www.w3.org/2000/svg">
<g opacity="0.5" clip-path="url(#clip0_7995_101793)">
<path d="M1.75724 -0.000110708C2.73882 -0.00451784 3.72039 -0.0078103 4.70198 -0.00982549C5.15788 -0.0107866 5.61379 -0.0120937 6.06969 -0.0142556C6.4677 -0.0161421 6.86571 -0.0173382 7.26372 -0.0177523C7.47388 -0.0179938 7.68403 -0.0185491 7.89419 -0.0199351C10.5738 -0.035625 13.1638 0.506665 15.172 2.45277C16.1678 3.5174 16.7601 4.77624 17.1512 6.18739C17.1964 6.1883 17.2416 6.18921 17.2881 6.19015C17.495 6.19484 17.7019 6.20087 17.9088 6.20692C18.0154 6.20904 18.0154 6.20904 18.1242 6.21119C18.6807 6.22893 19.1165 6.30051 19.5387 6.69911C19.9152 7.13745 20.0098 7.57049 20.0034 8.14051C20.0032 8.18708 20.0029 8.23365 20.0026 8.28163C20.0019 8.39605 20.0008 8.51047 19.9997 8.62489C19.9427 8.58537 19.9427 8.58537 19.8846 8.54506C19.8351 8.51081 19.7855 8.47657 19.7345 8.4413C19.6853 8.40722 19.6361 8.37314 19.5854 8.33802C19.3524 8.18149 19.1689 8.17441 18.8969 8.16761C18.854 8.16632 18.8112 8.16502 18.767 8.16368C18.6299 8.15959 18.4928 8.15591 18.3557 8.15223C18.2628 8.14953 18.17 8.14681 18.0771 8.14405C17.8493 8.13731 17.6214 8.13111 17.3936 8.12489C17.3936 8.68176 17.3936 9.23864 17.3936 9.81239C17.6011 9.80594 17.8086 9.7995 18.0224 9.79286C18.6406 9.78541 19.0294 9.85941 19.5072 10.2772C19.8794 10.74 20.0207 11.1185 20.0072 11.7108C20.0067 11.7568 20.0061 11.8028 20.0056 11.8502C20.0042 11.9626 20.002 12.075 19.9997 12.1874C19.958 12.161 19.9164 12.1347 19.8735 12.1076C19.7916 12.0562 19.7916 12.0562 19.708 12.0038C19.6539 11.9697 19.5997 11.9356 19.5439 11.9005C19.2753 11.743 19.0437 11.7416 18.7433 11.7438C18.675 11.7439 18.675 11.7439 18.6054 11.7441C18.4603 11.7444 18.3152 11.7452 18.1701 11.746C18.0717 11.7463 17.9732 11.7466 17.8748 11.7468C17.6336 11.7475 17.3924 11.7486 17.1512 11.7499C17.1257 11.852 17.1257 11.852 17.0996 11.9562C16.816 13.0752 16.3346 14.095 15.636 14.9999C15.6024 15.0444 15.5688 15.089 15.5342 15.1349C15.3136 15.4147 15.0557 15.6446 14.7875 15.8749C14.7441 15.9141 14.7007 15.9534 14.6559 15.9938C13.0169 17.426 10.7202 17.9513 8.61824 17.9445C8.54308 17.9445 8.46792 17.9445 8.39048 17.9445C8.18629 17.9445 7.9821 17.9442 7.77791 17.9437C7.5638 17.9433 7.3497 17.9433 7.1356 17.9432C6.73102 17.943 6.32644 17.9425 5.92186 17.9419C5.46089 17.9412 4.99993 17.9408 4.53897 17.9405C3.59152 17.9399 2.64408 17.9388 1.69663 17.9374C1.72563 17.8918 1.75463 17.8462 1.78451 17.7992C1.82262 17.7386 1.86073 17.6779 1.89999 17.6154C1.93774 17.5556 1.97549 17.4958 2.01438 17.4342C2.4568 16.6684 2.50335 15.8155 2.52286 14.9467C2.52536 14.8523 2.52791 14.7579 2.5305 14.6635C2.53713 14.4171 2.54314 14.1707 2.54902 13.9243C2.55515 13.6721 2.56188 13.4199 2.56855 13.1676C2.58152 12.6742 2.59383 12.1808 2.60572 11.6874C2.56667 11.689 2.52762 11.6907 2.48738 11.6923C2.30715 11.6989 2.12694 11.7029 1.94663 11.7069C1.85452 11.7108 1.85452 11.7108 1.76055 11.7149C1.26648 11.723 0.869697 11.6134 0.49179 11.272C0.0897022 10.8447 -0.0200527 10.3501 -0.0154898 9.77333C-0.0124008 9.61948 -0.00699741 9.46614 -0.000338273 9.31239C0.0360533 9.34329 0.0724449 9.37419 0.109939 9.40603C0.620006 9.79356 1.07166 9.81358 1.67769 9.80848C1.76809 9.8093 1.85849 9.81032 1.94888 9.81153C2.16795 9.81442 2.38651 9.81332 2.60572 9.81239C2.60572 9.25551 2.60572 8.69864 2.60572 8.12489C2.34572 8.12489 2.08572 8.12489 1.81784 8.12489C1.16628 8.10493 0.822566 8.00045 0.374662 7.51161C-0.0572277 6.96149 -0.021892 6.42823 -0.000338273 5.74989C0.0413023 5.77623 0.082943 5.80258 0.125845 5.82972C0.180455 5.86396 0.235064 5.8982 0.291328 5.93348C0.372539 5.9846 0.372539 5.9846 0.455391 6.03675C0.709967 6.18601 0.914021 6.19836 1.20302 6.20716C1.26317 6.20911 1.26317 6.20911 1.32454 6.2111C1.45235 6.21518 1.58017 6.21887 1.708 6.22255C1.79476 6.22525 1.88153 6.22797 1.96829 6.23072C2.18076 6.23741 2.39324 6.24374 2.60572 6.24989C2.59539 5.73145 2.58385 5.21306 2.57087 4.69468C2.56488 4.45384 2.55926 4.21301 2.55459 3.97215C2.52832 2.03936 2.52832 2.03936 1.87845 0.249889C1.83772 0.166727 1.79726 0.08342 1.75724 -0.000110708ZM5.27239 0.937389C5.27239 2.69051 5.27239 4.44364 5.27239 6.24989C8.19239 6.24989 11.1124 6.24989 14.1209 6.24989C13.8312 4.90571 13.4992 3.72512 12.6057 2.68739C12.5699 2.64453 12.534 2.60167 12.4971 2.55751C11.5482 1.49768 10.0859 1.04335 8.72693 0.937389C8.45724 0.92938 8.18777 0.930084 7.91798 0.931286C7.81694 0.93138 7.81694 0.93138 7.71386 0.931477C7.46443 0.931801 7.215 0.932674 6.96557 0.933483C6.40682 0.934772 5.84807 0.936061 5.27239 0.937389ZM5.27239 8.12489C5.27239 8.68176 5.27239 9.23864 5.27239 9.81239C8.25239 9.81239 11.2324 9.81239 14.3027 9.81239C14.3027 9.25551 14.3027 8.69864 14.3027 8.12489C11.3227 8.12489 8.34269 8.12489 5.27239 8.12489ZM5.27239 11.6874C5.27239 13.4405 5.27239 15.1936 5.27239 16.9999C5.78239 17.005 6.29239 17.0102 6.81784 17.0155C6.97546 17.0178 7.13308 17.0201 7.29547 17.0224C9.27055 17.0389 11.0934 16.7052 12.5562 15.2426C13.4318 14.2816 13.9132 12.9725 14.1209 11.6874C11.2009 11.6874 8.28087 11.6874 5.27239 11.6874Z" fill="#04C18F"/>
</g>
<defs>
<clipPath id="clip0_7995_101793">
<rect width="20" height="18" fill="white"/>
</clipPath>
</defs>
</svg>
