<svg width="21" height="21" viewBox="0 0 21 21" fill="none" xmlns="http://www.w3.org/2000/svg">
<g clip-path="url(#clip0_1570_76941)">
<mask id="path-1-outside-1_1570_76941" maskUnits="userSpaceOnUse" x="3" y="2" width="15" height="15" fill="black">
<rect fill="white" x="3" y="2" width="15" height="15"/>
<path d="M9.63637 9.86294C9.75704 9.86294 9.87276 9.91087 9.95808 9.99617C10.0434 10.0815 10.0913 10.1972 10.0913 10.3178V14.2168C10.0913 14.3375 10.0434 14.4532 9.95808 14.5385C9.87276 14.6238 9.75704 14.6717 9.63637 14.6717C9.51571 14.6717 9.39999 14.6238 9.31467 14.5385C9.22934 14.4532 9.18141 14.3375 9.18141 14.2168L9.18076 11.3874L4.77932 15.8641C4.73742 15.9067 4.68753 15.9406 4.63251 15.964C4.5775 15.9873 4.51843 15.9995 4.45868 16C4.33801 16.001 4.22189 15.954 4.13588 15.8693C4.04986 15.7847 4.00099 15.6694 4.00001 15.5488C3.99904 15.4281 4.04604 15.312 4.13068 15.226L8.50937 10.7721L5.73669 10.7727C5.61603 10.7727 5.50031 10.7248 5.41499 10.6395C5.32967 10.5542 5.28173 10.4385 5.28173 10.3178C5.28173 10.1972 5.32967 10.0815 5.41499 9.99617C5.50031 9.91087 5.61603 9.86294 5.73669 9.86294H9.63637ZM16.8638 3.13067C16.9064 3.17253 16.9404 3.22237 16.9638 3.27735C16.9871 3.33234 16.9994 3.39139 17 3.45113C17.0005 3.51087 16.9893 3.57013 16.9669 3.62553C16.9446 3.68093 16.9115 3.73138 16.8696 3.774L12.4909 8.22796L15.2636 8.22731C15.3843 8.22731 15.5 8.27524 15.5853 8.36054C15.6706 8.44585 15.7186 8.56155 15.7186 8.68219C15.7186 8.80284 15.6706 8.91854 15.5853 9.00384C15.5 9.08915 15.3843 9.13708 15.2636 9.13708H11.3639C11.2433 9.13708 11.1275 9.08915 11.0422 9.00384C10.9569 8.91854 10.909 8.80284 10.909 8.68219V4.7832C10.909 4.66255 10.9569 4.54685 11.0422 4.46154C11.1275 4.37624 11.2433 4.32831 11.3639 4.32831C11.4846 4.32831 11.6003 4.37624 11.6856 4.46154C11.771 4.54685 11.8189 4.66255 11.8189 4.7832V7.61257L16.2216 3.13587C16.2635 3.09328 16.3134 3.05936 16.3684 3.03605C16.4235 3.01274 16.4825 3.0005 16.5423 3.00001C16.602 2.99953 16.6613 3.01082 16.7167 3.03324C16.7721 3.05566 16.8225 3.08877 16.8651 3.13067"/>
</mask>
<path d="M9.63637 9.86294C9.75704 9.86294 9.87276 9.91087 9.95808 9.99617C10.0434 10.0815 10.0913 10.1972 10.0913 10.3178V14.2168C10.0913 14.3375 10.0434 14.4532 9.95808 14.5385C9.87276 14.6238 9.75704 14.6717 9.63637 14.6717C9.51571 14.6717 9.39999 14.6238 9.31467 14.5385C9.22934 14.4532 9.18141 14.3375 9.18141 14.2168L9.18076 11.3874L4.77932 15.8641C4.73742 15.9067 4.68753 15.9406 4.63251 15.964C4.5775 15.9873 4.51843 15.9995 4.45868 16C4.33801 16.001 4.22189 15.954 4.13588 15.8693C4.04986 15.7847 4.00099 15.6694 4.00001 15.5488C3.99904 15.4281 4.04604 15.312 4.13068 15.226L8.50937 10.7721L5.73669 10.7727C5.61603 10.7727 5.50031 10.7248 5.41499 10.6395C5.32967 10.5542 5.28173 10.4385 5.28173 10.3178C5.28173 10.1972 5.32967 10.0815 5.41499 9.99617C5.50031 9.91087 5.61603 9.86294 5.73669 9.86294H9.63637ZM16.8638 3.13067C16.9064 3.17253 16.9404 3.22237 16.9638 3.27735C16.9871 3.33234 16.9994 3.39139 17 3.45113C17.0005 3.51087 16.9893 3.57013 16.9669 3.62553C16.9446 3.68093 16.9115 3.73138 16.8696 3.774L12.4909 8.22796L15.2636 8.22731C15.3843 8.22731 15.5 8.27524 15.5853 8.36054C15.6706 8.44585 15.7186 8.56155 15.7186 8.68219C15.7186 8.80284 15.6706 8.91854 15.5853 9.00384C15.5 9.08915 15.3843 9.13708 15.2636 9.13708H11.3639C11.2433 9.13708 11.1275 9.08915 11.0422 9.00384C10.9569 8.91854 10.909 8.80284 10.909 8.68219V4.7832C10.909 4.66255 10.9569 4.54685 11.0422 4.46154C11.1275 4.37624 11.2433 4.32831 11.3639 4.32831C11.4846 4.32831 11.6003 4.37624 11.6856 4.46154C11.771 4.54685 11.8189 4.66255 11.8189 4.7832V7.61257L16.2216 3.13587C16.2635 3.09328 16.3134 3.05936 16.3684 3.03605C16.4235 3.01274 16.4825 3.0005 16.5423 3.00001C16.602 2.99953 16.6613 3.01082 16.7167 3.03324C16.7721 3.05566 16.8225 3.08877 16.8651 3.13067" fill="black"/>
<path d="M10.0913 10.3178H10.1913H10.0913ZM10.0913 14.2168H10.1913H10.0913ZM9.63637 14.6717V14.5717V14.6717ZM9.18141 14.2168H9.28141V14.2168L9.18141 14.2168ZM9.18076 11.3874L9.28076 11.3874L9.2807 11.1432L9.10945 11.3173L9.18076 11.3874ZM4.77932 15.8641L4.8506 15.9343L4.85063 15.9343L4.77932 15.8641ZM4.45868 16L4.45787 15.9L4.45868 16ZM4.13068 15.226L4.20195 15.2962L4.20199 15.2961L4.13068 15.226ZM8.50937 10.7721L8.58068 10.8422L8.74796 10.672L8.50934 10.6721L8.50937 10.7721ZM5.73669 10.7727V10.8727H5.73672L5.73669 10.7727ZM16.8696 3.774L16.9409 3.84411L16.941 3.84408L16.8696 3.774ZM12.4909 8.22796L12.4196 8.15785L12.2523 8.32802L12.491 8.32796L12.4909 8.22796ZM15.2636 8.22731V8.12731H15.2636L15.2636 8.22731ZM15.7186 8.68219H15.6186H15.7186ZM11.3639 4.32831V4.22831V4.32831ZM11.8189 7.61257H11.7189V7.85686L11.8902 7.68269L11.8189 7.61257ZM16.2216 3.13587L16.1504 3.06573L16.1503 3.06575L16.2216 3.13587ZM9.63637 9.86294V9.96294C9.73052 9.96294 9.82081 10.0003 9.88738 10.0669L9.95808 9.99617L10.0288 9.92546C9.92471 9.8214 9.78355 9.76294 9.63637 9.76294V9.86294ZM9.95808 9.99617L9.88738 10.0669C9.95394 10.1334 9.99134 10.2237 9.99134 10.3178H10.0913H10.1913C10.1913 10.1707 10.1329 10.0295 10.0288 9.92546L9.95808 9.99617ZM10.0913 10.3178H9.99134V14.2168H10.0913H10.1913V10.3178H10.0913ZM10.0913 14.2168H9.99134C9.99134 14.3109 9.95394 14.4012 9.88738 14.4678L9.95808 14.5385L10.0288 14.6092C10.1329 14.5051 10.1913 14.364 10.1913 14.2168H10.0913ZM9.95808 14.5385L9.88738 14.4678C9.82081 14.5343 9.73052 14.5717 9.63637 14.5717V14.6717V14.7717C9.78355 14.7717 9.92471 14.7132 10.0288 14.6092L9.95808 14.5385ZM9.63637 14.6717V14.5717C9.54223 14.5717 9.45194 14.5343 9.38537 14.4678L9.31467 14.5385L9.24396 14.6092C9.34804 14.7132 9.48919 14.7717 9.63637 14.7717V14.6717ZM9.31467 14.5385L9.38537 14.4678C9.3188 14.4012 9.28141 14.3109 9.28141 14.2168H9.18141H9.08141C9.08141 14.364 9.13988 14.5051 9.24396 14.6092L9.31467 14.5385ZM9.18141 14.2168L9.28141 14.2168L9.28076 11.3874L9.18076 11.3874L9.08076 11.3875L9.08141 14.2168L9.18141 14.2168ZM9.18076 11.3874L9.10945 11.3173L4.70802 15.794L4.77932 15.8641L4.85063 15.9343L9.25207 11.4576L9.18076 11.3874ZM4.77932 15.8641L4.70805 15.794C4.67535 15.8272 4.63643 15.8537 4.5935 15.8719L4.63251 15.964L4.67152 16.056C4.73863 16.0276 4.79948 15.9862 4.8506 15.9343L4.77932 15.8641ZM4.63251 15.964L4.5935 15.8719C4.55058 15.8901 4.50449 15.8996 4.45787 15.9L4.45868 16L4.45949 16.1C4.53236 16.0994 4.60441 16.0845 4.67152 16.056L4.63251 15.964ZM4.45868 16L4.45787 15.9C4.36371 15.9007 4.27312 15.8641 4.20601 15.7981L4.13588 15.8693L4.06575 15.9406C4.17067 16.0439 4.3123 16.1012 4.45949 16.1L4.45868 16ZM4.13588 15.8693L4.20601 15.7981C4.1389 15.732 4.10077 15.6421 4.10001 15.5479L4.00001 15.5488L3.90002 15.5496C3.90121 15.6967 3.96082 15.8374 4.06575 15.9406L4.13588 15.8693ZM4.00001 15.5488L4.10001 15.5479C4.09925 15.4538 4.13592 15.3633 4.20195 15.2962L4.13068 15.226L4.0594 15.1559C3.95616 15.2608 3.89883 15.4024 3.90002 15.5496L4.00001 15.5488ZM4.13068 15.226L4.20199 15.2961L8.58068 10.8422L8.50937 10.7721L8.43806 10.702L4.05937 15.1559L4.13068 15.226ZM8.50937 10.7721L8.50934 10.6721L5.73667 10.6727L5.73669 10.7727L5.73672 10.8727L8.50939 10.8721L8.50937 10.7721ZM5.73669 10.7727V10.6727C5.64255 10.6727 5.55226 10.6353 5.48569 10.5688L5.41499 10.6395L5.34428 10.7102C5.44836 10.8142 5.58952 10.8727 5.73669 10.8727V10.7727ZM5.41499 10.6395L5.48569 10.5688C5.41913 10.5022 5.38173 10.4119 5.38173 10.3178H5.28173H5.18173C5.18173 10.465 5.24021 10.6061 5.34428 10.7102L5.41499 10.6395ZM5.28173 10.3178H5.38173C5.38173 10.2237 5.41913 10.1334 5.48569 10.0669L5.41499 9.99617L5.34428 9.92546C5.24021 10.0295 5.18173 10.1707 5.18173 10.3178H5.28173ZM5.41499 9.99617L5.48569 10.0669C5.55226 10.0003 5.64255 9.96294 5.73669 9.96294V9.86294V9.76294C5.58952 9.76294 5.44836 9.8214 5.34428 9.92546L5.41499 9.99617ZM5.73669 9.86294V9.96294H9.63637V9.86294V9.76294H5.73669V9.86294ZM16.8638 3.13067L16.7937 3.20203C16.827 3.23469 16.8535 3.27357 16.8717 3.31647L16.9638 3.27735L17.0558 3.23824C17.0273 3.17116 16.9858 3.11036 16.9338 3.05931L16.8638 3.13067ZM16.9638 3.27735L16.8717 3.31647C16.89 3.35936 16.8996 3.40543 16.9 3.45204L17 3.45113L17.1 3.45022C17.0993 3.37734 17.0843 3.30531 17.0558 3.23824L16.9638 3.27735ZM17 3.45113L16.9 3.45204C16.9004 3.49864 16.8916 3.54487 16.8742 3.58809L16.9669 3.62553L17.0597 3.66297C17.0869 3.59539 17.1006 3.52309 17.1 3.45022L17 3.45113ZM16.9669 3.62553L16.8742 3.58809C16.8567 3.63131 16.831 3.67067 16.7983 3.70393L16.8696 3.774L16.941 3.84408C16.992 3.79209 17.0324 3.73055 17.0597 3.66297L16.9669 3.62553ZM16.8696 3.774L16.7983 3.7039L12.4196 8.15785L12.4909 8.22796L12.5622 8.29807L16.9409 3.84411L16.8696 3.774ZM12.4909 8.22796L12.491 8.32796L15.2636 8.32731L15.2636 8.22731L15.2636 8.12731L12.4909 8.12796L12.4909 8.22796ZM15.2636 8.22731V8.32731C15.3578 8.32731 15.448 8.3647 15.5146 8.43126L15.5853 8.36054L15.656 8.28983C15.5519 8.18577 15.4108 8.12731 15.2636 8.12731V8.22731ZM15.5853 8.36054L15.5146 8.43126C15.5812 8.49781 15.6186 8.58808 15.6186 8.68219H15.7186H15.8186C15.8186 8.53502 15.7601 8.39388 15.656 8.28983L15.5853 8.36054ZM15.7186 8.68219H15.6186C15.6186 8.77631 15.5812 8.86657 15.5146 8.93313L15.5853 9.00384L15.656 9.07456C15.7601 8.9705 15.8186 8.82936 15.8186 8.68219H15.7186ZM15.5853 9.00384L15.5146 8.93313C15.448 8.99968 15.3578 9.03708 15.2636 9.03708V9.13708V9.23708C15.4108 9.23708 15.5519 9.17862 15.656 9.07456L15.5853 9.00384ZM15.2636 9.13708V9.03708H11.3639V9.13708V9.23708H15.2636V9.13708ZM11.3639 9.13708V9.03708C11.2698 9.03708 11.1795 8.99968 11.1129 8.93313L11.0422 9.00384L10.9715 9.07456C11.0756 9.17862 11.2168 9.23708 11.3639 9.23708V9.13708ZM11.0422 9.00384L11.1129 8.93313C11.0464 8.86657 11.009 8.77631 11.009 8.68219H10.909H10.809C10.809 8.82936 10.8674 8.9705 10.9715 9.07456L11.0422 9.00384ZM10.909 8.68219H11.009V4.7832H10.909H10.809V8.68219H10.909ZM10.909 4.7832H11.009C11.009 4.68908 11.0464 4.59882 11.1129 4.53226L11.0422 4.46154L10.9715 4.39083C10.8674 4.49489 10.809 4.63603 10.809 4.7832H10.909ZM11.0422 4.46154L11.1129 4.53226C11.1795 4.46571 11.2698 4.42831 11.3639 4.42831V4.32831V4.22831C11.2168 4.22831 11.0756 4.28677 10.9715 4.39083L11.0422 4.46154ZM11.3639 4.32831V4.42831C11.4581 4.42831 11.5484 4.46571 11.6149 4.53226L11.6856 4.46154L11.7563 4.39083C11.6523 4.28677 11.5111 4.22831 11.3639 4.22831V4.32831ZM11.6856 4.46154L11.6149 4.53226C11.6815 4.59882 11.7189 4.68908 11.7189 4.7832H11.8189H11.9189C11.9189 4.63603 11.8604 4.49489 11.7563 4.39083L11.6856 4.46154ZM11.8189 4.7832H11.7189V7.61257H11.8189H11.9189V4.7832H11.8189ZM11.8189 7.61257L11.8902 7.68269L16.2929 3.20599L16.2216 3.13587L16.1503 3.06575L11.7476 7.54245L11.8189 7.61257ZM16.2216 3.13587L16.2929 3.20601C16.3256 3.17278 16.3645 3.14632 16.4074 3.12813L16.3684 3.03605L16.3294 2.94398C16.2623 2.97241 16.2015 3.01378 16.1504 3.06573L16.2216 3.13587ZM16.3684 3.03605L16.4074 3.12813C16.4504 3.10994 16.4965 3.10039 16.5431 3.10001L16.5423 3.00001L16.5415 2.90002C16.4686 2.90061 16.3965 2.91554 16.3294 2.94398L16.3684 3.03605ZM16.5423 3.00001L16.5431 3.10001C16.5897 3.09963 16.6359 3.10844 16.6792 3.12594L16.7167 3.03324L16.7542 2.94055C16.6866 2.9132 16.6144 2.89943 16.5415 2.90002L16.5423 3.00001ZM16.7167 3.03324L16.6792 3.12594C16.7224 3.14343 16.7617 3.16926 16.7949 3.20195L16.8651 3.13067L16.9352 3.05939C16.8833 3.00827 16.8218 2.96789 16.7542 2.94055L16.7167 3.03324Z" fill="black" mask="url(#path-1-outside-1_1570_76941)"/>
</g>
<defs>
<clipPath id="clip0_1570_76941">
<rect width="20.0264" height="20.0264" fill="white"/>
</clipPath>
</defs>
</svg>
