<svg width="20" height="20" viewBox="0 0 20 20" fill="none" xmlns="http://www.w3.org/2000/svg">
<path d="M7.25964 6.42508L9.16797 4.50841V12.5001C9.16797 12.7211 9.25577 12.9331 9.41205 13.0893C9.56833 13.2456 9.78029 13.3334 10.0013 13.3334C10.2223 13.3334 10.4343 13.2456 10.5906 13.0893C10.7468 12.9331 10.8346 12.7211 10.8346 12.5001V4.50841L12.743 6.42508C12.8204 6.50318 12.9126 6.56518 13.0142 6.60749C13.1157 6.64979 13.2246 6.67158 13.3346 6.67158C13.4446 6.67158 13.5536 6.64979 13.6551 6.60749C13.7567 6.56518 13.8488 6.50318 13.9263 6.42508C14.0044 6.34761 14.0664 6.25544 14.1087 6.15389C14.151 6.05234 14.1728 5.94342 14.1728 5.83341C14.1728 5.7234 14.151 5.61448 14.1087 5.51293C14.0664 5.41138 14.0044 5.31921 13.9263 5.24174L10.593 1.90841C10.5137 1.83254 10.4203 1.77307 10.318 1.73341C10.1151 1.65006 9.88752 1.65006 9.68464 1.73341C9.58234 1.77307 9.48889 1.83254 9.40964 1.90841L6.0763 5.24174C5.9986 5.31944 5.93697 5.41168 5.89492 5.5132C5.85287 5.61472 5.83123 5.72353 5.83123 5.83341C5.83123 5.94329 5.85287 6.0521 5.89492 6.15362C5.93697 6.25514 5.9986 6.34738 6.0763 6.42508C6.154 6.50278 6.24624 6.56441 6.34776 6.60646C6.44928 6.64851 6.55809 6.67015 6.66797 6.67015C6.77785 6.67015 6.88666 6.64851 6.98818 6.60646C7.08969 6.56441 7.18194 6.50278 7.25964 6.42508ZM17.5013 11.6667C17.2803 11.6667 17.0683 11.7545 16.912 11.9108C16.7558 12.0671 16.668 12.2791 16.668 12.5001V15.8334C16.668 16.0544 16.5802 16.2664 16.4239 16.4227C16.2676 16.5789 16.0556 16.6667 15.8346 16.6667H4.16797C3.94695 16.6667 3.73499 16.5789 3.57871 16.4227C3.42243 16.2664 3.33464 16.0544 3.33464 15.8334V12.5001C3.33464 12.2791 3.24684 12.0671 3.09056 11.9108C2.93428 11.7545 2.72232 11.6667 2.5013 11.6667C2.28029 11.6667 2.06833 11.7545 1.91205 11.9108C1.75577 12.0671 1.66797 12.2791 1.66797 12.5001V15.8334C1.66797 16.4965 1.93136 17.1323 2.4002 17.6012C2.86904 18.07 3.50493 18.3334 4.16797 18.3334H15.8346C16.4977 18.3334 17.1336 18.07 17.6024 17.6012C18.0712 17.1323 18.3346 16.4965 18.3346 15.8334V12.5001C18.3346 12.2791 18.2468 12.0671 18.0906 11.9108C17.9343 11.7545 17.7223 11.6667 17.5013 11.6667Z" fill="black"/>
</svg>
