<svg width="20" height="20" viewBox="0 0 20 20" fill="none" xmlns="http://www.w3.org/2000/svg">
<path d="M8.36563 18.0281L7.18437 18.8625C6.95625 19.025 6.65625 19.0437 6.40625 18.9156C6.15625 18.7875 6 18.5312 6 18.25V16H5C3.34375 16 2 14.6562 2 13V6C2 4.34375 3.34375 3 5 3H15C16.6562 3 18 4.34375 18 6V13C18 14.6562 16.6562 16 15 16H11.2375L8.36563 18.0281ZM10.375 14.775C10.6281 14.5969 10.9313 14.5 11.2406 14.5H15C15.8281 14.5 16.5 13.8281 16.5 13V6C16.5 5.17188 15.8281 4.5 15 4.5H5C4.17188 4.5 3.5 5.17188 3.5 6V13C3.5 13.8281 4.17188 14.5 5 14.5H6.75C7.075 14.5 7.35313 14.7062 7.45625 14.9969C7.48438 15.075 7.5 15.1594 7.5 15.25V16.8031C8.52188 16.0813 9.47812 15.4062 10.3719 14.775H10.375Z" fill="black"/>
</svg>
