<svg width="34" height="41" viewBox="0 0 34 41" fill="none" xmlns="http://www.w3.org/2000/svg">
<path d="M11.1563 22.1437H22.1438M11.1563 29.4687H16.65M2 5.6625V34.9625C2 35.9339 2.38587 36.8654 3.07272 37.5523C3.75957 38.2391 4.69114 38.625 5.6625 38.625H27.6375C28.6089 38.625 29.5404 38.2391 30.2273 37.5523C30.9141 36.8654 31.3 35.9339 31.3 34.9625V13.6138C31.2999 13.1259 31.2024 12.6429 31.0131 12.1932C30.8238 11.7435 30.5465 11.3362 30.1976 10.9951L22.0668 3.04381C21.3826 2.37478 20.4637 2.00012 19.5068 2H5.6625C4.69114 2 3.75957 2.38587 3.07272 3.07272C2.38587 3.75957 2 4.69114 2 5.6625Z" stroke="#00B995" stroke-width="4" stroke-linecap="round" stroke-linejoin="round"/>
<path d="M20.3125 2V9.325C20.3125 10.2964 20.6984 11.2279 21.3852 11.9148C22.0721 12.6016 23.0036 12.9875 23.975 12.9875H31.3" stroke="#00B995" stroke-width="4" stroke-linejoin="round"/>
</svg>
