<svg width="15" height="14" viewBox="0 0 15 14" fill="none" xmlns="http://www.w3.org/2000/svg">
<path d="M5.9996 11.9993C5.99954 12.1232 6.034 12.2447 6.09912 12.3501C6.16424 12.4555 6.25744 12.5406 6.36826 12.596L7.7016 13.2627C7.80326 13.3135 7.91623 13.3375 8.02976 13.3323C8.14329 13.3272 8.25363 13.2931 8.35028 13.2333C8.44694 13.1735 8.52671 13.09 8.58201 12.9907C8.63731 12.8914 8.66632 12.7797 8.66626 12.666V7.99935C8.66641 7.66894 8.78924 7.35035 9.01093 7.10535L13.8263 1.77935C13.9126 1.68372 13.9693 1.56514 13.9897 1.43794C14.01 1.31074 13.9931 1.18037 13.9409 1.0626C13.8887 0.944828 13.8035 0.844697 13.6956 0.774317C13.5877 0.703936 13.4617 0.666319 13.3329 0.666016H1.33293C1.204 0.666062 1.07785 0.703493 0.969763 0.773773C0.861674 0.844054 0.776283 0.944169 0.723933 1.06199C0.671583 1.17981 0.654521 1.31029 0.674813 1.43761C0.695105 1.56493 0.751881 1.68364 0.838264 1.77935L5.65493 7.10535C5.87662 7.35035 5.99945 7.66894 5.9996 7.99935V11.9993Z" stroke="black" stroke-opacity="0.5" stroke-width="1.33333" stroke-linecap="round" stroke-linejoin="round"/>
</svg>
