<svg width="18" height="18" viewBox="0 0 18 18" fill="none" xmlns="http://www.w3.org/2000/svg">
<path d="M8.85444 5.90174C12.5214 5.90174 15.494 4.91086 15.494 3.68854C15.494 2.46622 12.5214 1.47534 8.85444 1.47534C5.18749 1.47534 2.21484 2.46622 2.21484 3.68854C2.21484 4.91086 5.18749 5.90174 8.85444 5.90174Z" stroke="#0A0A0A" stroke-width="1.47547" stroke-linecap="round" stroke-linejoin="round"/>
<path d="M2.21484 3.68896V14.0172C2.21484 14.6042 2.91437 15.1671 4.15954 15.5822C5.4047 15.9972 7.09351 16.2304 8.85444 16.2304C10.6154 16.2304 12.3042 15.9972 13.5493 15.5822C14.7945 15.1671 15.494 14.6042 15.494 14.0172V3.68896" stroke="#0A0A0A" stroke-width="1.47547" stroke-linecap="round" stroke-linejoin="round"/>
<path d="M2.21484 8.85278C2.21484 9.43976 2.91437 10.0027 4.15954 10.4178C5.4047 10.8328 7.09351 11.066 8.85444 11.066C10.6154 11.066 12.3042 10.8328 13.5493 10.4178C14.7945 10.0027 15.494 9.43976 15.494 8.85278" stroke="#0A0A0A" stroke-width="1.47547" stroke-linecap="round" stroke-linejoin="round"/>
</svg>
