<svg width="25" height="27" viewBox="0 0 25 27" fill="none" xmlns="http://www.w3.org/2000/svg">
<path fill-rule="evenodd" clip-rule="evenodd" d="M6.0625 1.1669e-07H18.3137C19.585 1.1669e-07 20.46 1.11759e-07 21.1962 0.255C21.8842 0.498347 22.5068 0.896918 23.0158 1.41979C23.5248 1.94266 23.9065 2.57577 24.1313 3.27C24.3763 4.01625 24.375 4.90375 24.375 6.22V23.905C24.375 25.7375 22.2162 26.8275 20.795 25.5262C20.7494 25.4826 20.6887 25.4583 20.6256 25.4583C20.5625 25.4583 20.5018 25.4826 20.4562 25.5262L19.8512 26.0787C18.6912 27.1412 16.9338 27.1412 15.7737 26.0787C15.5638 25.8827 15.2873 25.7737 15 25.7737C14.7127 25.7737 14.4362 25.8827 14.2263 26.0787C13.0663 27.1412 11.3087 27.1412 10.1487 26.0787C9.93879 25.8827 9.66225 25.7737 9.375 25.7737C9.08775 25.7737 8.81121 25.8827 8.60125 26.0787C7.44125 27.1412 5.68375 27.1412 4.52375 26.0787L3.92 25.5262C3.87434 25.4822 3.81341 25.4577 3.75 25.4577C3.68659 25.4577 3.62566 25.4822 3.58 25.5262C2.15875 26.8262 0 25.7375 0 23.905V6.22125C0 4.90375 -7.45058e-08 4.01625 0.24375 3.27C0.468513 2.57577 0.8502 1.94266 1.3592 1.41979C1.86819 0.896918 2.49081 0.498347 3.17875 0.255C3.91625 -0.00124989 4.79125 1.1669e-07 6.0625 1.1669e-07ZM6.24375 1.875C4.7175 1.875 4.19125 1.8875 3.79375 2.02625C3.37861 2.17509 3.00327 2.41744 2.69678 2.73455C2.39029 3.05166 2.16087 3.43503 2.02625 3.855C1.8875 4.2775 1.87625 4.835 1.87625 6.4V23.905C1.87625 24.055 1.95 24.145 2.04375 24.1887C2.08653 24.2091 2.13421 24.2169 2.18125 24.2112C2.23183 24.2026 2.27853 24.1786 2.315 24.1425C2.70614 23.7824 3.21836 23.5826 3.75 23.5826C4.28164 23.5826 4.79386 23.7824 5.185 24.1425L5.78875 24.695C5.99871 24.891 6.27525 25.0001 6.5625 25.0001C6.84975 25.0001 7.12629 24.891 7.33625 24.695C7.8918 24.1831 8.61958 23.899 9.375 23.899C10.1304 23.899 10.8582 24.1831 11.4138 24.695C11.6237 24.891 11.9002 25.0001 12.1875 25.0001C12.4748 25.0001 12.7513 24.891 12.9612 24.695C13.5168 24.1831 14.2446 23.899 15 23.899C15.7554 23.899 16.4832 24.1831 17.0387 24.695C17.2487 24.891 17.5252 25.0001 17.8125 25.0001C18.0998 25.0001 18.3763 24.891 18.5863 24.695L19.19 24.1425C19.5811 23.7824 20.0934 23.5826 20.625 23.5826C21.1566 23.5826 21.6689 23.7824 22.06 24.1425C22.1137 24.1925 22.16 24.2075 22.195 24.2112C22.2416 24.2167 22.2888 24.2089 22.3312 24.1887C22.425 24.145 22.5 24.0537 22.5 23.905V6.4C22.5 4.835 22.4875 4.2775 22.35 3.85375C22.215 3.43375 21.9851 3.05046 21.6781 2.73356C21.3712 2.41665 20.9955 2.17464 20.58 2.02625C20.1837 1.88875 19.6575 1.87625 18.1312 1.87625L6.24375 1.875ZM15.9387 7.7375C16.0308 7.81951 16.1057 7.91886 16.1593 8.02987C16.2129 8.14088 16.2441 8.26137 16.251 8.38444C16.258 8.50751 16.2406 8.63075 16.1999 8.7471C16.1592 8.86345 16.0959 8.97063 16.0138 9.0625L11.5487 14.0625C11.4608 14.161 11.353 14.2398 11.2325 14.2938C11.112 14.3478 10.9814 14.3757 10.8494 14.3757C10.7173 14.3757 10.5868 14.3478 10.4662 14.2938C10.3457 14.2398 10.2379 14.161 10.15 14.0625L8.365 12.0625C8.20094 11.8769 8.11699 11.634 8.13149 11.3867C8.14599 11.1394 8.25775 10.9079 8.44237 10.7428C8.62699 10.5777 8.86946 10.4923 9.11681 10.5054C9.36416 10.5184 9.5963 10.6288 9.7625 10.8125L10.85 12.03L14.615 7.81375C14.6969 7.72181 14.7961 7.64691 14.907 7.59333C15.0178 7.53974 15.1382 7.50851 15.2611 7.50143C15.384 7.49435 15.5071 7.51155 15.6234 7.55206C15.7397 7.59256 15.8468 7.65558 15.9387 7.7375ZM5.62625 17.8125C5.62625 17.5639 5.72502 17.3254 5.90084 17.1496C6.07665 16.9738 6.31511 16.875 6.56375 16.875H17.8137C18.0624 16.875 18.3008 16.9738 18.4767 17.1496C18.6525 17.3254 18.7512 17.5639 18.7512 17.8125C18.7512 18.0611 18.6525 18.2996 18.4767 18.4754C18.3008 18.6512 18.0624 18.75 17.8137 18.75H6.56375C6.31511 18.75 6.07665 18.6512 5.90084 18.4754C5.72502 18.2996 5.62625 18.0611 5.62625 17.8125Z" fill="white"/>
</svg>
