<svg width="15" height="22" viewBox="0 0 15 22" fill="none" xmlns="http://www.w3.org/2000/svg">
<path d="M5.55326 12.6478C5.56342 12.5696 5.55587 12.4901 5.53112 12.4148C5.50637 12.3394 5.46497 12.2699 5.40964 12.2106C5.3543 12.1513 5.28628 12.1037 5.21002 12.0709C5.13376 12.038 5.05098 12.0207 4.96711 12.0201H1.34149C1.24344 12.0191 1.14717 11.9954 1.06114 11.9512C0.975107 11.907 0.90196 11.8435 0.848141 11.7665C0.794321 11.6894 0.761479 11.6011 0.752508 11.5093C0.743537 11.4175 0.758713 11.325 0.796697 11.24L5.41382 1.09778C5.45759 0.9957 5.53263 0.908148 5.62942 0.84623C5.7262 0.784312 5.84036 0.750819 5.95742 0.75H11.2966C11.7138 0.75 11.9986 1.15 11.8461 1.52111L9.2167 7.86781C9.1806 7.95262 9.16702 8.04442 9.17713 8.13527C9.18725 8.22612 9.22075 8.31329 9.27475 8.38923C9.32875 8.46516 9.40162 8.52759 9.48705 8.5711C9.57247 8.6146 9.66789 8.63789 9.76504 8.63893H13.159C13.6459 8.63893 13.9236 9.17115 13.6294 9.54226L4.80167 20.7045C4.7284 20.7968 4.57595 20.7379 4.58895 20.6245L5.55326 12.6478Z" stroke="white" stroke-width="1.5" stroke-linecap="round" stroke-linejoin="round"/>
</svg>
