<svg width="15" height="17" viewBox="0 0 15 17" fill="none" xmlns="http://www.w3.org/2000/svg">
<path d="M1.7385 14.652C2.727 15.75 4.3185 15.75 7.5 15.75C10.6815 15.75 12.273 15.75 13.2615 14.6512C14.25 13.554 14.25 11.7855 14.25 8.25C14.25 4.7145 14.25 2.94675 13.2615 1.848C12.273 0.74925 10.6815 0.75 7.5 0.75C4.3185 0.75 2.727 0.75 1.7385 1.848C0.75 2.9475 0.75 4.7145 0.75 8.25C0.75 11.7855 0.75 13.554 1.7385 14.652Z" stroke="#013E32" stroke-opacity="0.47" stroke-width="1.5"/>
<path d="M3.75 5.25C3.75 4.90125 3.75 4.72725 3.78825 4.584C3.83939 4.3934 3.93977 4.21961 4.07932 4.08007C4.21886 3.94052 4.39265 3.84014 4.58325 3.789C4.728 3.75 4.902 3.75 5.25 3.75H9.75C10.0987 3.75 10.2727 3.75 10.416 3.78825C10.6066 3.83939 10.7804 3.93977 10.9199 4.07932C11.0595 4.21886 11.1599 4.39265 11.211 4.58325C11.25 4.728 11.25 4.902 11.25 5.25C11.25 5.598 11.25 5.77275 11.2117 5.916C11.1606 6.1066 11.0602 6.28039 10.9207 6.41993C10.7811 6.55947 10.6073 6.65986 10.4167 6.711C10.2727 6.75 10.098 6.75 9.75 6.75H5.25C4.90125 6.75 4.72725 6.75 4.584 6.71175C4.3934 6.66061 4.21961 6.56023 4.08007 6.42068C3.94052 6.28114 3.84014 6.10735 3.789 5.91675C3.75 5.772 3.75 5.598 3.75 5.25Z" stroke="#013E32" stroke-opacity="0.47" stroke-width="1.5"/>
<path d="M4.5 9.75C4.91421 9.75 5.25 9.41421 5.25 9C5.25 8.58579 4.91421 8.25 4.5 8.25C4.08579 8.25 3.75 8.58579 3.75 9C3.75 9.41421 4.08579 9.75 4.5 9.75Z" fill="#013E32" fill-opacity="0.47"/>
<path d="M4.5 12.75C4.91421 12.75 5.25 12.4142 5.25 12C5.25 11.5858 4.91421 11.25 4.5 11.25C4.08579 11.25 3.75 11.5858 3.75 12C3.75 12.4142 4.08579 12.75 4.5 12.75Z" fill="#013E32" fill-opacity="0.47"/>
<path d="M7.5 9.75C7.91421 9.75 8.25 9.41421 8.25 9C8.25 8.58579 7.91421 8.25 7.5 8.25C7.08579 8.25 6.75 8.58579 6.75 9C6.75 9.41421 7.08579 9.75 7.5 9.75Z" fill="#013E32" fill-opacity="0.47"/>
<path d="M7.5 12.75C7.91421 12.75 8.25 12.4142 8.25 12C8.25 11.5858 7.91421 11.25 7.5 11.25C7.08579 11.25 6.75 11.5858 6.75 12C6.75 12.4142 7.08579 12.75 7.5 12.75Z" fill="#013E32" fill-opacity="0.47"/>
<path d="M10.5 9.75C10.9142 9.75 11.25 9.41421 11.25 9C11.25 8.58579 10.9142 8.25 10.5 8.25C10.0858 8.25 9.75 8.58579 9.75 9C9.75 9.41421 10.0858 9.75 10.5 9.75Z" fill="#013E32" fill-opacity="0.47"/>
<path d="M10.5 12.75C10.9142 12.75 11.25 12.4142 11.25 12C11.25 11.5858 10.9142 11.25 10.5 11.25C10.0858 11.25 9.75 11.5858 9.75 12C9.75 12.4142 10.0858 12.75 10.5 12.75Z" fill="#013E32" fill-opacity="0.47"/>
</svg>
