<svg width="24" height="32" viewBox="0 0 24 32" fill="none" xmlns="http://www.w3.org/2000/svg">
<path d="M4 17C4.55228 17 5 16.5523 5 16C5 15.4477 4.55228 15 4 15C3.44772 15 3 15.4477 3 16C3 16.5523 3.44772 17 4 17Z" fill="#013E32"/>
<path d="M20.06 15H7.94C7.42085 15 7 15.4209 7 15.94V16.06C7 16.5791 7.42085 17 7.94 17H20.06C20.5791 17 21 16.5791 21 16.06V15.94C21 15.4209 20.5791 15 20.06 15Z" fill="#013E32"/>
<path d="M20.06 21H3.94C3.42085 21 3 21.4209 3 21.94V22.06C3 22.5791 3.42085 23 3.94 23H20.06C20.5791 23 21 22.5791 21 22.06V21.94C21 21.4209 20.5791 21 20.06 21Z" fill="#013E32"/>
<path d="M20.06 9H3.94C3.42085 9 3 9.42085 3 9.94V10.06C3 10.5791 3.42085 11 3.94 11H20.06C20.5791 11 21 10.5791 21 10.06V9.94C21 9.42085 20.5791 9 20.06 9Z" fill="#013E32"/>
</svg>
