<svg width="20" height="20" viewBox="0 0 20 20" fill="none" xmlns="http://www.w3.org/2000/svg">
<path d="M16.666 1.66675H3.33268C2.41221 1.66675 1.66602 2.41294 1.66602 3.33341V6.66675C1.66602 7.58722 2.41221 8.33341 3.33268 8.33341H16.666C17.5865 8.33341 18.3327 7.58722 18.3327 6.66675V3.33341C18.3327 2.41294 17.5865 1.66675 16.666 1.66675Z" stroke="#04C18F" stroke-opacity="0.5" stroke-width="1.66667" stroke-linecap="round" stroke-linejoin="round"/>
<path d="M16.666 11.6667H3.33268C2.41221 11.6667 1.66602 12.4129 1.66602 13.3334V16.6667C1.66602 17.5872 2.41221 18.3334 3.33268 18.3334H16.666C17.5865 18.3334 18.3327 17.5872 18.3327 16.6667V13.3334C18.3327 12.4129 17.5865 11.6667 16.666 11.6667Z" stroke="#04C18F" stroke-opacity="0.5" stroke-width="1.66667" stroke-linecap="round" stroke-linejoin="round"/>
<path d="M5 5H5.00833" stroke="#04C18F" stroke-opacity="0.5" stroke-width="1.66667" stroke-linecap="round" stroke-linejoin="round"/>
<path d="M5 15H5.00833" stroke="#04C18F" stroke-opacity="0.5" stroke-width="1.66667" stroke-linecap="round" stroke-linejoin="round"/>
</svg>
