<svg width="40" height="40" viewBox="0 0 40 40" fill="none" xmlns="http://www.w3.org/2000/svg">
<path d="M13.3333 23.7331C17.1733 23.7331 20.48 24.4051 22.8667 26.0131C25.3387 27.6798 26.6667 30.2478 26.6667 33.5998C26.6452 33.9389 26.4954 34.257 26.2477 34.4895C26 34.722 25.6731 34.8514 25.3333 34.8514C24.9936 34.8514 24.6666 34.722 24.419 34.4895C24.1713 34.257 24.0215 33.9389 24 33.5998C24 31.0451 23.0453 29.3438 21.3787 28.2211C19.624 27.0425 16.9333 26.3998 13.3333 26.3998C9.73333 26.3998 7.04 27.0425 5.288 28.2238C3.62133 29.3465 2.66667 31.0478 2.66667 33.6025C2.64521 33.9415 2.4954 34.2597 2.24771 34.4922C2.00002 34.7247 1.67306 34.8541 1.33333 34.8541C0.993609 34.8541 0.666645 34.7247 0.418954 34.4922C0.171264 34.2597 0.0214539 33.9415 0 33.6025C0 30.2478 1.32533 27.6798 3.79733 26.0131C6.184 24.4051 9.49333 23.7331 13.3333 23.7331ZM26.6 23.7331C30.4373 23.7331 33.7467 24.4051 36.1333 26.0131C38.6053 27.6798 39.9333 30.2478 39.9333 33.6025C39.9333 33.9561 39.7929 34.2952 39.5428 34.5453C39.2928 34.7953 38.9536 34.9358 38.6 34.9358C38.2464 34.9358 37.9072 34.7953 37.6572 34.5453C37.4071 34.2952 37.2667 33.9561 37.2667 33.6025C37.2667 31.0478 36.312 29.3465 34.6427 28.2238C33.2613 27.2931 31.3013 26.7038 28.7707 26.4905C28.1403 25.4608 27.3582 24.5321 26.4507 23.7358L26.6 23.7331ZM13.3333 4.93314C15.5245 4.98836 17.6074 5.89759 19.1376 7.46688C20.6679 9.03616 21.5243 11.1413 21.5243 13.3331C21.5243 15.525 20.6679 17.6301 19.1376 19.1994C17.6074 20.7687 15.5245 21.6779 13.3333 21.7331C11.1055 21.7331 8.96894 20.8481 7.39364 19.2728C5.81833 17.6975 4.93333 15.561 4.93333 13.3331C4.93333 11.1053 5.81833 8.96875 7.39364 7.39345C8.96894 5.81814 11.1055 4.93314 13.3333 4.93314ZM26.6 4.93314C28.8278 4.93314 30.9644 5.81814 32.5397 7.39345C34.115 8.96875 35 11.1053 35 13.3331C35 15.561 34.115 17.6975 32.5397 19.2728C30.9644 20.8481 28.8278 21.7331 26.6 21.7331C25.2027 21.7331 23.8907 21.3865 22.7333 20.7838C23.2914 20.0821 23.769 19.32 24.1573 18.5118C25.0312 18.9252 25.9954 19.1109 26.9603 19.0517C27.9252 18.9925 28.8594 18.6903 29.6762 18.1731C30.493 17.6559 31.1657 16.9407 31.6318 16.0938C32.098 15.2469 32.3424 14.2959 32.3424 13.3291C32.3424 12.3624 32.098 11.4114 31.6318 10.5645C31.1657 9.71762 30.493 9.00234 29.6762 8.48519C28.8594 7.96803 27.9252 7.6658 26.9603 7.60658C25.9954 7.54736 25.0312 7.73308 24.1573 8.14648C23.7678 7.34005 23.2893 6.57976 22.7307 5.87981C23.9232 5.254 25.2506 4.92902 26.5973 4.93314M13.3333 7.59981C11.843 7.64527 10.429 8.26924 9.39089 9.33949C8.35279 10.4097 7.77222 11.8421 7.77222 13.3331C7.77222 14.8241 8.35279 16.2566 9.39089 17.3268C10.429 18.397 11.843 19.021 13.3333 19.0665C14.8539 19.0665 16.3122 18.4624 17.3874 17.3872C18.4626 16.312 19.0667 14.8537 19.0667 13.3331C19.0667 11.8126 18.4626 10.3543 17.3874 9.27907C16.3122 8.20386 14.8539 7.59981 13.3333 7.59981Z" fill="black" fill-opacity="0.15"/>
</svg>
