<svg width="40" height="40" viewBox="0 0 40 40" fill="none" xmlns="http://www.w3.org/2000/svg">
<path d="M31.0004 13.3332L22.3338 21.9165L18.0421 17.6248C17.4032 16.9859 16.6115 16.6665 15.6671 16.6665C14.7226 16.6665 13.931 16.9859 13.2921 17.6248L4.50043 26.4998C4.19487 26.8054 4.03487 27.1871 4.02043 27.6448C4.00598 28.1026 4.16598 28.4987 4.50043 28.8332C4.80598 29.1387 5.19487 29.2915 5.6671 29.2915C6.13932 29.2915 6.52821 29.1387 6.83376 28.8332L15.6671 19.9998L19.9588 24.2915C20.5977 24.9304 21.3893 25.2498 22.3338 25.2498C23.2782 25.2498 24.0699 24.9304 24.7088 24.2915L33.3338 15.6665V18.3332C33.3338 18.8054 33.4938 19.2009 33.8138 19.5198C34.1338 19.8387 34.5293 19.9987 35.0004 19.9998C35.4715 20.0009 35.8677 19.8409 36.1888 19.5198C36.5099 19.1987 36.6693 18.8032 36.6671 18.3332V11.6665C36.6671 11.1943 36.5071 10.7982 36.1871 10.4782C35.8671 10.1582 35.4715 9.99873 35.0004 9.99984H28.3338C27.8615 9.99984 27.466 10.1598 27.1471 10.4798C26.8282 10.7998 26.6682 11.1954 26.6671 11.6665C26.666 12.1376 26.826 12.5332 27.1471 12.8532C27.4682 13.1732 27.8638 13.3332 28.3338 13.3332H31.0004Z" fill="black" fill-opacity="0.15"/>
</svg>
