<svg width="40" height="40" viewBox="0 0 40 40" fill="none" xmlns="http://www.w3.org/2000/svg">
<path fill-rule="evenodd" clip-rule="evenodd" d="M13.56 2.67149C13.7355 2.95244 13.7923 3.29159 13.718 3.61441C13.6436 3.93723 13.4441 4.21732 13.1633 4.39315L6.49667 8.55982C6.21554 8.73575 5.87604 8.79279 5.55285 8.7184C5.22966 8.64401 4.94926 8.44428 4.77333 8.16315C4.59741 7.88202 4.54036 7.54252 4.61475 7.21933C4.68914 6.89615 4.88887 6.61575 5.17 6.43982L11.8367 2.27315C11.976 2.18606 12.131 2.12727 12.2931 2.10016C12.4551 2.07304 12.6208 2.07812 12.7809 2.11512C12.9409 2.15211 13.0921 2.22029 13.2258 2.31576C13.3595 2.41122 13.4731 2.5321 13.56 2.67149ZM26.44 2.67149C26.5269 2.5321 26.6405 2.41122 26.7742 2.31576C26.9079 2.22029 27.059 2.15211 27.2191 2.11512C27.3792 2.07812 27.5449 2.07304 27.7069 2.10016C27.869 2.12727 28.024 2.18606 28.1633 2.27315L34.83 6.43982C35.1111 6.61575 35.3109 6.89615 35.3852 7.21933C35.4596 7.54252 35.4026 7.88202 35.2267 8.16315C35.0507 8.44428 34.7703 8.64401 34.4472 8.7184C34.124 8.79279 33.7845 8.73575 33.5033 8.55982L26.8367 4.39315C26.5559 4.21732 26.3564 3.93723 26.282 3.61441C26.2077 3.29159 26.2645 2.95244 26.44 2.67149ZM20 7.91649C16.3533 7.91649 12.8559 9.36514 10.2773 11.9438C7.69866 14.5224 6.25 18.0198 6.25 21.6665C6.25 25.3132 7.69866 28.8106 10.2773 31.3892C12.8559 33.9678 16.3533 35.4165 20 35.4165C23.6467 35.4165 27.1441 33.9678 29.7227 31.3892C32.3013 28.8106 33.75 25.3132 33.75 21.6665C33.75 18.0198 32.3013 14.5224 29.7227 11.9438C27.1441 9.36514 23.6467 7.91649 20 7.91649ZM3.75 21.6665C3.75 12.6915 11.025 5.41649 20 5.41649C28.975 5.41649 36.25 12.6915 36.25 21.6665C36.25 30.6415 28.975 37.9165 20 37.9165C11.025 37.9165 3.75 30.6415 3.75 21.6665ZM20 13.7498C20.3315 13.7498 20.6495 13.8815 20.8839 14.1159C21.1183 14.3504 21.25 14.6683 21.25 14.9998V21.1498L25.05 24.9498C25.1728 25.0643 25.2713 25.2023 25.3396 25.3556C25.408 25.5089 25.4447 25.6744 25.4477 25.8423C25.4506 26.0101 25.4197 26.1768 25.3569 26.3325C25.294 26.4881 25.2004 26.6295 25.0817 26.7482C24.963 26.8669 24.8216 26.9605 24.666 27.0234C24.5103 27.0862 24.3436 27.1171 24.1758 27.1141C24.008 27.1112 23.8424 27.0744 23.6891 27.0061C23.5358 26.9378 23.3978 26.8393 23.2833 26.7165L19.1167 22.5498C18.8822 22.3156 18.7503 21.9979 18.75 21.6665V14.9998C18.75 14.6683 18.8817 14.3504 19.1161 14.1159C19.3505 13.8815 19.6685 13.7498 20 13.7498Z" fill="black" fill-opacity="0.15"/>
</svg>
