<svg width="14" height="14" viewBox="0 0 14 14" fill="none" xmlns="http://www.w3.org/2000/svg">
<path d="M7.0002 6C7.15933 6 7.31194 6.06321 7.42446 6.17574C7.53698 6.28826 7.6002 6.44087 7.6002 6.6V10.6C7.6002 10.7591 7.53698 10.9117 7.42446 11.0243C7.31194 11.1368 7.15933 11.2 7.0002 11.2C6.84107 11.2 6.68845 11.1368 6.57593 11.0243C6.46341 10.9117 6.4002 10.7591 6.4002 10.6V6.6C6.4002 6.44087 6.46341 6.28826 6.57593 6.17574C6.68845 6.06321 6.84107 6 7.0002 6ZM7.0002 4.6C7.21237 4.6 7.41585 4.51571 7.56588 4.36569C7.71591 4.21566 7.8002 4.01217 7.8002 3.8C7.8002 3.58783 7.71591 3.38434 7.56588 3.23431C7.41585 3.08429 7.21237 3 7.0002 3C6.78802 3 6.58454 3.08429 6.43451 3.23431C6.28448 3.38434 6.2002 3.58783 6.2002 3.8C6.2002 4.01217 6.28448 4.21566 6.43451 4.36569C6.58454 4.51571 6.78802 4.6 7.0002 4.6Z" fill="#020202"/>
<path fill-rule="evenodd" clip-rule="evenodd" d="M0 7C0 5.14348 0.737498 3.36301 2.05025 2.05025C3.36301 0.737498 5.14348 0 7 0C8.85652 0 10.637 0.737498 11.9497 2.05025C13.2625 3.36301 14 5.14348 14 7C14 8.85652 13.2625 10.637 11.9497 11.9497C10.637 13.2625 8.85652 14 7 14C5.14348 14 3.36301 13.2625 2.05025 11.9497C0.737498 10.637 0 8.85652 0 7ZM7 1.2C6.23833 1.2 5.48412 1.35002 4.78044 1.6415C4.07675 1.93298 3.43736 2.3602 2.89878 2.89878C2.3602 3.43736 1.93298 4.07675 1.6415 4.78044C1.35002 5.48412 1.2 6.23833 1.2 7C1.2 7.76167 1.35002 8.51588 1.6415 9.21956C1.93298 9.92325 2.3602 10.5626 2.89878 11.1012C3.43736 11.6398 4.07675 12.067 4.78044 12.3585C5.48412 12.65 6.23833 12.8 7 12.8C8.53826 12.8 10.0135 12.1889 11.1012 11.1012C12.1889 10.0135 12.8 8.53826 12.8 7C12.8 5.46174 12.1889 3.98649 11.1012 2.89878C10.0135 1.81107 8.53826 1.2 7 1.2Z" fill="#020202"/>
</svg>
