<svg width="18" height="18" viewBox="0 0 18 18" fill="none" xmlns="http://www.w3.org/2000/svg">
<g clip-path="url(#clip0_8016_1756)">
<path d="M0 8.84402H5.89606M5.89606 8.84402C5.89606 8.06216 6.20665 7.31232 6.75951 6.75945C7.31238 6.20659 8.06222 5.896 8.84409 5.896C9.62595 5.896 10.3758 6.20659 10.9287 6.75945C11.4815 7.31232 11.7921 8.06216 11.7921 8.84402M5.89606 8.84402C5.89606 9.62589 6.20665 10.3757 6.75951 10.9286C7.31238 11.4815 8.06222 11.7921 8.84409 11.7921C9.62595 11.7921 10.3758 11.4815 10.9287 10.9286C11.4815 10.3757 11.7921 9.62589 11.7921 8.84402M11.7921 8.84402H17.6882" stroke="#EF4444" stroke-width="2.21102"/>
</g>
<defs>
<clipPath id="clip0_8016_1756">
<rect width="17.6882" height="17.6882" fill="white"/>
</clipPath>
</defs>
</svg>
