<svg width="18" height="9" viewBox="0 0 18 9" fill="none" xmlns="http://www.w3.org/2000/svg">
<path d="M0 4.0535H5.89606M5.89606 4.0535C5.89606 3.27163 6.20665 2.52179 6.75951 1.96893C7.31238 1.41606 8.06222 1.10547 8.84409 1.10547C9.62595 1.10547 10.3758 1.41606 10.9287 1.96893C11.4815 2.52179 11.7921 3.27163 11.7921 4.0535M5.89606 4.0535C5.89606 4.83536 6.20665 5.58521 6.75951 6.13807C7.31238 6.69093 8.06222 7.00153 8.84409 7.00153C9.62595 7.00153 10.3758 6.69093 10.9287 6.13807C11.4815 5.58521 11.7921 4.83536 11.7921 4.0535M11.7921 4.0535H17.6882" stroke="#F59E0B" stroke-width="2.21102"/>
</svg>
