<svg width="18" height="18" viewBox="0 0 18 18" fill="none" xmlns="http://www.w3.org/2000/svg">
<path d="M5.25 13.5V12M9 13.5V11.25M12.75 13.5V9.75M1.875 9C1.875 5.6415 1.875 3.9615 2.91825 2.91825C3.9615 1.875 5.64075 1.875 9 1.875C12.3585 1.875 14.0385 1.875 15.0817 2.91825C16.125 3.9615 16.125 5.64075 16.125 9C16.125 12.3585 16.125 14.0385 15.0817 15.0817C14.0385 16.125 12.3593 16.125 9 16.125C5.6415 16.125 3.9615 16.125 2.91825 15.0817C1.875 14.0385 1.875 12.3593 1.875 9Z" stroke="#013E32" stroke-opacity="0.47" stroke-width="1.5" stroke-linecap="round" stroke-linejoin="round"/>
<path d="M4.49219 8.6146C6.10844 8.6686 9.77369 8.42485 11.8587 5.11585M10.4922 4.7161L11.8992 4.4896C12.0702 4.46785 12.3222 4.6036 12.3844 4.76485L12.7557 5.99335" stroke="#013E32" stroke-opacity="0.47" stroke-width="1.5" stroke-linecap="round" stroke-linejoin="round"/>
</svg>
