<svg width="20" height="20" viewBox="0 0 20 20" fill="none" xmlns="http://www.w3.org/2000/svg">
<path d="M10 16.6665V18.3332" stroke="#007595" stroke-width="1.66667" stroke-linecap="round" stroke-linejoin="round"/>
<path d="M10 1.6665V3.33317" stroke="#007595" stroke-width="1.66667" stroke-linecap="round" stroke-linejoin="round"/>
<path d="M14.167 16.667V18.3337" stroke="#007595" stroke-width="1.66667" stroke-linecap="round" stroke-linejoin="round"/>
<path d="M14.167 1.66699V3.33366" stroke="#007595" stroke-width="1.66667" stroke-linecap="round" stroke-linejoin="round"/>
<path d="M1.66699 10H3.33366" stroke="#007595" stroke-width="1.66667" stroke-linecap="round" stroke-linejoin="round"/>
<path d="M1.66699 14.167H3.33366" stroke="#007595" stroke-width="1.66667" stroke-linecap="round" stroke-linejoin="round"/>
<path d="M1.66699 5.83301H3.33366" stroke="#007595" stroke-width="1.66667" stroke-linecap="round" stroke-linejoin="round"/>
<path d="M16.667 10H18.3337" stroke="#007595" stroke-width="1.66667" stroke-linecap="round" stroke-linejoin="round"/>
<path d="M16.667 14.167H18.3337" stroke="#007595" stroke-width="1.66667" stroke-linecap="round" stroke-linejoin="round"/>
<path d="M16.667 5.83301H18.3337" stroke="#007595" stroke-width="1.66667" stroke-linecap="round" stroke-linejoin="round"/>
<path d="M5.83301 16.667V18.3337" stroke="#007595" stroke-width="1.66667" stroke-linecap="round" stroke-linejoin="round"/>
<path d="M5.83301 1.66699V3.33366" stroke="#007595" stroke-width="1.66667" stroke-linecap="round" stroke-linejoin="round"/>
<path d="M14.9997 3.33301H4.99967C4.0792 3.33301 3.33301 4.0792 3.33301 4.99967V14.9997C3.33301 15.9201 4.0792 16.6663 4.99967 16.6663H14.9997C15.9201 16.6663 16.6663 15.9201 16.6663 14.9997V4.99967C16.6663 4.0792 15.9201 3.33301 14.9997 3.33301Z" stroke="#007595" stroke-width="1.66667" stroke-linecap="round" stroke-linejoin="round"/>
<path d="M12.5003 6.66699H7.50033C7.04009 6.66699 6.66699 7.04009 6.66699 7.50033V12.5003C6.66699 12.9606 7.04009 13.3337 7.50033 13.3337H12.5003C12.9606 13.3337 13.3337 12.9606 13.3337 12.5003V7.50033C13.3337 7.04009 12.9606 6.66699 12.5003 6.66699Z" stroke="#007595" stroke-width="1.66667" stroke-linecap="round" stroke-linejoin="round"/>
</svg>