<svg width="37" height="45" viewBox="0 0 37 45" fill="none" xmlns="http://www.w3.org/2000/svg">
<path d="M12.75 25.875L24 14.625" stroke="#00FFBC" stroke-width="2.5" stroke-linecap="round" stroke-linejoin="round"/>
<path d="M13.6875 16.5C14.2053 16.5 14.625 16.0803 14.625 15.5625C14.625 15.0447 14.2053 14.625 13.6875 14.625C13.1697 14.625 12.75 15.0447 12.75 15.5625C12.75 16.0803 13.1697 16.5 13.6875 16.5Z" fill="white" stroke="#00FFBC" stroke-width="2.5" stroke-linecap="round" stroke-linejoin="round"/>
<path d="M23.0625 25.875C23.5803 25.875 24 25.4553 24 24.9375C24 24.4197 23.5803 24 23.0625 24C22.5447 24 22.125 24.4197 22.125 24.9375C22.125 25.4553 22.5447 25.875 23.0625 25.875Z" fill="white" stroke="#00FFBC" stroke-width="2.5" stroke-linecap="round" stroke-linejoin="round"/>
<g filter="url(#filter0_d_3897_81194)">
<path d="M5.25 39V9C5.25 8.00544 5.64509 7.05161 6.34835 6.34835C7.05161 5.64509 8.00544 5.25 9 5.25H27.75C28.7446 5.25 29.6984 5.64509 30.4016 6.34835C31.1049 7.05161 31.5 8.00544 31.5 9V39L25.875 35.25L22.125 39L18.375 35.25L14.625 39L10.875 35.25L5.25 39Z" stroke="#00FFBC" stroke-width="2.5" stroke-linecap="round" stroke-linejoin="round" shape-rendering="crispEdges"/>
</g>
<defs>
<filter id="filter0_d_3897_81194" x="0" y="0" width="36.75" height="44.25" filterUnits="userSpaceOnUse" color-interpolation-filters="sRGB">
<feFlood flood-opacity="0" result="BackgroundImageFix"/>
<feColorMatrix in="SourceAlpha" type="matrix" values="0 0 0 0 0 0 0 0 0 0 0 0 0 0 0 0 0 0 127 0" result="hardAlpha"/>
<feOffset/>
<feGaussianBlur stdDeviation="2"/>
<feComposite in2="hardAlpha" operator="out"/>
<feColorMatrix type="matrix" values="0 0 0 0 0 0 0 0 0 0 0 0 0 0 0 0 0 0 0.25 0"/>
<feBlend mode="normal" in2="BackgroundImageFix" result="effect1_dropShadow_3897_81194"/>
<feBlend mode="normal" in="SourceGraphic" in2="effect1_dropShadow_3897_81194" result="shape"/>
</filter>
</defs>
</svg>
