<svg width="20" height="25" viewBox="0 0 20 25" fill="none" xmlns="http://www.w3.org/2000/svg">
<path d="M6.25 15L13.75 7.5" stroke="white" stroke-width="2.5" stroke-linecap="round" stroke-linejoin="round"/>
<path d="M6.875 8.75C7.22018 8.75 7.5 8.47018 7.5 8.125C7.5 7.77982 7.22018 7.5 6.875 7.5C6.52982 7.5 6.25 7.77982 6.25 8.125C6.25 8.47018 6.52982 8.75 6.875 8.75Z" fill="white" stroke="white" stroke-width="2.5" stroke-linecap="round" stroke-linejoin="round"/>
<path d="M13.125 15C13.4702 15 13.75 14.7202 13.75 14.375C13.75 14.0298 13.4702 13.75 13.125 13.75C12.7798 13.75 12.5 14.0298 12.5 14.375C12.5 14.7202 12.7798 15 13.125 15Z" fill="white" stroke="white" stroke-width="2.5" stroke-linecap="round" stroke-linejoin="round"/>
<path d="M1.25 23.75V3.75C1.25 3.08696 1.51339 2.45107 1.98223 1.98223C2.45107 1.51339 3.08696 1.25 3.75 1.25H16.25C16.913 1.25 17.5489 1.51339 18.0178 1.98223C18.4866 2.45107 18.75 3.08696 18.75 3.75V23.75L15 21.25L12.5 23.75L10 21.25L7.5 23.75L5 21.25L1.25 23.75Z" stroke="white" stroke-width="2.5" stroke-linecap="round" stroke-linejoin="round"/>
</svg>
