<svg width="30" height="33" viewBox="0 0 30 33" fill="none" xmlns="http://www.w3.org/2000/svg">
<path d="M11.25 19L18.75 11.5" stroke="#00FFBC" stroke-width="2.5" stroke-linecap="round" stroke-linejoin="round"/>
<path d="M11.875 12.75C12.2202 12.75 12.5 12.4702 12.5 12.125C12.5 11.7798 12.2202 11.5 11.875 11.5C11.5298 11.5 11.25 11.7798 11.25 12.125C11.25 12.4702 11.5298 12.75 11.875 12.75Z" fill="white" stroke="#00FFBC" stroke-width="2.5" stroke-linecap="round" stroke-linejoin="round"/>
<path d="M18.125 19C18.4702 19 18.75 18.7202 18.75 18.375C18.75 18.0298 18.4702 17.75 18.125 17.75C17.7798 17.75 17.5 18.0298 17.5 18.375C17.5 18.7202 17.7798 19 18.125 19Z" fill="white" stroke="#00FFBC" stroke-width="2.5" stroke-linecap="round" stroke-linejoin="round"/>
<g filter="url(#filter0_d_3897_81194)">
<path d="M6.25 27.75V7.75C6.25 7.08696 6.51339 6.45107 6.98223 5.98223C7.45107 5.51339 8.08696 5.25 8.75 5.25H21.25C21.913 5.25 22.5489 5.51339 23.0178 5.98223C23.4866 6.45107 23.75 7.08696 23.75 7.75V27.75L20 25.25L17.5 27.75L15 25.25L12.5 27.75L10 25.25L6.25 27.75Z" stroke="#00FFBC" stroke-width="2.5" stroke-linecap="round" stroke-linejoin="round" shape-rendering="crispEdges"/>
</g>
<defs>
<filter id="filter0_d_3897_81194" x="1" y="0" width="28" height="33" filterUnits="userSpaceOnUse" color-interpolation-filters="sRGB">
<feFlood flood-opacity="0" result="BackgroundImageFix"/>
<feColorMatrix in="SourceAlpha" type="matrix" values="0 0 0 0 0 0 0 0 0 0 0 0 0 0 0 0 0 0 127 0" result="hardAlpha"/>
<feOffset/>
<feGaussianBlur stdDeviation="2"/>
<feComposite in2="hardAlpha" operator="out"/>
<feColorMatrix type="matrix" values="0 0 0 0 0 0 0 0 0 0 0 0 0 0 0 0 0 0 0.25 0"/>
<feBlend mode="normal" in2="BackgroundImageFix" result="effect1_dropShadow_3897_81194"/>
<feBlend mode="normal" in="SourceGraphic" in2="effect1_dropShadow_3897_81194" result="shape"/>
</filter>
</defs>
</svg>
