<svg width="14" height="14" viewBox="0 0 14 14" fill="none" xmlns="http://www.w3.org/2000/svg">
<path d="M6.99995 6C7.15908 6 7.31169 6.06321 7.42421 6.17574C7.53674 6.28826 7.59995 6.44087 7.59995 6.6V10.6C7.59995 10.7591 7.53674 10.9117 7.42421 11.0243C7.31169 11.1368 7.15908 11.2 6.99995 11.2C6.84082 11.2 6.68821 11.1368 6.57569 11.0243C6.46317 10.9117 6.39995 10.7591 6.39995 10.6V6.6C6.39995 6.44087 6.46317 6.28826 6.57569 6.17574C6.68821 6.06321 6.84082 6 6.99995 6ZM6.99995 4.6C7.21212 4.6 7.41561 4.51571 7.56564 4.36569C7.71567 4.21566 7.79995 4.01217 7.79995 3.8C7.79995 3.58783 7.71567 3.38434 7.56564 3.23431C7.41561 3.08429 7.21212 3 6.99995 3C6.78778 3 6.5843 3.08429 6.43427 3.23431C6.28424 3.38434 6.19995 3.58783 6.19995 3.8C6.19995 4.01217 6.28424 4.21566 6.43427 4.36569C6.5843 4.51571 6.78778 4.6 6.99995 4.6Z" fill="white"/>
<path fill-rule="evenodd" clip-rule="evenodd" d="M0 7C0 5.14348 0.737498 3.36301 2.05025 2.05025C3.36301 0.737498 5.14348 0 7 0C8.85652 0 10.637 0.737498 11.9497 2.05025C13.2625 3.36301 14 5.14348 14 7C14 8.85652 13.2625 10.637 11.9497 11.9497C10.637 13.2625 8.85652 14 7 14C5.14348 14 3.36301 13.2625 2.05025 11.9497C0.737498 10.637 0 8.85652 0 7ZM7 1.2C6.23833 1.2 5.48412 1.35002 4.78044 1.6415C4.07675 1.93298 3.43736 2.3602 2.89878 2.89878C2.3602 3.43736 1.93298 4.07675 1.6415 4.78044C1.35002 5.48412 1.2 6.23833 1.2 7C1.2 7.76167 1.35002 8.51588 1.6415 9.21956C1.93298 9.92325 2.3602 10.5626 2.89878 11.1012C3.43736 11.6398 4.07675 12.067 4.78044 12.3585C5.48412 12.65 6.23833 12.8 7 12.8C8.53826 12.8 10.0135 12.1889 11.1012 11.1012C12.1889 10.0135 12.8 8.53826 12.8 7C12.8 5.46174 12.1889 3.98649 11.1012 2.89878C10.0135 1.81107 8.53826 1.2 7 1.2Z" fill="white"/>
</svg>
