<svg width="22" height="22" viewBox="0 0 22 22" fill="none" xmlns="http://www.w3.org/2000/svg">
<g clip-path="url(#clip0_5673_170183)">
<path d="M20.1517 -0.150391C21.2553 -0.150391 22.1496 0.744171 22.1498 1.84766V10.6436C22.1498 11.7474 21.2507 12.6416 20.1517 12.6416H11.3558C10.2563 12.6414 9.36269 11.7424 9.35779 10.6445V1.84766C9.35797 0.744054 10.2571 -0.150205 11.3558 -0.150391H20.1517ZM11.3607 1.03027C10.9073 1.03027 10.5425 1.39781 10.5424 1.84766V1.99805H10.5385V10.6436C10.5385 11.093 10.9064 11.4617 11.3558 11.4619H20.1517C20.6052 11.4619 20.9701 11.0936 20.9701 10.6436V1.84766C20.9699 1.39825 20.6012 1.03027 20.1517 1.03027H11.3607Z" fill="#666666" stroke="#666666" stroke-width="0.3"/>
<path d="M8.19238 9.35791C8.51723 9.35791 8.7832 9.62389 8.7832 9.94873C8.78297 10.2734 8.51708 10.5386 8.19238 10.5386H1.84766C1.39837 10.5388 1.03046 10.9067 1.03027 11.356V20.1519C1.03027 20.6013 1.39825 20.97 1.84766 20.9702H10.6436C11.0971 20.9702 11.4619 20.6019 11.4619 20.1519V13.811C11.4622 13.4864 11.7271 13.2212 12.0518 13.2212C12.3764 13.2213 12.6413 13.4865 12.6416 13.811V20.1519C12.6416 21.2557 11.7426 22.1499 10.6436 22.1499H1.84766C0.744171 22.1497 -0.150391 21.2554 -0.150391 20.1519V11.356C-0.150204 10.2524 0.748916 9.3581 1.84766 9.35791H8.19238Z" fill="#666666" stroke="#666666" stroke-width="0.3"/>
<path d="M6.24365 12.5127C6.51648 12.5127 6.74517 12.7007 6.81201 12.9531H6.84229V13.8027H9.26611C9.59096 13.8027 9.85596 14.0677 9.85596 14.3926C9.8558 14.7173 9.59086 14.9824 9.26611 14.9824H8.20459C8.01002 15.4162 7.63061 16.1576 7.05322 16.8955C7.531 17.3345 8.09373 17.6911 8.74365 17.832H8.74463C9.06229 17.9027 9.2636 18.2152 9.19287 18.5342V18.5361C9.12879 18.8099 8.88769 18.999 8.61475 18.999C8.58846 18.999 8.54133 18.9992 8.49072 18.9863C8.48848 18.9858 8.48613 18.9858 8.48389 18.9854H8.48193V18.9844C7.59202 18.7888 6.84943 18.3223 6.24756 17.7676C5.64079 18.3238 4.89953 18.7928 4.00537 18.9873L3.99463 18.9893C3.96569 18.9934 3.92364 18.999 3.88037 18.999C3.61031 18.9988 3.3629 18.8121 3.30322 18.5342L3.28857 18.415C3.28419 18.1406 3.47351 17.8938 3.75146 17.832H3.75244C4.40209 17.6911 4.96425 17.3342 5.44189 16.8955C4.8643 16.1569 4.48831 15.4147 4.2915 14.9824H3.22998C2.90524 14.9824 2.63932 14.7173 2.63916 14.3926C2.63916 14.0677 2.90514 13.8027 3.22998 13.8027H5.65381V13.1035C5.65381 12.7787 5.91881 12.5127 6.24365 12.5127ZM5.61084 14.9824C5.76978 15.2812 5.98254 15.633 6.24365 15.9893C6.50669 15.6312 6.71781 15.2811 6.87842 14.9824H5.61084Z" fill="#666666" stroke="#666666" stroke-width="0.3"/>
<path d="M15.769 2.64795C15.9763 2.64795 16.1644 2.75705 16.271 2.9292L16.312 3.00732V3.00928L18.0552 7.17529L18.8247 9.01904V9.02002C18.948 9.31954 18.8085 9.66786 18.5063 9.79248L18.5024 9.79346C18.4331 9.8201 18.3571 9.83838 18.2769 9.83838C18.0473 9.83826 17.8286 9.70351 17.7339 9.479V9.47803L17.1128 7.99951H14.4077L13.7866 9.47803L13.7856 9.47705C13.6611 9.77926 13.3147 9.91963 13.0151 9.79639C12.712 9.67159 12.5687 9.31962 12.7163 9.01221L13.4839 7.17529L15.2251 3.01025C15.315 2.78864 15.5345 2.648 15.769 2.64795ZM14.8989 6.81982H16.6128L15.7554 4.76611L14.8989 6.81982Z" fill="#666666" stroke="#666666" stroke-width="0.3"/>
<path d="M7.42297 4.16797C7.42227 4.16963 7.42226 4.17295 7.42102 4.17578C7.41826 4.1821 7.4131 4.19355 7.40637 4.20508C7.40146 4.21347 7.39277 4.22189 7.38391 4.23242L7.38586 4.2334L6.6261 5.18945C6.51159 5.34012 6.33426 5.41697 6.16418 5.41699C6.03654 5.41699 5.90603 5.3761 5.79797 5.28711C5.62299 5.14848 5.551 4.93013 5.58704 4.72461C4.26248 5.25838 3.32247 6.5546 3.32239 8.06934V8.11328C3.32239 8.43798 3.0572 8.7029 2.73254 8.70312C2.3997 8.70312 2.14452 8.43586 2.13293 8.11035V8.06055C2.13302 5.9112 3.56095 4.09141 5.51868 3.49023C5.33681 3.27828 5.32261 2.96209 5.5011 2.73633L5.50208 2.73438C5.70729 2.48225 6.07796 2.43973 6.33215 2.64062V2.6416L7.29114 3.40234L7.28821 3.4043C7.29638 3.41028 7.30322 3.41547 7.30872 3.4209L7.30969 3.41992C7.31292 3.4225 7.31541 3.42607 7.31848 3.42871C7.32002 3.43044 7.32222 3.43124 7.32336 3.43262C7.32558 3.43528 7.32805 3.43794 7.32922 3.43945L7.3302 3.44141H7.33118L7.36047 3.46973C7.375 3.4868 7.38684 3.50439 7.39758 3.52051H7.39661L7.44543 3.59277L7.45129 3.60254L7.47668 3.67188L7.48547 3.70605L7.4884 3.71484L7.49036 3.72363C7.49036 3.72363 7.49079 3.72475 7.49133 3.72656C7.492 3.72879 7.49264 3.73145 7.49426 3.73633C7.49722 3.7452 7.50363 3.76372 7.50793 3.78516H7.505C7.50693 3.79337 7.51118 3.80041 7.51184 3.80762V3.83301C7.5133 3.84077 7.51572 3.85289 7.51575 3.86719C7.51575 3.89839 7.50902 3.92402 7.505 3.93848C7.504 3.94208 7.50281 3.94574 7.50208 3.94824C7.50132 3.95082 7.5006 3.95243 7.50012 3.9541L7.47668 4.06055C7.46395 4.09864 7.44494 4.13401 7.42297 4.16797Z" fill="#666666" stroke="#666666" stroke-width="0.3"/>
<path d="M19.2628 13.2959C19.5877 13.2959 19.8536 13.5619 19.8536 13.8867V13.9307C19.8535 16.0802 18.4249 17.899 16.4669 18.5C16.6489 18.7113 16.6634 19.026 16.4865 19.252L16.4874 19.2529C16.3729 19.4035 16.1946 19.4795 16.0245 19.4795C15.8967 19.4794 15.7664 19.4379 15.6583 19.3486V19.3496L14.6993 18.5889L14.7013 18.5859C14.6856 18.5742 14.6728 18.5654 14.6671 18.5586C14.665 18.556 14.6634 18.5533 14.6622 18.5518L14.6603 18.5498V18.5488L14.6691 18.5596L14.5929 18.4658L14.5734 18.4365C14.5663 18.4264 14.5548 18.4108 14.545 18.3945L14.5392 18.3838L14.5343 18.373C14.526 18.3523 14.5209 18.3316 14.5177 18.3193C14.5139 18.3047 14.5123 18.2972 14.5099 18.29L14.5079 18.2832C14.5048 18.2723 14.4983 18.2546 14.4933 18.2324L14.4865 18.1758C14.487 18.1784 14.4871 18.1803 14.4865 18.1777C14.4861 18.1763 14.4849 18.1694 14.4835 18.1621L14.4796 18.1279L14.4913 18.0566L14.4972 18.042C14.5016 18.0127 14.5066 17.9819 14.5167 17.9463L14.5187 17.9395C14.5254 17.9193 14.5336 17.8998 14.5431 17.8809L14.5695 17.835C14.5697 17.8345 14.5706 17.834 14.5714 17.832C14.5721 17.8303 14.573 17.8264 14.5743 17.8232C14.5771 17.8169 14.5823 17.8063 14.589 17.7949C14.594 17.7864 14.6023 17.7774 14.6115 17.7666H14.6095L15.3702 16.8066L15.4562 16.7207C15.6679 16.5468 15.979 16.5363 16.2013 16.7119C16.3757 16.8498 16.4467 17.0673 16.4103 17.2725C17.7334 16.738 18.6728 15.4443 18.673 13.9307V13.8867C18.673 13.562 18.9382 13.2961 19.2628 13.2959Z" fill="#666666" stroke="#666666" stroke-width="0.3"/>
</g>
<defs>
<clipPath id="clip0_5673_170183">
<rect width="22" height="22" fill="white"/>
</clipPath>
</defs>
</svg>
