<svg width="40" height="40" viewBox="0 0 40 40" fill="none" xmlns="http://www.w3.org/2000/svg">
<path d="M26.375 35.3281V31.9948C26.375 30.2267 25.6902 28.531 24.4712 27.2807C23.2522 26.0305 21.5989 25.3281 19.875 25.3281H10.125C8.40109 25.3281 6.74779 26.0305 5.52881 27.2807C4.30982 28.531 3.625 30.2267 3.625 31.9948V35.3281" stroke="#04C18F" stroke-opacity="0.5" stroke-width="3.57868" stroke-linecap="round" stroke-linejoin="round"/>
<path d="M15 18.6634C18.5899 18.6634 21.5 15.6786 21.5 11.9967C21.5 8.31485 18.5899 5.33008 15 5.33008C11.4101 5.33008 8.5 8.31485 8.5 11.9967C8.5 15.6786 11.4101 18.6634 15 18.6634Z" stroke="#04C18F" stroke-opacity="0.5" stroke-width="3.57868" stroke-linecap="round" stroke-linejoin="round"/>
<path d="M36.125 35.3302V31.9969C36.1239 30.5198 35.6446 29.0848 34.7622 27.9174C33.8799 26.75 32.6445 25.9162 31.25 25.5469" stroke="#04C18F" stroke-opacity="0.5" stroke-width="3.57868" stroke-linecap="round" stroke-linejoin="round"/>
<path d="M26.375 5.54688C27.7732 5.91404 29.0124 6.74804 29.8974 7.91739C30.7824 9.08674 31.2627 10.5249 31.2627 12.0052C31.2627 13.4855 30.7824 14.9237 29.8974 16.093C29.0124 17.2624 27.7732 18.0964 26.375 18.4635" stroke="#04C18F" stroke-opacity="0.5" stroke-width="3.57868" stroke-linecap="round" stroke-linejoin="round"/>
</svg>
