<svg width="26" height="26" viewBox="0 0 26 26" fill="none" xmlns="http://www.w3.org/2000/svg">
<path fill-rule="evenodd" clip-rule="evenodd" d="M12.9896 0C13.2299 0 13.4604 0.0954797 13.6304 0.265434C13.8004 0.435389 13.8958 0.665898 13.8958 0.90625V2.11458C13.8958 2.35494 13.8004 2.58544 13.6304 2.7554C13.4604 2.92535 13.2299 3.02083 12.9896 3.02083C12.7492 3.02083 12.5187 2.92535 12.3488 2.7554C12.1788 2.58544 12.0833 2.35494 12.0833 2.11458V0.90625C12.0833 0.665898 12.1788 0.435389 12.3488 0.265434C12.5187 0.0954797 12.7492 0 12.9896 0ZM3.80504 3.80504C3.97496 3.63533 4.2053 3.54001 4.44546 3.54001C4.68561 3.54001 4.91595 3.63533 5.08587 3.80504L5.56075 4.27871C5.72591 4.44955 5.81737 4.67843 5.81541 4.91605C5.81346 5.15366 5.71826 5.38101 5.55031 5.54912C5.38237 5.71722 5.15511 5.81264 4.91749 5.81481C4.67988 5.81699 4.45091 5.72575 4.27992 5.56075L3.80504 5.08587C3.63533 4.91595 3.54001 4.68561 3.54001 4.44546C3.54001 4.2053 3.63533 3.97496 3.80504 3.80504ZM22.1741 3.80504C22.3438 3.97496 22.4392 4.2053 22.4392 4.44546C22.4392 4.68561 22.3438 4.91595 22.1741 5.08587L21.6992 5.56075C21.5275 5.72083 21.3002 5.80798 21.0655 5.80384C20.8307 5.79969 20.6067 5.70458 20.4406 5.53854C20.2746 5.3725 20.1795 5.14849 20.1753 4.91371C20.1712 4.67893 20.2583 4.45171 20.4184 4.27992L20.8933 3.80504C21.0632 3.63533 21.2935 3.54001 21.5337 3.54001C21.7739 3.54001 22.0042 3.63533 22.1741 3.80504ZM12.9896 6.64583C11.3071 6.64583 9.69356 7.31419 8.50387 8.50387C7.31419 9.69356 6.64583 11.3071 6.64583 12.9896C6.64583 14.672 7.31419 16.2856 8.50387 17.4753C9.69356 18.665 11.3071 19.3333 12.9896 19.3333C14.672 19.3333 16.2856 18.665 17.4753 17.4753C18.665 16.2856 19.3333 14.672 19.3333 12.9896C19.3333 11.3071 18.665 9.69356 17.4753 8.50387C16.2856 7.31419 14.672 6.64583 12.9896 6.64583ZM4.83333 12.9896C4.83333 10.8264 5.69265 8.75184 7.22224 7.22224C8.75184 5.69265 10.8264 4.83333 12.9896 4.83333C15.1528 4.83333 17.2273 5.69265 18.7569 7.22224C20.2865 8.75184 21.1458 10.8264 21.1458 12.9896C21.1458 15.1528 20.2865 17.2273 18.7569 18.7569C17.2273 20.2865 15.1528 21.1458 12.9896 21.1458C10.8264 21.1458 8.75184 20.2865 7.22224 18.7569C5.69265 17.2273 4.83333 15.1528 4.83333 12.9896ZM0 12.9896C0 12.7492 0.0954797 12.5187 0.265434 12.3488C0.435389 12.1788 0.665898 12.0833 0.90625 12.0833H2.11458C2.35494 12.0833 2.58544 12.1788 2.7554 12.3488C2.92535 12.5187 3.02083 12.7492 3.02083 12.9896C3.02083 13.2299 2.92535 13.4604 2.7554 13.6304C2.58544 13.8004 2.35494 13.8958 2.11458 13.8958H0.90625C0.665898 13.8958 0.435389 13.8004 0.265434 13.6304C0.0954797 13.4604 0 13.2299 0 12.9896ZM22.9583 12.9896C22.9583 12.7492 23.0538 12.5187 23.2238 12.3488C23.3937 12.1788 23.6242 12.0833 23.8646 12.0833H25.0729C25.3133 12.0833 25.5438 12.1788 25.7137 12.3488C25.8837 12.5187 25.9792 12.7492 25.9792 12.9896C25.9792 13.2299 25.8837 13.4604 25.7137 13.6304C25.5438 13.8004 25.3133 13.8958 25.0729 13.8958H23.8646C23.6242 13.8958 23.3937 13.8004 23.2238 13.6304C23.0538 13.4604 22.9583 13.2299 22.9583 12.9896ZM20.4184 20.4184C20.5883 20.2487 20.8187 20.1534 21.0588 20.1534C21.299 20.1534 21.5293 20.2487 21.6992 20.4184L22.1741 20.8933C22.2632 20.9763 22.3346 21.0763 22.3841 21.1875C22.4336 21.2986 22.4603 21.4186 22.4624 21.5403C22.4646 21.662 22.4422 21.7829 22.3966 21.8957C22.351 22.0086 22.2832 22.1111 22.1971 22.1971C22.1111 22.2832 22.0086 22.351 21.8957 22.3966C21.7829 22.4422 21.662 22.4646 21.5403 22.4624C21.4186 22.4603 21.2986 22.4336 21.1875 22.3841C21.0763 22.3346 20.9763 22.2632 20.8933 22.1741L20.4184 21.6992C20.2487 21.5293 20.1534 21.299 20.1534 21.0588C20.1534 20.8187 20.2487 20.5883 20.4184 20.4184ZM5.56075 20.4184C5.73046 20.5883 5.82579 20.8187 5.82579 21.0588C5.82579 21.299 5.73046 21.5293 5.56075 21.6992L5.08587 22.1741C5.00291 22.2632 4.90286 22.3346 4.79169 22.3841C4.68053 22.4336 4.56052 22.4603 4.43884 22.4624C4.31716 22.4646 4.19629 22.4422 4.08344 22.3966C3.9706 22.351 3.86809 22.2832 3.78204 22.1971C3.69598 22.1111 3.62814 22.0086 3.58256 21.8957C3.53698 21.7829 3.5146 21.662 3.51674 21.5403C3.51889 21.4186 3.54552 21.2986 3.59506 21.1875C3.64459 21.0763 3.716 20.9763 3.80504 20.8933L4.27871 20.4184C4.36287 20.3342 4.4628 20.2674 4.57279 20.2218C4.68278 20.1762 4.80067 20.1528 4.91973 20.1528C5.03879 20.1528 5.15668 20.1762 5.26667 20.2218C5.37666 20.2674 5.47659 20.3342 5.56075 20.4184ZM12.9896 22.9583C13.2299 22.9583 13.4604 23.0538 13.6304 23.2238C13.8004 23.3937 13.8958 23.6242 13.8958 23.8646V25.0729C13.8958 25.3133 13.8004 25.5438 13.6304 25.7137C13.4604 25.8837 13.2299 25.9792 12.9896 25.9792C12.7492 25.9792 12.5187 25.8837 12.3488 25.7137C12.1788 25.5438 12.0833 25.3133 12.0833 25.0729V23.8646C12.0833 23.6242 12.1788 23.3937 12.3488 23.2238C12.5187 23.0538 12.7492 22.9583 12.9896 22.9583Z" fill="#013E32"/>
</svg>
