<svg width="16" height="16" viewBox="0 0 16 16" fill="none" xmlns="http://www.w3.org/2000/svg">
<path d="M10.701 14.0332V12.6999C10.701 11.9926 10.4201 11.3143 9.91996 10.8143C9.41986 10.3142 8.74159 10.0332 8.03434 10.0332H4.03434C3.3271 10.0332 2.64882 10.3142 2.14872 10.8143C1.64863 11.3143 1.36768 11.9926 1.36768 12.6999V14.0332" stroke="#0A0A0A" stroke-width="1.66667" stroke-linecap="round" stroke-linejoin="round"/>
<path d="M10.6989 2.11914C11.2707 2.26739 11.7771 2.60132 12.1386 3.06852C12.5002 3.53571 12.6963 4.10973 12.6963 4.70047C12.6963 5.29121 12.5002 5.86523 12.1386 6.33243C11.7771 6.79963 11.2707 7.13356 10.6989 7.28181" stroke="#0A0A0A" stroke-width="1.66667" stroke-linecap="round" stroke-linejoin="round"/>
<path d="M14.6989 14.0344V12.7011C14.6984 12.1102 14.5018 11.5363 14.1398 11.0693C13.7778 10.6023 13.2709 10.2688 12.6989 10.1211" stroke="#0A0A0A" stroke-width="1.66667" stroke-linecap="round" stroke-linejoin="round"/>
<path d="M6.03434 7.36654C7.5071 7.36654 8.70101 6.17263 8.70101 4.69987C8.70101 3.22711 7.5071 2.0332 6.03434 2.0332C4.56158 2.0332 3.36768 3.22711 3.36768 4.69987C3.36768 6.17263 4.56158 7.36654 6.03434 7.36654Z" stroke="#0A0A0A" stroke-width="1.66667" stroke-linecap="round" stroke-linejoin="round"/>
</svg>
