<svg width="40" height="40" viewBox="0 0 40 40" fill="none" xmlns="http://www.w3.org/2000/svg">
<path d="M32.4987 6.66683H27.4987V4.16683C27.4987 3.94582 27.4109 3.73385 27.2546 3.57757C27.0983 3.42129 26.8864 3.3335 26.6654 3.3335C26.4444 3.3335 26.2324 3.42129 26.0761 3.57757C25.9198 3.73385 25.832 3.94582 25.832 4.16683V6.66683H14.1654V4.16683C14.1654 3.94582 14.0776 3.73385 13.9213 3.57757C13.765 3.42129 13.553 3.3335 13.332 3.3335C13.111 3.3335 12.8991 3.42129 12.7428 3.57757C12.5865 3.73385 12.4987 3.94582 12.4987 4.16683V6.66683H7.4987C6.39404 6.66815 5.335 7.10756 4.55388 7.88868C3.77277 8.66979 3.33335 9.72883 3.33203 10.8335V32.5002C3.33335 33.6048 3.77277 34.6639 4.55388 35.445C5.335 36.2261 6.39404 36.6655 7.4987 36.6668H32.4987C33.6038 36.6668 34.6636 36.2278 35.445 35.4464C36.2264 34.665 36.6654 33.6052 36.6654 32.5002V10.8335C36.6654 9.72843 36.2264 8.66862 35.445 7.88722C34.6636 7.10582 33.6038 6.66683 32.4987 6.66683ZM34.9987 32.5002C34.9987 33.1632 34.7353 33.7991 34.2665 34.2679C33.7976 34.7368 33.1617 35.0002 32.4987 35.0002H7.4987C6.83566 35.0002 6.19977 34.7368 5.73093 34.2679C5.26209 33.7991 4.9987 33.1632 4.9987 32.5002V18.3335H34.9987V32.5002ZM34.9987 16.6668H4.9987V10.8335C4.9987 9.4535 6.11536 8.3335 7.4987 8.3335H12.4987V10.8335C12.4987 11.0545 12.5865 11.2665 12.7428 11.4228C12.8991 11.579 13.111 11.6668 13.332 11.6668C13.553 11.6668 13.765 11.579 13.9213 11.4228C14.0776 11.2665 14.1654 11.0545 14.1654 10.8335V8.3335H25.832V10.8335C25.832 11.0545 25.9198 11.2665 26.0761 11.4228C26.2324 11.579 26.4444 11.6668 26.6654 11.6668C26.8864 11.6668 27.0983 11.579 27.2546 11.4228C27.4109 11.2665 27.4987 11.0545 27.4987 10.8335V8.3335H32.4987C33.1617 8.3335 33.7976 8.59689 34.2665 9.06573C34.7353 9.53457 34.9987 10.1705 34.9987 10.8335V16.6668Z" fill="black" fill-opacity="0.15"/>
<path d="M26.665 3.0835C26.9524 3.0835 27.2285 3.19771 27.4316 3.40088C27.6346 3.60395 27.7489 3.87938 27.749 4.1665V6.4165H32.499C33.6703 6.41659 34.7939 6.88224 35.6221 7.71045C36.4503 8.53872 36.915 9.6622 36.915 10.8335V32.5005C36.915 33.6717 36.4503 34.7953 35.6221 35.6235C34.7939 36.4517 33.6703 36.9164 32.499 36.9165H7.49805C6.32731 36.915 5.2048 36.4494 4.37695 35.6216C3.54913 34.7937 3.08344 33.6713 3.08203 32.5005V10.8335L3.08789 10.6147C3.14314 9.52347 3.60067 8.48771 4.37695 7.71143C5.20478 6.88368 6.32739 6.418 7.49805 6.4165H12.249V4.1665C12.2491 3.8793 12.3633 3.60397 12.5664 3.40088C12.7696 3.19782 13.0448 3.0835 13.332 3.0835C13.6193 3.0835 13.8945 3.19782 14.0977 3.40088C14.3007 3.60397 14.415 3.8793 14.415 4.1665V6.4165H25.582V4.1665C25.5821 3.87931 25.6963 3.60397 25.8994 3.40088C26.1025 3.19779 26.3778 3.08358 26.665 3.0835ZM5.24902 32.5005C5.24911 33.097 5.48545 33.6694 5.90723 34.0913C6.32918 34.5133 6.90229 34.7505 7.49902 34.7505H32.499C33.0956 34.7504 33.668 34.5132 34.0898 34.0913C34.5117 33.6694 34.7489 33.0971 34.749 32.5005V18.5835H5.24902V32.5005ZM7.49902 8.5835C6.25398 8.5835 5.24902 9.59135 5.24902 10.8335V16.4165H34.749V10.8335C34.749 10.2368 34.5117 9.66462 34.0898 9.24268C33.668 8.8208 33.0956 8.58358 32.499 8.5835H27.749V10.8335C27.749 11.1207 27.6346 11.396 27.4316 11.5991C27.2285 11.8023 26.9524 11.9165 26.665 11.9165C26.3778 11.9164 26.1025 11.8022 25.8994 11.5991C25.6963 11.396 25.582 11.1207 25.582 10.8335V8.5835H14.415V10.8335C14.415 11.1208 14.3008 11.396 14.0977 11.5991C13.8945 11.8023 13.6193 11.9165 13.332 11.9165C13.0447 11.9165 12.7696 11.8023 12.5664 11.5991C12.3632 11.396 12.249 11.1208 12.249 10.8335V8.5835H7.49902Z" stroke="black" stroke-opacity="0.15" stroke-width="0.5"/>
</svg>
