<svg width="24" height="24" viewBox="0 0 24 24" fill="none" xmlns="http://www.w3.org/2000/svg">
<g clip-path="url(#clip0_7366_2328)">
<g clip-path="url(#clip1_7366_2328)">
<path d="M22.0858 14.6719C21.3883 13.9781 20.9973 13.0341 21.0001 12.0496V8.99997C21.0001 5.78445 19.2845 2.81349 16.5001 1.20549C13.7157 -0.402318 10.2846 -0.402318 7.50014 1.20549C4.71566 2.8133 3.00014 5.78421 3.00014 8.99997V12.0496C3.00295 13.034 2.61201 13.9781 1.91452 14.6719C1.02107 15.5644 0.754842 16.9069 1.23765 18.0732C1.72046 19.2394 2.85859 19.9997 4.12149 19.9997H7.09989C7.40834 21.5185 8.40395 22.8084 9.79437 23.492C11.1856 24.1763 12.815 24.1763 14.2063 23.492C15.5966 22.8085 16.5922 21.5185 16.9008 19.9997H19.8811H19.8802C21.143 19.9997 22.2811 19.2394 22.764 18.0732C23.2477 16.9069 22.9806 15.5644 22.0871 14.6719H22.0858ZM12.0002 22.0003C10.7337 21.9947 9.60679 21.194 9.18407 19.9997H14.8166C14.3938 21.1941 13.2667 21.9947 12.0002 22.0003ZM19.879 18H4.12151C3.66777 18 3.259 17.7272 3.08464 17.3081C2.9112 16.889 3.00777 16.4062 3.32839 16.0856C4.40183 15.0178 5.00371 13.5646 4.99994 12.0497V9.00007C4.99994 6.49879 6.334 4.18783 8.50058 2.93815C10.6662 1.68753 13.3344 1.68753 15.4999 2.93815C17.6665 4.18783 19.0006 6.49879 19.0006 9.00007V12.0497C18.9968 13.5647 19.5987 15.0178 20.6721 16.0856C20.9927 16.4062 21.0893 16.889 20.9159 17.3081C20.7415 17.7272 20.3327 18 19.879 18Z" fill="#013E32"/>
</g>
</g>
<defs>
<clipPath id="clip0_7366_2328">
<rect width="24" height="24" fill="white"/>
</clipPath>
<clipPath id="clip1_7366_2328">
<rect width="24" height="24" fill="white"/>
</clipPath>
</defs>
</svg>
