<svg width="20" height="20" viewBox="0 0 20 20" fill="none" xmlns="http://www.w3.org/2000/svg">
<path d="M12.4999 14.1667V15C12.4999 15.663 12.2365 16.2989 11.7677 16.7678C11.2988 17.2366 10.663 17.5 9.99992 17.5C9.33688 17.5 8.70099 17.2366 8.23215 16.7678C7.76331 16.2989 7.49992 15.663 7.49992 15V14.1667M12.4999 14.1667H7.49992M12.4999 14.1667H15.4916C15.8108 14.1667 15.9708 14.1667 16.0999 14.1233C16.2214 14.0822 16.3318 14.0136 16.4224 13.9228C16.513 13.832 16.5815 13.7216 16.6224 13.6C16.6666 13.47 16.6666 13.31 16.6666 12.9883C16.6666 12.8475 16.6666 12.7775 16.6549 12.71C16.6343 12.5838 16.585 12.4641 16.5108 12.36C16.4708 12.3042 16.4208 12.2542 16.3216 12.155L15.9966 11.83C15.9448 11.7781 15.9036 11.7165 15.8756 11.6487C15.8476 11.581 15.8332 11.5083 15.8333 11.435V8.33333C15.8333 7.56729 15.6824 6.80875 15.3892 6.10101C15.0961 5.39328 14.6664 4.75022 14.1247 4.20854C13.583 3.66687 12.94 3.23719 12.2322 2.94404C11.5245 2.65088 10.766 2.5 9.99992 2.5C9.23387 2.5 8.47533 2.65088 7.7676 2.94404C7.05987 3.23719 6.4168 3.66687 5.87513 4.20854C5.33345 4.75022 4.90377 5.39328 4.61062 6.10101C4.31747 6.80875 4.16659 7.56729 4.16659 8.33333V11.435C4.16664 11.5083 4.15224 11.581 4.12421 11.6487C4.09619 11.7165 4.05509 11.7781 4.00325 11.83L3.67825 12.155C3.57825 12.255 3.52909 12.3042 3.48992 12.3592C3.41494 12.4633 3.36503 12.5834 3.34409 12.71C3.33325 12.7767 3.33325 12.8475 3.33325 12.9883C3.33325 13.31 3.33325 13.47 3.37659 13.6C3.4177 13.7217 3.4864 13.8323 3.57733 13.9231C3.66826 14.0139 3.77895 14.0824 3.90075 14.1233C4.02992 14.1667 4.18909 14.1667 4.50825 14.1667H7.49992" stroke="black" stroke-width="1.5" stroke-linecap="round" stroke-linejoin="round"/>
</svg>
