<svg width="20" height="20" viewBox="0 0 20 20" fill="none" xmlns="http://www.w3.org/2000/svg">
<path d="M8.40713 18.0691L7.22588 18.9035C6.99775 19.066 6.69775 19.0848 6.44775 18.9566C6.19775 18.8285 6.0415 18.5723 6.0415 18.291V16.041H5.0415C3.38525 16.041 2.0415 14.6973 2.0415 13.041V6.04102C2.0415 4.38477 3.38525 3.04102 5.0415 3.04102H15.0415C16.6978 3.04102 18.0415 4.38477 18.0415 6.04102V13.041C18.0415 14.6973 16.6978 16.041 15.0415 16.041H11.279L8.40713 18.0691ZM10.4165 14.816C10.6696 14.6379 10.9728 14.541 11.2821 14.541H15.0415C15.8696 14.541 16.5415 13.8691 16.5415 13.041V6.04102C16.5415 5.21289 15.8696 4.54102 15.0415 4.54102H5.0415C4.21338 4.54102 3.5415 5.21289 3.5415 6.04102V13.041C3.5415 13.8691 4.21338 14.541 5.0415 14.541H6.7915C7.1165 14.541 7.39463 14.7473 7.49775 15.0379C7.52588 15.116 7.5415 15.2004 7.5415 15.291V16.8441C8.56338 16.1223 9.51963 15.4473 10.4134 14.816H10.4165Z" fill="#C10007"/>
</svg>
