<svg width="20" height="20" viewBox="0 0 20 20" fill="none" xmlns="http://www.w3.org/2000/svg">
<g clip-path="url(#clip0_7364_94219)">
<path d="M13.3762 17.541V15.8743C13.3762 14.9903 13.025 14.1424 12.3999 13.5173C11.7748 12.8922 10.9269 12.541 10.0429 12.541H5.04287C4.15881 12.541 3.31097 12.8922 2.68584 13.5173C2.06072 14.1424 1.70953 14.9903 1.70953 15.8743V17.541" stroke="#1447E6" stroke-width="1.66667" stroke-linecap="round" stroke-linejoin="round"/>
<path d="M13.3736 2.64844C14.0884 2.83375 14.7214 3.25116 15.1733 3.83516C15.6252 4.41915 15.8704 5.13668 15.8704 5.8751C15.8704 6.61353 15.6252 7.33105 15.1733 7.91505C14.7214 8.49905 14.0884 8.91646 13.3736 9.10177" stroke="#1447E6" stroke-width="1.66667" stroke-linecap="round" stroke-linejoin="round"/>
<path d="M18.3736 17.5421V15.8754C18.373 15.1368 18.1272 14.4194 17.6747 13.8357C17.2222 13.2519 16.5887 12.835 15.8736 12.6504" stroke="#1447E6" stroke-width="1.66667" stroke-linecap="round" stroke-linejoin="round"/>
<path d="M7.54287 9.20768C9.38382 9.20768 10.8762 7.7153 10.8762 5.87435C10.8762 4.0334 9.38382 2.54102 7.54287 2.54102C5.70192 2.54102 4.20953 4.0334 4.20953 5.87435C4.20953 7.7153 5.70192 9.20768 7.54287 9.20768Z" stroke="#1447E6" stroke-width="1.66667" stroke-linecap="round" stroke-linejoin="round"/>
</g>
<defs>
<clipPath id="clip0_7364_94219">
<rect width="20" height="20" fill="white"/>
</clipPath>
</defs>
</svg>
