<svg width="15" height="15" viewBox="0 0 15 15" fill="none" xmlns="http://www.w3.org/2000/svg">
<path d="M9.33317 3.25317L8.6665 5.99984H12.5532C12.7602 5.99984 12.9643 6.04803 13.1495 6.1406C13.3346 6.23317 13.4956 6.36758 13.6198 6.53317C13.744 6.69877 13.828 6.891 13.865 7.09466C13.902 7.29831 13.8911 7.50779 13.8332 7.7065L12.2798 13.0398C12.1991 13.3168 12.0306 13.5601 11.7998 13.7332C11.569 13.9063 11.2883 13.9998 10.9998 13.9998H1.99984C1.64622 13.9998 1.30708 13.8594 1.05703 13.6093C0.80698 13.3593 0.666504 13.0201 0.666504 12.6665V7.33317C0.666504 6.97955 0.80698 6.64041 1.05703 6.39036C1.30708 6.14031 1.64622 5.99984 1.99984 5.99984H3.83984C4.08789 5.99971 4.33099 5.93038 4.54181 5.79965C4.75262 5.66892 4.92279 5.48198 5.03317 5.25984L7.33317 0.666504C7.64756 0.670397 7.957 0.745283 8.23837 0.885568C8.51975 1.02585 8.76579 1.22791 8.95811 1.47664C9.15042 1.72537 9.28405 2.01434 9.349 2.32197C9.41394 2.6296 9.40853 2.94793 9.33317 3.25317Z" stroke="white" stroke-width="1.33333" stroke-linecap="round" stroke-linejoin="round"/>
</svg>
