<svg width="14" height="14" viewBox="0 0 14 14" fill="none" xmlns="http://www.w3.org/2000/svg">
<path d="M10.8549 7.43741V12.0627C10.8562 12.2388 10.8223 12.4135 10.7552 12.5763C10.6881 12.7392 10.5892 12.8871 10.4643 13.0113C10.3393 13.1355 10.1908 13.2335 10.0275 13.2996C9.86424 13.3657 9.6894 13.3985 9.51325 13.3962H2.94667C2.76988 13.3984 2.59442 13.3653 2.43064 13.2987C2.26687 13.232 2.1181 13.1333 1.9931 13.0082C1.86811 12.8832 1.76942 12.7344 1.70287 12.5706C1.63631 12.4068 1.60323 12.2313 1.60559 12.0545V5.48791C1.60347 5.31113 1.63673 5.13572 1.70341 4.97199C1.77009 4.80825 1.86883 4.65951 1.99384 4.5345C2.11885 4.40949 2.2676 4.31074 2.43133 4.24407C2.59506 4.17739 2.77048 4.14413 2.94725 4.14624H7.57192M12.3967 2.60449L6.23025 8.77091M12.3967 2.60449H9.31317M12.3967 2.60449V5.68799" stroke="black" stroke-width="1.2" stroke-linecap="round" stroke-linejoin="round"/>
</svg>
