<svg width="20" height="20" viewBox="0 0 20 20" fill="none" xmlns="http://www.w3.org/2000/svg">
<path d="M7.24318 9.37483V6.24983C7.24318 6.06316 7.30873 5.90428 7.43984 5.77316C7.5704 5.64205 7.72929 5.5765 7.91651 5.5765C8.10373 5.5765 8.26262 5.64205 8.39318 5.77316C8.52429 5.90428 8.58984 6.06316 8.58984 6.24983V9.37483C8.58984 9.56205 8.52429 9.72094 8.39318 9.8515C8.26207 9.98261 8.10318 10.0482 7.91651 10.0482C7.72984 10.0482 7.57096 9.98261 7.43984 9.8515C7.30873 9.72039 7.24318 9.5615 7.24318 9.37483ZM10.8657 10.4532V2.9165C10.8657 2.72983 10.931 2.57094 11.0615 2.43983C11.1926 2.30872 11.3515 2.24316 11.5382 2.24316C11.7254 2.24316 11.8843 2.30872 12.0148 2.43983C12.146 2.57094 12.2115 2.72983 12.2115 2.9165V10.4532C12.2115 10.6776 12.1426 10.8459 12.0048 10.9582C11.8665 11.0704 11.7118 11.1265 11.5407 11.1265C11.3696 11.1265 11.214 11.0704 11.074 10.9582C10.934 10.8459 10.8646 10.6776 10.8657 10.4532ZM3.58984 12.2382V9.58316C3.58984 9.3965 3.65512 9.23761 3.78568 9.1065C3.91679 8.97539 4.07595 8.90983 4.26318 8.90983C4.4504 8.90983 4.60929 8.97539 4.73984 9.1065C4.8704 9.23761 4.93568 9.3965 4.93568 9.58316V12.239C4.93568 12.4634 4.86679 12.6315 4.72901 12.7432C4.59123 12.8554 4.43651 12.9115 4.26484 12.9115C4.09373 12.9115 3.93818 12.8554 3.79818 12.7432C3.65929 12.6315 3.58984 12.4634 3.58984 12.239M4.49401 17.1248C4.3079 17.1248 4.17929 17.0401 4.10818 16.8707C4.03707 16.7018 4.06929 16.5493 4.20484 16.4132L7.46151 13.1573C7.58207 13.0362 7.73068 12.9687 7.90734 12.9548C8.08401 12.9409 8.24095 12.9946 8.37818 13.1157L10.8657 15.2532L16.4932 9.62483H14.9998C14.8815 9.62483 14.7826 9.58483 14.7032 9.50483C14.6237 9.42483 14.5837 9.32566 14.5832 9.20733C14.5826 9.089 14.6226 8.99011 14.7032 8.91066C14.7837 8.83122 14.8826 8.7915 14.9998 8.7915H17.2432C17.4343 8.7915 17.5943 8.85594 17.7232 8.98483C17.8521 9.11372 17.9165 9.27372 17.9165 9.46483V11.7082C17.9165 11.8265 17.8765 11.9254 17.7965 12.0048C17.7165 12.0843 17.6173 12.1243 17.499 12.1248C17.3807 12.1254 17.2818 12.0854 17.2023 12.0048C17.1229 11.9243 17.0832 11.8254 17.0832 11.7082V10.2148L11.3298 15.9682C11.2093 16.0887 11.0607 16.1559 10.884 16.1698C10.7073 16.1837 10.5504 16.1301 10.4132 16.009L7.92568 13.8715L4.79484 17.0032C4.75929 17.0365 4.71457 17.0651 4.66068 17.089C4.60679 17.1129 4.55123 17.1248 4.49401 17.1248Z" fill="white"/>
</svg>
