<svg width="16" height="17" viewBox="0 0 16 17" fill="none" xmlns="http://www.w3.org/2000/svg">
<path d="M9.26244 14.9511C8.19094 16.0226 6.9106 16.5652 5.42144 16.5789C3.93133 16.5925 2.65264 16.0657 1.58538 14.9985C0.519538 13.9326 -0.00914256 12.6521 -0.000657218 11.1568C0.00782821 9.66146 0.548058 8.37877 1.62003 7.30868L7.79307 1.13564C8.54119 0.387523 9.4345 0.00898508 10.473 2.79066e-05C11.5106 -0.00892864 12.4034 0.360652 13.1515 1.10877C13.8996 1.85689 14.2692 2.74973 14.2603 3.78729C14.2504 4.82485 13.8714 5.71769 13.1232 6.46581L7.27618 12.3129C6.86134 12.7277 6.35906 12.9406 5.76933 12.9514C5.17961 12.9622 4.67638 12.7593 4.25966 12.3426C3.84294 11.9259 3.63246 11.4198 3.62821 10.8244C3.62397 10.229 3.83398 9.71921 4.25825 9.29495L9.77934 3.77386C9.87928 3.67392 9.99713 3.62395 10.1329 3.62395C10.2687 3.62395 10.3865 3.67392 10.4864 3.77386C10.5864 3.87379 10.6363 3.99165 10.6363 4.12741C10.6364 4.26317 10.5864 4.38102 10.4864 4.48096L4.96535 10.0021C4.73955 10.2279 4.62429 10.4973 4.61958 10.8103C4.61486 11.1233 4.72541 11.3932 4.95121 11.6199C5.17701 11.8467 5.44689 11.9572 5.76085 11.9515C6.0748 11.9459 6.34445 11.8309 6.56978 11.6065L12.431 5.74527C12.9773 5.19326 13.2543 4.53824 13.2618 3.78022C13.2694 3.0222 12.9969 2.36742 12.4444 1.81588C11.8962 1.26763 11.2393 0.997755 10.4737 1.00624C9.70815 1.01473 9.05054 1.2938 8.50089 1.84346L2.32785 8.0165C1.45103 8.88765 1.00886 9.93417 1.00131 11.1561C0.993771 12.3779 1.42605 13.4249 2.29815 14.297C3.15752 15.1564 4.19579 15.5795 5.41295 15.5663C6.63012 15.5531 7.67758 15.1123 8.55534 14.244L14.4024 8.39692C14.5023 8.29698 14.6202 8.24701 14.756 8.24701C14.8917 8.24701 15.0098 8.29722 15.1102 8.39763C15.2106 8.49804 15.2606 8.61589 15.2601 8.75118C15.2597 8.88647 15.2094 9.00409 15.1095 9.10403L9.26244 14.9511Z" fill="black"/>
</svg>
