<svg width="18" height="18" viewBox="0 0 18 18" fill="none" xmlns="http://www.w3.org/2000/svg">
<path d="M16.1652 9.35648C15.9396 9.35648 15.7232 9.26685 15.5637 9.10732C15.4042 8.94778 15.3145 8.7314 15.3145 8.50578C15.3152 7.00817 14.8215 5.55221 13.9101 4.36384C12.9987 3.17548 11.7206 2.32114 10.274 1.93342C8.82747 1.54571 7.29339 1.64628 5.90983 2.21953C4.52627 2.79279 3.37061 3.80667 2.62217 5.10386C2.50913 5.29913 2.32316 5.4415 2.10515 5.49965C1.88714 5.5578 1.65497 5.52697 1.45969 5.41394C1.26442 5.3009 1.12205 5.11492 1.0639 4.89692C1.00575 4.67891 1.03658 4.44673 1.14962 4.25146C2.0856 2.63024 3.53044 1.36322 5.26001 0.646974C6.98958 -0.069276 8.90718 -0.194718 10.7153 0.290108C12.5235 0.774935 14.121 1.84293 15.2603 3.3284C16.3995 4.81387 17.0166 6.63378 17.0159 8.50578C17.0159 8.7314 16.9263 8.94778 16.7668 9.10732C16.6072 9.26685 16.3908 9.35648 16.1652 9.35648ZM15.2082 17.0127C14.9826 17.0127 14.7662 16.9231 14.6067 16.7636C14.4471 16.604 14.3575 16.3877 14.3575 16.162V13.1846H11.3801C11.1544 13.1846 10.9381 13.095 10.7785 12.9354C10.619 12.7759 10.5294 12.5595 10.5294 12.3339C10.5294 12.1083 10.619 11.8919 10.7785 11.7324C10.9381 11.5728 11.1544 11.4832 11.3801 11.4832H15.2082C15.4338 11.4832 15.6502 11.5728 15.8097 11.7324C15.9693 11.8919 16.0589 12.1083 16.0589 12.3339V16.162C16.0589 16.3877 15.9693 16.604 15.8097 16.7636C15.6502 16.9231 15.4338 17.0127 15.2082 17.0127Z" fill="black"/>
<path d="M8.50694 17.0129C6.25145 17.0107 4.08899 16.1137 2.49411 14.5188C0.89924 12.9239 0.00225211 10.7615 0 8.50597C0 8.28035 0.0896264 8.06397 0.249163 7.90444C0.408699 7.7449 0.625076 7.65527 0.850694 7.65527C1.07631 7.65527 1.29269 7.7449 1.45223 7.90444C1.61176 8.06397 1.70139 8.28035 1.70139 8.50597C1.70074 10.0036 2.19442 11.4595 3.10581 12.6479C4.01719 13.8363 5.29534 14.6906 6.74189 15.0783C8.18845 15.466 9.72253 15.3655 11.1061 14.7922C12.4896 14.219 13.6453 13.2051 14.3937 11.9079C14.4497 11.8112 14.5242 11.7265 14.6129 11.6586C14.7016 11.5907 14.8028 11.5409 14.9108 11.5121C15.0187 11.4833 15.1313 11.4761 15.242 11.4908C15.3528 11.5055 15.4595 11.5418 15.5562 11.5978C15.6529 11.6538 15.7376 11.7283 15.8055 11.817C15.8735 11.9057 15.9232 12.0069 15.952 12.1148C15.9808 12.2228 15.9881 12.3353 15.9734 12.4461C15.9586 12.5568 15.9223 12.6636 15.8663 12.7603C15.1183 14.0505 14.0451 15.122 12.7538 15.8682C11.4626 16.6144 9.99829 17.009 8.50694 17.0129Z" fill="black"/>
</svg>
