<svg width="28" height="29" viewBox="0 0 28 29" fill="none" xmlns="http://www.w3.org/2000/svg">
<path d="M5.73035 0.315186C5.8485 0.248168 6.39223 -0.0119577 7.3739 0.155029C8.35388 0.321835 9.7639 0.913292 11.621 2.53491H11.62C11.6346 2.54719 11.6494 2.56148 11.662 2.57397C11.6669 2.57792 11.7961 2.70017 12.0927 2.823C12.3905 2.94633 12.8605 3.07202 13.5438 3.07202C14.2272 3.07201 14.6971 2.94671 14.996 2.82202C15.1455 2.75964 15.253 2.69733 15.3231 2.65015C15.3582 2.62654 15.3841 2.60657 15.4012 2.59253C15.4185 2.57839 15.4266 2.57007 15.4266 2.57007C15.4323 2.56328 15.4371 2.55672 15.4413 2.55249C15.4466 2.54717 15.4555 2.54015 15.4647 2.53296L15.8075 2.24097C17.498 0.842544 18.7957 0.314792 19.7147 0.158936C20.6957 -0.00738573 21.2381 0.251958 21.3573 0.319092C21.669 0.4941 21.7974 0.871738 21.6581 1.20093L19.0204 7.42163C19.881 7.80231 20.4862 8.67433 20.4862 9.68726V10.2185C20.4861 10.9248 20.1922 11.5564 19.7264 12.0066L24.8827 19.5662L24.8876 19.5652L24.9354 19.6287C25.0545 19.7848 25.7995 20.7826 26.3593 22.0632C26.9168 23.339 27.3037 24.9259 26.661 26.24V26.241C25.917 27.7532 24.0501 28.4949 21.1864 28.4949H5.91003C3.04411 28.4949 1.17599 27.7564 0.435425 26.24C-0.208934 24.926 0.177391 23.3389 0.735229 22.0632C1.2905 20.7934 2.02881 19.8017 2.15808 19.6326L7.36121 12.0027C6.89585 11.5515 6.60243 10.9197 6.60242 10.2146V9.68335C6.60255 8.6706 7.20727 7.80038 8.06726 7.41772L5.43054 1.198L5.3905 1.07397C5.32488 0.779905 5.45809 0.468335 5.73035 0.315186ZM18.4696 12.6531C18.334 12.6768 18.1933 12.6941 18.0507 12.6941H9.03015C8.88877 12.6941 8.74597 12.6783 8.60828 12.6531L3.30164 20.4382C3.29594 20.4479 3.29069 20.456 3.28699 20.4607C3.28583 20.4622 3.28484 20.4636 3.28406 20.4646L3.2782 20.4734L3.19812 20.4128L3.27722 20.4734C2.92648 20.9271 2.3356 21.8342 1.93054 22.824C1.72814 23.3186 1.57357 23.8309 1.51746 24.3152C1.46138 24.7997 1.50403 25.2501 1.68933 25.6277C1.98006 26.2211 2.61711 26.5912 3.4032 26.8123C4.18655 27.0325 5.09766 27.0984 5.90515 27.0984H21.1805C21.9881 27.0984 22.8999 27.0325 23.6835 26.8123C24.4206 26.6051 25.0259 26.2665 25.3378 25.7361L25.3905 25.6277C25.5758 25.2507 25.6194 24.8005 25.5634 24.3162C25.5073 23.8321 25.3527 23.3197 25.1503 22.825C24.7454 21.8353 24.1539 20.9283 23.8026 20.4734L23.7968 20.4656V20.4646C23.7952 20.4622 23.7922 20.4569 23.788 20.4509C23.7859 20.448 23.7835 20.4451 23.7821 20.4431C23.7815 20.4423 23.7805 20.4416 23.7802 20.4412V20.4402L23.7782 20.4382L18.4696 12.6531ZM9.03601 8.60815C8.47004 8.60815 8.00183 9.08901 8.00183 9.6853V9.78491H7.99792V10.2156C7.99792 10.8119 8.46407 11.2925 9.0321 11.2927H18.0536C18.6195 11.2926 19.0878 10.8118 19.0878 10.2156V9.6853C19.0878 9.08913 18.6184 8.60824 18.0536 8.60815H9.03601ZM19.9979 1.5271C19.3262 1.62971 18.1425 2.05766 16.3993 3.57104L16.3983 3.57007C16.1981 3.76412 15.3465 4.4646 13.5438 4.4646C11.7269 4.46457 10.8778 3.75401 10.6844 3.56714L10.6659 3.54858C8.94047 2.05466 7.76405 1.62989 7.09167 1.53003L9.49695 7.20874H10.4354L9.69031 5.45093C9.5404 5.09504 9.70346 4.68473 10.0604 4.53394C10.4143 4.38362 10.8278 4.54766 10.9784 4.90503L11.954 7.20679H12.8436V6.02905C12.8436 5.64341 13.1582 5.32894 13.5438 5.32886C13.9295 5.32886 14.244 5.64334 14.244 6.02905V7.20679H15.1337L16.1093 4.90503C16.2599 4.54763 16.6711 4.38385 17.0272 4.53394C17.3843 4.6846 17.5481 5.09501 17.3983 5.45093H17.3973L16.6522 7.20874H17.5907L19.9979 1.5271Z" fill="#00FFBC" stroke="#00FFBC" stroke-width="0.2"/>
<path d="M13.5428 14.2834C13.9284 14.2834 14.2428 14.5971 14.243 14.9827V16.2561H15.7391C16.1248 16.2561 16.4392 16.5707 16.4393 16.9563C16.4393 17.342 16.1248 17.6565 15.7391 17.6565H12.7782C12.3742 17.6565 12.047 17.983 12.0468 18.387C12.0468 18.7911 12.3741 19.1184 12.7782 19.1184H14.3329C15.498 19.1344 16.4393 20.0749 16.4393 21.2493C16.4392 22.4234 15.4827 23.38 14.3085 23.3801H14.243V24.6536C14.2429 25.0391 13.9285 25.3538 13.5428 25.3538C13.1573 25.3537 12.8428 25.0391 12.8427 24.6536V23.3801H11.3466C10.9611 23.3799 10.6474 23.0655 10.6473 22.6799C10.6473 22.2944 10.961 21.9799 11.3466 21.9797H14.3085C14.7124 21.9796 15.0388 21.6532 15.0389 21.2493C15.0389 20.8452 14.7125 20.5179 14.3085 20.5178H12.7782C11.6039 20.5178 10.6473 19.5613 10.6473 18.387C10.6475 17.2128 11.6039 16.2561 12.7782 16.2561H12.8427V14.9827C12.8429 14.5972 13.1574 14.2835 13.5428 14.2834Z" fill="#00FFBC" stroke="#00FFBC" stroke-width="0.2"/>
</svg>
