<svg width="28" height="29" viewBox="0 0 28 29" fill="none" xmlns="http://www.w3.org/2000/svg">
<path d="M5.72949 0.0166016C5.84764 -0.0504157 6.39137 -0.310542 7.37305 -0.143555C8.35302 0.023251 9.76305 0.614708 11.6201 2.23633H11.6191C11.6337 2.24861 11.6486 2.26289 11.6611 2.27539C11.6661 2.27934 11.7952 2.40159 12.0918 2.52441C12.3897 2.64774 12.8596 2.77344 13.543 2.77344C14.2263 2.77343 14.6962 2.64813 14.9951 2.52344C15.1446 2.46106 15.2522 2.39875 15.3223 2.35156C15.3573 2.32796 15.3832 2.30799 15.4004 2.29395C15.4177 2.2798 15.4258 2.27148 15.4258 2.27148C15.4315 2.26469 15.4362 2.25814 15.4404 2.25391C15.4458 2.24858 15.4546 2.24157 15.4639 2.23438L15.8066 1.94238C17.4972 0.543961 18.7949 0.0162084 19.7139 -0.139648C20.6949 -0.30597 21.2373 -0.0466259 21.3564 0.0205078C21.6682 0.195517 21.7966 0.573154 21.6572 0.902344L19.0195 7.12305C19.8802 7.50373 20.4854 8.37574 20.4854 9.38867V9.91992C20.4852 10.6262 20.1913 11.2578 19.7256 11.708L24.8818 19.2676L24.8867 19.2666L24.9346 19.3301C25.0537 19.4862 25.7987 20.484 26.3584 21.7646C26.916 23.0404 27.3028 24.6273 26.6602 25.9414V25.9424C25.9161 27.4546 24.0492 28.1963 21.1855 28.1963H5.90918C3.04326 28.1963 1.17514 27.4578 0.43457 25.9414C-0.209788 24.6274 0.176537 23.0403 0.734375 21.7646C1.28964 20.4949 2.02796 19.5031 2.15723 19.334L7.36035 11.7041C6.895 11.2529 6.60158 10.6211 6.60156 9.91602V9.38477C6.6017 8.37202 7.20642 7.5018 8.06641 7.11914L5.42969 0.899414L5.38965 0.775391C5.32403 0.481321 5.45724 0.169751 5.72949 0.0166016ZM18.4688 12.3545C18.3332 12.3782 18.1924 12.3955 18.0498 12.3955H9.0293C8.88792 12.3955 8.74512 12.3797 8.60742 12.3545L3.30078 20.1396C3.29509 20.1493 3.28983 20.1574 3.28613 20.1621C3.28497 20.1636 3.28399 20.165 3.2832 20.166L3.27734 20.1748L3.19727 20.1143L3.27637 20.1748C2.92562 20.6285 2.33475 21.5356 1.92969 22.5254C1.72728 23.02 1.57271 23.5323 1.5166 24.0166C1.46052 24.5011 1.50317 24.9516 1.68848 25.3291C1.9792 25.9225 2.61626 26.2927 3.40234 26.5137C4.18569 26.7339 5.0968 26.7998 5.9043 26.7998H21.1797C21.9873 26.7998 22.899 26.7339 23.6826 26.5137C24.4198 26.3065 25.0251 25.9679 25.3369 25.4375L25.3896 25.3291C25.575 24.9521 25.6185 24.5019 25.5625 24.0176C25.5065 23.5335 25.3518 23.0211 25.1494 22.5264C24.7445 21.5367 24.1531 20.6297 23.8018 20.1748L23.7959 20.167V20.166C23.7943 20.1636 23.7913 20.1583 23.7871 20.1523C23.785 20.1494 23.7827 20.1465 23.7812 20.1445C23.7806 20.1437 23.7796 20.1431 23.7793 20.1426V20.1416L23.7773 20.1396L18.4688 12.3545ZM9.03516 8.30957C8.46919 8.30957 8.00098 8.79042 8.00098 9.38672V9.48633H7.99707V9.91699C7.99707 10.5133 8.46322 10.994 9.03125 10.9941H18.0527C18.6186 10.9941 19.0869 10.5132 19.0869 9.91699V9.38672C19.0869 8.79055 18.6175 8.30966 18.0527 8.30957H9.03516ZM19.9971 1.22852C19.3254 1.33113 18.1416 1.75907 16.3984 3.27246L16.3975 3.27148C16.1973 3.46553 15.3456 4.16602 13.543 4.16602C11.726 4.16598 10.877 3.45543 10.6836 3.26855L10.665 3.25C8.93962 1.75607 7.7632 1.3313 7.09082 1.23145L9.49609 6.91016H10.4346L9.68945 5.15234C9.53955 4.79646 9.70261 4.38614 10.0596 4.23535C10.4135 4.08503 10.8269 4.24908 10.9775 4.60645L11.9531 6.9082H12.8428V5.73047C12.8428 5.34483 13.1573 5.03036 13.543 5.03027C13.9287 5.03027 14.2432 5.34476 14.2432 5.73047V6.9082H15.1328L16.1084 4.60645C16.259 4.24905 16.6703 4.08527 17.0264 4.23535C17.3834 4.38602 17.5472 4.79642 17.3975 5.15234H17.3965L16.6514 6.91016H17.5898L19.9971 1.22852Z" fill="white" stroke="white" stroke-width="0.2"/>
<path d="M13.542 13.9844C13.9276 13.9844 14.242 14.2981 14.2422 14.6836V15.957H15.7383C16.1239 15.957 16.4384 16.2716 16.4385 16.6572C16.4385 17.0429 16.124 17.3574 15.7383 17.3574H12.7773C12.3733 17.3574 12.0461 17.6839 12.0459 18.0879C12.0459 18.492 12.3732 18.8193 12.7773 18.8193H14.332C15.4971 18.8353 16.4385 19.7759 16.4385 20.9502C16.4384 22.1244 15.4818 23.0809 14.3076 23.0811H14.2422V24.3545C14.2421 24.7401 13.9276 25.0547 13.542 25.0547C13.1565 25.0546 12.8419 24.74 12.8418 24.3545V23.0811H11.3457C10.9602 23.0808 10.6465 22.7664 10.6465 22.3809C10.6465 21.9953 10.9602 21.6809 11.3457 21.6807H14.3076C14.7116 21.6806 15.038 21.3542 15.0381 20.9502C15.0381 20.5461 14.7117 20.2189 14.3076 20.2188H12.7773C11.603 20.2188 10.6465 19.2623 10.6465 18.0879C10.6467 16.9137 11.6031 15.957 12.7773 15.957H12.8418V14.6836C12.842 14.2981 13.1565 13.9845 13.542 13.9844Z" fill="white" stroke="white" stroke-width="0.2"/>
</svg>
