<svg width="30" height="30" viewBox="0 0 30 30" fill="none" xmlns="http://www.w3.org/2000/svg">
<path d="M7.18652 0.315247C7.30467 0.248229 7.8484 -0.0118967 8.83008 0.15509C9.81006 0.321896 11.2201 0.913353 13.0771 2.53497H13.0762C13.0908 2.54725 13.1056 2.56154 13.1182 2.57404C13.1231 2.57798 13.2523 2.70023 13.5488 2.82306C13.8467 2.94639 14.3167 3.07208 15 3.07208C15.6834 3.07207 16.1533 2.94677 16.4521 2.82208C16.6016 2.7597 16.7092 2.69739 16.7793 2.65021C16.8143 2.6266 16.8403 2.60663 16.8574 2.59259C16.8747 2.57845 16.8828 2.57013 16.8828 2.57013C16.8885 2.56334 16.8932 2.55678 16.8975 2.55255C16.9028 2.54723 16.9117 2.54021 16.9209 2.53302L17.2637 2.24103C18.9542 0.842605 20.2519 0.314853 21.1709 0.158997C22.1519 -0.00732469 22.6943 0.252019 22.8135 0.319153C23.1252 0.494162 23.2536 0.871799 23.1143 1.20099L20.4766 7.42169C21.3372 7.80237 21.9424 8.67439 21.9424 9.68732V10.2186C21.9423 10.9249 21.6483 11.5565 21.1826 12.0067L26.3389 19.5662L26.3438 19.5652L26.3916 19.6287C26.5107 19.7849 27.2557 20.7827 27.8154 22.0633C28.373 23.339 28.7599 24.926 28.1172 26.2401V26.241C27.3732 27.7533 25.5063 28.4949 22.6426 28.4949H7.36621C4.50029 28.4949 2.63217 27.7565 1.8916 26.2401C1.24724 24.9261 1.63357 23.339 2.19141 22.0633C2.74667 20.7935 3.48499 19.8018 3.61426 19.6326L8.81738 12.0027C8.35203 11.5516 8.05861 10.9198 8.05859 10.2147V9.68341C8.05873 8.67067 8.66345 7.80044 9.52344 7.41779L6.88672 1.19806L6.84668 1.07404C6.78106 0.779966 6.91427 0.468396 7.18652 0.315247ZM19.9258 12.6531C19.7902 12.6769 19.6494 12.6942 19.5068 12.6942H10.4863C10.3449 12.6942 10.2021 12.6784 10.0645 12.6531L4.75781 20.4383C4.75212 20.4479 4.74686 20.4561 4.74316 20.4608C4.742 20.4622 4.74102 20.4637 4.74023 20.4647L4.73438 20.4734L4.6543 20.4129L4.7334 20.4734C4.38265 20.9271 3.79178 21.8342 3.38672 22.824C3.18432 23.3187 3.02974 23.831 2.97363 24.3152C2.91755 24.7997 2.9602 25.2502 3.14551 25.6277C3.43623 26.2212 4.07329 26.5913 4.85938 26.8123C5.64272 27.0325 6.55383 27.0984 7.36133 27.0984H22.6367C23.4443 27.0984 24.3561 27.0325 25.1396 26.8123C25.8768 26.6051 26.4821 26.2666 26.7939 25.7361L26.8467 25.6277C27.032 25.2507 27.0756 24.8005 27.0195 24.3162C26.9635 23.8322 26.8088 23.3197 26.6064 22.825C26.2015 21.8354 25.6101 20.9283 25.2588 20.4734L25.2529 20.4656V20.4647C25.2514 20.4622 25.2484 20.457 25.2441 20.451C25.242 20.448 25.2397 20.4452 25.2383 20.4432C25.2377 20.4423 25.2367 20.4417 25.2363 20.4412V20.4402L25.2344 20.4383L19.9258 12.6531ZM10.4922 8.60822C9.92622 8.60822 9.45801 9.08907 9.45801 9.68536V9.78497H9.4541V10.2156C9.4541 10.812 9.92025 11.2926 10.4883 11.2928H19.5098C20.0757 11.2927 20.5439 10.8119 20.5439 10.2156V9.68536C20.5439 9.08919 20.0746 8.6083 19.5098 8.60822H10.4922ZM21.4541 1.52716C20.7824 1.62977 19.5987 2.05772 17.8555 3.57111L17.8545 3.57013C17.6543 3.76418 16.8027 4.46466 15 4.46466C13.1831 4.46463 12.334 3.75407 12.1406 3.5672L12.1221 3.54865C10.3967 2.05472 9.22023 1.62995 8.54785 1.53009L10.9531 7.2088H11.8916L11.1465 5.45099C10.9966 5.0951 11.1596 4.68479 11.5166 4.534C11.8705 4.38368 12.2839 4.54772 12.4346 4.90509L13.4102 7.20685H14.2998V6.02911C14.2998 5.64347 14.6144 5.329 15 5.32892C15.3857 5.32892 15.7002 5.6434 15.7002 6.02911V7.20685H16.5898L17.5654 4.90509C17.7161 4.54769 18.1273 4.38391 18.4834 4.534C18.8405 4.68467 19.0043 5.09507 18.8545 5.45099H18.8535L18.1084 7.2088H19.0469L21.4541 1.52716Z" fill="white" stroke="white" stroke-width="0.2"/>
<path d="M14.999 14.2834C15.3846 14.2834 15.699 14.5971 15.6992 14.9826V16.256H17.1953C17.5809 16.256 17.8954 16.5706 17.8955 16.9562C17.8955 17.3419 17.581 17.6564 17.1953 17.6564H14.2344C13.8304 17.6564 13.5031 17.9829 13.5029 18.3869C13.5029 18.791 13.8302 19.1183 14.2344 19.1183H15.7891C16.9542 19.1343 17.8955 20.0749 17.8955 21.2492C17.8954 22.4234 16.9389 23.38 15.7646 23.3801H15.6992V24.6535C15.6991 25.0391 15.3846 25.3537 14.999 25.3537C14.6135 25.3536 14.299 25.039 14.2988 24.6535V23.3801H12.8027C12.4172 23.3799 12.1035 23.0654 12.1035 22.6799C12.1035 22.2943 12.4172 21.9799 12.8027 21.9797H15.7646C16.1686 21.9796 16.495 21.6532 16.4951 21.2492C16.4951 20.8451 16.1687 20.5179 15.7646 20.5178H14.2344C13.06 20.5178 12.1035 19.5613 12.1035 18.3869C12.1037 17.2127 13.0601 16.256 14.2344 16.256H14.2988V14.9826C14.299 14.5971 14.6135 14.2835 14.999 14.2834Z" fill="white" stroke="white" stroke-width="0.2"/>
</svg>
