<svg width="16" height="16" viewBox="0 0 16 16" fill="none" xmlns="http://www.w3.org/2000/svg">
<path d="M13.7884 13.7894L10.9366 10.9376M10.9366 10.9376C11.4244 10.4498 11.8114 9.87068 12.0754 9.23333C12.3394 8.59597 12.4753 7.91286 12.4753 7.22299C12.4753 6.53312 12.3394 5.85001 12.0754 5.21265C11.8114 4.5753 11.4244 3.99618 10.9366 3.50837C10.4488 3.02056 9.86971 2.63361 9.23235 2.36961C8.595 2.10561 7.91188 1.96973 7.22201 1.96973C6.53215 1.96973 5.84903 2.10561 5.21168 2.36961C4.57432 2.63361 3.99521 3.02056 3.5074 3.50837C2.52222 4.49355 1.96875 5.82974 1.96875 7.22299C1.96875 8.61624 2.52222 9.95243 3.5074 10.9376C4.49257 11.9228 5.82876 12.4763 7.22201 12.4763C8.61527 12.4763 9.95145 11.9228 10.9366 10.9376Z" stroke="black" stroke-opacity="0.5" stroke-width="1.5" stroke-linecap="round" stroke-linejoin="round"/>
</svg>
