<svg width="20" height="20" viewBox="0 0 20 20" fill="none" xmlns="http://www.w3.org/2000/svg">
<path d="M6.66602 8.33333V5.83333C6.66602 3.99167 8.15768 2.5 9.99935 2.5C11.841 2.5 13.3327 3.99167 13.3327 5.83333V8.33333M9.99935 12.5C10.2204 12.5 10.4323 12.4122 10.5886 12.2559C10.7449 12.0996 10.8327 11.8877 10.8327 11.6667C10.8327 11.4457 10.7449 11.2337 10.5886 11.0774C10.4323 10.9211 10.2204 10.8333 9.99935 10.8333C9.77834 10.8333 9.56637 10.9211 9.41009 11.0774C9.25381 11.2337 9.16602 11.4457 9.16602 11.6667C9.16602 11.8877 9.25381 12.0996 9.41009 12.2559C9.56637 12.4122 9.77834 12.5 9.99935 12.5ZM9.99935 12.5V15M5.49935 8.33333H14.4993C15.2327 8.33333 15.8327 8.93333 15.8327 9.66667V15.5C15.8327 16.6 14.9327 17.5 13.8327 17.5H6.16602C5.06602 17.5 4.16602 16.6 4.16602 15.5V9.66667C4.16602 8.93333 4.76602 8.33333 5.49935 8.33333Z" stroke="black" stroke-width="1.5" stroke-miterlimit="10" stroke-linecap="round" stroke-linejoin="round"/>
</svg>
