<svg width="23" height="24" viewBox="0 0 23 24" fill="none" xmlns="http://www.w3.org/2000/svg">
<path d="M21.6892 13.2797C21.5139 13.1738 21.4173 12.9751 21.4417 12.7707C21.4614 12.5175 21.4726 12.2597 21.4726 12.0001C21.4726 11.7404 21.4614 11.4816 21.4417 11.2266C21.4173 11.0241 21.5139 10.8254 21.6892 10.7204C22.8892 10.0257 23.3007 8.49097 22.6089 7.28907L21.1192 4.71003C20.4207 3.5119 18.8833 3.10503 17.6833 3.79971C17.5165 3.89909 17.3074 3.89065 17.148 3.77909C16.7065 3.47534 16.2415 3.20815 15.7577 2.97941C15.5777 2.8941 15.4662 2.71034 15.4727 2.5116C15.4708 1.12505 14.3468 0.00192 12.9601 0H9.98463C8.59431 0.00281256 7.47015 1.13155 7.47207 2.52096C7.47301 2.71409 7.36238 2.88941 7.188 2.97283C6.70332 3.20158 6.23832 3.4697 5.79675 3.77345C5.6355 3.88501 5.42362 3.89157 5.25581 3.79126C4.05394 3.09845 2.51837 3.50907 1.82453 4.71L0.335787 7.28904C-0.356085 8.49092 0.0554672 10.0255 1.25547 10.7203C1.43078 10.8263 1.52734 11.025 1.50296 11.2294C1.48327 11.4816 1.47202 11.7403 1.47202 12C1.47202 12.2597 1.48327 12.5185 1.50296 12.7735C1.52733 12.976 1.43077 13.1747 1.25547 13.2797C0.0554672 13.9744 -0.356085 15.5091 0.335787 16.711L1.82547 19.29C2.52202 20.491 4.05953 20.8997 5.26131 20.205C5.42818 20.1057 5.63724 20.1141 5.79663 20.2257C6.23818 20.5294 6.70318 20.7966 7.18695 21.0263C7.36507 21.1106 7.47663 21.2916 7.47195 21.4885C7.47382 22.875 8.59788 23.9981 9.98451 24.0001H12.96C14.3503 23.9972 15.4745 22.8685 15.4726 21.4791C15.4717 21.286 15.5823 21.1107 15.7567 21.0272C16.2413 20.7985 16.7063 20.5304 17.1479 20.2266C17.3092 20.1151 17.521 20.1085 17.6888 20.2088C18.8907 20.8997 20.4253 20.4891 21.1201 19.2901L22.6089 16.712C23.3017 15.5101 22.8901 13.9745 21.6892 13.2797ZM19.472 12.0001C19.472 12.2054 19.4626 12.4079 19.4467 12.6085H19.4476C19.3661 13.5798 19.8489 14.5126 20.6889 15.0085C20.807 15.076 20.8933 15.1876 20.9279 15.3198C20.9626 15.451 20.9448 15.5907 20.8764 15.7079L19.3895 18.286C19.2451 18.5316 18.9292 18.6132 18.6836 18.4688C17.8464 17.9907 16.8095 18.0319 16.0136 18.5757C15.6601 18.8194 15.288 19.0331 14.9008 19.2169C14.027 19.636 13.4711 20.5191 13.472 21.4885C13.472 21.7707 13.2433 22.0003 12.9601 22.0003H9.98462C9.84681 21.9994 9.71556 21.9441 9.61994 21.8466C9.52338 21.7481 9.47088 21.616 9.47276 21.4791C9.46994 20.5135 8.91401 19.636 8.04308 19.2197C7.65682 19.036 7.28463 18.8222 6.93121 18.5794C6.13246 18.0347 5.09276 17.9953 4.25568 18.4791C4.011 18.6206 3.69788 18.5363 3.55537 18.2916L2.07224 15.7116C1.93161 15.4669 2.01505 15.1538 2.25974 15.0122C3.09974 14.5172 3.58255 13.5844 3.50193 12.6122C3.4813 12.4078 3.47287 12.2053 3.47287 12C3.47287 11.7947 3.48224 11.5922 3.49818 11.3916H3.49724C3.5788 10.4203 3.09599 9.48749 2.25599 8.99156C2.13786 8.92406 2.05161 8.8125 2.01692 8.6803C1.98224 8.54905 2.00005 8.40937 2.06849 8.29217L3.55536 5.71121C3.62473 5.59215 3.73817 5.50684 3.87036 5.47215C4.00255 5.43747 4.1441 5.45809 4.26129 5.5284C5.09849 6.00747 6.13536 5.96528 6.93129 5.42059C7.28474 5.17778 7.65691 4.96404 8.0441 4.78027C8.91691 4.36121 9.47285 3.47995 9.47285 2.51153C9.47285 2.37653 9.52629 2.24621 9.62285 2.14966C9.71847 2.05403 9.84879 1.99966 9.98472 1.99966H12.9602C13.0981 2.00059 13.2293 2.05591 13.3249 2.1534C13.4215 2.25184 13.474 2.38403 13.4721 2.52089C13.4749 3.48651 14.0309 4.36402 14.9018 4.78028C15.288 4.96402 15.6602 5.17776 16.0137 5.4206C16.8124 5.96528 17.8521 6.00372 18.6892 5.52091C18.9339 5.37935 19.247 5.46372 19.3895 5.70841L20.8726 8.28841C21.0133 8.53309 20.9298 8.84622 20.6851 8.98779C19.8451 9.48279 19.3623 10.4156 19.4429 11.3878C19.4636 11.5922 19.472 11.8004 19.472 12.0001Z" fill="white"/>
<path d="M11.4722 7.00019C10.1466 7.00019 8.87448 7.52706 7.93704 8.46458C6.9996 9.40209 6.47266 10.6743 6.47266 11.9998C6.47266 13.3253 6.99953 14.5975 7.93704 15.535C8.87455 16.4724 10.1467 16.9994 11.4722 16.9994C12.7978 16.9994 14.07 16.4725 15.0074 15.535C15.9449 14.5975 16.4718 13.3253 16.4718 11.9998C16.4709 10.6742 15.9431 9.40298 15.0056 8.46626C14.069 7.52877 12.7978 7.00094 11.472 7L11.4722 7.00019ZM11.4722 14.9999C10.2591 14.9999 9.16505 14.2686 8.70096 13.1483C8.23596 12.0271 8.49283 10.7361 9.35064 9.87832C10.2084 9.02051 11.4994 8.76364 12.6206 9.22864C13.741 9.6927 14.4722 10.7868 14.4722 11.9999C14.4722 13.6565 13.1288 14.9999 11.4722 14.9999Z" fill="white"/>
</svg>
