<svg width="20" height="22" viewBox="0 0 20 22" fill="none" xmlns="http://www.w3.org/2000/svg">
<path d="M17.4953 11.7475C18.1976 10.7381 18.6215 9.56146 18.7244 8.33609C18.8274 7.11072 18.6058 5.87985 18.0818 4.76737C17.5578 3.6549 16.7501 2.70008 15.7398 1.99902C14.7295 1.29796 13.5524 0.875411 12.3269 0.773896C11.1014 0.672381 9.8708 0.895485 8.75894 1.42075C7.64708 1.94602 6.69321 2.75491 5.99335 3.76601C5.29348 4.77711 4.87232 5.95473 4.77224 7.18034C4.67217 8.40595 4.89673 9.6363 5.4233 10.7475" stroke="#005B8A" stroke-width="1.5" stroke-linecap="round" stroke-linejoin="round"/>
<path d="M11.75 4.74756C10.645 4.74756 9.75 5.41956 9.75 6.24756C9.75 7.07556 10.645 7.74756 11.75 7.74756C12.855 7.74756 13.75 8.41956 13.75 9.24756C13.75 10.0756 12.855 10.7476 11.75 10.7476M11.75 4.74756C12.62 4.74756 13.362 5.16456 13.636 5.74756M11.75 4.74756V3.74756M11.75 10.7476C10.88 10.7476 10.138 10.3306 9.864 9.74756M11.75 10.7476V11.7476" stroke="#005B8A" stroke-width="1.5" stroke-linecap="round"/>
<path d="M0.75 12.7476H3.145C3.439 12.7476 3.729 12.8136 3.992 12.9416L6.034 13.9296C6.297 14.0566 6.587 14.1226 6.882 14.1226H7.924C8.932 14.1226 9.75 14.9136 9.75 15.8896C9.75 15.9296 9.723 15.9636 9.684 15.9746L7.143 16.6776C6.68705 16.8035 6.20087 16.7594 5.775 16.5536L3.592 15.4976M9.75 15.2476L14.343 13.8366C14.7429 13.7139 15.1713 13.7206 15.567 13.8558C15.9628 13.9911 16.3058 14.2478 16.547 14.5896C16.916 15.0996 16.766 15.8316 16.228 16.1416L8.713 20.4786C8.47802 20.6145 8.21781 20.7012 7.94824 20.7334C7.67866 20.7655 7.40537 20.7424 7.145 20.6656L0.75 18.7676" stroke="#005B8A" stroke-width="1.5" stroke-linecap="round" stroke-linejoin="round"/>
</svg>
