<svg width="20" height="20" viewBox="0 0 20 20" fill="none" xmlns="http://www.w3.org/2000/svg">
<path d="M10.834 12.0833C10.834 11.8623 10.9218 11.6504 11.0781 11.4941C11.2343 11.3378 11.4463 11.25 11.6673 11.25H14.1673C14.3883 11.25 14.6003 11.3378 14.7566 11.4941C14.9129 11.6504 15.0007 11.8623 15.0007 12.0833C15.0007 12.3043 14.9129 12.5163 14.7566 12.6726C14.6003 12.8289 14.3883 12.9167 14.1673 12.9167H11.6673C11.4463 12.9167 11.2343 12.8289 11.0781 12.6726C10.9218 12.5163 10.834 12.3043 10.834 12.0833Z" fill="black"/>
<path d="M14.0257 3.95825H5.97565C5.52982 3.95825 5.15898 3.95825 4.85482 3.98325C4.53815 4.00825 4.24148 4.06492 3.96065 4.20825C3.52936 4.42798 3.17871 4.77862 2.95898 5.20992C2.81565 5.49075 2.75898 5.78742 2.73398 6.10409C2.70898 6.40825 2.70898 6.77909 2.70898 7.22492V12.7749C2.70898 13.2208 2.70898 13.5916 2.73398 13.8958C2.75898 14.2124 2.81565 14.5091 2.95898 14.7899C3.17871 15.2212 3.52936 15.5719 3.96065 15.7916C4.24148 15.9349 4.53815 15.9916 4.85482 16.0166C5.15898 16.0416 5.52982 16.0416 5.97565 16.0416H14.0257C14.4715 16.0416 14.8423 16.0416 15.1465 16.0166C15.4632 15.9916 15.7598 15.9349 16.0407 15.7916C16.4718 15.5721 16.8225 15.2217 17.0423 14.7908C17.1857 14.5091 17.2423 14.2124 17.2673 13.8958C17.2923 13.5916 17.2923 13.2208 17.2923 12.7758V7.22492C17.2923 6.77909 17.2923 6.40825 17.2673 6.10409C17.2423 5.78742 17.1857 5.49075 17.0423 5.20992C16.823 4.77888 16.473 4.42826 16.0423 4.20825C15.7607 4.06492 15.464 4.00825 15.1473 3.98325C14.8432 3.95825 14.4715 3.95825 14.0257 3.95825ZM4.52815 5.32159C4.60315 5.28325 4.71732 5.24825 4.95648 5.22909C5.20315 5.20909 5.52315 5.20825 6.00065 5.20825H14.0007C14.4773 5.20825 14.7982 5.20825 15.044 5.22909C15.284 5.24825 15.3982 5.28325 15.4732 5.32159C15.6698 5.42159 15.829 5.58075 15.929 5.77742C15.9673 5.85242 16.0023 5.96659 16.0215 6.20575C16.039 6.42242 16.0415 6.69659 16.0423 7.08325H3.95898C3.95898 6.69659 3.96232 6.42242 3.97982 6.20575C3.99898 5.96659 4.03398 5.85242 4.07232 5.77742C4.17224 5.5811 4.33183 5.42151 4.52815 5.32159ZM3.95898 8.74992H16.0423V12.7499C16.0423 13.2266 16.0423 13.5474 16.0215 13.7933C16.0023 14.0333 15.9673 14.1474 15.929 14.2224C15.8291 14.4187 15.6695 14.5783 15.4732 14.6783C15.3982 14.7166 15.284 14.7516 15.044 14.7708C14.7982 14.7908 14.4773 14.7916 14.0007 14.7916H6.00065C5.52398 14.7916 5.20315 14.7916 4.95648 14.7708C4.71732 14.7516 4.60315 14.7166 4.52815 14.6783C4.33183 14.5783 4.17224 14.4187 4.07232 14.2224C4.03398 14.1474 3.99898 14.0333 3.97982 13.7933C3.95982 13.5474 3.95898 13.2266 3.95898 12.7499V8.74992Z" fill="black"/>
</svg>
