<svg width="29" height="29" viewBox="0 0 29 29" fill="none" xmlns="http://www.w3.org/2000/svg">
<path fill-rule="evenodd" clip-rule="evenodd" d="M14.4998 1.51025C14.7402 1.51025 14.9707 1.60573 15.1407 1.77569C15.3106 1.94564 15.4061 2.17615 15.4061 2.4165V3.62484C15.4061 3.86519 15.3106 4.0957 15.1407 4.26565C14.9707 4.43561 14.7402 4.53109 14.4998 4.53109C14.2595 4.53109 14.029 4.43561 13.859 4.26565C13.6891 4.0957 13.5936 3.86519 13.5936 3.62484V2.4165C13.5936 2.17615 13.6891 1.94564 13.859 1.77569C14.029 1.60573 14.2595 1.51025 14.4998 1.51025ZM5.3153 5.3153C5.48522 5.14558 5.71555 5.05026 5.95571 5.05026C6.19587 5.05026 6.42621 5.14558 6.59613 5.3153L7.071 5.78896C7.23617 5.9598 7.32762 6.18868 7.32567 6.4263C7.32372 6.66392 7.22851 6.89126 7.06057 7.05937C6.89262 7.22748 6.66536 7.32289 6.42775 7.32507C6.19013 7.32724 5.96117 7.23601 5.79017 7.071L5.3153 6.59613C5.14558 6.42621 5.05026 6.19587 5.05026 5.95571C5.05026 5.71555 5.14558 5.48522 5.3153 5.3153ZM23.6844 5.3153C23.8541 5.48522 23.9494 5.71555 23.9494 5.95571C23.9494 6.19587 23.8541 6.42621 23.6844 6.59613L23.2095 7.071C23.0377 7.23108 22.8105 7.31823 22.5757 7.31409C22.3409 7.30995 22.1169 7.21484 21.9509 7.0488C21.7848 6.88276 21.6897 6.65875 21.6856 6.42397C21.6814 6.18919 21.7686 5.96196 21.9287 5.79017L22.4035 5.3153C22.5735 5.14558 22.8038 5.05026 23.044 5.05026C23.2841 5.05026 23.5145 5.14558 23.6844 5.3153ZM14.4998 8.15609C12.8174 8.15609 11.2038 8.82444 10.0141 10.0141C8.82444 11.2038 8.15609 12.8174 8.15609 14.4998C8.15609 16.1823 8.82444 17.7959 10.0141 18.9855C11.2038 20.1752 12.8174 20.8436 14.4998 20.8436C16.1823 20.8436 17.7959 20.1752 18.9855 18.9855C20.1752 17.7959 20.8436 16.1823 20.8436 14.4998C20.8436 12.8174 20.1752 11.2038 18.9855 10.0141C17.7959 8.82444 16.1823 8.15609 14.4998 8.15609ZM6.34359 14.4998C6.34359 12.3367 7.2029 10.2621 8.7325 8.7325C10.2621 7.2029 12.3367 6.34359 14.4998 6.34359C16.663 6.34359 18.7376 7.2029 20.2672 8.7325C21.7968 10.2621 22.6561 12.3367 22.6561 14.4998C22.6561 16.663 21.7968 18.7376 20.2672 20.2672C18.7376 21.7968 16.663 22.6561 14.4998 22.6561C12.3367 22.6561 10.2621 21.7968 8.7325 20.2672C7.2029 18.7376 6.34359 16.663 6.34359 14.4998ZM1.51025 14.4998C1.51025 14.2595 1.60573 14.029 1.77569 13.859C1.94564 13.6891 2.17615 13.5936 2.4165 13.5936H3.62484C3.86519 13.5936 4.0957 13.6891 4.26565 13.859C4.43561 14.029 4.53109 14.2595 4.53109 14.4998C4.53109 14.7402 4.43561 14.9707 4.26565 15.1407C4.0957 15.3106 3.86519 15.4061 3.62484 15.4061H2.4165C2.17615 15.4061 1.94564 15.3106 1.77569 15.1407C1.60573 14.9707 1.51025 14.7402 1.51025 14.4998ZM24.4686 14.4998C24.4686 14.2595 24.5641 14.029 24.734 13.859C24.904 13.6891 25.1345 13.5936 25.3748 13.5936H26.5832C26.8235 13.5936 27.054 13.6891 27.224 13.859C27.3939 14.029 27.4894 14.2595 27.4894 14.4998C27.4894 14.7402 27.3939 14.9707 27.224 15.1407C27.054 15.3106 26.8235 15.4061 26.5832 15.4061H25.3748C25.1345 15.4061 24.904 15.3106 24.734 15.1407C24.5641 14.9707 24.4686 14.7402 24.4686 14.4998ZM21.9287 21.9287C22.0986 21.759 22.3289 21.6636 22.5691 21.6636C22.8092 21.6636 23.0396 21.759 23.2095 21.9287L23.6844 22.4035C23.7734 22.4865 23.8448 22.5866 23.8944 22.6977C23.9439 22.8089 23.9705 22.9289 23.9727 23.0506C23.9748 23.1723 23.9524 23.2931 23.9069 23.406C23.8613 23.5188 23.7934 23.6213 23.7074 23.7074C23.6213 23.7934 23.5188 23.8613 23.406 23.9069C23.2931 23.9524 23.1723 23.9748 23.0506 23.9727C22.9289 23.9705 22.8089 23.9439 22.6977 23.8944C22.5866 23.8448 22.4865 23.7734 22.4035 23.6844L21.9287 23.2095C21.759 23.0396 21.6636 22.8092 21.6636 22.5691C21.6636 22.3289 21.759 22.0986 21.9287 21.9287ZM7.071 21.9287C7.24071 22.0986 7.33604 22.3289 7.33604 22.5691C7.33604 22.8092 7.24071 23.0396 7.071 23.2095L6.59613 23.6844C6.51316 23.7734 6.41311 23.8448 6.30195 23.8944C6.19078 23.9439 6.07078 23.9705 5.94909 23.9727C5.82741 23.9748 5.70654 23.9524 5.5937 23.9069C5.48085 23.8613 5.37835 23.7934 5.29229 23.7074C5.20623 23.6213 5.13839 23.5188 5.09281 23.406C5.04723 23.2931 5.02485 23.1723 5.027 23.0506C5.02914 22.9289 5.05578 22.8089 5.10531 22.6977C5.15484 22.5866 5.22626 22.4865 5.3153 22.4035L5.78896 21.9287C5.87312 21.8445 5.97305 21.7776 6.08304 21.7321C6.19303 21.6865 6.31092 21.663 6.42998 21.663C6.54904 21.663 6.66693 21.6865 6.77692 21.7321C6.88691 21.7776 6.98684 21.8445 7.071 21.9287ZM14.4998 24.4686C14.7402 24.4686 14.9707 24.5641 15.1407 24.734C15.3106 24.904 15.4061 25.1345 15.4061 25.3748V26.5832C15.4061 26.8235 15.3106 27.054 15.1407 27.224C14.9707 27.3939 14.7402 27.4894 14.4998 27.4894C14.2595 27.4894 14.029 27.3939 13.859 27.224C13.6891 27.054 13.5936 26.8235 13.5936 26.5832V25.3748C13.5936 25.1345 13.6891 24.904 13.859 24.734C14.029 24.5641 14.2595 24.4686 14.4998 24.4686Z" fill="#013E32"/>
</svg>
