<svg width="23" height="23" viewBox="0 0 23 23" fill="none" xmlns="http://www.w3.org/2000/svg">
<path d="M11.1591 11.575C8.91471 9.33061 7.81693 6.37455 7.86572 3.43016L6.36595 3.40682C6.33562 5.11704 6.65053 6.81581 7.29185 8.40153C7.93317 9.98724 8.88772 11.4273 10.0984 12.6356L11.1591 11.575ZM19.3039 14.8683C17.7945 14.8955 16.2952 14.6179 14.8957 14.052C13.4962 13.4861 12.2253 12.6436 11.1591 11.575L10.0984 12.6356C12.6419 15.1791 15.9957 16.4243 19.3272 16.3681L19.3039 14.8683ZM20.705 17.9389C18.5952 20.0487 15.7337 21.234 12.7501 21.234C9.76637 21.234 6.90489 20.0487 4.79511 17.9389L3.73445 18.9996C6.12554 21.3907 9.36855 22.734 12.7501 22.734C16.1316 22.734 19.3746 21.3907 21.7657 18.9996L20.705 17.9389ZM4.79511 17.9389C2.68532 15.8291 1.50006 12.9677 1.50006 9.98397C1.50006 7.00029 2.68532 4.13881 4.79511 2.02902L3.73445 0.968363C1.34336 3.35945 6.06503e-05 6.60246 6.07346e-05 9.98397C6.09875e-05 13.3655 1.34336 16.6085 3.73445 18.9996L4.79511 17.9389ZM19.3272 16.3681C19.7865 16.3607 20.1142 16.3554 20.3539 16.3596C20.6149 16.3617 20.6891 16.3766 20.687 16.3766L21.0922 14.932C20.8566 14.8787 20.6155 14.8542 20.3741 14.8588C20.1082 14.8559 19.7522 14.8584 19.3039 14.8683L19.3272 16.3681ZM21.7657 18.9996C22.0457 18.7196 22.296 18.4799 22.4636 18.168L21.1441 17.4553C21.1038 17.5295 21.0444 17.5995 20.705 17.9389L21.7657 18.9996ZM20.687 16.3766C20.7953 16.407 20.8954 16.4614 20.9799 16.5357C21.0643 16.61 21.131 16.7024 21.1749 16.806C21.2188 16.9096 21.2388 17.0218 21.2335 17.1341C21.2282 17.2465 21.1976 17.3563 21.1441 17.4553L22.4636 18.168C22.6241 17.8711 22.7157 17.5418 22.7317 17.2047C22.7476 16.8675 22.6875 16.5311 22.5558 16.2203C22.4241 15.9095 22.2242 15.6324 21.9708 15.4093C21.7174 15.1863 21.4171 15.0232 21.0922 14.932L20.687 16.3766ZM7.86572 3.43016C7.87491 2.98256 7.87845 2.62547 7.87633 2.35889C7.87208 2.11281 7.86042 1.85507 7.80208 1.64188L6.35746 2.04705C6.35746 2.04705 6.37125 2.11812 6.37549 2.38116C6.37974 2.61875 6.37337 2.94755 6.36595 3.40682L7.86572 3.43016ZM4.79511 2.02902C5.13452 1.68961 5.20452 1.63234 5.27877 1.58991L4.56601 0.270449C4.25417 0.438033 4.01446 0.688348 3.73445 0.968363L4.79511 2.02902ZM7.80208 1.64188C7.71087 1.3169 7.54772 1.0166 7.3247 0.763239C7.10168 0.509873 6.82451 0.30993 6.51373 0.178223C6.20295 0.046515 5.86652 -0.0135825 5.52936 0.00238215C5.1922 0.0183468 4.86295 0.109964 4.56601 0.270449L5.27877 1.58991C5.37775 1.53641 5.4875 1.50588 5.59989 1.50055C5.71227 1.49523 5.82442 1.51526 5.92801 1.55917C6.03161 1.60307 6.12399 1.66972 6.19833 1.75417C6.27267 1.83863 6.32706 1.93873 6.35746 2.04705L7.80208 1.64188Z" fill="white"/>
</svg>
