<svg width="29" height="29" viewBox="0 0 29 29" fill="none" xmlns="http://www.w3.org/2000/svg">
<path fill-rule="evenodd" clip-rule="evenodd" d="M14.5003 1.51025C14.7407 1.51025 14.9712 1.60573 15.1411 1.77569C15.3111 1.94564 15.4066 2.17615 15.4066 2.4165V3.62484C15.4066 3.86519 15.3111 4.0957 15.1411 4.26565C14.9712 4.43561 14.7407 4.53109 14.5003 4.53109C14.26 4.53109 14.0295 4.43561 13.8595 4.26565C13.6896 4.0957 13.5941 3.86519 13.5941 3.62484V2.4165C13.5941 2.17615 13.6896 1.94564 13.8595 1.77569C14.0295 1.60573 14.26 1.51025 14.5003 1.51025ZM5.31578 5.3153C5.48571 5.14558 5.71604 5.05026 5.9562 5.05026C6.19636 5.05026 6.42669 5.14558 6.59662 5.3153L7.07149 5.78896C7.23666 5.9598 7.32811 6.18868 7.32616 6.4263C7.32421 6.66392 7.229 6.89126 7.06106 7.05937C6.89311 7.22748 6.66585 7.32289 6.42824 7.32507C6.19062 7.32724 5.96166 7.23601 5.79066 7.071L5.31578 6.59613C5.14607 6.42621 5.05075 6.19587 5.05075 5.95571C5.05075 5.71555 5.14607 5.48522 5.31578 5.3153ZM23.6849 5.3153C23.8546 5.48522 23.9499 5.71555 23.9499 5.95571C23.9499 6.19587 23.8546 6.42621 23.6849 6.59613L23.21 7.071C23.0382 7.23108 22.811 7.31823 22.5762 7.31409C22.3414 7.30995 22.1174 7.21484 21.9514 7.0488C21.7853 6.88276 21.6902 6.65875 21.6861 6.42397C21.6819 6.18919 21.7691 5.96196 21.9292 5.79017L22.404 5.3153C22.574 5.14558 22.8043 5.05026 23.0444 5.05026C23.2846 5.05026 23.5149 5.14558 23.6849 5.3153ZM14.5003 8.15609C12.8179 8.15609 11.2043 8.82444 10.0146 10.0141C8.82493 11.2038 8.15658 12.8174 8.15658 14.4998C8.15658 16.1823 8.82493 17.7959 10.0146 18.9855C11.2043 20.1752 12.8179 20.8436 14.5003 20.8436C16.1828 20.8436 17.7963 20.1752 18.986 18.9855C20.1757 17.7959 20.8441 16.1823 20.8441 14.4998C20.8441 12.8174 20.1757 11.2038 18.986 10.0141C17.7963 8.82444 16.1828 8.15609 14.5003 8.15609ZM6.34408 14.4998C6.34408 12.3367 7.20339 10.2621 8.73299 8.7325C10.2626 7.2029 12.3372 6.34359 14.5003 6.34359C16.6635 6.34359 18.7381 7.2029 20.2677 8.7325C21.7973 10.2621 22.6566 12.3367 22.6566 14.4998C22.6566 16.663 21.7973 18.7376 20.2677 20.2672C18.7381 21.7968 16.6635 22.6561 14.5003 22.6561C12.3372 22.6561 10.2626 21.7968 8.73299 20.2672C7.20339 18.7376 6.34408 16.663 6.34408 14.4998ZM1.51074 14.4998C1.51074 14.2595 1.60622 14.029 1.77618 13.859C1.94613 13.6891 2.17664 13.5936 2.41699 13.5936H3.62533C3.86568 13.5936 4.09619 13.6891 4.26614 13.859C4.4361 14.029 4.53158 14.2595 4.53158 14.4998C4.53158 14.7402 4.4361 14.9707 4.26614 15.1407C4.09619 15.3106 3.86568 15.4061 3.62533 15.4061H2.41699C2.17664 15.4061 1.94613 15.3106 1.77618 15.1407C1.60622 14.9707 1.51074 14.7402 1.51074 14.4998ZM24.4691 14.4998C24.4691 14.2595 24.5646 14.029 24.7345 13.859C24.9045 13.6891 25.135 13.5936 25.3753 13.5936H26.5837C26.824 13.5936 27.0545 13.6891 27.2245 13.859C27.3944 14.029 27.4899 14.2595 27.4899 14.4998C27.4899 14.7402 27.3944 14.9707 27.2245 15.1407C27.0545 15.3106 26.824 15.4061 26.5837 15.4061H25.3753C25.135 15.4061 24.9045 15.3106 24.7345 15.1407C24.5646 14.9707 24.4691 14.7402 24.4691 14.4998ZM21.9292 21.9287C22.0991 21.759 22.3294 21.6636 22.5696 21.6636C22.8097 21.6636 23.0401 21.759 23.21 21.9287L23.6849 22.4035C23.7739 22.4865 23.8453 22.5866 23.8949 22.6977C23.9444 22.8089 23.971 22.9289 23.9732 23.0506C23.9753 23.1723 23.9529 23.2931 23.9073 23.406C23.8618 23.5188 23.7939 23.6213 23.7079 23.7074C23.6218 23.7934 23.5193 23.8613 23.4065 23.9069C23.2936 23.9524 23.1727 23.9748 23.0511 23.9727C22.9294 23.9705 22.8094 23.9439 22.6982 23.8944C22.587 23.8448 22.487 23.7734 22.404 23.6844L21.9292 23.2095C21.7594 23.0396 21.6641 22.8092 21.6641 22.5691C21.6641 22.3289 21.7594 22.0986 21.9292 21.9287ZM7.07149 21.9287C7.2412 22.0986 7.33653 22.3289 7.33653 22.5691C7.33653 22.8092 7.2412 23.0396 7.07149 23.2095L6.59662 23.6844C6.51365 23.7734 6.4136 23.8448 6.30243 23.8944C6.19127 23.9439 6.07126 23.9705 5.94958 23.9727C5.8279 23.9748 5.70703 23.9524 5.59419 23.9069C5.48134 23.8613 5.37883 23.7934 5.29278 23.7074C5.20672 23.6213 5.13888 23.5188 5.0933 23.406C5.04772 23.2931 5.02534 23.1723 5.02749 23.0506C5.02963 22.9289 5.05627 22.8089 5.1058 22.6977C5.15533 22.5866 5.22675 22.4865 5.31578 22.4035L5.78945 21.9287C5.87361 21.8445 5.97354 21.7776 6.08353 21.7321C6.19352 21.6865 6.31141 21.663 6.43047 21.663C6.54953 21.663 6.66742 21.6865 6.77741 21.7321C6.8874 21.7776 6.98733 21.8445 7.07149 21.9287ZM14.5003 24.4686C14.7407 24.4686 14.9712 24.5641 15.1411 24.734C15.3111 24.904 15.4066 25.1345 15.4066 25.3748V26.5832C15.4066 26.8235 15.3111 27.054 15.1411 27.224C14.9712 27.3939 14.7407 27.4894 14.5003 27.4894C14.26 27.4894 14.0295 27.3939 13.8595 27.224C13.6896 27.054 13.5941 26.8235 13.5941 26.5832V25.3748C13.5941 25.1345 13.6896 24.904 13.8595 24.734C14.0295 24.5641 14.26 24.4686 14.5003 24.4686Z" fill="white"/>
</svg>
