<svg width="17" height="16" viewBox="0 0 17 16" fill="none" xmlns="http://www.w3.org/2000/svg">
<path d="M4.91667 4.91667H11.5833M4.91667 8.25H9.91667M13.25 0.75C13.913 0.75 14.5489 1.01339 15.0178 1.48223C15.4866 1.95107 15.75 2.58696 15.75 3.25V9.91667C15.75 10.5797 15.4866 11.2156 15.0178 11.6844C14.5489 12.1533 13.913 12.4167 13.25 12.4167H9.08333L4.91667 14.9167V12.4167H3.25C2.58696 12.4167 1.95107 12.1533 1.48223 11.6844C1.01339 11.2156 0.75 10.5797 0.75 9.91667V3.25C0.75 2.58696 1.01339 1.95107 1.48223 1.48223C1.95107 1.01339 2.58696 0.75 3.25 0.75H13.25Z" stroke="black" stroke-width="1.5" stroke-linecap="round" stroke-linejoin="round"/>
</svg>
