<svg width="20" height="20" viewBox="0 0 20 20" fill="none" xmlns="http://www.w3.org/2000/svg">
<path d="M5.41732 16.6666C4.15343 16.6666 3.07371 16.2291 2.17815 15.3541C1.2826 14.4791 0.83454 13.4096 0.833984 12.1458C0.833984 11.0624 1.16037 10.0971 1.81315 9.24992C2.46593 8.4027 3.3201 7.86103 4.37565 7.62492C4.72287 6.34714 5.41732 5.31242 6.45898 4.52075C7.50065 3.72909 8.68121 3.33325 10.0007 3.33325C11.6257 3.33325 13.0043 3.89936 14.1365 5.03159C15.2687 6.16381 15.8345 7.54214 15.834 9.16659C16.7923 9.2777 17.5876 9.69103 18.2198 10.4066C18.852 11.1221 19.1679 11.9588 19.1673 12.9166C19.1673 13.9583 18.8029 14.8438 18.074 15.5733C17.3451 16.3027 16.4595 16.6671 15.4173 16.6666H10.834C10.3757 16.6666 9.98343 16.5035 9.65732 16.1774C9.33121 15.8513 9.16787 15.4588 9.16732 14.9999V10.7083L7.83398 11.9999L6.66732 10.8333L10.0007 7.49992L13.334 10.8333L12.1673 11.9999L10.834 10.7083V14.9999H15.4173C16.0007 14.9999 16.4937 14.7985 16.8965 14.3958C17.2993 13.993 17.5007 13.4999 17.5007 12.9166C17.5007 12.3333 17.2993 11.8402 16.8965 11.4374C16.4937 11.0346 16.0007 10.8333 15.4173 10.8333H14.1673V9.16659C14.1673 8.01381 13.7609 7.03103 12.9482 6.21825C12.1354 5.40547 11.1529 4.99936 10.0007 4.99992C8.84843 5.00047 7.86593 5.40686 7.05315 6.21909C6.24037 7.03131 5.83398 8.01381 5.83398 9.16659H5.41732C4.61176 9.16659 3.92426 9.45131 3.35482 10.0208C2.78537 10.5902 2.50065 11.2777 2.50065 12.0833C2.50065 12.8888 2.78537 13.5763 3.35482 14.1458C3.92426 14.7152 4.61176 14.9999 5.41732 14.9999H7.50065V16.6666H5.41732Z" fill="black"/>
</svg>
