<svg width="27" height="26" viewBox="0 0 27 26" fill="none" xmlns="http://www.w3.org/2000/svg">
<path d="M21.9531 0.149612C24.4815 0.149705 26.538 2.20623 26.5381 4.73457V15.3322C26.5381 17.8607 24.4815 19.9171 21.9531 19.9172H14.0576L8.55762 25.3205L8.55078 25.3273L8.54297 25.3332C8.12573 25.6461 7.6702 25.7873 7.21387 25.7873C6.85806 25.7873 6.50706 25.6802 6.19531 25.507L6.19141 25.5051C5.48866 25.0834 5.10201 24.2759 5.23926 23.4348H5.23828L5.64355 19.9172H4.73535C2.20695 19.9171 0.150391 17.8607 0.150391 15.3322V4.73457C0.150506 2.20625 2.20702 0.149727 4.73535 0.149612H21.9531ZM7.26562 19.007C7.26738 19.0135 7.27002 19.0222 7.27441 19.0354C7.27813 19.0465 7.28376 19.0625 7.28809 19.0783C7.29189 19.0923 7.2988 19.1188 7.29883 19.1477V19.2219L7.29785 19.2307L6.77539 23.633V23.6379C6.74844 23.8131 6.78921 23.9315 6.83984 24.0119C6.89259 24.0957 6.96182 24.1469 7.00391 24.175C7.07324 24.2212 7.29138 24.3207 7.54395 24.1486L13.1729 18.552C13.3465 18.3786 13.5939 18.3459 13.7686 18.3459H21.9531C23.6301 18.3458 24.9658 16.9786 24.9658 15.3322V15.1828H24.999V4.73457C24.9989 3.05765 23.6317 1.72188 21.9854 1.72188H4.73535C3.0585 1.72199 1.72277 3.08831 1.72266 4.73457V15.3977C1.72266 17.0746 3.08902 18.4112 4.73535 18.4113H6.59473C6.65432 18.4114 6.69908 18.4263 6.72754 18.4377C6.73519 18.4408 6.73946 18.4424 6.74219 18.4436H6.78711L6.82324 18.4797C6.87172 18.4878 6.90825 18.5112 6.92871 18.5266C6.94033 18.5353 6.95085 18.5456 6.96094 18.5549C6.98984 18.5657 7.01196 18.5812 7.02637 18.592C7.04038 18.6025 7.05286 18.6152 7.06445 18.6262C7.07311 18.6303 7.08261 18.6331 7.09082 18.6389C7.11901 18.6586 7.13545 18.6829 7.14258 18.6936C7.14636 18.6992 7.15065 18.7055 7.15234 18.7082C7.15437 18.7115 7.15532 18.7136 7.15625 18.715L7.15723 18.716C7.19394 18.7529 7.21136 18.7904 7.22266 18.8186C7.23387 18.8466 7.23749 18.8599 7.25 18.885L7.26562 18.9172V19.007Z" fill="#00FFBC" stroke="#00FFBC" stroke-width="0.3"/>
<path d="M6.72363 7.38879C8.20861 7.38879 9.3847 8.56497 9.38477 10.0499C9.38477 11.5349 8.20865 12.7111 6.72363 12.7111C5.23741 12.711 4.0625 11.501 4.0625 10.0499C4.06257 8.56375 5.27259 7.38886 6.72363 7.38879ZM6.72363 8.96106C6.12179 8.96113 5.63483 9.44809 5.63477 10.0499C5.63477 10.6518 6.12175 11.1387 6.72363 11.1388C7.33242 11.1388 7.84157 10.6467 7.81348 10.0568L7.8125 10.0499C7.81243 9.44805 7.32553 8.96106 6.72363 8.96106Z" fill="#00FFBC" stroke="#00FFBC" stroke-width="0.3"/>
<path d="M13.3428 7.38879C14.7939 7.38879 16.0038 8.5637 16.0039 10.0499C16.0039 11.5362 14.7939 12.7111 13.3428 12.7111C11.8566 12.711 10.6816 11.501 10.6816 10.0499C10.6817 8.56375 11.8917 7.38886 13.3428 7.38879ZM13.3428 8.96106C12.7409 8.96113 12.254 9.44809 12.2539 10.0499C12.2539 10.6518 12.7409 11.1387 13.3428 11.1388C13.9447 11.1388 14.4316 10.6519 14.4316 10.0499C14.4316 9.44805 13.9447 8.96106 13.3428 8.96106Z" fill="#00FFBC" stroke="#00FFBC" stroke-width="0.3"/>
<path d="M19.9639 8.96106C19.362 8.96113 18.8751 9.44809 18.875 10.0499C18.875 10.6518 19.362 11.1387 19.9639 11.1388C20.5658 11.1388 21.0527 10.6519 21.0527 10.0499C21.0527 9.44805 20.5658 8.96106 19.9639 8.96106ZM22.625 10.0499C22.625 11.5349 21.4489 12.7111 19.9639 12.7111C18.4776 12.711 17.3027 11.501 17.3027 10.0499C17.3028 8.56375 18.5128 7.38886 19.9639 7.38879C21.4181 7.38879 22.5906 8.56663 22.625 10.047V10.0499Z" fill="#00FFBC" stroke="#00FFBC" stroke-width="0.3"/>
</svg>
