<svg width="27" height="26" viewBox="0 0 27 26" fill="none" xmlns="http://www.w3.org/2000/svg">
<path d="M21.9531 0.149414C24.4815 0.149506 26.538 2.20603 26.5381 4.73438V15.332C26.5381 17.8605 24.4815 19.9169 21.9531 19.917H14.0576L8.55762 25.3203L8.55078 25.3271L8.54297 25.333C8.12573 25.6459 7.6702 25.7871 7.21387 25.7871C6.85806 25.7871 6.50706 25.68 6.19531 25.5068L6.19141 25.5049C5.48866 25.0832 5.10201 24.2757 5.23926 23.4346H5.23828L5.64355 19.917H4.73535C2.20695 19.9169 0.150391 17.8605 0.150391 15.332V4.73438C0.150506 2.20605 2.20702 0.149529 4.73535 0.149414H21.9531ZM7.26562 19.0068C7.26738 19.0133 7.27002 19.022 7.27441 19.0352C7.27817 19.0464 7.28374 19.0632 7.28809 19.0791C7.29191 19.0932 7.2988 19.1189 7.29883 19.1475V19.2217L7.29785 19.2305L6.77539 23.6328V23.6377C6.74844 23.8129 6.78921 23.9313 6.83984 24.0117C6.89259 24.0955 6.96182 24.1467 7.00391 24.1748C7.07324 24.221 7.29138 24.3205 7.54395 24.1484L13.1729 18.5518C13.3465 18.3784 13.5939 18.3457 13.7686 18.3457H21.9531C23.6301 18.3456 24.9658 16.9784 24.9658 15.332V15.1826H24.999V4.73438C24.9989 3.05745 23.6317 1.72168 21.9854 1.72168H4.73535C3.0585 1.72179 1.72277 3.08811 1.72266 4.73438V15.3975C1.72266 17.0744 3.08902 18.411 4.73535 18.4111H6.59473C6.65432 18.4112 6.69908 18.4261 6.72754 18.4375C6.73519 18.4406 6.73946 18.4422 6.74219 18.4434H6.78711L6.82324 18.4795C6.87172 18.4876 6.90825 18.511 6.92871 18.5264C6.94033 18.5351 6.95085 18.5454 6.96094 18.5547C6.98984 18.5655 7.01196 18.581 7.02637 18.5918C7.04038 18.6023 7.05286 18.6151 7.06445 18.626C7.07311 18.6301 7.08261 18.6329 7.09082 18.6387C7.11901 18.6584 7.13546 18.6827 7.14258 18.6934C7.14636 18.699 7.15065 18.7053 7.15234 18.708C7.15437 18.7113 7.15532 18.7134 7.15625 18.7148L7.15723 18.7158C7.19394 18.7527 7.21136 18.7902 7.22266 18.8184C7.23387 18.8464 7.23748 18.8597 7.25 18.8848L7.26562 18.917V19.0068Z" fill="white" stroke="white" stroke-width="0.3"/>
<path d="M6.72168 7.38867C8.20665 7.38867 9.38275 8.56485 9.38281 10.0498C9.38281 11.5348 8.2067 12.7109 6.72168 12.7109C5.23546 12.7109 4.06055 11.5009 4.06055 10.0498C4.06062 8.56363 5.27064 7.38874 6.72168 7.38867ZM6.72168 8.96094C6.11984 8.96101 5.63288 9.44797 5.63281 10.0498C5.63281 10.6517 6.1198 11.1386 6.72168 11.1387C7.33047 11.1387 7.83961 10.6465 7.81152 10.0566L7.81055 10.0498C7.81048 9.44792 7.32358 8.96094 6.72168 8.96094Z" fill="white" stroke="white" stroke-width="0.3"/>
<path d="M13.3428 7.38867C14.7939 7.38867 16.0038 8.56358 16.0039 10.0498C16.0039 11.5361 14.7939 12.7109 13.3428 12.7109C11.8566 12.7109 10.6816 11.5009 10.6816 10.0498C10.6817 8.56363 11.8917 7.38874 13.3428 7.38867ZM13.3428 8.96094C12.7409 8.96101 12.254 9.44797 12.2539 10.0498C12.2539 10.6517 12.7409 11.1386 13.3428 11.1387C13.9447 11.1387 14.4316 10.6517 14.4316 10.0498C14.4316 9.44792 13.9447 8.96094 13.3428 8.96094Z" fill="white" stroke="white" stroke-width="0.3"/>
<path d="M19.9639 8.96094C19.362 8.96101 18.8751 9.44797 18.875 10.0498C18.875 10.6517 19.362 11.1386 19.9639 11.1387C20.5658 11.1387 21.0527 10.6517 21.0527 10.0498C21.0527 9.44792 20.5658 8.96094 19.9639 8.96094ZM22.625 10.0498C22.625 11.5348 21.4489 12.7109 19.9639 12.7109C18.4776 12.7109 17.3027 11.5009 17.3027 10.0498C17.3028 8.56363 18.5128 7.38874 19.9639 7.38867C21.4181 7.38867 22.5906 8.56651 22.625 10.0469V10.0498Z" fill="white" stroke="white" stroke-width="0.3"/>
</svg>
