<svg width="24" height="24" viewBox="0 0 24 24" fill="none" xmlns="http://www.w3.org/2000/svg">
<path d="M18.8865 2.22342C20.9258 2.22342 22.5847 3.8823 22.5847 5.92166V14.4002C22.5846 16.4394 20.9257 18.0974 18.8865 18.0974H12.5828L8.19214 22.4109L8.1853 22.4187L8.17651 22.4246C7.83762 22.6786 7.46689 22.7937 7.09546 22.7937C6.80502 22.7937 6.5193 22.7067 6.26636 22.5662L6.26147 22.5633C5.68739 22.2186 5.37255 21.5579 5.48706 20.8709L5.80542 18.0974H5.11304C3.07377 18.0974 1.41495 16.4394 1.41479 14.4002V5.92166C1.41479 3.8823 3.07367 2.22342 5.11304 2.22342H18.8865ZM7.16772 17.3367C7.16886 17.3404 7.17026 17.3453 7.17261 17.3523C7.17555 17.3611 7.18058 17.3757 7.18433 17.3894C7.18756 17.4013 7.1931 17.425 7.19312 17.4519V17.5135L7.19214 17.5222L6.77515 21.0437L6.77417 21.0486C6.75374 21.1814 6.78426 21.2695 6.82104 21.3279C6.85993 21.3897 6.9118 21.4275 6.94409 21.449C6.99374 21.4821 7.15316 21.555 7.34058 21.4285L11.8416 16.9549C11.9889 16.8075 12.1965 16.7801 12.3386 16.7801H18.8865C20.2112 16.7801 21.2672 15.7008 21.2673 14.4002V14.2498H21.2937V5.92166C21.2937 4.59681 20.2136 3.5408 18.9128 3.5408H5.11304C3.78819 3.5408 2.73218 4.62089 2.73218 5.92166V14.4519C2.73218 15.7768 3.81226 16.8328 5.11304 16.8328H6.60034C6.65339 16.8329 6.69312 16.8465 6.71753 16.8562C6.71906 16.8568 6.72082 16.8575 6.72241 16.8582H6.76636L6.79663 16.8885C6.83823 16.8973 6.86882 16.9189 6.8855 16.9314C6.89356 16.9375 6.90078 16.9446 6.90796 16.951C6.93289 16.9609 6.95172 16.9743 6.96362 16.9832C6.9748 16.9916 6.98464 17.0019 6.9939 17.0105C7.00051 17.014 7.00807 17.0159 7.0144 17.0203C7.04183 17.0395 7.05801 17.0628 7.06421 17.0721C7.08164 17.0982 7.072 17.0857 7.07104 17.0847C7.10479 17.1185 7.12091 17.1533 7.13062 17.1775C7.14018 17.2014 7.14192 17.2099 7.15112 17.2283L7.16772 17.2605V17.3367Z" fill="black" stroke="black" stroke-width="0.3"/>
<path d="M6.7041 8.01465C7.90864 8.0147 8.8623 8.96928 8.8623 10.1738C8.86226 11.3783 7.90861 12.332 6.7041 12.332C5.49829 12.332 4.54497 11.351 4.54492 10.1738C4.54492 8.96798 5.52688 8.01465 6.7041 8.01465ZM6.7041 9.33203C6.23912 9.33203 5.8623 9.70884 5.8623 10.1738C5.86235 10.6388 6.23915 11.0146 6.7041 11.0146C7.1759 11.0146 7.56747 10.6336 7.5459 10.1807L7.54492 10.1738C7.54492 9.70888 7.16904 9.33208 6.7041 9.33203Z" fill="black" stroke="black" stroke-width="0.3"/>
<path d="M12 8.01477C13.1772 8.01482 14.1582 8.96813 14.1582 10.174C14.1582 11.3797 13.1772 12.3321 12 12.3322C10.7942 12.3322 9.84087 11.3511 9.84082 10.174C9.84082 8.9681 10.8228 8.01477 12 8.01477ZM12 9.33215C11.535 9.33215 11.1582 9.70897 11.1582 10.174C11.1583 10.6389 11.535 11.0148 12 11.0148C12.4649 11.0147 12.8408 10.6389 12.8408 10.174C12.8408 9.709 12.4649 9.3322 12 9.33215Z" fill="black" stroke="black" stroke-width="0.3"/>
<path d="M17.2958 9.33215C16.8308 9.33215 16.454 9.70897 16.454 10.174C16.454 10.6389 16.8308 11.0148 17.2958 11.0148C17.7607 11.0147 18.1365 10.6389 18.1366 10.174C18.1366 9.709 17.7607 9.3322 17.2958 9.33215ZM19.454 10.174C19.4539 11.3785 18.5003 12.3321 17.2958 12.3322C16.09 12.3322 15.1366 11.3511 15.1366 10.174C15.1366 8.9681 16.1186 8.01477 17.2958 8.01477C18.476 8.01482 19.4259 8.9703 19.454 10.17V10.174Z" fill="black" stroke="black" stroke-width="0.3"/>
</svg>
