<svg width="20" height="20" viewBox="0 0 20 20" fill="none" xmlns="http://www.w3.org/2000/svg">
<g clip-path="url(#clip0_2081_74561)">
<path d="M10 16.6665V18.3332" stroke="#007595" stroke-width="1.66667" stroke-linecap="round" stroke-linejoin="round"/>
<path d="M10 1.6665V3.33317" stroke="#007595" stroke-width="1.66667" stroke-linecap="round" stroke-linejoin="round"/>
<path d="M14.1667 16.6665V18.3332" stroke="#007595" stroke-width="1.66667" stroke-linecap="round" stroke-linejoin="round"/>
<path d="M14.1667 1.6665V3.33317" stroke="#007595" stroke-width="1.66667" stroke-linecap="round" stroke-linejoin="round"/>
<path d="M1.66675 10H3.33341" stroke="#007595" stroke-width="1.66667" stroke-linecap="round" stroke-linejoin="round"/>
<path d="M1.66675 14.1665H3.33341" stroke="#007595" stroke-width="1.66667" stroke-linecap="round" stroke-linejoin="round"/>
<path d="M1.66675 5.8335H3.33341" stroke="#007595" stroke-width="1.66667" stroke-linecap="round" stroke-linejoin="round"/>
<path d="M16.6667 10H18.3334" stroke="#007595" stroke-width="1.66667" stroke-linecap="round" stroke-linejoin="round"/>
<path d="M16.6667 14.1665H18.3334" stroke="#007595" stroke-width="1.66667" stroke-linecap="round" stroke-linejoin="round"/>
<path d="M16.6667 5.8335H18.3334" stroke="#007595" stroke-width="1.66667" stroke-linecap="round" stroke-linejoin="round"/>
<path d="M5.83325 16.6665V18.3332" stroke="#007595" stroke-width="1.66667" stroke-linecap="round" stroke-linejoin="round"/>
<path d="M5.83325 1.6665V3.33317" stroke="#007595" stroke-width="1.66667" stroke-linecap="round" stroke-linejoin="round"/>
<path d="M14.9999 3.3335H4.99992C4.07944 3.3335 3.33325 4.07969 3.33325 5.00016V15.0002C3.33325 15.9206 4.07944 16.6668 4.99992 16.6668H14.9999C15.9204 16.6668 16.6666 15.9206 16.6666 15.0002V5.00016C16.6666 4.07969 15.9204 3.3335 14.9999 3.3335Z" stroke="#007595" stroke-width="1.66667" stroke-linecap="round" stroke-linejoin="round"/>
<path d="M12.5001 6.6665H7.50008C7.03984 6.6665 6.66675 7.0396 6.66675 7.49984V12.4998C6.66675 12.9601 7.03984 13.3332 7.50008 13.3332H12.5001C12.9603 13.3332 13.3334 12.9601 13.3334 12.4998V7.49984C13.3334 7.0396 12.9603 6.6665 12.5001 6.6665Z" stroke="#007595" stroke-width="1.66667" stroke-linecap="round" stroke-linejoin="round"/>
</g>
<defs>
<clipPath id="clip0_2081_74561">
<rect width="20" height="20" fill="white"/>
</clipPath>
</defs>
</svg>
