<svg width="20" height="20" viewBox="0 0 20 20" fill="none" xmlns="http://www.w3.org/2000/svg">
<path d="M2.5 8.33317H1.875C1.875 8.67817 2.155 8.95817 2.5 8.95817V8.33317ZM2.5 11.6665V11.0415C2.33424 11.0415 2.17527 11.1074 2.05806 11.2246C1.94085 11.3418 1.875 11.5007 1.875 11.6665H2.5ZM17.5 8.33317V8.95817C17.6658 8.95817 17.8247 8.89232 17.9419 8.77511C18.0592 8.6579 18.125 8.49893 18.125 8.33317H17.5ZM17.5 11.6665H18.125C18.125 11.5007 18.0592 11.3418 17.9419 11.2246C17.8247 11.1074 17.6658 11.0415 17.5 11.0415V11.6665ZM4.16667 4.7915H8.33333V3.5415H4.16667V4.7915ZM8.33333 4.7915H15.8333V3.5415H8.33333V4.7915ZM15.8333 15.2082H8.33333V16.4582H15.8333V15.2082ZM8.33333 15.2082H4.16667V16.4582H8.33333V15.2082ZM7.70833 4.1665V15.8332H8.95833V4.1665H7.70833ZM3.23667 9.26317C3.33342 9.3599 3.41018 9.47475 3.46254 9.60115C3.51491 9.72754 3.54186 9.86302 3.54186 9.99984C3.54186 10.1367 3.51491 10.2721 3.46254 10.3985C3.41018 10.5249 3.33342 10.6398 3.23667 10.7365L4.12 11.6198C4.54975 11.1901 4.79118 10.6072 4.79118 9.99942C4.79118 9.39165 4.54975 8.80877 4.12 8.379L3.23667 9.26317ZM16.7633 10.7365C16.6666 10.6398 16.5898 10.5249 16.5375 10.3985C16.4851 10.2721 16.4581 10.1367 16.4581 9.99984C16.4581 9.86302 16.4851 9.72754 16.5375 9.60115C16.5898 9.47475 16.6666 9.3599 16.7633 9.26317L15.88 8.37984C15.4503 8.80961 15.2088 9.39248 15.2088 10.0003C15.2088 10.608 15.4503 11.1909 15.88 11.6207L16.7633 10.7365ZM2.5 8.95817C2.7675 8.95817 3.03333 9.05984 3.23667 9.26317L4.12 8.379C3.90756 8.16581 3.65508 7.99754 3.37706 7.88227C3.09904 7.767 2.80097 7.70783 2.5 7.70817V8.95817ZM3.125 8.33317V5.83317H1.875V8.33317H3.125ZM3.125 14.1665V11.6665H1.875V14.1665H3.125ZM3.23667 10.7365C3.1402 10.8336 3.0254 10.9106 2.89893 10.9629C2.77247 11.0153 2.63687 11.042 2.5 11.0415V12.2915C3.08583 12.2915 3.67333 12.0673 4.12083 11.6198L3.23667 10.7365ZM16.7633 9.26317C16.9667 9.05984 17.2325 8.95817 17.5 8.95817V7.70817C16.9142 7.70817 16.3275 7.93234 15.88 8.37984L16.7633 9.26317ZM16.875 5.83317V8.33317H18.125V5.83317H16.875ZM16.875 11.6665V14.1665H18.125V11.6665H16.875ZM17.5 11.0415C17.2325 11.0415 16.9667 10.9398 16.7633 10.7365L15.88 11.6207C16.0924 11.8339 16.3449 12.0021 16.6229 12.1174C16.901 12.2327 17.199 12.2918 17.5 12.2915V11.0415ZM4.16667 15.2082C3.59167 15.2082 3.125 14.7415 3.125 14.1665H1.875C1.875 14.7743 2.11644 15.3572 2.54621 15.787C2.97598 16.2167 3.55888 16.4582 4.16667 16.4582V15.2082ZM15.8333 16.4582C16.4411 16.4582 17.024 16.2167 17.4538 15.787C17.8836 15.3572 18.125 14.7743 18.125 14.1665H16.875C16.875 14.7415 16.4083 15.2082 15.8333 15.2082V16.4582ZM15.8333 4.7915C16.4083 4.7915 16.875 5.25817 16.875 5.83317H18.125C18.125 5.22538 17.8836 4.64249 17.4538 4.21272C17.024 3.78295 16.4411 3.5415 15.8333 3.5415V4.7915ZM4.16667 3.5415C3.55888 3.5415 2.97598 3.78295 2.54621 4.21272C2.11644 4.64249 1.875 5.22538 1.875 5.83317H3.125C3.125 5.25817 3.59167 4.7915 4.16667 4.7915V3.5415Z" fill="#04C18F" fill-opacity="0.8"/>
</svg>
