<svg width="17" height="13" viewBox="0 0 17 13" fill="none" xmlns="http://www.w3.org/2000/svg">
<path d="M0.625 4.79167H0C0 5.13667 0.28 5.41667 0.625 5.41667V4.79167ZM0.625 8.125V7.5C0.45924 7.5 0.300268 7.56585 0.183058 7.68306C0.0658479 7.80027 0 7.95924 0 8.125H0.625ZM15.625 4.79167V5.41667C15.7908 5.41667 15.9497 5.35082 16.0669 5.23361C16.1842 5.1164 16.25 4.95743 16.25 4.79167H15.625ZM15.625 8.125H16.25C16.25 7.95924 16.1842 7.80027 16.0669 7.68306C15.9497 7.56585 15.7908 7.5 15.625 7.5V8.125ZM2.29167 1.25H6.45833V0H2.29167V1.25ZM6.45833 1.25H13.9583V0H6.45833V1.25ZM13.9583 11.6667H6.45833V12.9167H13.9583V11.6667ZM6.45833 11.6667H2.29167V12.9167H6.45833V11.6667ZM5.83333 0.625V12.2917H7.08333V0.625H5.83333ZM1.36167 5.72167C1.45842 5.8184 1.53518 5.93324 1.58754 6.05964C1.63991 6.18604 1.66686 6.32152 1.66686 6.45833C1.66686 6.59515 1.63991 6.73063 1.58754 6.85703C1.53518 6.98342 1.45842 7.09827 1.36167 7.195L2.245 8.07833C2.67475 7.64857 2.91618 7.06569 2.91618 6.45792C2.91618 5.85015 2.67475 5.26727 2.245 4.8375L1.36167 5.72167ZM14.8883 7.195C14.7916 7.09827 14.7148 6.98342 14.6625 6.85703C14.6101 6.73063 14.5831 6.59515 14.5831 6.45833C14.5831 6.32152 14.6101 6.18604 14.6625 6.05964C14.7148 5.93324 14.7916 5.8184 14.8883 5.72167L14.005 4.83833C13.5753 5.2681 13.3338 5.85098 13.3338 6.45875C13.3338 7.06652 13.5753 7.6494 14.005 8.07917L14.8883 7.195ZM0.625 5.41667C0.8925 5.41667 1.15833 5.51833 1.36167 5.72167L2.245 4.8375C2.03256 4.6243 1.78008 4.45604 1.50206 4.34077C1.22404 4.2255 0.925969 4.16633 0.625 4.16667V5.41667ZM1.25 4.79167V2.29167H0V4.79167H1.25ZM1.25 10.625V8.125H0V10.625H1.25ZM1.36167 7.195C1.2652 7.29209 1.1504 7.36905 1.02393 7.42141C0.897474 7.47377 0.761871 7.50048 0.625 7.5V8.75C1.21083 8.75 1.79833 8.52583 2.24583 8.07833L1.36167 7.195ZM14.8883 5.72167C15.0917 5.51833 15.3575 5.41667 15.625 5.41667V4.16667C15.0392 4.16667 14.4525 4.39083 14.005 4.83833L14.8883 5.72167ZM15 2.29167V4.79167H16.25V2.29167H15ZM15 8.125V10.625H16.25V8.125H15ZM15.625 7.5C15.3575 7.5 15.0917 7.39833 14.8883 7.195L14.005 8.07917C14.2174 8.29237 14.4699 8.46063 14.7479 8.5759C15.026 8.69117 15.324 8.75034 15.625 8.75V7.5ZM2.29167 11.6667C1.71667 11.6667 1.25 11.2 1.25 10.625H0C0 11.2328 0.241443 11.8157 0.671214 12.2455C1.10098 12.6752 1.68388 12.9167 2.29167 12.9167V11.6667ZM13.9583 12.9167C14.5661 12.9167 15.149 12.6752 15.5788 12.2455C16.0086 11.8157 16.25 11.2328 16.25 10.625H15C15 11.2 14.5333 11.6667 13.9583 11.6667V12.9167ZM13.9583 1.25C14.5333 1.25 15 1.71667 15 2.29167H16.25C16.25 1.68388 16.0086 1.10098 15.5788 0.671214C15.149 0.241443 14.5661 0 13.9583 0V1.25ZM2.29167 0C1.68388 0 1.10098 0.241443 0.671214 0.671214C0.241443 1.10098 0 1.68388 0 2.29167H1.25C1.25 1.71667 1.71667 1.25 2.29167 1.25V0Z" fill="#04C18F"/>
</svg>
