<svg width="68" height="68" viewBox="0 0 68 68" fill="none" xmlns="http://www.w3.org/2000/svg">
<path d="M52.0392 58.3669C48.167 58.3669 43.917 56.7614 43.917 53.2669V30.128C43.917 29.6558 44.3892 29.1836 44.8614 29.1836C45.3337 29.1836 45.8059 29.6558 45.8059 30.128V53.2669C45.8059 55.3447 49.017 56.478 52.0392 56.478C55.0614 56.478 58.0837 55.3447 58.0837 53.2669V30.128C58.0837 29.6558 58.5559 29.1836 59.0281 29.1836C59.5003 29.1836 59.9725 29.6558 59.9725 30.128V53.2669C59.9725 56.7614 55.817 58.3669 52.0392 58.3669Z" fill="#C8C8C8"/>
<path d="M51.9448 34.1885C47.4114 34.1885 43.917 32.394 43.917 29.9385C43.917 27.4829 47.4114 25.6885 51.9448 25.6885C56.4781 25.6885 59.9725 27.4829 59.9725 29.9385C59.9725 32.394 56.4781 34.1885 51.9448 34.1885ZM51.9448 27.6718C48.167 27.6718 45.8059 29.0885 45.8059 30.0329C45.8059 30.9774 48.167 32.394 51.9448 32.394C55.7225 32.394 58.0837 30.9774 58.0837 30.0329C58.0837 29.0885 55.6281 27.6718 51.9448 27.6718Z" fill="#C8C8C8"/>
<path d="M51.9445 39.1944C47.7889 39.1944 44.4833 37.5889 44.0111 35.2278C43.9167 34.7556 44.2 34.1889 44.7667 34.0944C45.3333 34 45.8056 34.2833 45.9 34.85C46.1833 36.0778 48.5445 37.3056 52.0389 37.3056C55.4389 37.3056 57.8945 35.9833 58.1778 34.7556C58.2722 34.2833 58.8389 34 59.3111 34.0944C59.7833 34.1889 60.0667 34.7556 59.9722 35.2278C59.2167 37.5889 56.0056 39.1944 51.9445 39.1944Z" fill="#C8C8C8"/>
<path d="M51.9441 44.011C47.5997 44.011 44.3886 42.4999 43.9163 40.2333C43.8219 39.761 44.1052 39.1944 44.6719 39.0999C45.2386 39.0055 45.7108 39.2888 45.8052 39.8555C45.9941 40.9888 48.2608 42.1221 51.9441 42.1221C55.533 42.1221 57.7052 40.9888 58.083 39.8555C58.1774 39.3833 58.7441 39.0999 59.2163 39.1944C59.6886 39.2888 59.9719 39.8555 59.8774 40.3277C59.2163 42.4999 56.0997 44.011 51.9441 44.011Z" fill="#C8C8C8"/>
<path d="M51.9445 48.8282C47.7889 48.8282 44.4833 47.2226 44.0111 44.8615C43.9167 44.3893 44.2 43.8226 44.7667 43.7282C45.3333 43.6337 45.8056 43.9171 45.9 44.4837C46.1833 45.7115 48.5445 46.9393 52.0389 46.9393C55.4389 46.9393 57.8945 45.6171 58.1778 44.3893C58.2722 43.9171 58.8389 43.6337 59.3111 43.7282C59.7833 43.8226 60.0667 44.3893 59.9722 44.8615C59.3111 47.2226 56.0056 48.8282 51.9445 48.8282Z" fill="#C8C8C8"/>
<path d="M51.9445 53.6444C47.7889 53.6444 44.4833 52.0389 44.0111 49.6778C43.9167 49.2056 44.2 48.6389 44.7667 48.5444C45.2389 48.45 45.8056 48.7333 45.9 49.3C46.1833 50.5278 48.5445 51.7556 52.0389 51.7556C55.4389 51.7556 57.8945 50.4333 58.1778 49.2056C58.2722 48.7333 58.8389 48.45 59.3111 48.5444C59.7833 48.6389 60.0667 49.2056 59.9722 49.6778C59.2167 52.0389 56.0056 53.6444 51.9445 53.6444Z" fill="#C8C8C8"/>
<path d="M33.2444 47.3163C28.6166 47.3163 25.2166 45.5219 25.2166 43.0663C25.2166 40.6107 28.7111 38.8163 33.2444 38.8163C37.7777 38.8163 41.2722 40.6107 41.2722 43.0663C41.2722 45.5219 37.8722 47.3163 33.2444 47.3163ZM33.2444 40.7052C29.4666 40.7052 27.1055 42.1219 27.1055 43.0663C27.1055 44.0107 29.4666 45.4274 33.2444 45.4274C37.0222 45.4274 39.3833 44.0107 39.3833 43.0663C39.3833 42.1219 37.0222 40.7052 33.2444 40.7052Z" fill="#C8C8C8"/>
<path d="M33.2444 51.8496C29.0888 51.8496 25.7833 50.2441 25.311 47.883C25.2166 47.4108 25.4999 46.8441 26.0666 46.7496C26.6333 46.6552 27.1055 46.9385 27.1999 47.5052C27.4833 48.733 29.8444 49.9608 33.3388 49.9608C36.7388 49.9608 39.1944 48.6385 39.4777 47.4108C39.5722 46.9385 40.1388 46.6552 40.611 46.7496C41.0833 46.8441 41.3666 47.4108 41.2722 47.883C40.6111 50.2441 37.3055 51.8496 33.2444 51.8496Z" fill="#C8C8C8"/>
<path d="M33.2442 56.289C29.0886 56.289 25.7831 54.6834 25.3109 52.3223C25.2164 51.8501 25.4998 51.2834 26.0664 51.189C26.5386 51.0945 27.1053 51.3779 27.1998 51.9445C27.4831 53.1723 29.8442 54.4001 33.3386 54.4001C36.7386 54.4001 39.1942 53.0779 39.4775 51.8501C39.572 51.3779 40.1386 51.0945 40.6109 51.189C41.0831 51.2834 41.3664 51.8501 41.272 52.3223C40.6109 54.6834 37.3053 56.289 33.2442 56.289Z" fill="#C8C8C8"/>
<path d="M33.3389 61.1056C29.4667 61.1056 25.2167 59.5 25.2167 56.0056V43.1611C25.2167 42.6889 25.6889 42.2167 26.1611 42.2167C26.6333 42.2167 27.1056 42.6889 27.1056 43.1611V56.0056C27.1056 58.0833 30.3167 59.2167 33.3389 59.2167C36.3611 59.2167 39.3833 58.0833 39.3833 56.0056V43.5389C39.3833 43.0667 39.8556 42.5944 40.3278 42.5944C40.8 42.5944 41.2722 43.0667 41.2722 43.5389V55.9111C41.3667 59.5 37.2111 61.1056 33.3389 61.1056Z" fill="#C8C8C8"/>
<path d="M14.4503 56.3835C10.5781 56.3835 6.32812 54.7779 6.32812 51.2835V43.4446C6.32812 42.9724 6.7059 42.5001 7.27257 42.5001C7.83924 42.5001 8.21701 42.8779 8.21701 43.4446L8.31146 51.2835C8.31146 53.3612 11.5226 54.4946 14.5448 54.4946C17.567 54.4946 20.5892 53.3612 20.5892 51.2835V43.1612C20.5892 42.689 21.0615 42.2168 21.5337 42.2168C22.0059 42.2168 22.4781 42.689 22.4781 43.1612V51.2835C22.3837 54.7779 18.3226 56.3835 14.4503 56.3835Z" fill="#C8C8C8"/>
<path d="M14.3555 51.8496C10.2 51.8496 6.89442 50.2441 6.42219 47.883C6.32775 47.4108 6.61108 46.8441 7.17775 46.7496C7.64997 46.6552 8.21664 46.9385 8.31108 47.5052C8.59442 48.733 10.9555 49.9608 14.45 49.9608C17.85 49.9608 20.2111 48.6385 20.5889 47.4108C20.6833 46.9385 21.25 46.6552 21.7222 46.7496C22.1944 46.8441 22.5722 47.4108 22.3833 47.883C21.6278 50.2441 18.4166 51.8496 14.3555 51.8496Z" fill="#C8C8C8"/>
<path d="M14.3559 47.5059C9.82257 47.5059 6.32812 45.7114 6.32812 43.2559C6.32812 40.8003 9.82257 39.0059 14.3559 39.0059C18.8892 39.0059 22.3837 40.8003 22.3837 43.2559C22.3837 45.7114 18.9837 47.5059 14.3559 47.5059ZM14.3559 40.9892C10.5781 40.9892 8.21701 42.4059 8.21701 43.3503C8.21701 44.2948 10.5781 45.7114 14.3559 45.7114C18.1337 45.7114 20.4948 44.2948 20.4948 43.3503C20.4948 42.4059 18.1337 40.9892 14.3559 40.9892Z" fill="#C8C8C8"/>
<path d="M21.4386 52.2282C20.9664 52.2282 20.4941 51.756 20.4941 51.2837V43.256C20.4941 42.7837 20.9664 42.3115 21.4386 42.3115C21.9108 42.3115 22.383 42.7837 22.383 43.256V51.2837C22.383 51.756 22.0053 52.2282 21.4386 52.2282Z" fill="#C8C8C8"/>
<path d="M13.5054 33.1496C11.3332 33.1496 9.44434 31.3551 9.44434 29.0885C9.44434 26.8218 11.2388 25.0273 13.5054 25.0273C15.7721 25.0273 17.5666 26.8218 17.5666 29.0885C17.5666 31.3551 15.7721 33.1496 13.5054 33.1496ZM13.5054 27.0107C12.3721 27.0107 11.3332 27.9551 11.3332 29.1829C11.3332 30.4107 12.2777 31.3551 13.5054 31.3551C14.7332 31.3551 15.6777 30.4107 15.6777 29.1829C15.6777 27.9551 14.7332 27.0107 13.5054 27.0107Z" fill="#C8C8C8"/>
<path d="M32.7721 27.8615C30.5999 27.8615 28.711 26.067 28.711 23.8004C28.711 21.5337 30.5054 19.7393 32.7721 19.7393C34.9443 19.7393 36.8332 21.5337 36.8332 23.8004C36.8332 26.067 35.0388 27.8615 32.7721 27.8615ZM32.7721 21.7226C31.6388 21.7226 30.5999 22.667 30.5999 23.8948C30.5999 25.1226 31.5443 26.067 32.7721 26.067C33.9999 26.067 34.9443 25.1226 34.9443 23.8948C34.9443 22.667 33.9999 21.7226 32.7721 21.7226Z" fill="#C8C8C8"/>
<path d="M52.4166 13.6945C50.2444 13.6945 48.3555 11.9 48.3555 9.63338C48.3555 7.46115 50.1499 5.57227 52.4166 5.57227C54.6832 5.57227 56.4777 7.36671 56.4777 9.63338C56.4777 11.9 54.5888 13.6945 52.4166 13.6945ZM52.4166 7.46115C51.2832 7.46115 50.2444 8.4056 50.2444 9.63338C50.2444 10.8612 51.1888 11.8056 52.4166 11.8056C53.6444 11.8056 54.5888 10.8612 54.5888 9.63338C54.5888 8.4056 53.6444 7.46115 52.4166 7.46115Z" fill="#C8C8C8"/>
<path d="M16.6219 30.0329C16.2442 30.0329 15.8664 29.7496 15.6775 29.3718C15.583 28.8996 15.7719 28.3329 16.3386 28.2385L29.5608 24.4607C30.033 24.3662 30.5997 24.5551 30.6942 25.1218C30.883 25.594 30.5053 26.1607 30.033 26.2551L16.8108 30.0329C16.8108 30.0329 16.7164 30.0329 16.6219 30.0329Z" fill="#C8C8C8"/>
<path d="M35.5111 22.9499C35.2278 22.9499 34.9445 22.8555 34.7556 22.5721C34.4722 22.1944 34.5667 21.5333 34.9445 21.2499L48.8278 10.861C49.2056 10.5777 49.8667 10.6721 50.15 11.0499C50.4333 11.4277 50.3389 12.0888 49.9611 12.3721L36.0778 22.761C35.9833 22.8555 35.7 22.9499 35.5111 22.9499Z" fill="#C8C8C8"/>
</svg>
