<svg width="18" height="18" viewBox="0 0 18 18" fill="none" xmlns="http://www.w3.org/2000/svg">
<path d="M11.0565 1.47534H4.41687C4.02555 1.47534 3.65026 1.63079 3.37356 1.9075C3.09686 2.1842 2.94141 2.55949 2.94141 2.95081V14.7545C2.94141 15.1458 3.09686 15.5211 3.37356 15.7978C3.65026 16.0745 4.02555 16.23 4.41687 16.23H13.2697C13.661 16.23 14.0363 16.0745 14.313 15.7978C14.5897 15.5211 14.7451 15.1458 14.7451 14.7545V5.16401L11.0565 1.47534Z" stroke="#0A0A0A" stroke-width="1.47547" stroke-linecap="round" stroke-linejoin="round"/>
<path d="M7.3739 13.2793C8.18878 13.2793 8.84937 12.6187 8.84937 11.8038C8.84937 10.989 8.18878 10.3284 7.3739 10.3284C6.55903 10.3284 5.89844 10.989 5.89844 11.8038C5.89844 12.6187 6.55903 13.2793 7.3739 13.2793Z" stroke="#0A0A0A" stroke-width="1.47547" stroke-linecap="round" stroke-linejoin="round"/>
<path d="M11.7925 7.37769L8.47266 10.6975" stroke="#0A0A0A" stroke-width="1.47547" stroke-linecap="round" stroke-linejoin="round"/>
<path d="M11.0547 8.11523L11.7935 8.85403" stroke="#0A0A0A" stroke-width="1.47547" stroke-linecap="round" stroke-linejoin="round"/>
</svg>
