<svg width="18" height="18" viewBox="0 0 18 18" fill="none" xmlns="http://www.w3.org/2000/svg">
<path d="M2.25 3.9375C2.25 3.48995 2.42779 3.06072 2.74426 2.74426C3.06072 2.42779 3.48995 2.25 3.9375 2.25H11.0625C11.5101 2.25 11.9393 2.42779 12.2557 2.74426C12.5722 3.06072 12.75 3.48995 12.75 3.9375V10.5H15.75V13.3125C15.75 13.959 15.4932 14.579 15.0361 15.0361C14.579 15.4932 13.959 15.75 13.3125 15.75H4.6875C4.04103 15.75 3.42105 15.4932 2.96393 15.0361C2.50681 14.579 2.25 13.959 2.25 13.3125V3.9375ZM12.75 14.625H13.3125C13.6606 14.625 13.9944 14.4867 14.2406 14.2406C14.4867 13.9944 14.625 13.6606 14.625 13.3125V11.625H12.75V14.625ZM3.9375 3.375C3.78832 3.375 3.64524 3.43426 3.53975 3.53975C3.43426 3.64524 3.375 3.78832 3.375 3.9375V13.3125C3.375 14.037 3.963 14.625 4.6875 14.625H11.625V3.9375C11.625 3.78832 11.5657 3.64524 11.4602 3.53975C11.3548 3.43426 11.2117 3.375 11.0625 3.375H3.9375ZM5.4375 5.25C5.28832 5.25 5.14524 5.30926 5.03975 5.41475C4.93426 5.52024 4.875 5.66332 4.875 5.8125C4.875 5.96168 4.93426 6.10476 5.03975 6.21025C5.14524 6.31574 5.28832 6.375 5.4375 6.375H9.5625C9.71168 6.375 9.85476 6.31574 9.96025 6.21025C10.0657 6.10476 10.125 5.96168 10.125 5.8125C10.125 5.66332 10.0657 5.52024 9.96025 5.41475C9.85476 5.30926 9.71168 5.25 9.5625 5.25H5.4375ZM4.875 8.8125C4.875 8.66332 4.93426 8.52024 5.03975 8.41475C5.14524 8.30926 5.28832 8.25 5.4375 8.25H9.5625C9.71168 8.25 9.85476 8.30926 9.96025 8.41475C10.0657 8.52024 10.125 8.66332 10.125 8.8125C10.125 8.96168 10.0657 9.10476 9.96025 9.21025C9.85476 9.31574 9.71168 9.375 9.5625 9.375H5.4375C5.28832 9.375 5.14524 9.31574 5.03975 9.21025C4.93426 9.10476 4.875 8.96168 4.875 8.8125ZM5.4375 11.25C5.28832 11.25 5.14524 11.3093 5.03975 11.4148C4.93426 11.5202 4.875 11.6633 4.875 11.8125C4.875 11.9617 4.93426 12.1048 5.03975 12.2102C5.14524 12.3157 5.28832 12.375 5.4375 12.375H7.6875C7.83668 12.375 7.97976 12.3157 8.08525 12.2102C8.19074 12.1048 8.25 11.9617 8.25 11.8125C8.25 11.6633 8.19074 11.5202 8.08525 11.4148C7.97976 11.3093 7.83668 11.25 7.6875 11.25H5.4375Z" fill="#013E32" fill-opacity="0.47"/>
</svg>
