<svg width="16" height="16" viewBox="0 0 16 16" fill="none" xmlns="http://www.w3.org/2000/svg">
<g clip-path="url(#clip0_8619_5206)">
<path d="M1.37761 8.23224C1.32205 8.08256 1.32205 7.91792 1.37761 7.76824C1.91874 6.45614 2.83728 5.33427 4.01679 4.54484C5.19629 3.75541 6.58364 3.33398 8.00294 3.33398C9.42225 3.33398 10.8096 3.75541 11.9891 4.54484C13.1686 5.33427 14.0871 6.45614 14.6283 7.76824C14.6838 7.91792 14.6838 8.08256 14.6283 8.23224C14.0871 9.54434 13.1686 10.6662 11.9891 11.4556C10.8096 12.2451 9.42225 12.6665 8.00294 12.6665C6.58364 12.6665 5.19629 12.2451 4.01679 11.4556C2.83728 10.6662 1.91874 9.54434 1.37761 8.23224Z" stroke="#0A0A0A" stroke-width="1.33333" stroke-linecap="round" stroke-linejoin="round"/>
<path d="M8 10C9.10457 10 10 9.10457 10 8C10 6.89543 9.10457 6 8 6C6.89543 6 6 6.89543 6 8C6 9.10457 6.89543 10 8 10Z" stroke="#0A0A0A" stroke-width="1.33333" stroke-linecap="round" stroke-linejoin="round"/>
</g>
<defs>
<clipPath id="clip0_8619_5206">
<rect width="16" height="16" fill="white"/>
</clipPath>
</defs>
</svg>
